solid OpenSCAD_Model
  facet normal 0 -1 0
    outer loop
      vertex 9.6 11.55 4
      vertex -9.6 11.55 4
      vertex -9.6 11.55 0
    endloop
  endfacet
  facet normal 0 -1 0
    outer loop
      vertex 9.6 11.55 0
      vertex 9.6 11.55 4
      vertex -9.6 11.55 0
    endloop
  endfacet
  facet normal -1 0 0
    outer loop
      vertex -9.6 11.55 4
      vertex -9.6 13.5 4
      vertex -9.6 11.55 0
    endloop
  endfacet
  facet normal -1 0 0
    outer loop
      vertex -9.6 11.55 0
      vertex -9.6 13.5 4
      vertex -9.6 13.5 3.3
    endloop
  endfacet
  facet normal -1 0 0
    outer loop
      vertex -9.6 11.55 0
      vertex -9.6 13.5 3.3
      vertex -9.6 13.5 2.6
    endloop
  endfacet
  facet normal -1 0 0
    outer loop
      vertex -9.6 11.55 0
      vertex -9.6 13.5 2.6
      vertex -9.6 20.5 2.6
    endloop
  endfacet
  facet normal -1 0 0
    outer loop
      vertex -9.6 20.5 2.6
      vertex -9.6 26.4 4
      vertex -9.6 11.55 0
    endloop
  endfacet
  facet normal -1 0 0
    outer loop
      vertex -9.6 20.5 4
      vertex -9.6 26.4 4
      vertex -9.6 20.5 2.6
    endloop
  endfacet
  facet normal -1 0 0
    outer loop
      vertex -9.6 11.55 0
      vertex -9.6 26.4 4
      vertex -9.6 26.4 0
    endloop
  endfacet
  facet normal 0 0 1
    outer loop
      vertex -9.6 13.5 4
      vertex -9.6 11.55 4
      vertex 9.6 11.55 4
    endloop
  endfacet
  facet normal 0 0 1
    outer loop
      vertex 9.6 13.5 4
      vertex -9.6 13.5 4
      vertex 9.6 11.55 4
    endloop
  endfacet
  facet normal 1 0 0
    outer loop
      vertex 9.6 13.5 4
      vertex 9.6 11.55 4
      vertex 9.6 11.55 0
    endloop
  endfacet
  facet normal 1 0 0
    outer loop
      vertex 9.6 13.5 3.3
      vertex 9.6 13.5 4
      vertex 9.6 11.55 0
    endloop
  endfacet
  facet normal 1 0 0
    outer loop
      vertex 9.6 20.5 4
      vertex 9.6 20.5 2.6
      vertex 9.6 26.4 0
    endloop
  endfacet
  facet normal 1 0 0
    outer loop
      vertex 9.6 26.4 4
      vertex 9.6 20.5 4
      vertex 9.6 26.4 0
    endloop
  endfacet
  facet normal 1 0 0
    outer loop
      vertex 9.6 26.4 0
      vertex 9.6 13.5 2.6
      vertex 9.6 11.55 0
    endloop
  endfacet
  facet normal 1 0 0
    outer loop
      vertex 9.6 13.5 2.6
      vertex 9.6 13.5 3.3
      vertex 9.6 11.55 0
    endloop
  endfacet
  facet normal 1 0 0
    outer loop
      vertex 9.6 20.5 2.6
      vertex 9.6 13.5 2.6
      vertex 9.6 26.4 0
    endloop
  endfacet
  facet normal 0 0 -1
    outer loop
      vertex -4.14268 22.9509 0
      vertex -9.6 26.4 0
      vertex 9.6 26.4 0
    endloop
  endfacet
  facet normal 0 0 -1
    outer loop
      vertex -9.6 11.55 0
      vertex -9.6 26.4 0
      vertex -6.6 21.6 0
    endloop
  endfacet
  facet normal 0 0 -1
    outer loop
      vertex -9.6 11.55 0
      vertex -6.6 21.6 0
      vertex -6.58738 21.3995 0
    endloop
  endfacet
  facet normal 0 0 -1
    outer loop
      vertex -9.6 11.55 0
      vertex -6.58738 21.3995 0
      vertex -6.54973 21.2021 0
    endloop
  endfacet
  facet normal 0 0 -1
    outer loop
      vertex -9.6 11.55 0
      vertex -6.54973 21.2021 0
      vertex -6.48764 21.011 0
    endloop
  endfacet
  facet normal 0 0 -1
    outer loop
      vertex -9.6 11.55 0
      vertex -6.48764 21.011 0
      vertex -6.40209 20.8292 0
    endloop
  endfacet
  facet normal 0 0 -1
    outer loop
      vertex -9.6 11.55 0
      vertex -6.40209 20.8292 0
      vertex -6.29443 20.6595 0
    endloop
  endfacet
  facet normal 0 0 -1
    outer loop
      vertex -9.6 11.55 0
      vertex -6.29443 20.6595 0
      vertex -6.16635 20.5047 0
    endloop
  endfacet
  facet normal 0 0 -1
    outer loop
      vertex -9.6 11.55 0
      vertex -6.16635 20.5047 0
      vertex -6.01988 20.3672 0
    endloop
  endfacet
  facet normal 0 0 -1
    outer loop
      vertex -9.6 11.55 0
      vertex -6.01988 20.3672 0
      vertex -5.85732 20.2491 0
    endloop
  endfacet
  facet normal 0 0 -1
    outer loop
      vertex -9.6 11.55 0
      vertex -5.85732 20.2491 0
      vertex 9.6 11.55 0
    endloop
  endfacet
  facet normal 0 0 -1
    outer loop
      vertex -5.85732 20.2491 0
      vertex -5.68125 20.1523 0
      vertex 9.6 11.55 0
    endloop
  endfacet
  facet normal 0 0 -1
    outer loop
      vertex -5.29981 20.0283 0
      vertex 9.6 11.55 0
      vertex -5.49443 20.0783 0
    endloop
  endfacet
  facet normal 0 0 -1
    outer loop
      vertex -5.10046 20.0032 0
      vertex 9.6 11.55 0
      vertex -5.29981 20.0283 0
    endloop
  endfacet
  facet normal 0 0 -1
    outer loop
      vertex -4.89953 20.0032 0
      vertex 9.6 11.55 0
      vertex -5.10046 20.0032 0
    endloop
  endfacet
  facet normal 0 0 -1
    outer loop
      vertex -4.70019 20.0283 0
      vertex 9.6 11.55 0
      vertex -4.89953 20.0032 0
    endloop
  endfacet
  facet normal 0 0 -1
    outer loop
      vertex -4.50557 20.0783 0
      vertex 9.6 11.55 0
      vertex -4.70019 20.0283 0
    endloop
  endfacet
  facet normal 0 0 -1
    outer loop
      vertex -4.31875 20.1523 0
      vertex 9.6 11.55 0
      vertex -4.50557 20.0783 0
    endloop
  endfacet
  facet normal 0 0 -1
    outer loop
      vertex -4.14268 20.2491 0
      vertex 9.6 11.55 0
      vertex -4.31875 20.1523 0
    endloop
  endfacet
  facet normal 0 0 -1
    outer loop
      vertex 3.83365 20.5047 0
      vertex 9.6 11.55 0
      vertex 3.70557 20.6595 0
    endloop
  endfacet
  facet normal 0 0 -1
    outer loop
      vertex -3.41262 21.8005 0
      vertex 9.6 11.55 0
      vertex -3.4 21.6 0
    endloop
  endfacet
  facet normal 0 0 -1
    outer loop
      vertex -6.29443 22.5405 0
      vertex -9.6 26.4 0
      vertex -6.16635 22.6953 0
    endloop
  endfacet
  facet normal 0 0 -1
    outer loop
      vertex -4.14268 20.2491 0
      vertex -3.98012 20.3672 0
      vertex 9.6 11.55 0
    endloop
  endfacet
  facet normal 0 0 -1
    outer loop
      vertex -3.98012 20.3672 0
      vertex -3.83365 20.5047 0
      vertex 9.6 11.55 0
    endloop
  endfacet
  facet normal 0 0 -1
    outer loop
      vertex -6.16635 22.6953 0
      vertex -9.6 26.4 0
      vertex -6.01988 22.8328 0
    endloop
  endfacet
  facet normal 0 0 -1
    outer loop
      vertex -3.83365 20.5047 0
      vertex -3.70557 20.6595 0
      vertex 9.6 11.55 0
    endloop
  endfacet
  facet normal 0 0 -1
    outer loop
      vertex -3.70557 20.6595 0
      vertex -3.59791 20.8292 0
      vertex 9.6 11.55 0
    endloop
  endfacet
  facet normal 0 0 -1
    outer loop
      vertex -6.01988 22.8328 0
      vertex -9.6 26.4 0
      vertex -5.85732 22.9509 0
    endloop
  endfacet
  facet normal 0 0 -1
    outer loop
      vertex -3.59791 20.8292 0
      vertex -3.51236 21.011 0
      vertex 9.6 11.55 0
    endloop
  endfacet
  facet normal 0 0 -1
    outer loop
      vertex -5.85732 22.9509 0
      vertex -9.6 26.4 0
      vertex -5.68125 23.0477 0
    endloop
  endfacet
  facet normal 0 0 -1
    outer loop
      vertex -3.51236 21.011 0
      vertex -3.45027 21.2021 0
      vertex 9.6 11.55 0
    endloop
  endfacet
  facet normal 0 0 -1
    outer loop
      vertex -3.45027 21.2021 0
      vertex -3.41262 21.3995 0
      vertex 9.6 11.55 0
    endloop
  endfacet
  facet normal 0 0 -1
    outer loop
      vertex -5.68125 23.0477 0
      vertex -9.6 26.4 0
      vertex -5.49443 23.1217 0
    endloop
  endfacet
  facet normal 0 0 -1
    outer loop
      vertex -3.41262 21.3995 0
      vertex -3.4 21.6 0
      vertex 9.6 11.55 0
    endloop
  endfacet
  facet normal 0 0 -1
    outer loop
      vertex -5.49443 23.1217 0
      vertex -9.6 26.4 0
      vertex -5.29981 23.1717 0
    endloop
  endfacet
  facet normal 0 0 -1
    outer loop
      vertex 4.70019 23.1717 0
      vertex -3.41262 21.8005 0
      vertex 9.6 26.4 0
    endloop
  endfacet
  facet normal 0 0 -1
    outer loop
      vertex -3.41262 21.8005 0
      vertex -3.45027 21.9979 0
      vertex 9.6 26.4 0
    endloop
  endfacet
  facet normal 0 0 -1
    outer loop
      vertex -5.29981 23.1717 0
      vertex -9.6 26.4 0
      vertex -5.10046 23.1968 0
    endloop
  endfacet
  facet normal 0 0 -1
    outer loop
      vertex -3.45027 21.9979 0
      vertex -3.51236 22.189 0
      vertex 9.6 26.4 0
    endloop
  endfacet
  facet normal 0 0 -1
    outer loop
      vertex -5.10046 23.1968 0
      vertex -9.6 26.4 0
      vertex -4.89953 23.1968 0
    endloop
  endfacet
  facet normal 0 0 -1
    outer loop
      vertex -3.51236 22.189 0
      vertex -3.59791 22.3708 0
      vertex 9.6 26.4 0
    endloop
  endfacet
  facet normal 0 0 -1
    outer loop
      vertex -4.89953 23.1968 0
      vertex -9.6 26.4 0
      vertex -4.70019 23.1717 0
    endloop
  endfacet
  facet normal 0 0 -1
    outer loop
      vertex -3.59791 22.3708 0
      vertex -3.70557 22.5405 0
      vertex 9.6 26.4 0
    endloop
  endfacet
  facet normal 0 0 -1
    outer loop
      vertex -4.70019 23.1717 0
      vertex -9.6 26.4 0
      vertex -4.50557 23.1217 0
    endloop
  endfacet
  facet normal 0 0 -1
    outer loop
      vertex -3.70557 22.5405 0
      vertex -3.83365 22.6953 0
      vertex 9.6 26.4 0
    endloop
  endfacet
  facet normal 0 0 -1
    outer loop
      vertex -4.50557 23.1217 0
      vertex -9.6 26.4 0
      vertex -4.31875 23.0477 0
    endloop
  endfacet
  facet normal 0 0 -1
    outer loop
      vertex -3.83365 22.6953 0
      vertex -3.98012 22.8328 0
      vertex 9.6 26.4 0
    endloop
  endfacet
  facet normal 0 0 -1
    outer loop
      vertex -3.98012 22.8328 0
      vertex -4.14268 22.9509 0
      vertex 9.6 26.4 0
    endloop
  endfacet
  facet normal 0 0 -1
    outer loop
      vertex -4.31875 23.0477 0
      vertex -9.6 26.4 0
      vertex -4.14268 22.9509 0
    endloop
  endfacet
  facet normal 0 0 -1
    outer loop
      vertex -6.40209 22.3708 0
      vertex -9.6 26.4 0
      vertex -6.29443 22.5405 0
    endloop
  endfacet
  facet normal 0 0 -1
    outer loop
      vertex -6.48764 22.189 0
      vertex -9.6 26.4 0
      vertex -6.40209 22.3708 0
    endloop
  endfacet
  facet normal 0 0 -1
    outer loop
      vertex -6.54973 21.9979 0
      vertex -9.6 26.4 0
      vertex -6.48764 22.189 0
    endloop
  endfacet
  facet normal 0 0 -1
    outer loop
      vertex -6.58738 21.8005 0
      vertex -9.6 26.4 0
      vertex -6.54973 21.9979 0
    endloop
  endfacet
  facet normal 0 0 -1
    outer loop
      vertex -6.6 21.6 0
      vertex -9.6 26.4 0
      vertex -6.58738 21.8005 0
    endloop
  endfacet
  facet normal 0 0 -1
    outer loop
      vertex 3.41262 21.3995 0
      vertex -3.41262 21.8005 0
      vertex 3.4 21.6 0
    endloop
  endfacet
  facet normal 0 0 -1
    outer loop
      vertex 3.45027 21.2021 0
      vertex -3.41262 21.8005 0
      vertex 3.41262 21.3995 0
    endloop
  endfacet
  facet normal 0 0 -1
    outer loop
      vertex 3.51236 21.011 0
      vertex -3.41262 21.8005 0
      vertex 3.45027 21.2021 0
    endloop
  endfacet
  facet normal 0 0 -1
    outer loop
      vertex 3.59791 20.8292 0
      vertex -3.41262 21.8005 0
      vertex 3.51236 21.011 0
    endloop
  endfacet
  facet normal 0 0 -1
    outer loop
      vertex 3.70557 20.6595 0
      vertex -3.41262 21.8005 0
      vertex 3.59791 20.8292 0
    endloop
  endfacet
  facet normal 0 0 -1
    outer loop
      vertex 9.6 11.55 0
      vertex -3.41262 21.8005 0
      vertex 3.70557 20.6595 0
    endloop
  endfacet
  facet normal 0 0 -1
    outer loop
      vertex 3.98012 20.3672 0
      vertex 9.6 11.55 0
      vertex 3.83365 20.5047 0
    endloop
  endfacet
  facet normal 0 0 -1
    outer loop
      vertex 4.14268 20.2491 0
      vertex 9.6 11.55 0
      vertex 3.98012 20.3672 0
    endloop
  endfacet
  facet normal 0 0 -1
    outer loop
      vertex 4.31875 20.1523 0
      vertex 9.6 11.55 0
      vertex 4.14268 20.2491 0
    endloop
  endfacet
  facet normal 0 0 -1
    outer loop
      vertex 6.48764 21.011 0
      vertex 9.6 26.4 0
      vertex 6.40209 20.8292 0
    endloop
  endfacet
  facet normal 0 0 -1
    outer loop
      vertex 9.6 11.55 0
      vertex 4.31875 20.1523 0
      vertex 4.50557 20.0783 0
    endloop
  endfacet
  facet normal 0 0 -1
    outer loop
      vertex 9.6 11.55 0
      vertex 4.50557 20.0783 0
      vertex 4.70019 20.0283 0
    endloop
  endfacet
  facet normal 0 0 -1
    outer loop
      vertex 9.6 11.55 0
      vertex 4.70019 20.0283 0
      vertex 4.89953 20.0032 0
    endloop
  endfacet
  facet normal 0 0 -1
    outer loop
      vertex 9.6 11.55 0
      vertex 4.89953 20.0032 0
      vertex 5.10046 20.0032 0
    endloop
  endfacet
  facet normal 0 0 -1
    outer loop
      vertex 9.6 11.55 0
      vertex 5.10046 20.0032 0
      vertex 5.29981 20.0283 0
    endloop
  endfacet
  facet normal 0 0 -1
    outer loop
      vertex 9.6 11.55 0
      vertex 5.29981 20.0283 0
      vertex 5.49443 20.0783 0
    endloop
  endfacet
  facet normal 0 0 -1
    outer loop
      vertex 9.6 11.55 0
      vertex 5.49443 20.0783 0
      vertex 5.68125 20.1523 0
    endloop
  endfacet
  facet normal 0 0 -1
    outer loop
      vertex 9.6 11.55 0
      vertex 5.68125 20.1523 0
      vertex 5.85732 20.2491 0
    endloop
  endfacet
  facet normal 0 0 -1
    outer loop
      vertex 9.6 11.55 0
      vertex 5.85732 20.2491 0
      vertex 6.01988 20.3672 0
    endloop
  endfacet
  facet normal 0 0 -1
    outer loop
      vertex 9.6 11.55 0
      vertex 6.01988 20.3672 0
      vertex 6.16635 20.5047 0
    endloop
  endfacet
  facet normal 0 0 -1
    outer loop
      vertex 9.6 11.55 0
      vertex 6.16635 20.5047 0
      vertex 6.29443 20.6595 0
    endloop
  endfacet
  facet normal 0 0 -1
    outer loop
      vertex 9.6 11.55 0
      vertex 6.29443 20.6595 0
      vertex 6.40209 20.8292 0
    endloop
  endfacet
  facet normal 0 0 -1
    outer loop
      vertex 9.6 11.55 0
      vertex 6.40209 20.8292 0
      vertex 9.6 26.4 0
    endloop
  endfacet
  facet normal 0 0 -1
    outer loop
      vertex 6.54973 21.2021 0
      vertex 9.6 26.4 0
      vertex 6.48764 21.011 0
    endloop
  endfacet
  facet normal 0 0 -1
    outer loop
      vertex 6.58738 21.3995 0
      vertex 9.6 26.4 0
      vertex 6.54973 21.2021 0
    endloop
  endfacet
  facet normal 0 0 -1
    outer loop
      vertex 6.6 21.6 0
      vertex 9.6 26.4 0
      vertex 6.58738 21.3995 0
    endloop
  endfacet
  facet normal 0 0 -1
    outer loop
      vertex 6.58738 21.8005 0
      vertex 9.6 26.4 0
      vertex 6.6 21.6 0
    endloop
  endfacet
  facet normal 0 0 -1
    outer loop
      vertex 6.54973 21.9979 0
      vertex 9.6 26.4 0
      vertex 6.58738 21.8005 0
    endloop
  endfacet
  facet normal 0 0 -1
    outer loop
      vertex 6.48764 22.189 0
      vertex 9.6 26.4 0
      vertex 6.54973 21.9979 0
    endloop
  endfacet
  facet normal 0 0 -1
    outer loop
      vertex 6.40209 22.3708 0
      vertex 9.6 26.4 0
      vertex 6.48764 22.189 0
    endloop
  endfacet
  facet normal 0 0 -1
    outer loop
      vertex 6.29443 22.5405 0
      vertex 9.6 26.4 0
      vertex 6.40209 22.3708 0
    endloop
  endfacet
  facet normal 0 0 -1
    outer loop
      vertex 5.29981 23.1717 0
      vertex 9.6 26.4 0
      vertex 5.49443 23.1217 0
    endloop
  endfacet
  facet normal 0 0 -1
    outer loop
      vertex 6.29443 22.5405 0
      vertex 6.16635 22.6953 0
      vertex 9.6 26.4 0
    endloop
  endfacet
  facet normal 0 0 -1
    outer loop
      vertex 6.16635 22.6953 0
      vertex 6.01988 22.8328 0
      vertex 9.6 26.4 0
    endloop
  endfacet
  facet normal 0 0 -1
    outer loop
      vertex 6.01988 22.8328 0
      vertex 5.85732 22.9509 0
      vertex 9.6 26.4 0
    endloop
  endfacet
  facet normal 0 0 -1
    outer loop
      vertex 5.85732 22.9509 0
      vertex 5.68125 23.0477 0
      vertex 9.6 26.4 0
    endloop
  endfacet
  facet normal 0 0 -1
    outer loop
      vertex 5.68125 23.0477 0
      vertex 5.49443 23.1217 0
      vertex 9.6 26.4 0
    endloop
  endfacet
  facet normal 0 0 -1
    outer loop
      vertex 4.50557 23.1217 0
      vertex -3.41262 21.8005 0
      vertex 4.70019 23.1717 0
    endloop
  endfacet
  facet normal 0 0 -1
    outer loop
      vertex 4.14268 22.9509 0
      vertex -3.41262 21.8005 0
      vertex 4.31875 23.0477 0
    endloop
  endfacet
  facet normal 0 0 -1
    outer loop
      vertex 5.29981 23.1717 0
      vertex 5.10046 23.1968 0
      vertex 9.6 26.4 0
    endloop
  endfacet
  facet normal 0 0 -1
    outer loop
      vertex 4.31875 23.0477 0
      vertex -3.41262 21.8005 0
      vertex 4.50557 23.1217 0
    endloop
  endfacet
  facet normal 0 0 -1
    outer loop
      vertex 5.10046 23.1968 0
      vertex 4.89953 23.1968 0
      vertex 9.6 26.4 0
    endloop
  endfacet
  facet normal 0 0 -1
    outer loop
      vertex 4.89953 23.1968 0
      vertex 4.70019 23.1717 0
      vertex 9.6 26.4 0
    endloop
  endfacet
  facet normal 0 0 -1
    outer loop
      vertex 3.98012 22.8328 0
      vertex -3.41262 21.8005 0
      vertex 4.14268 22.9509 0
    endloop
  endfacet
  facet normal 0 0 -1
    outer loop
      vertex 3.83365 22.6953 0
      vertex -3.41262 21.8005 0
      vertex 3.98012 22.8328 0
    endloop
  endfacet
  facet normal 0 0 -1
    outer loop
      vertex 3.70557 22.5405 0
      vertex -3.41262 21.8005 0
      vertex 3.83365 22.6953 0
    endloop
  endfacet
  facet normal 0 0 -1
    outer loop
      vertex 3.59791 22.3708 0
      vertex -3.41262 21.8005 0
      vertex 3.70557 22.5405 0
    endloop
  endfacet
  facet normal 0 0 -1
    outer loop
      vertex 3.51236 22.189 0
      vertex -3.41262 21.8005 0
      vertex 3.59791 22.3708 0
    endloop
  endfacet
  facet normal 0 0 -1
    outer loop
      vertex 3.45027 21.9979 0
      vertex -3.41262 21.8005 0
      vertex 3.51236 22.189 0
    endloop
  endfacet
  facet normal 0 0 -1
    outer loop
      vertex 3.41262 21.8005 0
      vertex -3.41262 21.8005 0
      vertex 3.45027 21.9979 0
    endloop
  endfacet
  facet normal 0 0 -1
    outer loop
      vertex 3.4 21.6 0
      vertex -3.41262 21.8005 0
      vertex 3.41262 21.8005 0
    endloop
  endfacet
  facet normal 0 0 -1
    outer loop
      vertex -5.49443 20.0783 0
      vertex 9.6 11.55 0
      vertex -5.68125 20.1523 0
    endloop
  endfacet
  facet normal 0 1 0
    outer loop
      vertex -9.6 26.4 4
      vertex 9.6 26.4 4
      vertex -9.6 26.4 0
    endloop
  endfacet
  facet normal 0 1 0
    outer loop
      vertex -9.6 26.4 0
      vertex 9.6 26.4 4
      vertex 9.6 26.4 0
    endloop
  endfacet
  facet normal 0 0 1
    outer loop
      vertex -6.16635 20.5047 4
      vertex -9.6 20.5 4
      vertex -6.16132 20.5 4
    endloop
  endfacet
  facet normal 0 0 1
    outer loop
      vertex -6.29443 20.6595 4
      vertex -9.6 20.5 4
      vertex -6.16635 20.5047 4
    endloop
  endfacet
  facet normal 0 0 1
    outer loop
      vertex -6.40209 20.8292 4
      vertex -9.6 20.5 4
      vertex -6.29443 20.6595 4
    endloop
  endfacet
  facet normal 0 0 1
    outer loop
      vertex -9.6 26.4 4
      vertex -9.6 20.5 4
      vertex -6.40209 20.8292 4
    endloop
  endfacet
  facet normal 0 0 1
    outer loop
      vertex -6.58738 21.3995 4
      vertex -9.6 26.4 4
      vertex -6.54973 21.2021 4
    endloop
  endfacet
  facet normal 0 0 1
    outer loop
      vertex -6.6 21.6 4
      vertex -9.6 26.4 4
      vertex -6.58738 21.3995 4
    endloop
  endfacet
  facet normal 0 0 1
    outer loop
      vertex -6.58738 21.8005 4
      vertex -9.6 26.4 4
      vertex -6.6 21.6 4
    endloop
  endfacet
  facet normal 0 0 1
    outer loop
      vertex -6.54973 21.9979 4
      vertex -9.6 26.4 4
      vertex -6.58738 21.8005 4
    endloop
  endfacet
  facet normal 0 0 1
    outer loop
      vertex -6.48764 22.189 4
      vertex -9.6 26.4 4
      vertex -6.54973 21.9979 4
    endloop
  endfacet
  facet normal 0 0 1
    outer loop
      vertex -6.40209 22.3708 4
      vertex -9.6 26.4 4
      vertex -6.48764 22.189 4
    endloop
  endfacet
  facet normal 0 0 1
    outer loop
      vertex -6.29443 22.5405 4
      vertex -9.6 26.4 4
      vertex -6.40209 22.3708 4
    endloop
  endfacet
  facet normal 0 0 1
    outer loop
      vertex -6.16635 22.6953 4
      vertex -9.6 26.4 4
      vertex -6.29443 22.5405 4
    endloop
  endfacet
  facet normal 0 0 1
    outer loop
      vertex -6.01988 22.8328 4
      vertex -9.6 26.4 4
      vertex -6.16635 22.6953 4
    endloop
  endfacet
  facet normal 0 0 1
    outer loop
      vertex -5.85732 22.9509 4
      vertex -9.6 26.4 4
      vertex -6.01988 22.8328 4
    endloop
  endfacet
  facet normal 0 0 1
    outer loop
      vertex -5.68125 23.0477 4
      vertex -9.6 26.4 4
      vertex -5.85732 22.9509 4
    endloop
  endfacet
  facet normal 0 0 1
    outer loop
      vertex -5.49443 23.1217 4
      vertex -9.6 26.4 4
      vertex -5.68125 23.0477 4
    endloop
  endfacet
  facet normal 0 0 1
    outer loop
      vertex -5.29981 23.1717 4
      vertex -9.6 26.4 4
      vertex -5.49443 23.1217 4
    endloop
  endfacet
  facet normal 0 0 1
    outer loop
      vertex -5.10046 23.1968 4
      vertex -9.6 26.4 4
      vertex -5.29981 23.1717 4
    endloop
  endfacet
  facet normal 0 0 1
    outer loop
      vertex -4.89953 23.1968 4
      vertex -9.6 26.4 4
      vertex -5.10046 23.1968 4
    endloop
  endfacet
  facet normal 0 0 1
    outer loop
      vertex -4.70019 23.1717 4
      vertex -9.6 26.4 4
      vertex -4.89953 23.1968 4
    endloop
  endfacet
  facet normal 0 0 1
    outer loop
      vertex -4.50557 23.1217 4
      vertex -9.6 26.4 4
      vertex -4.70019 23.1717 4
    endloop
  endfacet
  facet normal 0 0 1
    outer loop
      vertex -4.31875 23.0477 4
      vertex -9.6 26.4 4
      vertex -4.50557 23.1217 4
    endloop
  endfacet
  facet normal 0 0 1
    outer loop
      vertex -4.14268 22.9509 4
      vertex -9.6 26.4 4
      vertex -4.31875 23.0477 4
    endloop
  endfacet
  facet normal 0 0 1
    outer loop
      vertex 3.83868 20.5 4
      vertex -9.6 26.4 4
      vertex -4.14268 22.9509 4
    endloop
  endfacet
  facet normal 0 0 1
    outer loop
      vertex 3.83868 20.5 4
      vertex -4.14268 22.9509 4
      vertex -3.98012 22.8328 4
    endloop
  endfacet
  facet normal 0 0 1
    outer loop
      vertex 3.83868 20.5 4
      vertex -3.98012 22.8328 4
      vertex -3.83365 22.6953 4
    endloop
  endfacet
  facet normal 0 0 1
    outer loop
      vertex 3.83868 20.5 4
      vertex -3.83365 22.6953 4
      vertex -3.70557 22.5405 4
    endloop
  endfacet
  facet normal 0 0 1
    outer loop
      vertex 3.83868 20.5 4
      vertex -3.70557 22.5405 4
      vertex -3.59791 22.3708 4
    endloop
  endfacet
  facet normal 0 0 1
    outer loop
      vertex 3.83868 20.5 4
      vertex -3.59791 22.3708 4
      vertex -3.51236 22.189 4
    endloop
  endfacet
  facet normal 0 0 1
    outer loop
      vertex 3.83868 20.5 4
      vertex -3.51236 22.189 4
      vertex -3.45027 21.9979 4
    endloop
  endfacet
  facet normal 0 0 1
    outer loop
      vertex 3.83868 20.5 4
      vertex -3.45027 21.9979 4
      vertex -3.41262 21.8005 4
    endloop
  endfacet
  facet normal 0 0 1
    outer loop
      vertex 3.83868 20.5 4
      vertex -3.41262 21.8005 4
      vertex -3.4 21.6 4
    endloop
  endfacet
  facet normal 0 0 1
    outer loop
      vertex 3.83868 20.5 4
      vertex -3.4 21.6 4
      vertex -3.41262 21.3995 4
    endloop
  endfacet
  facet normal 0 0 1
    outer loop
      vertex 3.83868 20.5 4
      vertex -3.41262 21.3995 4
      vertex -3.45027 21.2021 4
    endloop
  endfacet
  facet normal 0 0 1
    outer loop
      vertex 3.83868 20.5 4
      vertex -3.45027 21.2021 4
      vertex -3.51236 21.011 4
    endloop
  endfacet
  facet normal 0 0 1
    outer loop
      vertex 3.83868 20.5 4
      vertex -3.51236 21.011 4
      vertex -3.59791 20.8292 4
    endloop
  endfacet
  facet normal 0 0 1
    outer loop
      vertex 3.83868 20.5 4
      vertex -3.59791 20.8292 4
      vertex -3.70557 20.6595 4
    endloop
  endfacet
  facet normal 0 0 1
    outer loop
      vertex 3.83868 20.5 4
      vertex -3.70557 20.6595 4
      vertex -3.83365 20.5047 4
    endloop
  endfacet
  facet normal 0 0 1
    outer loop
      vertex 3.83868 20.5 4
      vertex -3.83365 20.5047 4
      vertex -3.83868 20.5 4
    endloop
  endfacet
  facet normal 0 0 1
    outer loop
      vertex 3.83365 20.5047 4
      vertex -9.6 26.4 4
      vertex 3.83868 20.5 4
    endloop
  endfacet
  facet normal 0 0 1
    outer loop
      vertex 3.70557 20.6595 4
      vertex -9.6 26.4 4
      vertex 3.83365 20.5047 4
    endloop
  endfacet
  facet normal 0 0 1
    outer loop
      vertex 3.59791 20.8292 4
      vertex -9.6 26.4 4
      vertex 3.70557 20.6595 4
    endloop
  endfacet
  facet normal 0 0 1
    outer loop
      vertex 3.51236 21.011 4
      vertex -9.6 26.4 4
      vertex 3.59791 20.8292 4
    endloop
  endfacet
  facet normal 0 0 1
    outer loop
      vertex 3.45027 21.2021 4
      vertex -9.6 26.4 4
      vertex 3.51236 21.011 4
    endloop
  endfacet
  facet normal 0 0 1
    outer loop
      vertex 3.41262 21.3995 4
      vertex -9.6 26.4 4
      vertex 3.45027 21.2021 4
    endloop
  endfacet
  facet normal 0 0 1
    outer loop
      vertex 3.4 21.6 4
      vertex -9.6 26.4 4
      vertex 3.41262 21.3995 4
    endloop
  endfacet
  facet normal 0 0 1
    outer loop
      vertex 3.41262 21.8005 4
      vertex -9.6 26.4 4
      vertex 3.4 21.6 4
    endloop
  endfacet
  facet normal 0 0 1
    outer loop
      vertex 3.45027 21.9979 4
      vertex -9.6 26.4 4
      vertex 3.41262 21.8005 4
    endloop
  endfacet
  facet normal 0 0 1
    outer loop
      vertex 3.51236 22.189 4
      vertex -9.6 26.4 4
      vertex 3.45027 21.9979 4
    endloop
  endfacet
  facet normal 0 0 1
    outer loop
      vertex 3.59791 22.3708 4
      vertex -9.6 26.4 4
      vertex 3.51236 22.189 4
    endloop
  endfacet
  facet normal 0 0 1
    outer loop
      vertex 3.70557 22.5405 4
      vertex -9.6 26.4 4
      vertex 3.59791 22.3708 4
    endloop
  endfacet
  facet normal 0 0 1
    outer loop
      vertex 3.83365 22.6953 4
      vertex -9.6 26.4 4
      vertex 3.70557 22.5405 4
    endloop
  endfacet
  facet normal 0 0 1
    outer loop
      vertex 3.98012 22.8328 4
      vertex -9.6 26.4 4
      vertex 3.83365 22.6953 4
    endloop
  endfacet
  facet normal 0 0 1
    outer loop
      vertex 4.14268 22.9509 4
      vertex -9.6 26.4 4
      vertex 3.98012 22.8328 4
    endloop
  endfacet
  facet normal 0 0 1
    outer loop
      vertex 4.31875 23.0477 4
      vertex -9.6 26.4 4
      vertex 4.14268 22.9509 4
    endloop
  endfacet
  facet normal 0 0 1
    outer loop
      vertex 4.50557 23.1217 4
      vertex -9.6 26.4 4
      vertex 4.31875 23.0477 4
    endloop
  endfacet
  facet normal 0 0 1
    outer loop
      vertex 4.70019 23.1717 4
      vertex -9.6 26.4 4
      vertex 4.50557 23.1217 4
    endloop
  endfacet
  facet normal 0 0 1
    outer loop
      vertex 4.89953 23.1968 4
      vertex -9.6 26.4 4
      vertex 4.70019 23.1717 4
    endloop
  endfacet
  facet normal 0 0 1
    outer loop
      vertex 5.10046 23.1968 4
      vertex -9.6 26.4 4
      vertex 4.89953 23.1968 4
    endloop
  endfacet
  facet normal 0 0 1
    outer loop
      vertex 5.29981 23.1717 4
      vertex -9.6 26.4 4
      vertex 5.10046 23.1968 4
    endloop
  endfacet
  facet normal 0 0 1
    outer loop
      vertex 9.6 26.4 4
      vertex -9.6 26.4 4
      vertex 5.29981 23.1717 4
    endloop
  endfacet
  facet normal 0 0 1
    outer loop
      vertex 9.6 26.4 4
      vertex 5.29981 23.1717 4
      vertex 5.49443 23.1217 4
    endloop
  endfacet
  facet normal 0 0 1
    outer loop
      vertex 9.6 26.4 4
      vertex 5.49443 23.1217 4
      vertex 5.68125 23.0477 4
    endloop
  endfacet
  facet normal 0 0 1
    outer loop
      vertex 9.6 26.4 4
      vertex 5.68125 23.0477 4
      vertex 5.85732 22.9509 4
    endloop
  endfacet
  facet normal 0 0 1
    outer loop
      vertex 9.6 20.5 4
      vertex 5.85732 22.9509 4
      vertex 6.01988 22.8328 4
    endloop
  endfacet
  facet normal 0 0 1
    outer loop
      vertex 9.6 20.5 4
      vertex 6.01988 22.8328 4
      vertex 6.16635 22.6953 4
    endloop
  endfacet
  facet normal 0 0 1
    outer loop
      vertex 9.6 20.5 4
      vertex 6.16635 22.6953 4
      vertex 6.29443 22.5405 4
    endloop
  endfacet
  facet normal 0 0 1
    outer loop
      vertex 9.6 20.5 4
      vertex 6.29443 22.5405 4
      vertex 6.40209 22.3708 4
    endloop
  endfacet
  facet normal 0 0 1
    outer loop
      vertex 9.6 20.5 4
      vertex 6.40209 22.3708 4
      vertex 6.48764 22.189 4
    endloop
  endfacet
  facet normal 0 0 1
    outer loop
      vertex 9.6 20.5 4
      vertex 6.48764 22.189 4
      vertex 6.54973 21.9979 4
    endloop
  endfacet
  facet normal 0 0 1
    outer loop
      vertex 9.6 20.5 4
      vertex 6.54973 21.9979 4
      vertex 6.58738 21.8005 4
    endloop
  endfacet
  facet normal 0 0 1
    outer loop
      vertex 9.6 20.5 4
      vertex 6.58738 21.8005 4
      vertex 6.6 21.6 4
    endloop
  endfacet
  facet normal 0 0 1
    outer loop
      vertex 9.6 20.5 4
      vertex 6.6 21.6 4
      vertex 6.58738 21.3995 4
    endloop
  endfacet
  facet normal 0 0 1
    outer loop
      vertex 9.6 20.5 4
      vertex 6.58738 21.3995 4
      vertex 6.54973 21.2021 4
    endloop
  endfacet
  facet normal 0 0 1
    outer loop
      vertex 9.6 20.5 4
      vertex 6.54973 21.2021 4
      vertex 6.48764 21.011 4
    endloop
  endfacet
  facet normal 0 0 1
    outer loop
      vertex 9.6 20.5 4
      vertex 6.48764 21.011 4
      vertex 6.40209 20.8292 4
    endloop
  endfacet
  facet normal 0 0 1
    outer loop
      vertex 9.6 20.5 4
      vertex 6.40209 20.8292 4
      vertex 6.29443 20.6595 4
    endloop
  endfacet
  facet normal 0 0 1
    outer loop
      vertex 9.6 20.5 4
      vertex 6.29443 20.6595 4
      vertex 6.16635 20.5047 4
    endloop
  endfacet
  facet normal 0 0 1
    outer loop
      vertex 9.6 20.5 4
      vertex 6.16635 20.5047 4
      vertex 6.16132 20.5 4
    endloop
  endfacet
  facet normal 0 0 1
    outer loop
      vertex 9.6 26.4 4
      vertex 5.85732 22.9509 4
      vertex 9.6 20.5 4
    endloop
  endfacet
  facet normal 0 0 1
    outer loop
      vertex -6.40209 20.8292 4
      vertex -6.48764 21.011 4
      vertex -9.6 26.4 4
    endloop
  endfacet
  facet normal 0 0 1
    outer loop
      vertex -6.48764 21.011 4
      vertex -6.54973 21.2021 4
      vertex -9.6 26.4 4
    endloop
  endfacet
  facet normal 0 -1 -2.22045e-016
    outer loop
      vertex -8.225 20.5 3.3
      vertex -9.275 20.5 4
      vertex -9.275 20.5 3.3
    endloop
  endfacet
  facet normal 0 -1 -2.22045e-016
    outer loop
      vertex -8.225 20.5 4
      vertex -9.275 20.5 4
      vertex -8.225 20.5 3.3
    endloop
  endfacet
  facet normal 0 -1 -2.22045e-016
    outer loop
      vertex -9.6 20.5 4
      vertex -9.275 20.5 4
      vertex -6.16132 20.5 4
    endloop
  endfacet
  facet normal 0 -1 -2.22045e-016
    outer loop
      vertex -6.16132 20.5 4
      vertex -9.275 20.5 4
      vertex -8.225 20.5 4
    endloop
  endfacet
  facet normal 0 -1 -2.22045e-016
    outer loop
      vertex -6.16132 20.5 4
      vertex -8.225 20.5 4
      vertex -6.775 20.5 4
    endloop
  endfacet
  facet normal 0 -1 -2.22045e-016
    outer loop
      vertex -6.16132 20.5 3.3
      vertex -6.775 20.5 4
      vertex -6.775 20.5 3.3
    endloop
  endfacet
  facet normal 0 -1 -2.22045e-016
    outer loop
      vertex -6.16132 20.5 4
      vertex -6.775 20.5 4
      vertex -6.16132 20.5 3.3
    endloop
  endfacet
  facet normal 0 -1 0
    outer loop
      vertex -9.6 20.5 2.6
      vertex -9.275 20.5 2.6
      vertex -9.275 20.5 4
    endloop
  endfacet
  facet normal 0 -1 0
    outer loop
      vertex -9.6 20.5 4
      vertex -9.6 20.5 2.6
      vertex -9.275 20.5 4
    endloop
  endfacet
  facet normal 0 0 1
    outer loop
      vertex -9.275 13.5 2.6
      vertex -9.275 20.5 2.6
      vertex -9.6 20.5 2.6
    endloop
  endfacet
  facet normal 0 0 1
    outer loop
      vertex -9.6 13.5 2.6
      vertex -9.275 13.5 2.6
      vertex -9.6 20.5 2.6
    endloop
  endfacet
  facet normal 0 1 0
    outer loop
      vertex -9.275 13.5 2.6
      vertex -9.6 13.5 2.6
      vertex -9.275 13.5 3.3
    endloop
  endfacet
  facet normal 0 1 0
    outer loop
      vertex -9.275 13.5 3.3
      vertex -9.6 13.5 2.6
      vertex -9.6 13.5 3.3
    endloop
  endfacet
  facet normal 0 -2.22045e-016 1
    outer loop
      vertex 6.775 13.5 3.3
      vertex 5.725 13.5 3.3
      vertex 9.6 13.5 3.3
    endloop
  endfacet
  facet normal 0 -2.22045e-016 1
    outer loop
      vertex 8.225 13.5 3.3
      vertex 9.6 13.5 3.3
      vertex 9.275 13.5 3.3
    endloop
  endfacet
  facet normal 0 -2.22045e-016 1
    outer loop
      vertex 9.275 20.5 3.3
      vertex 8.225 20.5 3.3
      vertex 9.275 13.5 3.3
    endloop
  endfacet
  facet normal 0 -2.22045e-016 1
    outer loop
      vertex 8.225 20.5 3.3
      vertex 8.225 13.5 3.3
      vertex 9.275 13.5 3.3
    endloop
  endfacet
  facet normal 0 -2.22045e-016 1
    outer loop
      vertex 6.01988 20.3672 3.3
      vertex 5.85732 20.2491 3.3
      vertex 6.775 13.5 3.3
    endloop
  endfacet
  facet normal 0 -2.22045e-016 1
    outer loop
      vertex 8.225 13.5 3.3
      vertex 6.775 13.5 3.3
      vertex 9.6 13.5 3.3
    endloop
  endfacet
  facet normal 0 -2.22045e-016 1
    outer loop
      vertex 6.775 20.5 3.3
      vertex 6.16132 20.5 3.3
      vertex 6.775 13.5 3.3
    endloop
  endfacet
  facet normal 0 -2.22045e-016 1
    outer loop
      vertex 6.16132 20.5 3.3
      vertex 6.01988 20.3672 3.3
      vertex 6.775 13.5 3.3
    endloop
  endfacet
  facet normal 0 -2.22045e-016 1
    outer loop
      vertex 5.85732 20.2491 3.3
      vertex 5.725 20.1763 3.3
      vertex 6.775 13.5 3.3
    endloop
  endfacet
  facet normal 0 -2.22045e-016 1
    outer loop
      vertex 4.275 13.5 3.3
      vertex 3.225 13.5 3.3
      vertex 9.6 13.5 3.3
    endloop
  endfacet
  facet normal 0 -2.22045e-016 1
    outer loop
      vertex 4.14268 20.2491 3.3
      vertex 3.98012 20.3672 3.3
      vertex 4.275 13.5 3.3
    endloop
  endfacet
  facet normal 0 -2.22045e-016 1
    outer loop
      vertex 5.725 20.1763 3.3
      vertex 5.725 13.5 3.3
      vertex 6.775 13.5 3.3
    endloop
  endfacet
  facet normal 0 -2.22045e-016 1
    outer loop
      vertex 4.275 20.1763 3.3
      vertex 4.14268 20.2491 3.3
      vertex 4.275 13.5 3.3
    endloop
  endfacet
  facet normal 0 -2.22045e-016 1
    outer loop
      vertex 5.725 13.5 3.3
      vertex 4.275 13.5 3.3
      vertex 9.6 13.5 3.3
    endloop
  endfacet
  facet normal 0 -2.22045e-016 1
    outer loop
      vertex 3.98012 20.3672 3.3
      vertex 3.83868 20.5 3.3
      vertex 4.275 13.5 3.3
    endloop
  endfacet
  facet normal 0 -2.22045e-016 1
    outer loop
      vertex 1.775 13.5 3.3
      vertex 0.725 13.5 3.3
      vertex 9.6 13.5 3.3
    endloop
  endfacet
  facet normal 0 -2.22045e-016 1
    outer loop
      vertex 3.83868 20.5 3.3
      vertex 3.225 20.5 3.3
      vertex 4.275 13.5 3.3
    endloop
  endfacet
  facet normal 0 -2.22045e-016 1
    outer loop
      vertex 3.225 20.5 3.3
      vertex 3.225 13.5 3.3
      vertex 4.275 13.5 3.3
    endloop
  endfacet
  facet normal 0 -2.22045e-016 1
    outer loop
      vertex -0.725 13.5 3.3
      vertex -1.775 13.5 3.3
      vertex 9.6 13.5 3.3
    endloop
  endfacet
  facet normal 0 -2.22045e-016 1
    outer loop
      vertex 3.225 13.5 3.3
      vertex 1.775 13.5 3.3
      vertex 9.6 13.5 3.3
    endloop
  endfacet
  facet normal 0 -2.22045e-016 1
    outer loop
      vertex 1.775 20.5 3.3
      vertex 0.725 20.5 3.3
      vertex 1.775 13.5 3.3
    endloop
  endfacet
  facet normal 0 -2.22045e-016 1
    outer loop
      vertex 0.725 20.5 3.3
      vertex 0.725 13.5 3.3
      vertex 1.775 13.5 3.3
    endloop
  endfacet
  facet normal 0 -2.22045e-016 1
    outer loop
      vertex -3.225 13.5 3.3
      vertex -4.275 13.5 3.3
      vertex 9.6 13.5 3.3
    endloop
  endfacet
  facet normal 0 -2.22045e-016 1
    outer loop
      vertex 0.725 13.5 3.3
      vertex -0.725 13.5 3.3
      vertex 9.6 13.5 3.3
    endloop
  endfacet
  facet normal 0 -2.22045e-016 1
    outer loop
      vertex -0.725 20.5 3.3
      vertex -1.775 20.5 3.3
      vertex -0.725 13.5 3.3
    endloop
  endfacet
  facet normal 0 -2.22045e-016 1
    outer loop
      vertex -1.775 20.5 3.3
      vertex -1.775 13.5 3.3
      vertex -0.725 13.5 3.3
    endloop
  endfacet
  facet normal 0 -2.22045e-016 1
    outer loop
      vertex -3.98012 20.3672 3.3
      vertex -4.14268 20.2491 3.3
      vertex -3.225 13.5 3.3
    endloop
  endfacet
  facet normal 0 -2.22045e-016 1
    outer loop
      vertex -1.775 13.5 3.3
      vertex -3.225 13.5 3.3
      vertex 9.6 13.5 3.3
    endloop
  endfacet
  facet normal 0 -2.22045e-016 1
    outer loop
      vertex -3.225 20.5 3.3
      vertex -3.83868 20.5 3.3
      vertex -3.225 13.5 3.3
    endloop
  endfacet
  facet normal 0 -2.22045e-016 1
    outer loop
      vertex -3.83868 20.5 3.3
      vertex -3.98012 20.3672 3.3
      vertex -3.225 13.5 3.3
    endloop
  endfacet
  facet normal 0 -2.22045e-016 1
    outer loop
      vertex -4.14268 20.2491 3.3
      vertex -4.275 20.1763 3.3
      vertex -3.225 13.5 3.3
    endloop
  endfacet
  facet normal 0 -2.22045e-016 1
    outer loop
      vertex -5.725 13.5 3.3
      vertex -6.775 13.5 3.3
      vertex 9.6 13.5 3.3
    endloop
  endfacet
  facet normal 0 -2.22045e-016 1
    outer loop
      vertex -5.85732 20.2491 3.3
      vertex -6.01988 20.3672 3.3
      vertex -5.725 13.5 3.3
    endloop
  endfacet
  facet normal 0 -2.22045e-016 1
    outer loop
      vertex -4.275 20.1763 3.3
      vertex -4.275 13.5 3.3
      vertex -3.225 13.5 3.3
    endloop
  endfacet
  facet normal 0 -2.22045e-016 1
    outer loop
      vertex -5.725 20.1763 3.3
      vertex -5.85732 20.2491 3.3
      vertex -5.725 13.5 3.3
    endloop
  endfacet
  facet normal 0 -2.22045e-016 1
    outer loop
      vertex -4.275 13.5 3.3
      vertex -5.725 13.5 3.3
      vertex 9.6 13.5 3.3
    endloop
  endfacet
  facet normal 0 -2.22045e-016 1
    outer loop
      vertex -6.01988 20.3672 3.3
      vertex -6.16132 20.5 3.3
      vertex -5.725 13.5 3.3
    endloop
  endfacet
  facet normal 0 -2.22045e-016 1
    outer loop
      vertex -8.225 13.5 3.3
      vertex -9.275 13.5 3.3
      vertex 9.6 13.5 3.3
    endloop
  endfacet
  facet normal 0 -2.22045e-016 1
    outer loop
      vertex -6.16132 20.5 3.3
      vertex -6.775 20.5 3.3
      vertex -5.725 13.5 3.3
    endloop
  endfacet
  facet normal 0 -2.22045e-016 1
    outer loop
      vertex -6.775 20.5 3.3
      vertex -6.775 13.5 3.3
      vertex -5.725 13.5 3.3
    endloop
  endfacet
  facet normal 0 -2.22045e-016 1
    outer loop
      vertex -6.775 13.5 3.3
      vertex -8.225 13.5 3.3
      vertex 9.6 13.5 3.3
    endloop
  endfacet
  facet normal 0 -2.22045e-016 1
    outer loop
      vertex -8.225 20.5 3.3
      vertex -9.275 20.5 3.3
      vertex -8.225 13.5 3.3
    endloop
  endfacet
  facet normal 0 -2.22045e-016 1
    outer loop
      vertex -9.275 20.5 3.3
      vertex -9.275 13.5 3.3
      vertex -8.225 13.5 3.3
    endloop
  endfacet
  facet normal 0 -2.22045e-016 1
    outer loop
      vertex -9.275 13.5 3.3
      vertex -9.6 13.5 3.3
      vertex 9.6 13.5 3.3
    endloop
  endfacet
  facet normal 0 1 2.22045e-016
    outer loop
      vertex 9.6 13.5 3.3
      vertex -9.6 13.5 3.3
      vertex 9.6 13.5 4
    endloop
  endfacet
  facet normal 0 1 2.22045e-016
    outer loop
      vertex 9.6 13.5 4
      vertex -9.6 13.5 3.3
      vertex -9.6 13.5 4
    endloop
  endfacet
  facet normal 0 1 0
    outer loop
      vertex 9.6 13.5 2.6
      vertex 9.275 13.5 2.6
      vertex 9.6 13.5 3.3
    endloop
  endfacet
  facet normal 0 1 0
    outer loop
      vertex 9.6 13.5 3.3
      vertex 9.275 13.5 2.6
      vertex 9.275 13.5 3.3
    endloop
  endfacet
  facet normal 0 0 1
    outer loop
      vertex 9.6 13.5 2.6
      vertex 9.6 20.5 2.6
      vertex 9.275 20.5 2.6
    endloop
  endfacet
  facet normal 0 0 1
    outer loop
      vertex 9.275 13.5 2.6
      vertex 9.6 13.5 2.6
      vertex 9.275 20.5 2.6
    endloop
  endfacet
  facet normal 0 -1 0
    outer loop
      vertex 9.275 20.5 2.6
      vertex 9.6 20.5 2.6
      vertex 9.6 20.5 4
    endloop
  endfacet
  facet normal 0 -1 0
    outer loop
      vertex 9.275 20.5 4
      vertex 9.275 20.5 2.6
      vertex 9.6 20.5 4
    endloop
  endfacet
  facet normal 0 -1 -2.22045e-016
    outer loop
      vertex 8.225 20.5 4
      vertex 9.6 20.5 4
      vertex 6.775 20.5 4
    endloop
  endfacet
  facet normal 0 -1 -2.22045e-016
    outer loop
      vertex 6.16132 20.5 3.3
      vertex 6.775 20.5 3.3
      vertex 6.775 20.5 4
    endloop
  endfacet
  facet normal 0 -1 -2.22045e-016
    outer loop
      vertex 9.275 20.5 4
      vertex 9.6 20.5 4
      vertex 8.225 20.5 4
    endloop
  endfacet
  facet normal 0 -1 -2.22045e-016
    outer loop
      vertex 6.16132 20.5 4
      vertex 6.16132 20.5 3.3
      vertex 6.775 20.5 4
    endloop
  endfacet
  facet normal 0 -1 -2.22045e-016
    outer loop
      vertex 8.225 20.5 3.3
      vertex 9.275 20.5 3.3
      vertex 8.225 20.5 4
    endloop
  endfacet
  facet normal 0 -1 -2.22045e-016
    outer loop
      vertex 9.275 20.5 3.3
      vertex 9.275 20.5 4
      vertex 8.225 20.5 4
    endloop
  endfacet
  facet normal 0 -1 -2.22045e-016
    outer loop
      vertex 9.6 20.5 4
      vertex 6.16132 20.5 4
      vertex 6.775 20.5 4
    endloop
  endfacet
  facet normal 0.998027 -0.0627882 0
    outer loop
      vertex -6.6 21.6 0
      vertex -6.58738 21.8005 0
      vertex -6.58738 21.8005 4
    endloop
  endfacet
  facet normal 0.998027 -0.0627882 0
    outer loop
      vertex -6.6 21.6 4
      vertex -6.6 21.6 0
      vertex -6.58738 21.8005 4
    endloop
  endfacet
  facet normal 0.998027 0.0627882 0
    outer loop
      vertex -6.58738 21.3995 4
      vertex -6.58738 21.3995 0
      vertex -6.6 21.6 0
    endloop
  endfacet
  facet normal 0.998027 0.0627882 0
    outer loop
      vertex -6.6 21.6 4
      vertex -6.58738 21.3995 4
      vertex -6.6 21.6 0
    endloop
  endfacet
  facet normal 0.982287 -0.187384 0
    outer loop
      vertex -6.58738 21.8005 0
      vertex -6.54973 21.9979 0
      vertex -6.54973 21.9979 4
    endloop
  endfacet
  facet normal 0.982287 -0.187384 0
    outer loop
      vertex -6.58738 21.8005 4
      vertex -6.58738 21.8005 0
      vertex -6.54973 21.9979 4
    endloop
  endfacet
  facet normal 0.951056 -0.309019 0
    outer loop
      vertex -6.54973 21.9979 0
      vertex -6.48764 22.189 0
      vertex -6.48764 22.189 4
    endloop
  endfacet
  facet normal 0.951056 -0.309019 0
    outer loop
      vertex -6.54973 21.9979 4
      vertex -6.54973 21.9979 0
      vertex -6.48764 22.189 4
    endloop
  endfacet
  facet normal 0.904829 -0.425776 0
    outer loop
      vertex -6.48764 22.189 0
      vertex -6.40209 22.3708 0
      vertex -6.40209 22.3708 4
    endloop
  endfacet
  facet normal 0.904829 -0.425776 0
    outer loop
      vertex -6.48764 22.189 4
      vertex -6.48764 22.189 0
      vertex -6.40209 22.3708 4
    endloop
  endfacet
  facet normal 0.844326 -0.53583 0
    outer loop
      vertex -6.40209 22.3708 0
      vertex -6.29443 22.5405 0
      vertex -6.29443 22.5405 4
    endloop
  endfacet
  facet normal 0.844326 -0.53583 0
    outer loop
      vertex -6.40209 22.3708 4
      vertex -6.40209 22.3708 0
      vertex -6.29443 22.5405 4
    endloop
  endfacet
  facet normal 0.770514 -0.637423 0
    outer loop
      vertex -6.29443 22.5405 0
      vertex -6.16635 22.6953 0
      vertex -6.16635 22.6953 4
    endloop
  endfacet
  facet normal 0.770514 -0.637423 0
    outer loop
      vertex -6.29443 22.5405 4
      vertex -6.29443 22.5405 0
      vertex -6.16635 22.6953 4
    endloop
  endfacet
  facet normal 0.684546 -0.72897 0
    outer loop
      vertex -6.16635 22.6953 0
      vertex -6.01988 22.8328 0
      vertex -6.01988 22.8328 4
    endloop
  endfacet
  facet normal 0.684546 -0.72897 0
    outer loop
      vertex -6.16635 22.6953 4
      vertex -6.16635 22.6953 0
      vertex -6.01988 22.8328 4
    endloop
  endfacet
  facet normal 0.587788 -0.809015 0
    outer loop
      vertex -6.01988 22.8328 0
      vertex -5.85732 22.9509 0
      vertex -5.85732 22.9509 4
    endloop
  endfacet
  facet normal 0.587788 -0.809015 0
    outer loop
      vertex -6.01988 22.8328 4
      vertex -6.01988 22.8328 0
      vertex -5.85732 22.9509 4
    endloop
  endfacet
  facet normal 0.481751 -0.876308 0
    outer loop
      vertex -5.85732 22.9509 0
      vertex -5.68125 23.0477 0
      vertex -5.68125 23.0477 4
    endloop
  endfacet
  facet normal 0.481751 -0.876308 0
    outer loop
      vertex -5.85732 22.9509 4
      vertex -5.85732 22.9509 0
      vertex -5.68125 23.0477 4
    endloop
  endfacet
  facet normal 0.368123 -0.929777 0
    outer loop
      vertex -5.68125 23.0477 0
      vertex -5.49443 23.1217 0
      vertex -5.49443 23.1217 4
    endloop
  endfacet
  facet normal 0.368123 -0.929777 0
    outer loop
      vertex -5.68125 23.0477 4
      vertex -5.68125 23.0477 0
      vertex -5.49443 23.1217 4
    endloop
  endfacet
  facet normal 0.248694 -0.968582 0
    outer loop
      vertex -5.49443 23.1217 0
      vertex -5.29981 23.1717 0
      vertex -5.29981 23.1717 4
    endloop
  endfacet
  facet normal 0.248694 -0.968582 0
    outer loop
      vertex -5.49443 23.1217 4
      vertex -5.49443 23.1217 0
      vertex -5.29981 23.1717 4
    endloop
  endfacet
  facet normal 0.125333 -0.992115 0
    outer loop
      vertex -5.29981 23.1717 0
      vertex -5.10046 23.1968 0
      vertex -5.10046 23.1968 4
    endloop
  endfacet
  facet normal 0.125333 -0.992115 0
    outer loop
      vertex -5.29981 23.1717 4
      vertex -5.29981 23.1717 0
      vertex -5.10046 23.1968 4
    endloop
  endfacet
  facet normal 0 -1 0
    outer loop
      vertex -5.10046 23.1968 0
      vertex -4.89953 23.1968 0
      vertex -4.89953 23.1968 4
    endloop
  endfacet
  facet normal 0 -1 0
    outer loop
      vertex -5.10046 23.1968 4
      vertex -5.10046 23.1968 0
      vertex -4.89953 23.1968 4
    endloop
  endfacet
  facet normal -0.125333 -0.992115 0
    outer loop
      vertex -4.89953 23.1968 0
      vertex -4.70019 23.1717 0
      vertex -4.70019 23.1717 4
    endloop
  endfacet
  facet normal -0.125333 -0.992115 0
    outer loop
      vertex -4.89953 23.1968 4
      vertex -4.89953 23.1968 0
      vertex -4.70019 23.1717 4
    endloop
  endfacet
  facet normal -0.248694 -0.968582 0
    outer loop
      vertex -4.70019 23.1717 0
      vertex -4.50557 23.1217 0
      vertex -4.50557 23.1217 4
    endloop
  endfacet
  facet normal -0.248694 -0.968582 0
    outer loop
      vertex -4.70019 23.1717 4
      vertex -4.70019 23.1717 0
      vertex -4.50557 23.1217 4
    endloop
  endfacet
  facet normal -0.368123 -0.929777 0
    outer loop
      vertex -4.50557 23.1217 0
      vertex -4.31875 23.0477 0
      vertex -4.31875 23.0477 4
    endloop
  endfacet
  facet normal -0.368123 -0.929777 0
    outer loop
      vertex -4.50557 23.1217 4
      vertex -4.50557 23.1217 0
      vertex -4.31875 23.0477 4
    endloop
  endfacet
  facet normal -0.481751 -0.876308 0
    outer loop
      vertex -4.31875 23.0477 0
      vertex -4.14268 22.9509 0
      vertex -4.14268 22.9509 4
    endloop
  endfacet
  facet normal -0.481751 -0.876308 0
    outer loop
      vertex -4.31875 23.0477 4
      vertex -4.31875 23.0477 0
      vertex -4.14268 22.9509 4
    endloop
  endfacet
  facet normal -0.587788 -0.809015 0
    outer loop
      vertex -4.14268 22.9509 0
      vertex -3.98012 22.8328 0
      vertex -3.98012 22.8328 4
    endloop
  endfacet
  facet normal -0.587788 -0.809015 0
    outer loop
      vertex -4.14268 22.9509 4
      vertex -4.14268 22.9509 0
      vertex -3.98012 22.8328 4
    endloop
  endfacet
  facet normal -0.684546 -0.72897 0
    outer loop
      vertex -3.98012 22.8328 0
      vertex -3.83365 22.6953 0
      vertex -3.83365 22.6953 4
    endloop
  endfacet
  facet normal -0.684546 -0.72897 0
    outer loop
      vertex -3.98012 22.8328 4
      vertex -3.98012 22.8328 0
      vertex -3.83365 22.6953 4
    endloop
  endfacet
  facet normal -0.770514 -0.637423 0
    outer loop
      vertex -3.70557 22.5405 0
      vertex -3.70557 22.5405 4
      vertex -3.83365 22.6953 0
    endloop
  endfacet
  facet normal -0.770514 -0.637423 0
    outer loop
      vertex -3.83365 22.6953 0
      vertex -3.70557 22.5405 4
      vertex -3.83365 22.6953 4
    endloop
  endfacet
  facet normal -0.844326 -0.53583 0
    outer loop
      vertex -3.59791 22.3708 0
      vertex -3.59791 22.3708 4
      vertex -3.70557 22.5405 0
    endloop
  endfacet
  facet normal -0.844326 -0.53583 0
    outer loop
      vertex -3.70557 22.5405 0
      vertex -3.59791 22.3708 4
      vertex -3.70557 22.5405 4
    endloop
  endfacet
  facet normal -0.904829 -0.425776 0
    outer loop
      vertex -3.51236 22.189 0
      vertex -3.51236 22.189 4
      vertex -3.59791 22.3708 0
    endloop
  endfacet
  facet normal -0.904829 -0.425776 0
    outer loop
      vertex -3.59791 22.3708 0
      vertex -3.51236 22.189 4
      vertex -3.59791 22.3708 4
    endloop
  endfacet
  facet normal -0.951056 -0.309019 0
    outer loop
      vertex -3.45027 21.9979 0
      vertex -3.45027 21.9979 4
      vertex -3.51236 22.189 0
    endloop
  endfacet
  facet normal -0.951056 -0.309019 0
    outer loop
      vertex -3.51236 22.189 0
      vertex -3.45027 21.9979 4
      vertex -3.51236 22.189 4
    endloop
  endfacet
  facet normal -0.982287 -0.187384 0
    outer loop
      vertex -3.41262 21.8005 0
      vertex -3.41262 21.8005 4
      vertex -3.45027 21.9979 0
    endloop
  endfacet
  facet normal -0.982287 -0.187384 0
    outer loop
      vertex -3.45027 21.9979 0
      vertex -3.41262 21.8005 4
      vertex -3.45027 21.9979 4
    endloop
  endfacet
  facet normal -0.998027 -0.0627882 0
    outer loop
      vertex -3.4 21.6 0
      vertex -3.4 21.6 4
      vertex -3.41262 21.8005 0
    endloop
  endfacet
  facet normal -0.998027 -0.0627882 0
    outer loop
      vertex -3.41262 21.8005 0
      vertex -3.4 21.6 4
      vertex -3.41262 21.8005 4
    endloop
  endfacet
  facet normal -0.998027 0.0627882 0
    outer loop
      vertex -3.4 21.6 0
      vertex -3.41262 21.3995 0
      vertex -3.4 21.6 4
    endloop
  endfacet
  facet normal -0.998027 0.0627882 0
    outer loop
      vertex -3.4 21.6 4
      vertex -3.41262 21.3995 0
      vertex -3.41262 21.3995 4
    endloop
  endfacet
  facet normal -0.982287 0.187384 0
    outer loop
      vertex -3.41262 21.3995 0
      vertex -3.45027 21.2021 0
      vertex -3.41262 21.3995 4
    endloop
  endfacet
  facet normal -0.982287 0.187384 0
    outer loop
      vertex -3.41262 21.3995 4
      vertex -3.45027 21.2021 0
      vertex -3.45027 21.2021 4
    endloop
  endfacet
  facet normal -0.951056 0.309019 0
    outer loop
      vertex -3.45027 21.2021 0
      vertex -3.51236 21.011 0
      vertex -3.45027 21.2021 4
    endloop
  endfacet
  facet normal -0.951056 0.309019 0
    outer loop
      vertex -3.45027 21.2021 4
      vertex -3.51236 21.011 0
      vertex -3.51236 21.011 4
    endloop
  endfacet
  facet normal -0.904829 0.425776 0
    outer loop
      vertex -3.51236 21.011 0
      vertex -3.59791 20.8292 0
      vertex -3.51236 21.011 4
    endloop
  endfacet
  facet normal -0.904829 0.425776 0
    outer loop
      vertex -3.51236 21.011 4
      vertex -3.59791 20.8292 0
      vertex -3.59791 20.8292 4
    endloop
  endfacet
  facet normal -0.844326 0.53583 0
    outer loop
      vertex -3.59791 20.8292 0
      vertex -3.70557 20.6595 0
      vertex -3.59791 20.8292 4
    endloop
  endfacet
  facet normal -0.844326 0.53583 0
    outer loop
      vertex -3.59791 20.8292 4
      vertex -3.70557 20.6595 0
      vertex -3.70557 20.6595 4
    endloop
  endfacet
  facet normal -0.770514 0.637423 0
    outer loop
      vertex -3.70557 20.6595 0
      vertex -3.83365 20.5047 0
      vertex -3.70557 20.6595 4
    endloop
  endfacet
  facet normal -0.770514 0.637423 0
    outer loop
      vertex -3.70557 20.6595 4
      vertex -3.83365 20.5047 0
      vertex -3.83365 20.5047 4
    endloop
  endfacet
  facet normal -0.684546 0.72897 0
    outer loop
      vertex -3.83868 20.5 4
      vertex -3.83365 20.5047 4
      vertex -3.83868 20.5 3.3
    endloop
  endfacet
  facet normal -0.684546 0.72897 0
    outer loop
      vertex -3.83868 20.5 3.3
      vertex -3.83365 20.5047 4
      vertex -3.83365 20.5047 0
    endloop
  endfacet
  facet normal -0.684546 0.72897 0
    outer loop
      vertex -3.83868 20.5 3.3
      vertex -3.83365 20.5047 0
      vertex -3.98012 20.3672 0
    endloop
  endfacet
  facet normal -0.684546 0.72897 0
    outer loop
      vertex -3.83868 20.5 3.3
      vertex -3.98012 20.3672 0
      vertex -3.98012 20.3672 3.3
    endloop
  endfacet
  facet normal -0.587788 0.809015 0
    outer loop
      vertex -3.98012 20.3672 0
      vertex -4.14268 20.2491 0
      vertex -3.98012 20.3672 3.3
    endloop
  endfacet
  facet normal -0.587788 0.809015 0
    outer loop
      vertex -3.98012 20.3672 3.3
      vertex -4.14268 20.2491 0
      vertex -4.14268 20.2491 3.3
    endloop
  endfacet
  facet normal -0.481751 0.876308 0
    outer loop
      vertex -4.275 20.1763 3.3
      vertex -4.14268 20.2491 3.3
      vertex -4.275 20.1763 2.6
    endloop
  endfacet
  facet normal -0.481751 0.876308 0
    outer loop
      vertex -4.275 20.1763 2.6
      vertex -4.14268 20.2491 3.3
      vertex -4.14268 20.2491 0
    endloop
  endfacet
  facet normal -0.481751 0.876308 0
    outer loop
      vertex -4.275 20.1763 2.6
      vertex -4.14268 20.2491 0
      vertex -4.31875 20.1523 0
    endloop
  endfacet
  facet normal -0.481751 0.876308 0
    outer loop
      vertex -4.275 20.1763 2.6
      vertex -4.31875 20.1523 0
      vertex -4.31875 20.1523 2.6
    endloop
  endfacet
  facet normal -0.368123 0.929777 0
    outer loop
      vertex -4.31875 20.1523 0
      vertex -4.50557 20.0783 0
      vertex -4.31875 20.1523 2.6
    endloop
  endfacet
  facet normal -0.368123 0.929777 0
    outer loop
      vertex -4.31875 20.1523 2.6
      vertex -4.50557 20.0783 0
      vertex -4.50557 20.0783 2.6
    endloop
  endfacet
  facet normal -0.248694 0.968582 0
    outer loop
      vertex -4.50557 20.0783 0
      vertex -4.70019 20.0283 0
      vertex -4.50557 20.0783 2.6
    endloop
  endfacet
  facet normal -0.248694 0.968582 0
    outer loop
      vertex -4.50557 20.0783 2.6
      vertex -4.70019 20.0283 0
      vertex -4.70019 20.0283 2.6
    endloop
  endfacet
  facet normal -0.125333 0.992115 0
    outer loop
      vertex -4.70019 20.0283 0
      vertex -4.89953 20.0032 0
      vertex -4.70019 20.0283 2.6
    endloop
  endfacet
  facet normal -0.125333 0.992115 0
    outer loop
      vertex -4.70019 20.0283 2.6
      vertex -4.89953 20.0032 0
      vertex -4.89953 20.0032 2.6
    endloop
  endfacet
  facet normal 0 1 0
    outer loop
      vertex -4.89953 20.0032 0
      vertex -5.10046 20.0032 0
      vertex -4.89953 20.0032 2.6
    endloop
  endfacet
  facet normal 0 1 0
    outer loop
      vertex -4.89953 20.0032 2.6
      vertex -5.10046 20.0032 0
      vertex -5.10046 20.0032 2.6
    endloop
  endfacet
  facet normal 0.125333 0.992115 0
    outer loop
      vertex -5.10046 20.0032 0
      vertex -5.29981 20.0283 0
      vertex -5.10046 20.0032 2.6
    endloop
  endfacet
  facet normal 0.125333 0.992115 0
    outer loop
      vertex -5.10046 20.0032 2.6
      vertex -5.29981 20.0283 0
      vertex -5.29981 20.0283 2.6
    endloop
  endfacet
  facet normal 0.248694 0.968582 0
    outer loop
      vertex -5.29981 20.0283 0
      vertex -5.49443 20.0783 0
      vertex -5.29981 20.0283 2.6
    endloop
  endfacet
  facet normal 0.248694 0.968582 0
    outer loop
      vertex -5.29981 20.0283 2.6
      vertex -5.49443 20.0783 0
      vertex -5.49443 20.0783 2.6
    endloop
  endfacet
  facet normal 0.368123 0.929777 0
    outer loop
      vertex -5.49443 20.0783 0
      vertex -5.68125 20.1523 0
      vertex -5.49443 20.0783 2.6
    endloop
  endfacet
  facet normal 0.368123 0.929777 0
    outer loop
      vertex -5.49443 20.0783 2.6
      vertex -5.68125 20.1523 0
      vertex -5.68125 20.1523 2.6
    endloop
  endfacet
  facet normal 0.481751 0.876308 0
    outer loop
      vertex -5.725 20.1763 2.6
      vertex -5.68125 20.1523 2.6
      vertex -5.68125 20.1523 0
    endloop
  endfacet
  facet normal 0.481751 0.876308 0
    outer loop
      vertex -5.725 20.1763 2.6
      vertex -5.68125 20.1523 0
      vertex -5.85732 20.2491 0
    endloop
  endfacet
  facet normal 0.481751 0.876308 0
    outer loop
      vertex -5.725 20.1763 2.6
      vertex -5.85732 20.2491 0
      vertex -5.725 20.1763 3.3
    endloop
  endfacet
  facet normal 0.481751 0.876308 0
    outer loop
      vertex -5.85732 20.2491 0
      vertex -5.85732 20.2491 3.3
      vertex -5.725 20.1763 3.3
    endloop
  endfacet
  facet normal 0.587788 0.809015 0
    outer loop
      vertex -5.85732 20.2491 0
      vertex -6.01988 20.3672 0
      vertex -5.85732 20.2491 3.3
    endloop
  endfacet
  facet normal 0.587788 0.809015 0
    outer loop
      vertex -5.85732 20.2491 3.3
      vertex -6.01988 20.3672 0
      vertex -6.01988 20.3672 3.3
    endloop
  endfacet
  facet normal 0.684546 0.72897 0
    outer loop
      vertex -6.16132 20.5 3.3
      vertex -6.01988 20.3672 3.3
      vertex -6.01988 20.3672 0
    endloop
  endfacet
  facet normal 0.684546 0.72897 0
    outer loop
      vertex -6.16132 20.5 3.3
      vertex -6.01988 20.3672 0
      vertex -6.16635 20.5047 0
    endloop
  endfacet
  facet normal 0.684546 0.72897 0
    outer loop
      vertex -6.16132 20.5 3.3
      vertex -6.16635 20.5047 0
      vertex -6.16132 20.5 4
    endloop
  endfacet
  facet normal 0.684546 0.72897 0
    outer loop
      vertex -6.16635 20.5047 0
      vertex -6.16635 20.5047 4
      vertex -6.16132 20.5 4
    endloop
  endfacet
  facet normal 0.770514 0.637423 0
    outer loop
      vertex -6.16635 20.5047 4
      vertex -6.16635 20.5047 0
      vertex -6.29443 20.6595 0
    endloop
  endfacet
  facet normal 0.770514 0.637423 0
    outer loop
      vertex -6.29443 20.6595 4
      vertex -6.16635 20.5047 4
      vertex -6.29443 20.6595 0
    endloop
  endfacet
  facet normal 0.844326 0.53583 0
    outer loop
      vertex -6.29443 20.6595 4
      vertex -6.29443 20.6595 0
      vertex -6.40209 20.8292 0
    endloop
  endfacet
  facet normal 0.844326 0.53583 0
    outer loop
      vertex -6.40209 20.8292 4
      vertex -6.29443 20.6595 4
      vertex -6.40209 20.8292 0
    endloop
  endfacet
  facet normal 0.904829 0.425776 0
    outer loop
      vertex -6.40209 20.8292 4
      vertex -6.40209 20.8292 0
      vertex -6.48764 21.011 0
    endloop
  endfacet
  facet normal 0.904829 0.425776 0
    outer loop
      vertex -6.48764 21.011 4
      vertex -6.40209 20.8292 4
      vertex -6.48764 21.011 0
    endloop
  endfacet
  facet normal 0.951056 0.309019 0
    outer loop
      vertex -6.48764 21.011 4
      vertex -6.48764 21.011 0
      vertex -6.54973 21.2021 0
    endloop
  endfacet
  facet normal 0.951056 0.309019 0
    outer loop
      vertex -6.54973 21.2021 4
      vertex -6.48764 21.011 4
      vertex -6.54973 21.2021 0
    endloop
  endfacet
  facet normal 0.982287 0.187384 0
    outer loop
      vertex -6.54973 21.2021 4
      vertex -6.54973 21.2021 0
      vertex -6.58738 21.3995 0
    endloop
  endfacet
  facet normal 0.982287 0.187384 0
    outer loop
      vertex -6.58738 21.3995 4
      vertex -6.54973 21.2021 4
      vertex -6.58738 21.3995 0
    endloop
  endfacet
  facet normal 0.998027 -0.0627882 0
    outer loop
      vertex 3.4 21.6 0
      vertex 3.41262 21.8005 0
      vertex 3.41262 21.8005 4
    endloop
  endfacet
  facet normal 0.998027 -0.0627882 0
    outer loop
      vertex 3.4 21.6 4
      vertex 3.4 21.6 0
      vertex 3.41262 21.8005 4
    endloop
  endfacet
  facet normal 0.998027 0.0627882 0
    outer loop
      vertex 3.41262 21.3995 4
      vertex 3.41262 21.3995 0
      vertex 3.4 21.6 0
    endloop
  endfacet
  facet normal 0.998027 0.0627882 0
    outer loop
      vertex 3.4 21.6 4
      vertex 3.41262 21.3995 4
      vertex 3.4 21.6 0
    endloop
  endfacet
  facet normal 0.982287 -0.187384 0
    outer loop
      vertex 3.41262 21.8005 0
      vertex 3.45027 21.9979 0
      vertex 3.45027 21.9979 4
    endloop
  endfacet
  facet normal 0.982287 -0.187384 0
    outer loop
      vertex 3.41262 21.8005 4
      vertex 3.41262 21.8005 0
      vertex 3.45027 21.9979 4
    endloop
  endfacet
  facet normal 0.951056 -0.309019 0
    outer loop
      vertex 3.45027 21.9979 0
      vertex 3.51236 22.189 0
      vertex 3.51236 22.189 4
    endloop
  endfacet
  facet normal 0.951056 -0.309019 0
    outer loop
      vertex 3.45027 21.9979 4
      vertex 3.45027 21.9979 0
      vertex 3.51236 22.189 4
    endloop
  endfacet
  facet normal 0.904829 -0.425776 0
    outer loop
      vertex 3.51236 22.189 0
      vertex 3.59791 22.3708 0
      vertex 3.59791 22.3708 4
    endloop
  endfacet
  facet normal 0.904829 -0.425776 0
    outer loop
      vertex 3.51236 22.189 4
      vertex 3.51236 22.189 0
      vertex 3.59791 22.3708 4
    endloop
  endfacet
  facet normal 0.844326 -0.53583 0
    outer loop
      vertex 3.59791 22.3708 0
      vertex 3.70557 22.5405 0
      vertex 3.70557 22.5405 4
    endloop
  endfacet
  facet normal 0.844326 -0.53583 0
    outer loop
      vertex 3.59791 22.3708 4
      vertex 3.59791 22.3708 0
      vertex 3.70557 22.5405 4
    endloop
  endfacet
  facet normal 0.770514 -0.637423 0
    outer loop
      vertex 3.70557 22.5405 0
      vertex 3.83365 22.6953 0
      vertex 3.83365 22.6953 4
    endloop
  endfacet
  facet normal 0.770514 -0.637423 0
    outer loop
      vertex 3.70557 22.5405 4
      vertex 3.70557 22.5405 0
      vertex 3.83365 22.6953 4
    endloop
  endfacet
  facet normal 0.684546 -0.72897 0
    outer loop
      vertex 3.83365 22.6953 0
      vertex 3.98012 22.8328 0
      vertex 3.98012 22.8328 4
    endloop
  endfacet
  facet normal 0.684546 -0.72897 0
    outer loop
      vertex 3.83365 22.6953 4
      vertex 3.83365 22.6953 0
      vertex 3.98012 22.8328 4
    endloop
  endfacet
  facet normal 0.587788 -0.809015 0
    outer loop
      vertex 3.98012 22.8328 0
      vertex 4.14268 22.9509 0
      vertex 4.14268 22.9509 4
    endloop
  endfacet
  facet normal 0.587788 -0.809015 0
    outer loop
      vertex 3.98012 22.8328 4
      vertex 3.98012 22.8328 0
      vertex 4.14268 22.9509 4
    endloop
  endfacet
  facet normal 0.481751 -0.876308 0
    outer loop
      vertex 4.14268 22.9509 0
      vertex 4.31875 23.0477 0
      vertex 4.31875 23.0477 4
    endloop
  endfacet
  facet normal 0.481751 -0.876308 0
    outer loop
      vertex 4.14268 22.9509 4
      vertex 4.14268 22.9509 0
      vertex 4.31875 23.0477 4
    endloop
  endfacet
  facet normal 0.368123 -0.929777 0
    outer loop
      vertex 4.31875 23.0477 0
      vertex 4.50557 23.1217 0
      vertex 4.50557 23.1217 4
    endloop
  endfacet
  facet normal 0.368123 -0.929777 0
    outer loop
      vertex 4.31875 23.0477 4
      vertex 4.31875 23.0477 0
      vertex 4.50557 23.1217 4
    endloop
  endfacet
  facet normal 0.248694 -0.968582 0
    outer loop
      vertex 4.50557 23.1217 0
      vertex 4.70019 23.1717 0
      vertex 4.70019 23.1717 4
    endloop
  endfacet
  facet normal 0.248694 -0.968582 0
    outer loop
      vertex 4.50557 23.1217 4
      vertex 4.50557 23.1217 0
      vertex 4.70019 23.1717 4
    endloop
  endfacet
  facet normal 0.125333 -0.992115 0
    outer loop
      vertex 4.70019 23.1717 0
      vertex 4.89953 23.1968 0
      vertex 4.89953 23.1968 4
    endloop
  endfacet
  facet normal 0.125333 -0.992115 0
    outer loop
      vertex 4.70019 23.1717 4
      vertex 4.70019 23.1717 0
      vertex 4.89953 23.1968 4
    endloop
  endfacet
  facet normal 0 -1 0
    outer loop
      vertex 4.89953 23.1968 0
      vertex 5.10046 23.1968 0
      vertex 5.10046 23.1968 4
    endloop
  endfacet
  facet normal 0 -1 0
    outer loop
      vertex 4.89953 23.1968 4
      vertex 4.89953 23.1968 0
      vertex 5.10046 23.1968 4
    endloop
  endfacet
  facet normal -0.125333 -0.992115 0
    outer loop
      vertex 5.10046 23.1968 0
      vertex 5.29981 23.1717 0
      vertex 5.29981 23.1717 4
    endloop
  endfacet
  facet normal -0.125333 -0.992115 0
    outer loop
      vertex 5.10046 23.1968 4
      vertex 5.10046 23.1968 0
      vertex 5.29981 23.1717 4
    endloop
  endfacet
  facet normal -0.248694 -0.968582 0
    outer loop
      vertex 5.29981 23.1717 0
      vertex 5.49443 23.1217 0
      vertex 5.49443 23.1217 4
    endloop
  endfacet
  facet normal -0.248694 -0.968582 0
    outer loop
      vertex 5.29981 23.1717 4
      vertex 5.29981 23.1717 0
      vertex 5.49443 23.1217 4
    endloop
  endfacet
  facet normal -0.368123 -0.929777 0
    outer loop
      vertex 5.49443 23.1217 0
      vertex 5.68125 23.0477 0
      vertex 5.68125 23.0477 4
    endloop
  endfacet
  facet normal -0.368123 -0.929777 0
    outer loop
      vertex 5.49443 23.1217 4
      vertex 5.49443 23.1217 0
      vertex 5.68125 23.0477 4
    endloop
  endfacet
  facet normal -0.481751 -0.876308 0
    outer loop
      vertex 5.68125 23.0477 0
      vertex 5.85732 22.9509 0
      vertex 5.85732 22.9509 4
    endloop
  endfacet
  facet normal -0.481751 -0.876308 0
    outer loop
      vertex 5.68125 23.0477 4
      vertex 5.68125 23.0477 0
      vertex 5.85732 22.9509 4
    endloop
  endfacet
  facet normal -0.587788 -0.809015 0
    outer loop
      vertex 5.85732 22.9509 0
      vertex 6.01988 22.8328 0
      vertex 6.01988 22.8328 4
    endloop
  endfacet
  facet normal -0.587788 -0.809015 0
    outer loop
      vertex 5.85732 22.9509 4
      vertex 5.85732 22.9509 0
      vertex 6.01988 22.8328 4
    endloop
  endfacet
  facet normal -0.684546 -0.72897 0
    outer loop
      vertex 6.01988 22.8328 0
      vertex 6.16635 22.6953 0
      vertex 6.16635 22.6953 4
    endloop
  endfacet
  facet normal -0.684546 -0.72897 0
    outer loop
      vertex 6.01988 22.8328 4
      vertex 6.01988 22.8328 0
      vertex 6.16635 22.6953 4
    endloop
  endfacet
  facet normal -0.770514 -0.637423 0
    outer loop
      vertex 6.29443 22.5405 0
      vertex 6.29443 22.5405 4
      vertex 6.16635 22.6953 0
    endloop
  endfacet
  facet normal -0.770514 -0.637423 0
    outer loop
      vertex 6.16635 22.6953 0
      vertex 6.29443 22.5405 4
      vertex 6.16635 22.6953 4
    endloop
  endfacet
  facet normal -0.844326 -0.53583 0
    outer loop
      vertex 6.40209 22.3708 0
      vertex 6.40209 22.3708 4
      vertex 6.29443 22.5405 0
    endloop
  endfacet
  facet normal -0.844326 -0.53583 0
    outer loop
      vertex 6.29443 22.5405 0
      vertex 6.40209 22.3708 4
      vertex 6.29443 22.5405 4
    endloop
  endfacet
  facet normal -0.904829 -0.425776 0
    outer loop
      vertex 6.48764 22.189 0
      vertex 6.48764 22.189 4
      vertex 6.40209 22.3708 0
    endloop
  endfacet
  facet normal -0.904829 -0.425776 0
    outer loop
      vertex 6.40209 22.3708 0
      vertex 6.48764 22.189 4
      vertex 6.40209 22.3708 4
    endloop
  endfacet
  facet normal -0.951056 -0.309019 0
    outer loop
      vertex 6.54973 21.9979 0
      vertex 6.54973 21.9979 4
      vertex 6.48764 22.189 0
    endloop
  endfacet
  facet normal -0.951056 -0.309019 0
    outer loop
      vertex 6.48764 22.189 0
      vertex 6.54973 21.9979 4
      vertex 6.48764 22.189 4
    endloop
  endfacet
  facet normal -0.982287 -0.187384 0
    outer loop
      vertex 6.58738 21.8005 0
      vertex 6.58738 21.8005 4
      vertex 6.54973 21.9979 0
    endloop
  endfacet
  facet normal -0.982287 -0.187384 0
    outer loop
      vertex 6.54973 21.9979 0
      vertex 6.58738 21.8005 4
      vertex 6.54973 21.9979 4
    endloop
  endfacet
  facet normal -0.998027 -0.0627882 0
    outer loop
      vertex 6.6 21.6 0
      vertex 6.6 21.6 4
      vertex 6.58738 21.8005 0
    endloop
  endfacet
  facet normal -0.998027 -0.0627882 0
    outer loop
      vertex 6.58738 21.8005 0
      vertex 6.6 21.6 4
      vertex 6.58738 21.8005 4
    endloop
  endfacet
  facet normal -0.998027 0.0627882 0
    outer loop
      vertex 6.6 21.6 0
      vertex 6.58738 21.3995 0
      vertex 6.6 21.6 4
    endloop
  endfacet
  facet normal -0.998027 0.0627882 0
    outer loop
      vertex 6.6 21.6 4
      vertex 6.58738 21.3995 0
      vertex 6.58738 21.3995 4
    endloop
  endfacet
  facet normal -0.982287 0.187384 0
    outer loop
      vertex 6.58738 21.3995 0
      vertex 6.54973 21.2021 0
      vertex 6.58738 21.3995 4
    endloop
  endfacet
  facet normal -0.982287 0.187384 0
    outer loop
      vertex 6.58738 21.3995 4
      vertex 6.54973 21.2021 0
      vertex 6.54973 21.2021 4
    endloop
  endfacet
  facet normal -0.951056 0.309019 0
    outer loop
      vertex 6.54973 21.2021 0
      vertex 6.48764 21.011 0
      vertex 6.54973 21.2021 4
    endloop
  endfacet
  facet normal -0.951056 0.309019 0
    outer loop
      vertex 6.54973 21.2021 4
      vertex 6.48764 21.011 0
      vertex 6.48764 21.011 4
    endloop
  endfacet
  facet normal -0.904829 0.425776 0
    outer loop
      vertex 6.48764 21.011 0
      vertex 6.40209 20.8292 0
      vertex 6.48764 21.011 4
    endloop
  endfacet
  facet normal -0.904829 0.425776 0
    outer loop
      vertex 6.48764 21.011 4
      vertex 6.40209 20.8292 0
      vertex 6.40209 20.8292 4
    endloop
  endfacet
  facet normal -0.844326 0.53583 0
    outer loop
      vertex 6.40209 20.8292 0
      vertex 6.29443 20.6595 0
      vertex 6.40209 20.8292 4
    endloop
  endfacet
  facet normal -0.844326 0.53583 0
    outer loop
      vertex 6.40209 20.8292 4
      vertex 6.29443 20.6595 0
      vertex 6.29443 20.6595 4
    endloop
  endfacet
  facet normal -0.770514 0.637423 0
    outer loop
      vertex 6.29443 20.6595 0
      vertex 6.16635 20.5047 0
      vertex 6.29443 20.6595 4
    endloop
  endfacet
  facet normal -0.770514 0.637423 0
    outer loop
      vertex 6.29443 20.6595 4
      vertex 6.16635 20.5047 0
      vertex 6.16635 20.5047 4
    endloop
  endfacet
  facet normal -0.684546 0.72897 0
    outer loop
      vertex 6.16132 20.5 4
      vertex 6.16635 20.5047 4
      vertex 6.16132 20.5 3.3
    endloop
  endfacet
  facet normal -0.684546 0.72897 0
    outer loop
      vertex 6.16132 20.5 3.3
      vertex 6.16635 20.5047 4
      vertex 6.16635 20.5047 0
    endloop
  endfacet
  facet normal -0.684546 0.72897 0
    outer loop
      vertex 6.16132 20.5 3.3
      vertex 6.16635 20.5047 0
      vertex 6.01988 20.3672 0
    endloop
  endfacet
  facet normal -0.684546 0.72897 0
    outer loop
      vertex 6.16132 20.5 3.3
      vertex 6.01988 20.3672 0
      vertex 6.01988 20.3672 3.3
    endloop
  endfacet
  facet normal -0.587788 0.809015 0
    outer loop
      vertex 6.01988 20.3672 0
      vertex 5.85732 20.2491 0
      vertex 6.01988 20.3672 3.3
    endloop
  endfacet
  facet normal -0.587788 0.809015 0
    outer loop
      vertex 6.01988 20.3672 3.3
      vertex 5.85732 20.2491 0
      vertex 5.85732 20.2491 3.3
    endloop
  endfacet
  facet normal -0.481751 0.876308 0
    outer loop
      vertex 5.725 20.1763 3.3
      vertex 5.85732 20.2491 3.3
      vertex 5.725 20.1763 2.6
    endloop
  endfacet
  facet normal -0.481751 0.876308 0
    outer loop
      vertex 5.725 20.1763 2.6
      vertex 5.85732 20.2491 3.3
      vertex 5.85732 20.2491 0
    endloop
  endfacet
  facet normal -0.481751 0.876308 0
    outer loop
      vertex 5.725 20.1763 2.6
      vertex 5.85732 20.2491 0
      vertex 5.68125 20.1523 0
    endloop
  endfacet
  facet normal -0.481751 0.876308 0
    outer loop
      vertex 5.725 20.1763 2.6
      vertex 5.68125 20.1523 0
      vertex 5.68125 20.1523 2.6
    endloop
  endfacet
  facet normal -0.368123 0.929777 0
    outer loop
      vertex 5.68125 20.1523 0
      vertex 5.49443 20.0783 0
      vertex 5.68125 20.1523 2.6
    endloop
  endfacet
  facet normal -0.368123 0.929777 0
    outer loop
      vertex 5.68125 20.1523 2.6
      vertex 5.49443 20.0783 0
      vertex 5.49443 20.0783 2.6
    endloop
  endfacet
  facet normal -0.248694 0.968582 0
    outer loop
      vertex 5.49443 20.0783 0
      vertex 5.29981 20.0283 0
      vertex 5.49443 20.0783 2.6
    endloop
  endfacet
  facet normal -0.248694 0.968582 0
    outer loop
      vertex 5.49443 20.0783 2.6
      vertex 5.29981 20.0283 0
      vertex 5.29981 20.0283 2.6
    endloop
  endfacet
  facet normal -0.125333 0.992115 0
    outer loop
      vertex 5.29981 20.0283 0
      vertex 5.10046 20.0032 0
      vertex 5.29981 20.0283 2.6
    endloop
  endfacet
  facet normal -0.125333 0.992115 0
    outer loop
      vertex 5.29981 20.0283 2.6
      vertex 5.10046 20.0032 0
      vertex 5.10046 20.0032 2.6
    endloop
  endfacet
  facet normal 0 1 0
    outer loop
      vertex 5.10046 20.0032 0
      vertex 4.89953 20.0032 0
      vertex 5.10046 20.0032 2.6
    endloop
  endfacet
  facet normal 0 1 0
    outer loop
      vertex 5.10046 20.0032 2.6
      vertex 4.89953 20.0032 0
      vertex 4.89953 20.0032 2.6
    endloop
  endfacet
  facet normal 0.125333 0.992115 0
    outer loop
      vertex 4.89953 20.0032 0
      vertex 4.70019 20.0283 0
      vertex 4.89953 20.0032 2.6
    endloop
  endfacet
  facet normal 0.125333 0.992115 0
    outer loop
      vertex 4.89953 20.0032 2.6
      vertex 4.70019 20.0283 0
      vertex 4.70019 20.0283 2.6
    endloop
  endfacet
  facet normal 0.248694 0.968582 0
    outer loop
      vertex 4.70019 20.0283 0
      vertex 4.50557 20.0783 0
      vertex 4.70019 20.0283 2.6
    endloop
  endfacet
  facet normal 0.248694 0.968582 0
    outer loop
      vertex 4.70019 20.0283 2.6
      vertex 4.50557 20.0783 0
      vertex 4.50557 20.0783 2.6
    endloop
  endfacet
  facet normal 0.368123 0.929777 0
    outer loop
      vertex 4.50557 20.0783 0
      vertex 4.31875 20.1523 0
      vertex 4.50557 20.0783 2.6
    endloop
  endfacet
  facet normal 0.368123 0.929777 0
    outer loop
      vertex 4.50557 20.0783 2.6
      vertex 4.31875 20.1523 0
      vertex 4.31875 20.1523 2.6
    endloop
  endfacet
  facet normal 0.481751 0.876308 0
    outer loop
      vertex 4.275 20.1763 2.6
      vertex 4.31875 20.1523 2.6
      vertex 4.31875 20.1523 0
    endloop
  endfacet
  facet normal 0.481751 0.876308 0
    outer loop
      vertex 4.275 20.1763 2.6
      vertex 4.31875 20.1523 0
      vertex 4.14268 20.2491 0
    endloop
  endfacet
  facet normal 0.481751 0.876308 0
    outer loop
      vertex 4.275 20.1763 2.6
      vertex 4.14268 20.2491 0
      vertex 4.275 20.1763 3.3
    endloop
  endfacet
  facet normal 0.481751 0.876308 0
    outer loop
      vertex 4.14268 20.2491 0
      vertex 4.14268 20.2491 3.3
      vertex 4.275 20.1763 3.3
    endloop
  endfacet
  facet normal 0.587788 0.809015 0
    outer loop
      vertex 4.14268 20.2491 0
      vertex 3.98012 20.3672 0
      vertex 4.14268 20.2491 3.3
    endloop
  endfacet
  facet normal 0.587788 0.809015 0
    outer loop
      vertex 4.14268 20.2491 3.3
      vertex 3.98012 20.3672 0
      vertex 3.98012 20.3672 3.3
    endloop
  endfacet
  facet normal 0.684546 0.72897 0
    outer loop
      vertex 3.83868 20.5 3.3
      vertex 3.98012 20.3672 3.3
      vertex 3.98012 20.3672 0
    endloop
  endfacet
  facet normal 0.684546 0.72897 0
    outer loop
      vertex 3.83868 20.5 3.3
      vertex 3.98012 20.3672 0
      vertex 3.83365 20.5047 0
    endloop
  endfacet
  facet normal 0.684546 0.72897 0
    outer loop
      vertex 3.83868 20.5 3.3
      vertex 3.83365 20.5047 0
      vertex 3.83868 20.5 4
    endloop
  endfacet
  facet normal 0.684546 0.72897 0
    outer loop
      vertex 3.83365 20.5047 0
      vertex 3.83365 20.5047 4
      vertex 3.83868 20.5 4
    endloop
  endfacet
  facet normal 0.770514 0.637423 0
    outer loop
      vertex 3.83365 20.5047 4
      vertex 3.83365 20.5047 0
      vertex 3.70557 20.6595 0
    endloop
  endfacet
  facet normal 0.770514 0.637423 0
    outer loop
      vertex 3.70557 20.6595 4
      vertex 3.83365 20.5047 4
      vertex 3.70557 20.6595 0
    endloop
  endfacet
  facet normal 0.844326 0.53583 0
    outer loop
      vertex 3.70557 20.6595 4
      vertex 3.70557 20.6595 0
      vertex 3.59791 20.8292 0
    endloop
  endfacet
  facet normal 0.844326 0.53583 0
    outer loop
      vertex 3.59791 20.8292 4
      vertex 3.70557 20.6595 4
      vertex 3.59791 20.8292 0
    endloop
  endfacet
  facet normal 0.904829 0.425776 0
    outer loop
      vertex 3.59791 20.8292 4
      vertex 3.59791 20.8292 0
      vertex 3.51236 21.011 0
    endloop
  endfacet
  facet normal 0.904829 0.425776 0
    outer loop
      vertex 3.51236 21.011 4
      vertex 3.59791 20.8292 4
      vertex 3.51236 21.011 0
    endloop
  endfacet
  facet normal 0.951056 0.309019 0
    outer loop
      vertex 3.51236 21.011 4
      vertex 3.51236 21.011 0
      vertex 3.45027 21.2021 0
    endloop
  endfacet
  facet normal 0.951056 0.309019 0
    outer loop
      vertex 3.45027 21.2021 4
      vertex 3.51236 21.011 4
      vertex 3.45027 21.2021 0
    endloop
  endfacet
  facet normal 0.982287 0.187384 0
    outer loop
      vertex 3.45027 21.2021 4
      vertex 3.45027 21.2021 0
      vertex 3.41262 21.3995 0
    endloop
  endfacet
  facet normal 0.982287 0.187384 0
    outer loop
      vertex 3.41262 21.3995 4
      vertex 3.45027 21.2021 4
      vertex 3.41262 21.3995 0
    endloop
  endfacet
  facet normal 0 -1 -2.22045e-016
    outer loop
      vertex -1.775 20.5 4
      vertex 3.83868 20.5 4
      vertex -3.225 20.5 4
    endloop
  endfacet
  facet normal 0 -1 -2.22045e-016
    outer loop
      vertex -3.83868 20.5 3.3
      vertex -3.225 20.5 3.3
      vertex -3.225 20.5 4
    endloop
  endfacet
  facet normal 0 -1 -2.22045e-016
    outer loop
      vertex -0.725 20.5 4
      vertex 3.83868 20.5 4
      vertex -1.775 20.5 4
    endloop
  endfacet
  facet normal 0 -1 -2.22045e-016
    outer loop
      vertex -3.83868 20.5 4
      vertex -3.83868 20.5 3.3
      vertex -3.225 20.5 4
    endloop
  endfacet
  facet normal 0 -1 -2.22045e-016
    outer loop
      vertex -1.775 20.5 3.3
      vertex -0.725 20.5 3.3
      vertex -1.775 20.5 4
    endloop
  endfacet
  facet normal 0 -1 -2.22045e-016
    outer loop
      vertex -0.725 20.5 3.3
      vertex -0.725 20.5 4
      vertex -1.775 20.5 4
    endloop
  endfacet
  facet normal 0 -1 -2.22045e-016
    outer loop
      vertex 0.725 20.5 4
      vertex 3.83868 20.5 4
      vertex -0.725 20.5 4
    endloop
  endfacet
  facet normal 0 -1 -2.22045e-016
    outer loop
      vertex 1.775 20.5 4
      vertex 3.83868 20.5 4
      vertex 0.725 20.5 4
    endloop
  endfacet
  facet normal 0 -1 -2.22045e-016
    outer loop
      vertex 0.725 20.5 3.3
      vertex 1.775 20.5 3.3
      vertex 0.725 20.5 4
    endloop
  endfacet
  facet normal 0 -1 -2.22045e-016
    outer loop
      vertex 1.775 20.5 3.3
      vertex 1.775 20.5 4
      vertex 0.725 20.5 4
    endloop
  endfacet
  facet normal 0 -1 -2.22045e-016
    outer loop
      vertex 3.225 20.5 4
      vertex 3.83868 20.5 4
      vertex 1.775 20.5 4
    endloop
  endfacet
  facet normal 0 -1 -2.22045e-016
    outer loop
      vertex 3.225 20.5 3.3
      vertex 3.83868 20.5 3.3
      vertex 3.225 20.5 4
    endloop
  endfacet
  facet normal 0 -1 -2.22045e-016
    outer loop
      vertex 3.83868 20.5 3.3
      vertex 3.83868 20.5 4
      vertex 3.225 20.5 4
    endloop
  endfacet
  facet normal 0 -1 -2.22045e-016
    outer loop
      vertex 3.83868 20.5 4
      vertex -3.83868 20.5 4
      vertex -3.225 20.5 4
    endloop
  endfacet
  facet normal -1 0 0
    outer loop
      vertex -6.775 20.5 2.6
      vertex -6.775 13.5 2.6
      vertex -6.775 20.5 3.3
    endloop
  endfacet
  facet normal -1 0 0
    outer loop
      vertex -6.775 20.5 2.6
      vertex -6.775 20.5 3.3
      vertex -6.775 20.5 4
    endloop
  endfacet
  facet normal -1 0 0
    outer loop
      vertex -6.775 20.5 3.3
      vertex -6.775 13.5 2.6
      vertex -6.775 13.5 3.3
    endloop
  endfacet
  facet normal 1 0 0
    outer loop
      vertex -8.225 20.5 3.3
      vertex -8.225 13.5 3.3
      vertex -8.225 13.5 2.6
    endloop
  endfacet
  facet normal 1 0 0
    outer loop
      vertex -8.225 20.5 4
      vertex -8.225 20.5 3.3
      vertex -8.225 20.5 2.6
    endloop
  endfacet
  facet normal 1 0 0
    outer loop
      vertex -8.225 20.5 2.6
      vertex -8.225 20.5 3.3
      vertex -8.225 13.5 2.6
    endloop
  endfacet
  facet normal -1 0 0
    outer loop
      vertex -9.275 20.5 2.6
      vertex -9.275 13.5 2.6
      vertex -9.275 20.5 3.3
    endloop
  endfacet
  facet normal -1 0 0
    outer loop
      vertex -9.275 20.5 2.6
      vertex -9.275 20.5 3.3
      vertex -9.275 20.5 4
    endloop
  endfacet
  facet normal -1 0 0
    outer loop
      vertex -9.275 20.5 3.3
      vertex -9.275 13.5 2.6
      vertex -9.275 13.5 3.3
    endloop
  endfacet
  facet normal 0 1 0
    outer loop
      vertex -6.775 13.5 2.6
      vertex -8.225 13.5 2.6
      vertex -6.775 13.5 3.3
    endloop
  endfacet
  facet normal 0 1 0
    outer loop
      vertex -6.775 13.5 3.3
      vertex -8.225 13.5 2.6
      vertex -8.225 13.5 3.3
    endloop
  endfacet
  facet normal 1 0 0
    outer loop
      vertex -5.725 13.5 2.6
      vertex -5.725 20.1763 2.6
      vertex -5.725 20.1763 3.3
    endloop
  endfacet
  facet normal 1 0 0
    outer loop
      vertex -5.725 13.5 3.3
      vertex -5.725 13.5 2.6
      vertex -5.725 20.1763 3.3
    endloop
  endfacet
  facet normal 0 1 0
    outer loop
      vertex -4.275 13.5 2.6
      vertex -5.725 13.5 2.6
      vertex -4.275 13.5 3.3
    endloop
  endfacet
  facet normal 0 1 0
    outer loop
      vertex -4.275 13.5 3.3
      vertex -5.725 13.5 2.6
      vertex -5.725 13.5 3.3
    endloop
  endfacet
  facet normal -1 0 0
    outer loop
      vertex -4.275 20.1763 2.6
      vertex -4.275 13.5 2.6
      vertex -4.275 20.1763 3.3
    endloop
  endfacet
  facet normal -1 0 0
    outer loop
      vertex -4.275 20.1763 3.3
      vertex -4.275 13.5 2.6
      vertex -4.275 13.5 3.3
    endloop
  endfacet
  facet normal 1 0 0
    outer loop
      vertex -3.225 20.5 3.3
      vertex -3.225 13.5 3.3
      vertex -3.225 13.5 2.6
    endloop
  endfacet
  facet normal 1 0 0
    outer loop
      vertex -3.225 20.5 4
      vertex -3.225 20.5 3.3
      vertex -3.225 20.5 2.6
    endloop
  endfacet
  facet normal 1 0 0
    outer loop
      vertex -3.225 20.5 2.6
      vertex -3.225 20.5 3.3
      vertex -3.225 13.5 2.6
    endloop
  endfacet
  facet normal 0 1 0
    outer loop
      vertex -1.775 13.5 2.6
      vertex -3.225 13.5 2.6
      vertex -1.775 13.5 3.3
    endloop
  endfacet
  facet normal 0 1 0
    outer loop
      vertex -1.775 13.5 3.3
      vertex -3.225 13.5 2.6
      vertex -3.225 13.5 3.3
    endloop
  endfacet
  facet normal -1 0 0
    outer loop
      vertex -1.775 20.5 2.6
      vertex -1.775 13.5 2.6
      vertex -1.775 20.5 3.3
    endloop
  endfacet
  facet normal -1 0 0
    outer loop
      vertex -1.775 20.5 2.6
      vertex -1.775 20.5 3.3
      vertex -1.775 20.5 4
    endloop
  endfacet
  facet normal -1 0 0
    outer loop
      vertex -1.775 20.5 3.3
      vertex -1.775 13.5 2.6
      vertex -1.775 13.5 3.3
    endloop
  endfacet
  facet normal 1 0 0
    outer loop
      vertex -0.725 20.5 3.3
      vertex -0.725 13.5 3.3
      vertex -0.725 13.5 2.6
    endloop
  endfacet
  facet normal 1 0 0
    outer loop
      vertex -0.725 20.5 4
      vertex -0.725 20.5 3.3
      vertex -0.725 20.5 2.6
    endloop
  endfacet
  facet normal 1 0 0
    outer loop
      vertex -0.725 20.5 2.6
      vertex -0.725 20.5 3.3
      vertex -0.725 13.5 2.6
    endloop
  endfacet
  facet normal 0 1 0
    outer loop
      vertex 0.725 13.5 2.6
      vertex -0.725 13.5 2.6
      vertex 0.725 13.5 3.3
    endloop
  endfacet
  facet normal 0 1 0
    outer loop
      vertex 0.725 13.5 3.3
      vertex -0.725 13.5 2.6
      vertex -0.725 13.5 3.3
    endloop
  endfacet
  facet normal -1 0 0
    outer loop
      vertex 0.725 20.5 2.6
      vertex 0.725 13.5 2.6
      vertex 0.725 20.5 3.3
    endloop
  endfacet
  facet normal -1 0 0
    outer loop
      vertex 0.725 20.5 2.6
      vertex 0.725 20.5 3.3
      vertex 0.725 20.5 4
    endloop
  endfacet
  facet normal -1 0 0
    outer loop
      vertex 0.725 20.5 3.3
      vertex 0.725 13.5 2.6
      vertex 0.725 13.5 3.3
    endloop
  endfacet
  facet normal 1 0 0
    outer loop
      vertex 1.775 20.5 3.3
      vertex 1.775 13.5 3.3
      vertex 1.775 13.5 2.6
    endloop
  endfacet
  facet normal 1 0 0
    outer loop
      vertex 1.775 20.5 4
      vertex 1.775 20.5 3.3
      vertex 1.775 20.5 2.6
    endloop
  endfacet
  facet normal 1 0 0
    outer loop
      vertex 1.775 20.5 2.6
      vertex 1.775 20.5 3.3
      vertex 1.775 13.5 2.6
    endloop
  endfacet
  facet normal 0 1 0
    outer loop
      vertex 3.225 13.5 2.6
      vertex 1.775 13.5 2.6
      vertex 3.225 13.5 3.3
    endloop
  endfacet
  facet normal 0 1 0
    outer loop
      vertex 3.225 13.5 3.3
      vertex 1.775 13.5 2.6
      vertex 1.775 13.5 3.3
    endloop
  endfacet
  facet normal -1 0 0
    outer loop
      vertex 3.225 20.5 2.6
      vertex 3.225 13.5 2.6
      vertex 3.225 20.5 3.3
    endloop
  endfacet
  facet normal -1 0 0
    outer loop
      vertex 3.225 20.5 2.6
      vertex 3.225 20.5 3.3
      vertex 3.225 20.5 4
    endloop
  endfacet
  facet normal -1 0 0
    outer loop
      vertex 3.225 20.5 3.3
      vertex 3.225 13.5 2.6
      vertex 3.225 13.5 3.3
    endloop
  endfacet
  facet normal 1 0 0
    outer loop
      vertex 4.275 13.5 2.6
      vertex 4.275 20.1763 2.6
      vertex 4.275 20.1763 3.3
    endloop
  endfacet
  facet normal 1 0 0
    outer loop
      vertex 4.275 13.5 3.3
      vertex 4.275 13.5 2.6
      vertex 4.275 20.1763 3.3
    endloop
  endfacet
  facet normal 0 1 0
    outer loop
      vertex 5.725 13.5 2.6
      vertex 4.275 13.5 2.6
      vertex 5.725 13.5 3.3
    endloop
  endfacet
  facet normal 0 1 0
    outer loop
      vertex 5.725 13.5 3.3
      vertex 4.275 13.5 2.6
      vertex 4.275 13.5 3.3
    endloop
  endfacet
  facet normal -1 0 0
    outer loop
      vertex 5.725 20.1763 2.6
      vertex 5.725 13.5 2.6
      vertex 5.725 20.1763 3.3
    endloop
  endfacet
  facet normal -1 0 0
    outer loop
      vertex 5.725 20.1763 3.3
      vertex 5.725 13.5 2.6
      vertex 5.725 13.5 3.3
    endloop
  endfacet
  facet normal 1 0 0
    outer loop
      vertex 6.775 20.5 3.3
      vertex 6.775 13.5 3.3
      vertex 6.775 13.5 2.6
    endloop
  endfacet
  facet normal 1 0 0
    outer loop
      vertex 6.775 20.5 4
      vertex 6.775 20.5 3.3
      vertex 6.775 20.5 2.6
    endloop
  endfacet
  facet normal 1 0 0
    outer loop
      vertex 6.775 20.5 2.6
      vertex 6.775 20.5 3.3
      vertex 6.775 13.5 2.6
    endloop
  endfacet
  facet normal 0 1 0
    outer loop
      vertex 8.225 13.5 2.6
      vertex 6.775 13.5 2.6
      vertex 8.225 13.5 3.3
    endloop
  endfacet
  facet normal 0 1 0
    outer loop
      vertex 8.225 13.5 3.3
      vertex 6.775 13.5 2.6
      vertex 6.775 13.5 3.3
    endloop
  endfacet
  facet normal -1 0 0
    outer loop
      vertex 8.225 20.5 2.6
      vertex 8.225 13.5 2.6
      vertex 8.225 20.5 3.3
    endloop
  endfacet
  facet normal -1 0 0
    outer loop
      vertex 8.225 20.5 2.6
      vertex 8.225 20.5 3.3
      vertex 8.225 20.5 4
    endloop
  endfacet
  facet normal -1 0 0
    outer loop
      vertex 8.225 20.5 3.3
      vertex 8.225 13.5 2.6
      vertex 8.225 13.5 3.3
    endloop
  endfacet
  facet normal 1 0 0
    outer loop
      vertex 9.275 20.5 3.3
      vertex 9.275 13.5 3.3
      vertex 9.275 13.5 2.6
    endloop
  endfacet
  facet normal 1 0 0
    outer loop
      vertex 9.275 20.5 4
      vertex 9.275 20.5 3.3
      vertex 9.275 20.5 2.6
    endloop
  endfacet
  facet normal 1 0 0
    outer loop
      vertex 9.275 20.5 2.6
      vertex 9.275 20.5 3.3
      vertex 9.275 13.5 2.6
    endloop
  endfacet
  facet normal 0 0 1
    outer loop
      vertex -4.70019 20.0283 2.6
      vertex -4.89953 20.0032 2.6
      vertex -4.275 13.5 2.6
    endloop
  endfacet
  facet normal 0 0 1
    outer loop
      vertex -4.275 13.5 2.6
      vertex -4.275 20.1763 2.6
      vertex -4.31875 20.1523 2.6
    endloop
  endfacet
  facet normal 0 0 1
    outer loop
      vertex -4.89953 20.0032 2.6
      vertex -5.10046 20.0032 2.6
      vertex -4.275 13.5 2.6
    endloop
  endfacet
  facet normal 0 0 1
    outer loop
      vertex -4.50557 20.0783 2.6
      vertex -4.275 13.5 2.6
      vertex -4.31875 20.1523 2.6
    endloop
  endfacet
  facet normal 0 0 1
    outer loop
      vertex -4.50557 20.0783 2.6
      vertex -4.70019 20.0283 2.6
      vertex -4.275 13.5 2.6
    endloop
  endfacet
  facet normal 0 0 1
    outer loop
      vertex -5.10046 20.0032 2.6
      vertex -5.29981 20.0283 2.6
      vertex -4.275 13.5 2.6
    endloop
  endfacet
  facet normal 0 0 1
    outer loop
      vertex -5.29981 20.0283 2.6
      vertex -5.49443 20.0783 2.6
      vertex -4.275 13.5 2.6
    endloop
  endfacet
  facet normal 0 0 1
    outer loop
      vertex -5.49443 20.0783 2.6
      vertex -5.68125 20.1523 2.6
      vertex -4.275 13.5 2.6
    endloop
  endfacet
  facet normal 0 0 1
    outer loop
      vertex -5.68125 20.1523 2.6
      vertex -5.725 20.1763 2.6
      vertex -4.275 13.5 2.6
    endloop
  endfacet
  facet normal 0 0 1
    outer loop
      vertex -5.725 20.1763 2.6
      vertex -5.725 13.5 2.6
      vertex -4.275 13.5 2.6
    endloop
  endfacet
  facet normal 0 0 1
    outer loop
      vertex 5.29981 20.0283 2.6
      vertex 5.10046 20.0032 2.6
      vertex 5.725 13.5 2.6
    endloop
  endfacet
  facet normal 0 0 1
    outer loop
      vertex 5.725 13.5 2.6
      vertex 5.725 20.1763 2.6
      vertex 5.68125 20.1523 2.6
    endloop
  endfacet
  facet normal 0 0 1
    outer loop
      vertex 5.10046 20.0032 2.6
      vertex 4.89953 20.0032 2.6
      vertex 5.725 13.5 2.6
    endloop
  endfacet
  facet normal 0 0 1
    outer loop
      vertex 5.49443 20.0783 2.6
      vertex 5.725 13.5 2.6
      vertex 5.68125 20.1523 2.6
    endloop
  endfacet
  facet normal 0 0 1
    outer loop
      vertex 5.49443 20.0783 2.6
      vertex 5.29981 20.0283 2.6
      vertex 5.725 13.5 2.6
    endloop
  endfacet
  facet normal 0 0 1
    outer loop
      vertex 4.89953 20.0032 2.6
      vertex 4.70019 20.0283 2.6
      vertex 5.725 13.5 2.6
    endloop
  endfacet
  facet normal 0 0 1
    outer loop
      vertex 4.70019 20.0283 2.6
      vertex 4.50557 20.0783 2.6
      vertex 5.725 13.5 2.6
    endloop
  endfacet
  facet normal 0 0 1
    outer loop
      vertex 4.50557 20.0783 2.6
      vertex 4.31875 20.1523 2.6
      vertex 5.725 13.5 2.6
    endloop
  endfacet
  facet normal 0 0 1
    outer loop
      vertex 4.31875 20.1523 2.6
      vertex 4.275 20.1763 2.6
      vertex 5.725 13.5 2.6
    endloop
  endfacet
  facet normal 0 0 1
    outer loop
      vertex 4.275 20.1763 2.6
      vertex 4.275 13.5 2.6
      vertex 5.725 13.5 2.6
    endloop
  endfacet
  facet normal 0 -1 0
    outer loop
      vertex -8.225 20.5 2.6
      vertex -6.775 20.5 2.6
      vertex -6.775 20.5 4
    endloop
  endfacet
  facet normal 0 -1 0
    outer loop
      vertex -8.225 20.5 4
      vertex -8.225 20.5 2.6
      vertex -6.775 20.5 4
    endloop
  endfacet
  facet normal 0 0 1
    outer loop
      vertex -6.775 13.5 2.6
      vertex -6.775 20.5 2.6
      vertex -8.225 20.5 2.6
    endloop
  endfacet
  facet normal 0 0 1
    outer loop
      vertex -8.225 13.5 2.6
      vertex -6.775 13.5 2.6
      vertex -8.225 20.5 2.6
    endloop
  endfacet
  facet normal 0 -1 0
    outer loop
      vertex -3.225 20.5 2.6
      vertex -1.775 20.5 2.6
      vertex -1.775 20.5 4
    endloop
  endfacet
  facet normal 0 -1 0
    outer loop
      vertex -3.225 20.5 4
      vertex -3.225 20.5 2.6
      vertex -1.775 20.5 4
    endloop
  endfacet
  facet normal 0 0 1
    outer loop
      vertex -1.775 13.5 2.6
      vertex -1.775 20.5 2.6
      vertex -3.225 20.5 2.6
    endloop
  endfacet
  facet normal 0 0 1
    outer loop
      vertex -3.225 13.5 2.6
      vertex -1.775 13.5 2.6
      vertex -3.225 20.5 2.6
    endloop
  endfacet
  facet normal 0 -1 0
    outer loop
      vertex -0.725 20.5 2.6
      vertex 0.725 20.5 2.6
      vertex 0.725 20.5 4
    endloop
  endfacet
  facet normal 0 -1 0
    outer loop
      vertex -0.725 20.5 4
      vertex -0.725 20.5 2.6
      vertex 0.725 20.5 4
    endloop
  endfacet
  facet normal 0 0 1
    outer loop
      vertex 0.725 13.5 2.6
      vertex 0.725 20.5 2.6
      vertex -0.725 20.5 2.6
    endloop
  endfacet
  facet normal 0 0 1
    outer loop
      vertex -0.725 13.5 2.6
      vertex 0.725 13.5 2.6
      vertex -0.725 20.5 2.6
    endloop
  endfacet
  facet normal 0 -1 0
    outer loop
      vertex 1.775 20.5 2.6
      vertex 3.225 20.5 2.6
      vertex 3.225 20.5 4
    endloop
  endfacet
  facet normal 0 -1 0
    outer loop
      vertex 1.775 20.5 4
      vertex 1.775 20.5 2.6
      vertex 3.225 20.5 4
    endloop
  endfacet
  facet normal 0 0 1
    outer loop
      vertex 3.225 13.5 2.6
      vertex 3.225 20.5 2.6
      vertex 1.775 20.5 2.6
    endloop
  endfacet
  facet normal 0 0 1
    outer loop
      vertex 1.775 13.5 2.6
      vertex 3.225 13.5 2.6
      vertex 1.775 20.5 2.6
    endloop
  endfacet
  facet normal 0 -1 0
    outer loop
      vertex 6.775 20.5 2.6
      vertex 8.225 20.5 2.6
      vertex 8.225 20.5 4
    endloop
  endfacet
  facet normal 0 -1 0
    outer loop
      vertex 6.775 20.5 4
      vertex 6.775 20.5 2.6
      vertex 8.225 20.5 4
    endloop
  endfacet
  facet normal 0 0 1
    outer loop
      vertex 8.225 13.5 2.6
      vertex 8.225 20.5 2.6
      vertex 6.775 20.5 2.6
    endloop
  endfacet
  facet normal 0 0 1
    outer loop
      vertex 6.775 13.5 2.6
      vertex 8.225 13.5 2.6
      vertex 6.775 20.5 2.6
    endloop
  endfacet
endsolid OpenSCAD_Model
