  0
SECTION
  2
BLOCKS
  0
ENDSEC
  0
SECTION
  2
ENTITIES
  0
LINE
  8
0
 10
-125.5
 11
-125.488
 20
-160
 21
-159.812
  0
LINE
  8
0
 10
-125.488
 11
-125.453
 20
-159.812
 21
-159.627
  0
LINE
  8
0
 10
-125.453
 11
-125.395
 20
-159.627
 21
-159.448
  0
LINE
  8
0
 10
-125.395
 11
-125.314
 20
-159.448
 21
-159.277
  0
LINE
  8
0
 10
-125.314
 11
-125.214
 20
-159.277
 21
-159.118
  0
LINE
  8
0
 10
-125.214
 11
-125.093
 20
-159.118
 21
-158.973
  0
LINE
  8
0
 10
-125.093
 11
-124.956
 20
-158.973
 21
-158.844
  0
LINE
  8
0
 10
-124.956
 11
-124.804
 20
-158.844
 21
-158.734
  0
LINE
  8
0
 10
-124.804
 11
-124.639
 20
-158.734
 21
-158.643
  0
LINE
  8
0
 10
-124.639
 11
-124.464
 20
-158.643
 21
-158.573
  0
LINE
  8
0
 10
-124.464
 11
-124.281
 20
-158.573
 21
-158.527
  0
LINE
  8
0
 10
-124.281
 11
-124.094
 20
-158.527
 21
-158.503
  0
LINE
  8
0
 10
-124.094
 11
-115.906
 20
-158.503
 21
-158.503
  0
LINE
  8
0
 10
-115.906
 11
-115.719
 20
-158.503
 21
-158.527
  0
LINE
  8
0
 10
-115.719
 11
-115.536
 20
-158.527
 21
-158.573
  0
LINE
  8
0
 10
-115.536
 11
-115.361
 20
-158.573
 21
-158.643
  0
LINE
  8
0
 10
-115.361
 11
-115.196
 20
-158.643
 21
-158.734
  0
LINE
  8
0
 10
-115.196
 11
-115.044
 20
-158.734
 21
-158.844
  0
LINE
  8
0
 10
-115.044
 11
-114.907
 20
-158.844
 21
-158.973
  0
LINE
  8
0
 10
-114.907
 11
-114.786
 20
-158.973
 21
-159.118
  0
LINE
  8
0
 10
-114.786
 11
-114.686
 20
-159.118
 21
-159.277
  0
LINE
  8
0
 10
-114.686
 11
-114.605
 20
-159.277
 21
-159.448
  0
LINE
  8
0
 10
-114.605
 11
-114.547
 20
-159.448
 21
-159.627
  0
LINE
  8
0
 10
-114.547
 11
-114.512
 20
-159.627
 21
-159.812
  0
LINE
  8
0
 10
-114.512
 11
-114.5
 20
-159.812
 21
-160
  0
LINE
  8
0
 10
-114.5
 11
-114.512
 20
-160
 21
-160.188
  0
LINE
  8
0
 10
-114.512
 11
-114.547
 20
-160.188
 21
-160.373
  0
LINE
  8
0
 10
-114.547
 11
-114.605
 20
-160.373
 21
-160.552
  0
LINE
  8
0
 10
-114.605
 11
-114.686
 20
-160.552
 21
-160.723
  0
LINE
  8
0
 10
-114.686
 11
-114.786
 20
-160.723
 21
-160.882
  0
LINE
  8
0
 10
-114.786
 11
-114.907
 20
-160.882
 21
-161.027
  0
LINE
  8
0
 10
-114.907
 11
-115.044
 20
-161.027
 21
-161.156
  0
LINE
  8
0
 10
-115.044
 11
-115.196
 20
-161.156
 21
-161.266
  0
LINE
  8
0
 10
-115.196
 11
-115.361
 20
-161.266
 21
-161.357
  0
LINE
  8
0
 10
-115.361
 11
-115.536
 20
-161.357
 21
-161.427
  0
LINE
  8
0
 10
-115.536
 11
-115.719
 20
-161.427
 21
-161.473
  0
LINE
  8
0
 10
-115.719
 11
-115.906
 20
-161.473
 21
-161.497
  0
LINE
  8
0
 10
-115.906
 11
-124.094
 20
-161.497
 21
-161.497
  0
LINE
  8
0
 10
-124.094
 11
-124.281
 20
-161.497
 21
-161.473
  0
LINE
  8
0
 10
-124.281
 11
-124.464
 20
-161.473
 21
-161.427
  0
LINE
  8
0
 10
-124.464
 11
-124.639
 20
-161.427
 21
-161.357
  0
LINE
  8
0
 10
-124.639
 11
-124.804
 20
-161.357
 21
-161.266
  0
LINE
  8
0
 10
-124.804
 11
-124.956
 20
-161.266
 21
-161.156
  0
LINE
  8
0
 10
-124.956
 11
-125.093
 20
-161.156
 21
-161.027
  0
LINE
  8
0
 10
-125.093
 11
-125.214
 20
-161.027
 21
-160.882
  0
LINE
  8
0
 10
-125.214
 11
-125.314
 20
-160.882
 21
-160.723
  0
LINE
  8
0
 10
-125.314
 11
-125.395
 20
-160.723
 21
-160.552
  0
LINE
  8
0
 10
-125.395
 11
-125.453
 20
-160.552
 21
-160.373
  0
LINE
  8
0
 10
-125.453
 11
-125.488
 20
-160.373
 21
-160.188
  0
LINE
  8
0
 10
-125.488
 11
-125.5
 20
-160.188
 21
-160
  0
LINE
  8
0
 10
-125.5
 11
-125.488
 20
160
 21
160.188
  0
LINE
  8
0
 10
-125.488
 11
-125.453
 20
160.188
 21
160.373
  0
LINE
  8
0
 10
-125.453
 11
-125.395
 20
160.373
 21
160.552
  0
LINE
  8
0
 10
-125.395
 11
-125.314
 20
160.552
 21
160.723
  0
LINE
  8
0
 10
-125.314
 11
-125.214
 20
160.723
 21
160.882
  0
LINE
  8
0
 10
-125.214
 11
-125.093
 20
160.882
 21
161.027
  0
LINE
  8
0
 10
-125.093
 11
-124.956
 20
161.027
 21
161.156
  0
LINE
  8
0
 10
-124.956
 11
-124.804
 20
161.156
 21
161.266
  0
LINE
  8
0
 10
-124.804
 11
-124.639
 20
161.266
 21
161.357
  0
LINE
  8
0
 10
-124.639
 11
-124.464
 20
161.357
 21
161.427
  0
LINE
  8
0
 10
-124.464
 11
-124.281
 20
161.427
 21
161.473
  0
LINE
  8
0
 10
-124.281
 11
-124.094
 20
161.473
 21
161.497
  0
LINE
  8
0
 10
-124.094
 11
-115.906
 20
161.497
 21
161.497
  0
LINE
  8
0
 10
-115.906
 11
-115.719
 20
161.497
 21
161.473
  0
LINE
  8
0
 10
-115.719
 11
-115.536
 20
161.473
 21
161.427
  0
LINE
  8
0
 10
-115.536
 11
-115.361
 20
161.427
 21
161.357
  0
LINE
  8
0
 10
-115.361
 11
-115.196
 20
161.357
 21
161.266
  0
LINE
  8
0
 10
-115.196
 11
-115.044
 20
161.266
 21
161.156
  0
LINE
  8
0
 10
-115.044
 11
-114.907
 20
161.156
 21
161.027
  0
LINE
  8
0
 10
-114.907
 11
-114.786
 20
161.027
 21
160.882
  0
LINE
  8
0
 10
-114.786
 11
-114.686
 20
160.882
 21
160.723
  0
LINE
  8
0
 10
-114.686
 11
-114.605
 20
160.723
 21
160.552
  0
LINE
  8
0
 10
-114.605
 11
-114.547
 20
160.552
 21
160.373
  0
LINE
  8
0
 10
-114.547
 11
-114.512
 20
160.373
 21
160.188
  0
LINE
  8
0
 10
-114.512
 11
-114.5
 20
160.188
 21
160
  0
LINE
  8
0
 10
-114.5
 11
-114.512
 20
160
 21
159.812
  0
LINE
  8
0
 10
-114.512
 11
-114.547
 20
159.812
 21
159.627
  0
LINE
  8
0
 10
-114.547
 11
-114.605
 20
159.627
 21
159.448
  0
LINE
  8
0
 10
-114.605
 11
-114.686
 20
159.448
 21
159.277
  0
LINE
  8
0
 10
-114.686
 11
-114.786
 20
159.277
 21
159.118
  0
LINE
  8
0
 10
-114.786
 11
-114.907
 20
159.118
 21
158.973
  0
LINE
  8
0
 10
-114.907
 11
-115.044
 20
158.973
 21
158.844
  0
LINE
  8
0
 10
-115.044
 11
-115.196
 20
158.844
 21
158.734
  0
LINE
  8
0
 10
-115.196
 11
-115.361
 20
158.734
 21
158.643
  0
LINE
  8
0
 10
-115.361
 11
-115.536
 20
158.643
 21
158.573
  0
LINE
  8
0
 10
-115.536
 11
-115.719
 20
158.573
 21
158.527
  0
LINE
  8
0
 10
-115.719
 11
-115.906
 20
158.527
 21
158.503
  0
LINE
  8
0
 10
-115.906
 11
-124.094
 20
158.503
 21
158.503
  0
LINE
  8
0
 10
-124.094
 11
-124.281
 20
158.503
 21
158.527
  0
LINE
  8
0
 10
-124.281
 11
-124.464
 20
158.527
 21
158.573
  0
LINE
  8
0
 10
-124.464
 11
-124.639
 20
158.573
 21
158.643
  0
LINE
  8
0
 10
-124.639
 11
-124.804
 20
158.643
 21
158.734
  0
LINE
  8
0
 10
-124.804
 11
-124.956
 20
158.734
 21
158.844
  0
LINE
  8
0
 10
-124.956
 11
-125.093
 20
158.844
 21
158.973
  0
LINE
  8
0
 10
-125.093
 11
-125.214
 20
158.973
 21
159.118
  0
LINE
  8
0
 10
-125.214
 11
-125.314
 20
159.118
 21
159.277
  0
LINE
  8
0
 10
-125.314
 11
-125.395
 20
159.277
 21
159.448
  0
LINE
  8
0
 10
-125.395
 11
-125.453
 20
159.448
 21
159.627
  0
LINE
  8
0
 10
-125.453
 11
-125.488
 20
159.627
 21
159.812
  0
LINE
  8
0
 10
-125.488
 11
-125.5
 20
159.812
 21
160
  0
LINE
  8
0
 10
-135
 11
-134.882
 20
-160
 21
-158.12
  0
LINE
  8
0
 10
-134.882
 11
-134.529
 20
-158.12
 21
-156.27
  0
LINE
  8
0
 10
-134.529
 11
-133.947
 20
-156.27
 21
-154.478
  0
LINE
  8
0
 10
-133.947
 11
-133.145
 20
-154.478
 21
-152.774
  0
LINE
  8
0
 10
-133.145
 11
-132.135
 20
-152.774
 21
-151.183
  0
LINE
  8
0
 10
-132.135
 11
-130.935
 20
-151.183
 21
-149.732
  0
LINE
  8
0
 10
-130.935
 11
-129.561
 20
-149.732
 21
-148.442
  0
LINE
  8
0
 10
-129.561
 11
-128.037
 20
-148.442
 21
-147.335
  0
LINE
  8
0
 10
-128.037
 11
-127.5
 20
-147.335
 21
-147.04
  0
LINE
  8
0
 10
-127.5
 11
-127.5
 20
-147.04
 21
-147.01
  0
LINE
  8
0
 10
-127.5
 11
-126.963
 20
-147.01
 21
-146.715
  0
LINE
  8
0
 10
-126.963
 11
-125.439
 20
-146.715
 21
-145.608
  0
LINE
  8
0
 10
-125.439
 11
-124.065
 20
-145.608
 21
-144.318
  0
LINE
  8
0
 10
-124.065
 11
-122.865
 20
-144.318
 21
-142.867
  0
LINE
  8
0
 10
-122.865
 11
-121.855
 20
-142.867
 21
-141.276
  0
LINE
  8
0
 10
-121.855
 11
-121.053
 20
-141.276
 21
-139.572
  0
LINE
  8
0
 10
-121.053
 11
-120.471
 20
-139.572
 21
-137.78
  0
LINE
  8
0
 10
-120.471
 11
-120.118
 20
-137.78
 21
-135.93
  0
LINE
  8
0
 10
-120.118
 11
-120
 20
-135.93
 21
-134.05
  0
LINE
  8
0
 10
-120
 11
-120
 20
-134.05
 21
134.05
  0
LINE
  8
0
 10
-120
 11
-120.118
 20
134.05
 21
135.93
  0
LINE
  8
0
 10
-120.118
 11
-120.471
 20
135.93
 21
137.78
  0
LINE
  8
0
 10
-120.471
 11
-121.053
 20
137.78
 21
139.572
  0
LINE
  8
0
 10
-121.053
 11
-121.855
 20
139.572
 21
141.276
  0
LINE
  8
0
 10
-121.855
 11
-122.865
 20
141.276
 21
142.867
  0
LINE
  8
0
 10
-122.865
 11
-124.065
 20
142.867
 21
144.318
  0
LINE
  8
0
 10
-124.065
 11
-125.439
 20
144.318
 21
145.608
  0
LINE
  8
0
 10
-125.439
 11
-126.963
 20
145.608
 21
146.715
  0
LINE
  8
0
 10
-126.963
 11
-127.5
 20
146.715
 21
147.01
  0
LINE
  8
0
 10
-127.5
 11
-127.5
 20
147.01
 21
147.04
  0
LINE
  8
0
 10
-127.5
 11
-128.037
 20
147.04
 21
147.335
  0
LINE
  8
0
 10
-128.037
 11
-129.561
 20
147.335
 21
148.442
  0
LINE
  8
0
 10
-129.561
 11
-130.935
 20
148.442
 21
149.732
  0
LINE
  8
0
 10
-130.935
 11
-132.135
 20
149.732
 21
151.183
  0
LINE
  8
0
 10
-132.135
 11
-133.145
 20
151.183
 21
152.774
  0
LINE
  8
0
 10
-133.145
 11
-133.947
 20
152.774
 21
154.478
  0
LINE
  8
0
 10
-133.947
 11
-134.529
 20
154.478
 21
156.27
  0
LINE
  8
0
 10
-134.529
 11
-134.882
 20
156.27
 21
158.12
  0
LINE
  8
0
 10
-134.882
 11
-135
 20
158.12
 21
160
  0
LINE
  8
0
 10
-135
 11
-134.882
 20
160
 21
161.88
  0
LINE
  8
0
 10
-134.882
 11
-134.529
 20
161.88
 21
163.73
  0
LINE
  8
0
 10
-134.529
 11
-133.947
 20
163.73
 21
165.522
  0
LINE
  8
0
 10
-133.947
 11
-133.145
 20
165.522
 21
167.226
  0
LINE
  8
0
 10
-133.145
 11
-132.135
 20
167.226
 21
168.817
  0
LINE
  8
0
 10
-132.135
 11
-130.935
 20
168.817
 21
170.268
  0
LINE
  8
0
 10
-130.935
 11
-129.561
 20
170.268
 21
171.558
  0
LINE
  8
0
 10
-129.561
 11
-128.037
 20
171.558
 21
172.665
  0
LINE
  8
0
 10
-128.037
 11
-126.387
 20
172.665
 21
173.572
  0
LINE
  8
0
 10
-126.387
 11
-124.635
 20
173.572
 21
174.266
  0
LINE
  8
0
 10
-124.635
 11
-122.811
 20
174.266
 21
174.734
  0
LINE
  8
0
 10
-122.811
 11
-120.942
 20
174.734
 21
174.97
  0
LINE
  8
0
 10
-120.942
 11
120.942
 20
174.97
 21
174.97
  0
LINE
  8
0
 10
120.942
 11
122.811
 20
174.97
 21
174.734
  0
LINE
  8
0
 10
122.811
 11
124.635
 20
174.734
 21
174.266
  0
LINE
  8
0
 10
124.635
 11
126.387
 20
174.266
 21
173.572
  0
LINE
  8
0
 10
126.387
 11
128.037
 20
173.572
 21
172.665
  0
LINE
  8
0
 10
128.037
 11
129.561
 20
172.665
 21
171.558
  0
LINE
  8
0
 10
129.561
 11
130.935
 20
171.558
 21
170.268
  0
LINE
  8
0
 10
130.935
 11
132.135
 20
170.268
 21
168.817
  0
LINE
  8
0
 10
132.135
 11
133.145
 20
168.817
 21
167.226
  0
LINE
  8
0
 10
133.145
 11
133.947
 20
167.226
 21
165.522
  0
LINE
  8
0
 10
133.947
 11
134.529
 20
165.522
 21
163.73
  0
LINE
  8
0
 10
134.529
 11
134.882
 20
163.73
 21
161.88
  0
LINE
  8
0
 10
134.882
 11
135
 20
161.88
 21
160
  0
LINE
  8
0
 10
135
 11
134.882
 20
160
 21
158.12
  0
LINE
  8
0
 10
134.882
 11
134.529
 20
158.12
 21
156.27
  0
LINE
  8
0
 10
134.529
 11
133.947
 20
156.27
 21
154.478
  0
LINE
  8
0
 10
133.947
 11
133.145
 20
154.478
 21
152.774
  0
LINE
  8
0
 10
133.145
 11
132.135
 20
152.774
 21
151.183
  0
LINE
  8
0
 10
132.135
 11
130.935
 20
151.183
 21
149.732
  0
LINE
  8
0
 10
130.935
 11
129.561
 20
149.732
 21
148.442
  0
LINE
  8
0
 10
129.561
 11
128.037
 20
148.442
 21
147.335
  0
LINE
  8
0
 10
128.037
 11
127.5
 20
147.335
 21
147.04
  0
LINE
  8
0
 10
127.5
 11
127.5
 20
147.04
 21
147.01
  0
LINE
  8
0
 10
127.5
 11
126.963
 20
147.01
 21
146.715
  0
LINE
  8
0
 10
126.963
 11
125.439
 20
146.715
 21
145.608
  0
LINE
  8
0
 10
125.439
 11
124.065
 20
145.608
 21
144.318
  0
LINE
  8
0
 10
124.065
 11
122.865
 20
144.318
 21
142.867
  0
LINE
  8
0
 10
122.865
 11
121.855
 20
142.867
 21
141.276
  0
LINE
  8
0
 10
121.855
 11
121.053
 20
141.276
 21
139.572
  0
LINE
  8
0
 10
121.053
 11
120.471
 20
139.572
 21
137.78
  0
LINE
  8
0
 10
120.471
 11
120.118
 20
137.78
 21
135.93
  0
LINE
  8
0
 10
120.118
 11
120
 20
135.93
 21
134.05
  0
LINE
  8
0
 10
120
 11
120
 20
134.05
 21
-134.05
  0
LINE
  8
0
 10
120
 11
120.118
 20
-134.05
 21
-135.93
  0
LINE
  8
0
 10
120.118
 11
120.471
 20
-135.93
 21
-137.78
  0
LINE
  8
0
 10
120.471
 11
121.053
 20
-137.78
 21
-139.572
  0
LINE
  8
0
 10
121.053
 11
121.855
 20
-139.572
 21
-141.276
  0
LINE
  8
0
 10
121.855
 11
122.865
 20
-141.276
 21
-142.867
  0
LINE
  8
0
 10
122.865
 11
124.065
 20
-142.867
 21
-144.318
  0
LINE
  8
0
 10
124.065
 11
125.439
 20
-144.318
 21
-145.608
  0
LINE
  8
0
 10
125.439
 11
126.963
 20
-145.608
 21
-146.715
  0
LINE
  8
0
 10
126.963
 11
127.5
 20
-146.715
 21
-147.01
  0
LINE
  8
0
 10
127.5
 11
127.5
 20
-147.01
 21
-147.04
  0
LINE
  8
0
 10
127.5
 11
128.037
 20
-147.04
 21
-147.335
  0
LINE
  8
0
 10
128.037
 11
129.561
 20
-147.335
 21
-148.442
  0
LINE
  8
0
 10
129.561
 11
130.935
 20
-148.442
 21
-149.732
  0
LINE
  8
0
 10
130.935
 11
132.135
 20
-149.732
 21
-151.183
  0
LINE
  8
0
 10
132.135
 11
133.145
 20
-151.183
 21
-152.774
  0
LINE
  8
0
 10
133.145
 11
133.947
 20
-152.774
 21
-154.478
  0
LINE
  8
0
 10
133.947
 11
134.529
 20
-154.478
 21
-156.27
  0
LINE
  8
0
 10
134.529
 11
134.882
 20
-156.27
 21
-158.12
  0
LINE
  8
0
 10
134.882
 11
135
 20
-158.12
 21
-160
  0
LINE
  8
0
 10
135
 11
134.882
 20
-160
 21
-161.88
  0
LINE
  8
0
 10
134.882
 11
134.529
 20
-161.88
 21
-163.73
  0
LINE
  8
0
 10
134.529
 11
133.947
 20
-163.73
 21
-165.522
  0
LINE
  8
0
 10
133.947
 11
133.145
 20
-165.522
 21
-167.226
  0
LINE
  8
0
 10
133.145
 11
132.135
 20
-167.226
 21
-168.817
  0
LINE
  8
0
 10
132.135
 11
130.935
 20
-168.817
 21
-170.268
  0
LINE
  8
0
 10
130.935
 11
129.561
 20
-170.268
 21
-171.558
  0
LINE
  8
0
 10
129.561
 11
128.037
 20
-171.558
 21
-172.665
  0
LINE
  8
0
 10
128.037
 11
126.387
 20
-172.665
 21
-173.572
  0
LINE
  8
0
 10
126.387
 11
124.635
 20
-173.572
 21
-174.266
  0
LINE
  8
0
 10
124.635
 11
122.811
 20
-174.266
 21
-174.734
  0
LINE
  8
0
 10
122.811
 11
120.942
 20
-174.734
 21
-174.97
  0
LINE
  8
0
 10
120.942
 11
-120.942
 20
-174.97
 21
-174.97
  0
LINE
  8
0
 10
-120.942
 11
-122.811
 20
-174.97
 21
-174.734
  0
LINE
  8
0
 10
-122.811
 11
-124.635
 20
-174.734
 21
-174.266
  0
LINE
  8
0
 10
-124.635
 11
-126.387
 20
-174.266
 21
-173.572
  0
LINE
  8
0
 10
-126.387
 11
-128.037
 20
-173.572
 21
-172.665
  0
LINE
  8
0
 10
-128.037
 11
-129.561
 20
-172.665
 21
-171.558
  0
LINE
  8
0
 10
-129.561
 11
-130.935
 20
-171.558
 21
-170.268
  0
LINE
  8
0
 10
-130.935
 11
-132.135
 20
-170.268
 21
-168.817
  0
LINE
  8
0
 10
-132.135
 11
-133.145
 20
-168.817
 21
-167.226
  0
LINE
  8
0
 10
-133.145
 11
-133.947
 20
-167.226
 21
-165.522
  0
LINE
  8
0
 10
-133.947
 11
-134.529
 20
-165.522
 21
-163.73
  0
LINE
  8
0
 10
-134.529
 11
-134.882
 20
-163.73
 21
-161.88
  0
LINE
  8
0
 10
-134.882
 11
-135
 20
-161.88
 21
-160
  0
LINE
  8
0
 10
-106
 11
-105.988
 20
-104.5
 21
-104.312
  0
LINE
  8
0
 10
-105.988
 11
-105.953
 20
-104.312
 21
-104.127
  0
LINE
  8
0
 10
-105.953
 11
-105.895
 20
-104.127
 21
-103.948
  0
LINE
  8
0
 10
-105.895
 11
-105.814
 20
-103.948
 21
-103.777
  0
LINE
  8
0
 10
-105.814
 11
-105.714
 20
-103.777
 21
-103.618
  0
LINE
  8
0
 10
-105.714
 11
-105.593
 20
-103.618
 21
-103.473
  0
LINE
  8
0
 10
-105.593
 11
-105.456
 20
-103.473
 21
-103.344
  0
LINE
  8
0
 10
-105.456
 11
-105.304
 20
-103.344
 21
-103.234
  0
LINE
  8
0
 10
-105.304
 11
-105.139
 20
-103.234
 21
-103.143
  0
LINE
  8
0
 10
-105.139
 11
-104.964
 20
-103.143
 21
-103.073
  0
LINE
  8
0
 10
-104.964
 11
-104.781
 20
-103.073
 21
-103.027
  0
LINE
  8
0
 10
-104.781
 11
-104.594
 20
-103.027
 21
-103.003
  0
LINE
  8
0
 10
-104.594
 11
-104.406
 20
-103.003
 21
-103.003
  0
LINE
  8
0
 10
-104.406
 11
-104.219
 20
-103.003
 21
-103.027
  0
LINE
  8
0
 10
-104.219
 11
-104.036
 20
-103.027
 21
-103.073
  0
LINE
  8
0
 10
-104.036
 11
-103.861
 20
-103.073
 21
-103.143
  0
LINE
  8
0
 10
-103.861
 11
-103.696
 20
-103.143
 21
-103.234
  0
LINE
  8
0
 10
-103.696
 11
-103.544
 20
-103.234
 21
-103.344
  0
LINE
  8
0
 10
-103.544
 11
-103.407
 20
-103.344
 21
-103.473
  0
LINE
  8
0
 10
-103.407
 11
-103.286
 20
-103.473
 21
-103.618
  0
LINE
  8
0
 10
-103.286
 11
-103.186
 20
-103.618
 21
-103.777
  0
LINE
  8
0
 10
-103.186
 11
-103.105
 20
-103.777
 21
-103.948
  0
LINE
  8
0
 10
-103.105
 11
-103.047
 20
-103.948
 21
-104.127
  0
LINE
  8
0
 10
-103.047
 11
-103.012
 20
-104.127
 21
-104.312
  0
LINE
  8
0
 10
-103.012
 11
-103
 20
-104.312
 21
-104.5
  0
LINE
  8
0
 10
-103
 11
-103.012
 20
-104.5
 21
-104.688
  0
LINE
  8
0
 10
-103.012
 11
-103.047
 20
-104.688
 21
-104.873
  0
LINE
  8
0
 10
-103.047
 11
-103.105
 20
-104.873
 21
-105.052
  0
LINE
  8
0
 10
-103.105
 11
-103.186
 20
-105.052
 21
-105.223
  0
LINE
  8
0
 10
-103.186
 11
-103.286
 20
-105.223
 21
-105.382
  0
LINE
  8
0
 10
-103.286
 11
-103.407
 20
-105.382
 21
-105.527
  0
LINE
  8
0
 10
-103.407
 11
-103.544
 20
-105.527
 21
-105.656
  0
LINE
  8
0
 10
-103.544
 11
-103.696
 20
-105.656
 21
-105.766
  0
LINE
  8
0
 10
-103.696
 11
-103.861
 20
-105.766
 21
-105.857
  0
LINE
  8
0
 10
-103.861
 11
-104.036
 20
-105.857
 21
-105.927
  0
LINE
  8
0
 10
-104.036
 11
-104.219
 20
-105.927
 21
-105.973
  0
LINE
  8
0
 10
-104.219
 11
-104.406
 20
-105.973
 21
-105.997
  0
LINE
  8
0
 10
-104.406
 11
-104.594
 20
-105.997
 21
-105.997
  0
LINE
  8
0
 10
-104.594
 11
-104.781
 20
-105.997
 21
-105.973
  0
LINE
  8
0
 10
-104.781
 11
-104.964
 20
-105.973
 21
-105.927
  0
LINE
  8
0
 10
-104.964
 11
-105.139
 20
-105.927
 21
-105.857
  0
LINE
  8
0
 10
-105.139
 11
-105.304
 20
-105.857
 21
-105.766
  0
LINE
  8
0
 10
-105.304
 11
-105.456
 20
-105.766
 21
-105.656
  0
LINE
  8
0
 10
-105.456
 11
-105.593
 20
-105.656
 21
-105.527
  0
LINE
  8
0
 10
-105.593
 11
-105.714
 20
-105.527
 21
-105.382
  0
LINE
  8
0
 10
-105.714
 11
-105.814
 20
-105.382
 21
-105.223
  0
LINE
  8
0
 10
-105.814
 11
-105.895
 20
-105.223
 21
-105.052
  0
LINE
  8
0
 10
-105.895
 11
-105.953
 20
-105.052
 21
-104.873
  0
LINE
  8
0
 10
-105.953
 11
-105.988
 20
-104.873
 21
-104.688
  0
LINE
  8
0
 10
-105.988
 11
-106
 20
-104.688
 21
-104.5
  0
LINE
  8
0
 10
-106
 11
-105.988
 20
104.5
 21
104.688
  0
LINE
  8
0
 10
-105.988
 11
-105.953
 20
104.688
 21
104.873
  0
LINE
  8
0
 10
-105.953
 11
-105.895
 20
104.873
 21
105.052
  0
LINE
  8
0
 10
-105.895
 11
-105.814
 20
105.052
 21
105.223
  0
LINE
  8
0
 10
-105.814
 11
-105.714
 20
105.223
 21
105.382
  0
LINE
  8
0
 10
-105.714
 11
-105.593
 20
105.382
 21
105.527
  0
LINE
  8
0
 10
-105.593
 11
-105.456
 20
105.527
 21
105.656
  0
LINE
  8
0
 10
-105.456
 11
-105.304
 20
105.656
 21
105.766
  0
LINE
  8
0
 10
-105.304
 11
-105.139
 20
105.766
 21
105.857
  0
LINE
  8
0
 10
-105.139
 11
-104.964
 20
105.857
 21
105.927
  0
LINE
  8
0
 10
-104.964
 11
-104.781
 20
105.927
 21
105.973
  0
LINE
  8
0
 10
-104.781
 11
-104.594
 20
105.973
 21
105.997
  0
LINE
  8
0
 10
-104.594
 11
-104.406
 20
105.997
 21
105.997
  0
LINE
  8
0
 10
-104.406
 11
-104.219
 20
105.997
 21
105.973
  0
LINE
  8
0
 10
-104.219
 11
-104.036
 20
105.973
 21
105.927
  0
LINE
  8
0
 10
-104.036
 11
-103.861
 20
105.927
 21
105.857
  0
LINE
  8
0
 10
-103.861
 11
-103.696
 20
105.857
 21
105.766
  0
LINE
  8
0
 10
-103.696
 11
-103.544
 20
105.766
 21
105.656
  0
LINE
  8
0
 10
-103.544
 11
-103.407
 20
105.656
 21
105.527
  0
LINE
  8
0
 10
-103.407
 11
-103.286
 20
105.527
 21
105.382
  0
LINE
  8
0
 10
-103.286
 11
-103.186
 20
105.382
 21
105.223
  0
LINE
  8
0
 10
-103.186
 11
-103.105
 20
105.223
 21
105.052
  0
LINE
  8
0
 10
-103.105
 11
-103.047
 20
105.052
 21
104.873
  0
LINE
  8
0
 10
-103.047
 11
-103.012
 20
104.873
 21
104.688
  0
LINE
  8
0
 10
-103.012
 11
-103
 20
104.688
 21
104.5
  0
LINE
  8
0
 10
-103
 11
-103.012
 20
104.5
 21
104.312
  0
LINE
  8
0
 10
-103.012
 11
-103.047
 20
104.312
 21
104.127
  0
LINE
  8
0
 10
-103.047
 11
-103.105
 20
104.127
 21
103.948
  0
LINE
  8
0
 10
-103.105
 11
-103.186
 20
103.948
 21
103.777
  0
LINE
  8
0
 10
-103.186
 11
-103.286
 20
103.777
 21
103.618
  0
LINE
  8
0
 10
-103.286
 11
-103.407
 20
103.618
 21
103.473
  0
LINE
  8
0
 10
-103.407
 11
-103.544
 20
103.473
 21
103.344
  0
LINE
  8
0
 10
-103.544
 11
-103.696
 20
103.344
 21
103.234
  0
LINE
  8
0
 10
-103.696
 11
-103.861
 20
103.234
 21
103.143
  0
LINE
  8
0
 10
-103.861
 11
-104.036
 20
103.143
 21
103.073
  0
LINE
  8
0
 10
-104.036
 11
-104.219
 20
103.073
 21
103.027
  0
LINE
  8
0
 10
-104.219
 11
-104.406
 20
103.027
 21
103.003
  0
LINE
  8
0
 10
-104.406
 11
-104.594
 20
103.003
 21
103.003
  0
LINE
  8
0
 10
-104.594
 11
-104.781
 20
103.003
 21
103.027
  0
LINE
  8
0
 10
-104.781
 11
-104.964
 20
103.027
 21
103.073
  0
LINE
  8
0
 10
-104.964
 11
-105.139
 20
103.073
 21
103.143
  0
LINE
  8
0
 10
-105.139
 11
-105.304
 20
103.143
 21
103.234
  0
LINE
  8
0
 10
-105.304
 11
-105.456
 20
103.234
 21
103.344
  0
LINE
  8
0
 10
-105.456
 11
-105.593
 20
103.344
 21
103.473
  0
LINE
  8
0
 10
-105.593
 11
-105.714
 20
103.473
 21
103.618
  0
LINE
  8
0
 10
-105.714
 11
-105.814
 20
103.618
 21
103.777
  0
LINE
  8
0
 10
-105.814
 11
-105.895
 20
103.777
 21
103.948
  0
LINE
  8
0
 10
-105.895
 11
-105.953
 20
103.948
 21
104.127
  0
LINE
  8
0
 10
-105.953
 11
-105.988
 20
104.127
 21
104.312
  0
LINE
  8
0
 10
-105.988
 11
-106
 20
104.312
 21
104.5
  0
LINE
  8
0
 10
-96.3
 11
-96.3
 20
-76.28
 21
-16
  0
LINE
  8
0
 10
-96.3
 11
-96.243
 20
-16
 21
-14.997
  0
LINE
  8
0
 10
-96.243
 11
-96.074
 20
-14.997
 21
-14.01
  0
LINE
  8
0
 10
-96.074
 11
-95.794
 20
-14.01
 21
-13.055
  0
LINE
  8
0
 10
-95.794
 11
-95.409
 20
-13.055
 21
-12.146
  0
LINE
  8
0
 10
-95.409
 11
-94.925
 20
-12.146
 21
-11.298
  0
LINE
  8
0
 10
-94.925
 11
-94.349
 20
-11.298
 21
-10.524
  0
LINE
  8
0
 10
-94.349
 11
-93.689
 20
-10.524
 21
-9.836
  0
LINE
  8
0
 10
-93.689
 11
-92.958
 20
-9.836
 21
-9.245
  0
LINE
  8
0
 10
-92.958
 11
-92.166
 20
-9.245
 21
-8.761
  0
LINE
  8
0
 10
-92.166
 11
-91.325
 20
-8.761
 21
-8.392
  0
LINE
  8
0
 10
-91.325
 11
-90.449
 20
-8.392
 21
-8.142
  0
LINE
  8
0
 10
-90.449
 11
-89.552
 20
-8.142
 21
-8.016
  0
LINE
  8
0
 10
-89.552
 11
-30.796
 20
-8.016
 21
-8.016
  0
LINE
  8
0
 10
-30.796
 11
-29.899
 20
-8.016
 21
-8.142
  0
LINE
  8
0
 10
-29.899
 11
-29.023
 20
-8.142
 21
-8.392
  0
LINE
  8
0
 10
-29.023
 11
-28.182
 20
-8.392
 21
-8.761
  0
LINE
  8
0
 10
-28.182
 11
-27.39
 20
-8.761
 21
-9.245
  0
LINE
  8
0
 10
-27.39
 11
-26.659
 20
-9.245
 21
-9.836
  0
LINE
  8
0
 10
-26.659
 11
-25.999
 20
-9.836
 21
-10.524
  0
LINE
  8
0
 10
-25.999
 11
-25.423
 20
-10.524
 21
-11.298
  0
LINE
  8
0
 10
-25.423
 11
-24.939
 20
-11.298
 21
-12.146
  0
LINE
  8
0
 10
-24.939
 11
-24.554
 20
-12.146
 21
-13.055
  0
LINE
  8
0
 10
-24.554
 11
-24.274
 20
-13.055
 21
-14.01
  0
LINE
  8
0
 10
-24.274
 11
-24.105
 20
-14.01
 21
-14.997
  0
LINE
  8
0
 10
-24.105
 11
-24.048
 20
-14.997
 21
-16
  0
LINE
  8
0
 10
-24.048
 11
-24.105
 20
-16
 21
-17.003
  0
LINE
  8
0
 10
-24.105
 11
-24.274
 20
-17.003
 21
-17.99
  0
LINE
  8
0
 10
-24.274
 11
-24.554
 20
-17.99
 21
-18.945
  0
LINE
  8
0
 10
-24.554
 11
-24.939
 20
-18.945
 21
-19.854
  0
LINE
  8
0
 10
-24.939
 11
-25.423
 20
-19.854
 21
-20.702
  0
LINE
  8
0
 10
-25.423
 11
-25.999
 20
-20.702
 21
-21.476
  0
LINE
  8
0
 10
-25.999
 11
-26.659
 20
-21.476
 21
-22.164
  0
LINE
  8
0
 10
-26.659
 11
-84.511
 20
-22.164
 21
-82.444
  0
LINE
  8
0
 10
-84.511
 11
-85.242
 20
-82.444
 21
-83.035
  0
LINE
  8
0
 10
-85.242
 11
-86.034
 20
-83.035
 21
-83.519
  0
LINE
  8
0
 10
-86.034
 11
-86.875
 20
-83.519
 21
-83.888
  0
LINE
  8
0
 10
-86.875
 11
-87.751
 20
-83.888
 21
-84.138
  0
LINE
  8
0
 10
-87.751
 11
-88.648
 20
-84.138
 21
-84.264
  0
LINE
  8
0
 10
-88.648
 11
-89.552
 20
-84.264
 21
-84.264
  0
LINE
  8
0
 10
-89.552
 11
-90.449
 20
-84.264
 21
-84.138
  0
LINE
  8
0
 10
-90.449
 11
-91.325
 20
-84.138
 21
-83.888
  0
LINE
  8
0
 10
-91.325
 11
-92.166
 20
-83.888
 21
-83.519
  0
LINE
  8
0
 10
-92.166
 11
-92.958
 20
-83.519
 21
-83.035
  0
LINE
  8
0
 10
-92.958
 11
-93.689
 20
-83.035
 21
-82.444
  0
LINE
  8
0
 10
-93.689
 11
-94.349
 20
-82.444
 21
-81.756
  0
LINE
  8
0
 10
-94.349
 11
-94.925
 20
-81.756
 21
-80.982
  0
LINE
  8
0
 10
-94.925
 11
-95.409
 20
-80.982
 21
-80.134
  0
LINE
  8
0
 10
-95.409
 11
-95.794
 20
-80.134
 21
-79.225
  0
LINE
  8
0
 10
-95.794
 11
-96.074
 20
-79.225
 21
-78.27
  0
LINE
  8
0
 10
-96.074
 11
-96.243
 20
-78.27
 21
-77.283
  0
LINE
  8
0
 10
-96.243
 11
-96.3
 20
-77.283
 21
-76.28
  0
LINE
  8
0
 10
-96.3
 11
-96.3
 20
16
 21
76.28
  0
LINE
  8
0
 10
-96.3
 11
-96.243
 20
76.28
 21
77.283
  0
LINE
  8
0
 10
-96.243
 11
-96.074
 20
77.283
 21
78.27
  0
LINE
  8
0
 10
-96.074
 11
-95.794
 20
78.27
 21
79.225
  0
LINE
  8
0
 10
-95.794
 11
-95.409
 20
79.225
 21
80.134
  0
LINE
  8
0
 10
-95.409
 11
-94.925
 20
80.134
 21
80.982
  0
LINE
  8
0
 10
-94.925
 11
-94.349
 20
80.982
 21
81.756
  0
LINE
  8
0
 10
-94.349
 11
-93.689
 20
81.756
 21
82.444
  0
LINE
  8
0
 10
-93.689
 11
-92.958
 20
82.444
 21
83.035
  0
LINE
  8
0
 10
-92.958
 11
-92.166
 20
83.035
 21
83.519
  0
LINE
  8
0
 10
-92.166
 11
-91.325
 20
83.519
 21
83.888
  0
LINE
  8
0
 10
-91.325
 11
-90.449
 20
83.888
 21
84.138
  0
LINE
  8
0
 10
-90.449
 11
-89.552
 20
84.138
 21
84.264
  0
LINE
  8
0
 10
-89.552
 11
-88.648
 20
84.264
 21
84.264
  0
LINE
  8
0
 10
-88.648
 11
-87.751
 20
84.264
 21
84.138
  0
LINE
  8
0
 10
-87.751
 11
-86.875
 20
84.138
 21
83.888
  0
LINE
  8
0
 10
-86.875
 11
-86.034
 20
83.888
 21
83.519
  0
LINE
  8
0
 10
-86.034
 11
-85.242
 20
83.519
 21
83.035
  0
LINE
  8
0
 10
-85.242
 11
-84.511
 20
83.035
 21
82.444
  0
LINE
  8
0
 10
-84.511
 11
-26.659
 20
82.444
 21
22.164
  0
LINE
  8
0
 10
-26.659
 11
-25.999
 20
22.164
 21
21.476
  0
LINE
  8
0
 10
-25.999
 11
-25.423
 20
21.476
 21
20.702
  0
LINE
  8
0
 10
-25.423
 11
-24.939
 20
20.702
 21
19.854
  0
LINE
  8
0
 10
-24.939
 11
-24.554
 20
19.854
 21
18.945
  0
LINE
  8
0
 10
-24.554
 11
-24.274
 20
18.945
 21
17.99
  0
LINE
  8
0
 10
-24.274
 11
-24.105
 20
17.99
 21
17.003
  0
LINE
  8
0
 10
-24.105
 11
-24.048
 20
17.003
 21
16
  0
LINE
  8
0
 10
-24.048
 11
-24.105
 20
16
 21
14.997
  0
LINE
  8
0
 10
-24.105
 11
-24.274
 20
14.997
 21
14.01
  0
LINE
  8
0
 10
-24.274
 11
-24.554
 20
14.01
 21
13.055
  0
LINE
  8
0
 10
-24.554
 11
-24.939
 20
13.055
 21
12.146
  0
LINE
  8
0
 10
-24.939
 11
-25.423
 20
12.146
 21
11.298
  0
LINE
  8
0
 10
-25.423
 11
-25.999
 20
11.298
 21
10.524
  0
LINE
  8
0
 10
-25.999
 11
-26.659
 20
10.524
 21
9.836
  0
LINE
  8
0
 10
-26.659
 11
-27.39
 20
9.836
 21
9.245
  0
LINE
  8
0
 10
-27.39
 11
-28.182
 20
9.245
 21
8.761
  0
LINE
  8
0
 10
-28.182
 11
-29.023
 20
8.761
 21
8.392
  0
LINE
  8
0
 10
-29.023
 11
-29.899
 20
8.392
 21
8.142
  0
LINE
  8
0
 10
-29.899
 11
-30.796
 20
8.142
 21
8.016
  0
LINE
  8
0
 10
-30.796
 11
-89.552
 20
8.016
 21
8.016
  0
LINE
  8
0
 10
-89.552
 11
-90.449
 20
8.016
 21
8.142
  0
LINE
  8
0
 10
-90.449
 11
-91.325
 20
8.142
 21
8.392
  0
LINE
  8
0
 10
-91.325
 11
-92.166
 20
8.392
 21
8.761
  0
LINE
  8
0
 10
-92.166
 11
-92.958
 20
8.761
 21
9.245
  0
LINE
  8
0
 10
-92.958
 11
-93.689
 20
9.245
 21
9.836
  0
LINE
  8
0
 10
-93.689
 11
-94.349
 20
9.836
 21
10.524
  0
LINE
  8
0
 10
-94.349
 11
-94.925
 20
10.524
 21
11.298
  0
LINE
  8
0
 10
-94.925
 11
-95.409
 20
11.298
 21
12.146
  0
LINE
  8
0
 10
-95.409
 11
-95.794
 20
12.146
 21
13.055
  0
LINE
  8
0
 10
-95.794
 11
-96.074
 20
13.055
 21
14.01
  0
LINE
  8
0
 10
-96.074
 11
-96.243
 20
14.01
 21
14.997
  0
LINE
  8
0
 10
-96.243
 11
-96.3
 20
14.997
 21
16
  0
LINE
  8
0
 10
-84.264
 11
-84.264
 20
-99.502
 21
-98.498
  0
LINE
  8
0
 10
-84.264
 11
-84.138
 20
-98.498
 21
-97.501
  0
LINE
  8
0
 10
-84.138
 11
-83.888
 20
-97.501
 21
-96.528
  0
LINE
  8
0
 10
-83.888
 11
-83.519
 20
-96.528
 21
-95.594
  0
LINE
  8
0
 10
-83.519
 11
-83.035
 20
-95.594
 21
-94.713
  0
LINE
  8
0
 10
-83.035
 11
-82.444
 20
-94.713
 21
-93.901
  0
LINE
  8
0
 10
-82.444
 11
-22.164
 20
-93.901
 21
-29.621
  0
LINE
  8
0
 10
-22.164
 11
-21.476
 20
-29.621
 21
-28.888
  0
LINE
  8
0
 10
-21.476
 11
-20.702
 20
-28.888
 21
-28.248
  0
LINE
  8
0
 10
-20.702
 11
-19.854
 20
-28.248
 21
-27.71
  0
LINE
  8
0
 10
-19.854
 11
-18.945
 20
-27.71
 21
-27.282
  0
LINE
  8
0
 10
-18.945
 11
-17.99
 20
-27.282
 21
-26.971
  0
LINE
  8
0
 10
-17.99
 11
-17.003
 20
-26.971
 21
-26.783
  0
LINE
  8
0
 10
-17.003
 11
-16
 20
-26.783
 21
-26.72
  0
LINE
  8
0
 10
-16
 11
-14.997
 20
-26.72
 21
-26.783
  0
LINE
  8
0
 10
-14.997
 11
-14.01
 20
-26.783
 21
-26.971
  0
LINE
  8
0
 10
-14.01
 11
-13.055
 20
-26.971
 21
-27.282
  0
LINE
  8
0
 10
-13.055
 11
-12.146
 20
-27.282
 21
-27.71
  0
LINE
  8
0
 10
-12.146
 11
-11.298
 20
-27.71
 21
-28.248
  0
LINE
  8
0
 10
-11.298
 11
-10.524
 20
-28.248
 21
-28.888
  0
LINE
  8
0
 10
-10.524
 11
-9.836
 20
-28.888
 21
-29.621
  0
LINE
  8
0
 10
-9.836
 11
-9.245
 20
-29.621
 21
-30.433
  0
LINE
  8
0
 10
-9.245
 11
-8.761
 20
-30.433
 21
-31.314
  0
LINE
  8
0
 10
-8.761
 11
-8.392
 20
-31.314
 21
-32.248
  0
LINE
  8
0
 10
-8.392
 11
-8.142
 20
-32.248
 21
-33.221
  0
LINE
  8
0
 10
-8.142
 11
-8.016
 20
-33.221
 21
-34.218
  0
LINE
  8
0
 10
-8.016
 11
-8.016
 20
-34.218
 21
-99.502
  0
LINE
  8
0
 10
-8.016
 11
-8.142
 20
-99.502
 21
-100.499
  0
LINE
  8
0
 10
-8.142
 11
-8.392
 20
-100.499
 21
-101.472
  0
LINE
  8
0
 10
-8.392
 11
-8.761
 20
-101.472
 21
-102.406
  0
LINE
  8
0
 10
-8.761
 11
-9.245
 20
-102.406
 21
-103.287
  0
LINE
  8
0
 10
-9.245
 11
-9.836
 20
-103.287
 21
-104.099
  0
LINE
  8
0
 10
-9.836
 11
-10.524
 20
-104.099
 21
-104.832
  0
LINE
  8
0
 10
-10.524
 11
-11.298
 20
-104.832
 21
-105.472
  0
LINE
  8
0
 10
-11.298
 11
-12.146
 20
-105.472
 21
-106.01
  0
LINE
  8
0
 10
-12.146
 11
-13.055
 20
-106.01
 21
-106.438
  0
LINE
  8
0
 10
-13.055
 11
-14.01
 20
-106.438
 21
-106.749
  0
LINE
  8
0
 10
-14.01
 11
-14.997
 20
-106.749
 21
-106.937
  0
LINE
  8
0
 10
-14.997
 11
-16
 20
-106.937
 21
-107
  0
LINE
  8
0
 10
-16
 11
-76.28
 20
-107
 21
-107
  0
LINE
  8
0
 10
-76.28
 11
-77.283
 20
-107
 21
-106.937
  0
LINE
  8
0
 10
-77.283
 11
-78.27
 20
-106.937
 21
-106.749
  0
LINE
  8
0
 10
-78.27
 11
-79.225
 20
-106.749
 21
-106.438
  0
LINE
  8
0
 10
-79.225
 11
-80.134
 20
-106.438
 21
-106.01
  0
LINE
  8
0
 10
-80.134
 11
-80.982
 20
-106.01
 21
-105.472
  0
LINE
  8
0
 10
-80.982
 11
-81.756
 20
-105.472
 21
-104.832
  0
LINE
  8
0
 10
-81.756
 11
-82.444
 20
-104.832
 21
-104.099
  0
LINE
  8
0
 10
-82.444
 11
-83.035
 20
-104.099
 21
-103.287
  0
LINE
  8
0
 10
-83.035
 11
-83.519
 20
-103.287
 21
-102.406
  0
LINE
  8
0
 10
-83.519
 11
-83.888
 20
-102.406
 21
-101.472
  0
LINE
  8
0
 10
-83.888
 11
-84.138
 20
-101.472
 21
-100.499
  0
LINE
  8
0
 10
-84.138
 11
-84.264
 20
-100.499
 21
-99.502
  0
LINE
  8
0
 10
-84.264
 11
-84.264
 20
98.498
 21
99.502
  0
LINE
  8
0
 10
-84.264
 11
-84.138
 20
99.502
 21
100.499
  0
LINE
  8
0
 10
-84.138
 11
-83.888
 20
100.499
 21
101.472
  0
LINE
  8
0
 10
-83.888
 11
-83.519
 20
101.472
 21
102.406
  0
LINE
  8
0
 10
-83.519
 11
-83.035
 20
102.406
 21
103.287
  0
LINE
  8
0
 10
-83.035
 11
-82.444
 20
103.287
 21
104.099
  0
LINE
  8
0
 10
-82.444
 11
-81.756
 20
104.099
 21
104.832
  0
LINE
  8
0
 10
-81.756
 11
-80.982
 20
104.832
 21
105.472
  0
LINE
  8
0
 10
-80.982
 11
-80.134
 20
105.472
 21
106.01
  0
LINE
  8
0
 10
-80.134
 11
-79.225
 20
106.01
 21
106.438
  0
LINE
  8
0
 10
-79.225
 11
-78.27
 20
106.438
 21
106.749
  0
LINE
  8
0
 10
-78.27
 11
-77.283
 20
106.749
 21
106.937
  0
LINE
  8
0
 10
-77.283
 11
-76.28
 20
106.937
 21
107
  0
LINE
  8
0
 10
-76.28
 11
-16
 20
107
 21
107
  0
LINE
  8
0
 10
-16
 11
-14.997
 20
107
 21
106.937
  0
LINE
  8
0
 10
-14.997
 11
-14.01
 20
106.937
 21
106.749
  0
LINE
  8
0
 10
-14.01
 11
-13.055
 20
106.749
 21
106.438
  0
LINE
  8
0
 10
-13.055
 11
-12.146
 20
106.438
 21
106.01
  0
LINE
  8
0
 10
-12.146
 11
-11.298
 20
106.01
 21
105.472
  0
LINE
  8
0
 10
-11.298
 11
-10.524
 20
105.472
 21
104.832
  0
LINE
  8
0
 10
-10.524
 11
-9.836
 20
104.832
 21
104.099
  0
LINE
  8
0
 10
-9.836
 11
-9.245
 20
104.099
 21
103.287
  0
LINE
  8
0
 10
-9.245
 11
-8.761
 20
103.287
 21
102.406
  0
LINE
  8
0
 10
-8.761
 11
-8.392
 20
102.406
 21
101.472
  0
LINE
  8
0
 10
-8.392
 11
-8.142
 20
101.472
 21
100.499
  0
LINE
  8
0
 10
-8.142
 11
-8.016
 20
100.499
 21
99.502
  0
LINE
  8
0
 10
-8.016
 11
-8.016
 20
99.502
 21
34.218
  0
LINE
  8
0
 10
-8.016
 11
-8.142
 20
34.218
 21
33.221
  0
LINE
  8
0
 10
-8.142
 11
-8.392
 20
33.221
 21
32.248
  0
LINE
  8
0
 10
-8.392
 11
-8.761
 20
32.248
 21
31.314
  0
LINE
  8
0
 10
-8.761
 11
-9.245
 20
31.314
 21
30.433
  0
LINE
  8
0
 10
-9.245
 11
-9.836
 20
30.433
 21
29.621
  0
LINE
  8
0
 10
-9.836
 11
-10.524
 20
29.621
 21
28.888
  0
LINE
  8
0
 10
-10.524
 11
-11.298
 20
28.888
 21
28.248
  0
LINE
  8
0
 10
-11.298
 11
-12.146
 20
28.248
 21
27.71
  0
LINE
  8
0
 10
-12.146
 11
-13.055
 20
27.71
 21
27.282
  0
LINE
  8
0
 10
-13.055
 11
-14.01
 20
27.282
 21
26.971
  0
LINE
  8
0
 10
-14.01
 11
-14.997
 20
26.971
 21
26.783
  0
LINE
  8
0
 10
-14.997
 11
-16
 20
26.783
 21
26.72
  0
LINE
  8
0
 10
-16
 11
-17.003
 20
26.72
 21
26.783
  0
LINE
  8
0
 10
-17.003
 11
-17.99
 20
26.783
 21
26.971
  0
LINE
  8
0
 10
-17.99
 11
-18.945
 20
26.971
 21
27.282
  0
LINE
  8
0
 10
-18.945
 11
-19.854
 20
27.282
 21
27.71
  0
LINE
  8
0
 10
-19.854
 11
-20.702
 20
27.71
 21
28.248
  0
LINE
  8
0
 10
-20.702
 11
-21.476
 20
28.248
 21
28.888
  0
LINE
  8
0
 10
-21.476
 11
-22.164
 20
28.888
 21
29.621
  0
LINE
  8
0
 10
-22.164
 11
-82.444
 20
29.621
 21
93.901
  0
LINE
  8
0
 10
-82.444
 11
-83.035
 20
93.901
 21
94.713
  0
LINE
  8
0
 10
-83.035
 11
-83.519
 20
94.713
 21
95.594
  0
LINE
  8
0
 10
-83.519
 11
-83.888
 20
95.594
 21
96.528
  0
LINE
  8
0
 10
-83.888
 11
-84.138
 20
96.528
 21
97.501
  0
LINE
  8
0
 10
-84.138
 11
-84.264
 20
97.501
 21
98.498
  0
LINE
  8
0
 10
-79.5
 11
-79.488
 20
-160
 21
-159.812
  0
LINE
  8
0
 10
-79.488
 11
-79.453
 20
-159.812
 21
-159.627
  0
LINE
  8
0
 10
-79.453
 11
-79.395
 20
-159.627
 21
-159.448
  0
LINE
  8
0
 10
-79.395
 11
-79.314
 20
-159.448
 21
-159.277
  0
LINE
  8
0
 10
-79.314
 11
-79.214
 20
-159.277
 21
-159.118
  0
LINE
  8
0
 10
-79.214
 11
-79.093
 20
-159.118
 21
-158.973
  0
LINE
  8
0
 10
-79.093
 11
-78.956
 20
-158.973
 21
-158.844
  0
LINE
  8
0
 10
-78.956
 11
-78.804
 20
-158.844
 21
-158.734
  0
LINE
  8
0
 10
-78.804
 11
-78.639
 20
-158.734
 21
-158.643
  0
LINE
  8
0
 10
-78.639
 11
-78.464
 20
-158.643
 21
-158.573
  0
LINE
  8
0
 10
-78.464
 11
-78.281
 20
-158.573
 21
-158.527
  0
LINE
  8
0
 10
-78.281
 11
-78.094
 20
-158.527
 21
-158.503
  0
LINE
  8
0
 10
-78.094
 11
-69.906
 20
-158.503
 21
-158.503
  0
LINE
  8
0
 10
-69.906
 11
-69.719
 20
-158.503
 21
-158.527
  0
LINE
  8
0
 10
-69.719
 11
-69.536
 20
-158.527
 21
-158.573
  0
LINE
  8
0
 10
-69.536
 11
-69.361
 20
-158.573
 21
-158.643
  0
LINE
  8
0
 10
-69.361
 11
-69.196
 20
-158.643
 21
-158.734
  0
LINE
  8
0
 10
-69.196
 11
-69.044
 20
-158.734
 21
-158.844
  0
LINE
  8
0
 10
-69.044
 11
-68.907
 20
-158.844
 21
-158.973
  0
LINE
  8
0
 10
-68.907
 11
-68.786
 20
-158.973
 21
-159.118
  0
LINE
  8
0
 10
-68.786
 11
-68.686
 20
-159.118
 21
-159.277
  0
LINE
  8
0
 10
-68.686
 11
-68.605
 20
-159.277
 21
-159.448
  0
LINE
  8
0
 10
-68.605
 11
-68.547
 20
-159.448
 21
-159.627
  0
LINE
  8
0
 10
-68.547
 11
-68.512
 20
-159.627
 21
-159.812
  0
LINE
  8
0
 10
-68.512
 11
-68.5
 20
-159.812
 21
-160
  0
LINE
  8
0
 10
-68.5
 11
-68.512
 20
-160
 21
-160.188
  0
LINE
  8
0
 10
-68.512
 11
-68.547
 20
-160.188
 21
-160.373
  0
LINE
  8
0
 10
-68.547
 11
-68.605
 20
-160.373
 21
-160.552
  0
LINE
  8
0
 10
-68.605
 11
-68.686
 20
-160.552
 21
-160.723
  0
LINE
  8
0
 10
-68.686
 11
-68.786
 20
-160.723
 21
-160.882
  0
LINE
  8
0
 10
-68.786
 11
-68.907
 20
-160.882
 21
-161.027
  0
LINE
  8
0
 10
-68.907
 11
-69.044
 20
-161.027
 21
-161.156
  0
LINE
  8
0
 10
-69.044
 11
-69.196
 20
-161.156
 21
-161.266
  0
LINE
  8
0
 10
-69.196
 11
-69.361
 20
-161.266
 21
-161.357
  0
LINE
  8
0
 10
-69.361
 11
-69.536
 20
-161.357
 21
-161.427
  0
LINE
  8
0
 10
-69.536
 11
-69.719
 20
-161.427
 21
-161.473
  0
LINE
  8
0
 10
-69.719
 11
-69.906
 20
-161.473
 21
-161.497
  0
LINE
  8
0
 10
-69.906
 11
-78.094
 20
-161.497
 21
-161.497
  0
LINE
  8
0
 10
-78.094
 11
-78.281
 20
-161.497
 21
-161.473
  0
LINE
  8
0
 10
-78.281
 11
-78.464
 20
-161.473
 21
-161.427
  0
LINE
  8
0
 10
-78.464
 11
-78.639
 20
-161.427
 21
-161.357
  0
LINE
  8
0
 10
-78.639
 11
-78.804
 20
-161.357
 21
-161.266
  0
LINE
  8
0
 10
-78.804
 11
-78.956
 20
-161.266
 21
-161.156
  0
LINE
  8
0
 10
-78.956
 11
-79.093
 20
-161.156
 21
-161.027
  0
LINE
  8
0
 10
-79.093
 11
-79.214
 20
-161.027
 21
-160.882
  0
LINE
  8
0
 10
-79.214
 11
-79.314
 20
-160.882
 21
-160.723
  0
LINE
  8
0
 10
-79.314
 11
-79.395
 20
-160.723
 21
-160.552
  0
LINE
  8
0
 10
-79.395
 11
-79.453
 20
-160.552
 21
-160.373
  0
LINE
  8
0
 10
-79.453
 11
-79.488
 20
-160.373
 21
-160.188
  0
LINE
  8
0
 10
-79.488
 11
-79.5
 20
-160.188
 21
-160
  0
LINE
  8
0
 10
-79.5
 11
-79.488
 20
160
 21
160.188
  0
LINE
  8
0
 10
-79.488
 11
-79.453
 20
160.188
 21
160.373
  0
LINE
  8
0
 10
-79.453
 11
-79.395
 20
160.373
 21
160.552
  0
LINE
  8
0
 10
-79.395
 11
-79.314
 20
160.552
 21
160.723
  0
LINE
  8
0
 10
-79.314
 11
-79.214
 20
160.723
 21
160.882
  0
LINE
  8
0
 10
-79.214
 11
-79.093
 20
160.882
 21
161.027
  0
LINE
  8
0
 10
-79.093
 11
-78.956
 20
161.027
 21
161.156
  0
LINE
  8
0
 10
-78.956
 11
-78.804
 20
161.156
 21
161.266
  0
LINE
  8
0
 10
-78.804
 11
-78.639
 20
161.266
 21
161.357
  0
LINE
  8
0
 10
-78.639
 11
-78.464
 20
161.357
 21
161.427
  0
LINE
  8
0
 10
-78.464
 11
-78.281
 20
161.427
 21
161.473
  0
LINE
  8
0
 10
-78.281
 11
-78.094
 20
161.473
 21
161.497
  0
LINE
  8
0
 10
-78.094
 11
-69.906
 20
161.497
 21
161.497
  0
LINE
  8
0
 10
-69.906
 11
-69.719
 20
161.497
 21
161.473
  0
LINE
  8
0
 10
-69.719
 11
-69.536
 20
161.473
 21
161.427
  0
LINE
  8
0
 10
-69.536
 11
-69.361
 20
161.427
 21
161.357
  0
LINE
  8
0
 10
-69.361
 11
-69.196
 20
161.357
 21
161.266
  0
LINE
  8
0
 10
-69.196
 11
-69.044
 20
161.266
 21
161.156
  0
LINE
  8
0
 10
-69.044
 11
-68.907
 20
161.156
 21
161.027
  0
LINE
  8
0
 10
-68.907
 11
-68.786
 20
161.027
 21
160.882
  0
LINE
  8
0
 10
-68.786
 11
-68.686
 20
160.882
 21
160.723
  0
LINE
  8
0
 10
-68.686
 11
-68.605
 20
160.723
 21
160.552
  0
LINE
  8
0
 10
-68.605
 11
-68.547
 20
160.552
 21
160.373
  0
LINE
  8
0
 10
-68.547
 11
-68.512
 20
160.373
 21
160.188
  0
LINE
  8
0
 10
-68.512
 11
-68.5
 20
160.188
 21
160
  0
LINE
  8
0
 10
-68.5
 11
-68.512
 20
160
 21
159.812
  0
LINE
  8
0
 10
-68.512
 11
-68.547
 20
159.812
 21
159.627
  0
LINE
  8
0
 10
-68.547
 11
-68.605
 20
159.627
 21
159.448
  0
LINE
  8
0
 10
-68.605
 11
-68.686
 20
159.448
 21
159.277
  0
LINE
  8
0
 10
-68.686
 11
-68.786
 20
159.277
 21
159.118
  0
LINE
  8
0
 10
-68.786
 11
-68.907
 20
159.118
 21
158.973
  0
LINE
  8
0
 10
-68.907
 11
-69.044
 20
158.973
 21
158.844
  0
LINE
  8
0
 10
-69.044
 11
-69.196
 20
158.844
 21
158.734
  0
LINE
  8
0
 10
-69.196
 11
-69.361
 20
158.734
 21
158.643
  0
LINE
  8
0
 10
-69.361
 11
-69.536
 20
158.643
 21
158.573
  0
LINE
  8
0
 10
-69.536
 11
-69.719
 20
158.573
 21
158.527
  0
LINE
  8
0
 10
-69.719
 11
-69.906
 20
158.527
 21
158.503
  0
LINE
  8
0
 10
-69.906
 11
-78.094
 20
158.503
 21
158.503
  0
LINE
  8
0
 10
-78.094
 11
-78.281
 20
158.503
 21
158.527
  0
LINE
  8
0
 10
-78.281
 11
-78.464
 20
158.527
 21
158.573
  0
LINE
  8
0
 10
-78.464
 11
-78.639
 20
158.573
 21
158.643
  0
LINE
  8
0
 10
-78.639
 11
-78.804
 20
158.643
 21
158.734
  0
LINE
  8
0
 10
-78.804
 11
-78.956
 20
158.734
 21
158.844
  0
LINE
  8
0
 10
-78.956
 11
-79.093
 20
158.844
 21
158.973
  0
LINE
  8
0
 10
-79.093
 11
-79.214
 20
158.973
 21
159.118
  0
LINE
  8
0
 10
-79.214
 11
-79.314
 20
159.118
 21
159.277
  0
LINE
  8
0
 10
-79.314
 11
-79.395
 20
159.277
 21
159.448
  0
LINE
  8
0
 10
-79.395
 11
-79.453
 20
159.448
 21
159.627
  0
LINE
  8
0
 10
-79.453
 11
-79.488
 20
159.627
 21
159.812
  0
LINE
  8
0
 10
-79.488
 11
-79.5
 20
159.812
 21
160
  0
LINE
  8
0
 10
-60.5
 11
-60.488
 20
-160
 21
-159.812
  0
LINE
  8
0
 10
-60.488
 11
-60.453
 20
-159.812
 21
-159.627
  0
LINE
  8
0
 10
-60.453
 11
-60.395
 20
-159.627
 21
-159.448
  0
LINE
  8
0
 10
-60.395
 11
-60.314
 20
-159.448
 21
-159.277
  0
LINE
  8
0
 10
-60.314
 11
-60.214
 20
-159.277
 21
-159.118
  0
LINE
  8
0
 10
-60.214
 11
-60.093
 20
-159.118
 21
-158.973
  0
LINE
  8
0
 10
-60.093
 11
-59.956
 20
-158.973
 21
-158.844
  0
LINE
  8
0
 10
-59.956
 11
-59.804
 20
-158.844
 21
-158.734
  0
LINE
  8
0
 10
-59.804
 11
-59.639
 20
-158.734
 21
-158.643
  0
LINE
  8
0
 10
-59.639
 11
-59.464
 20
-158.643
 21
-158.573
  0
LINE
  8
0
 10
-59.464
 11
-59.281
 20
-158.573
 21
-158.527
  0
LINE
  8
0
 10
-59.281
 11
-59.094
 20
-158.527
 21
-158.503
  0
LINE
  8
0
 10
-59.094
 11
-50.906
 20
-158.503
 21
-158.503
  0
LINE
  8
0
 10
-50.906
 11
-50.719
 20
-158.503
 21
-158.527
  0
LINE
  8
0
 10
-50.719
 11
-50.536
 20
-158.527
 21
-158.573
  0
LINE
  8
0
 10
-50.536
 11
-50.361
 20
-158.573
 21
-158.643
  0
LINE
  8
0
 10
-50.361
 11
-50.196
 20
-158.643
 21
-158.734
  0
LINE
  8
0
 10
-50.196
 11
-50.044
 20
-158.734
 21
-158.844
  0
LINE
  8
0
 10
-50.044
 11
-49.907
 20
-158.844
 21
-158.973
  0
LINE
  8
0
 10
-49.907
 11
-49.786
 20
-158.973
 21
-159.118
  0
LINE
  8
0
 10
-49.786
 11
-49.686
 20
-159.118
 21
-159.277
  0
LINE
  8
0
 10
-49.686
 11
-49.605
 20
-159.277
 21
-159.448
  0
LINE
  8
0
 10
-49.605
 11
-49.547
 20
-159.448
 21
-159.627
  0
LINE
  8
0
 10
-49.547
 11
-49.512
 20
-159.627
 21
-159.812
  0
LINE
  8
0
 10
-49.512
 11
-49.5
 20
-159.812
 21
-160
  0
LINE
  8
0
 10
-49.5
 11
-49.512
 20
-160
 21
-160.188
  0
LINE
  8
0
 10
-49.512
 11
-49.547
 20
-160.188
 21
-160.373
  0
LINE
  8
0
 10
-49.547
 11
-49.605
 20
-160.373
 21
-160.552
  0
LINE
  8
0
 10
-49.605
 11
-49.686
 20
-160.552
 21
-160.723
  0
LINE
  8
0
 10
-49.686
 11
-49.786
 20
-160.723
 21
-160.882
  0
LINE
  8
0
 10
-49.786
 11
-49.907
 20
-160.882
 21
-161.027
  0
LINE
  8
0
 10
-49.907
 11
-50.044
 20
-161.027
 21
-161.156
  0
LINE
  8
0
 10
-50.044
 11
-50.196
 20
-161.156
 21
-161.266
  0
LINE
  8
0
 10
-50.196
 11
-50.361
 20
-161.266
 21
-161.357
  0
LINE
  8
0
 10
-50.361
 11
-50.536
 20
-161.357
 21
-161.427
  0
LINE
  8
0
 10
-50.536
 11
-50.719
 20
-161.427
 21
-161.473
  0
LINE
  8
0
 10
-50.719
 11
-50.906
 20
-161.473
 21
-161.497
  0
LINE
  8
0
 10
-50.906
 11
-59.094
 20
-161.497
 21
-161.497
  0
LINE
  8
0
 10
-59.094
 11
-59.281
 20
-161.497
 21
-161.473
  0
LINE
  8
0
 10
-59.281
 11
-59.464
 20
-161.473
 21
-161.427
  0
LINE
  8
0
 10
-59.464
 11
-59.639
 20
-161.427
 21
-161.357
  0
LINE
  8
0
 10
-59.639
 11
-59.804
 20
-161.357
 21
-161.266
  0
LINE
  8
0
 10
-59.804
 11
-59.956
 20
-161.266
 21
-161.156
  0
LINE
  8
0
 10
-59.956
 11
-60.093
 20
-161.156
 21
-161.027
  0
LINE
  8
0
 10
-60.093
 11
-60.214
 20
-161.027
 21
-160.882
  0
LINE
  8
0
 10
-60.214
 11
-60.314
 20
-160.882
 21
-160.723
  0
LINE
  8
0
 10
-60.314
 11
-60.395
 20
-160.723
 21
-160.552
  0
LINE
  8
0
 10
-60.395
 11
-60.453
 20
-160.552
 21
-160.373
  0
LINE
  8
0
 10
-60.453
 11
-60.488
 20
-160.373
 21
-160.188
  0
LINE
  8
0
 10
-60.488
 11
-60.5
 20
-160.188
 21
-160
  0
LINE
  8
0
 10
-60.5
 11
-60.488
 20
160
 21
160.188
  0
LINE
  8
0
 10
-60.488
 11
-60.453
 20
160.188
 21
160.373
  0
LINE
  8
0
 10
-60.453
 11
-60.395
 20
160.373
 21
160.552
  0
LINE
  8
0
 10
-60.395
 11
-60.314
 20
160.552
 21
160.723
  0
LINE
  8
0
 10
-60.314
 11
-60.214
 20
160.723
 21
160.882
  0
LINE
  8
0
 10
-60.214
 11
-60.093
 20
160.882
 21
161.027
  0
LINE
  8
0
 10
-60.093
 11
-59.956
 20
161.027
 21
161.156
  0
LINE
  8
0
 10
-59.956
 11
-59.804
 20
161.156
 21
161.266
  0
LINE
  8
0
 10
-59.804
 11
-59.639
 20
161.266
 21
161.357
  0
LINE
  8
0
 10
-59.639
 11
-59.464
 20
161.357
 21
161.427
  0
LINE
  8
0
 10
-59.464
 11
-59.281
 20
161.427
 21
161.473
  0
LINE
  8
0
 10
-59.281
 11
-59.094
 20
161.473
 21
161.497
  0
LINE
  8
0
 10
-59.094
 11
-50.906
 20
161.497
 21
161.497
  0
LINE
  8
0
 10
-50.906
 11
-50.719
 20
161.497
 21
161.473
  0
LINE
  8
0
 10
-50.719
 11
-50.536
 20
161.473
 21
161.427
  0
LINE
  8
0
 10
-50.536
 11
-50.361
 20
161.427
 21
161.357
  0
LINE
  8
0
 10
-50.361
 11
-50.196
 20
161.357
 21
161.266
  0
LINE
  8
0
 10
-50.196
 11
-50.044
 20
161.266
 21
161.156
  0
LINE
  8
0
 10
-50.044
 11
-49.907
 20
161.156
 21
161.027
  0
LINE
  8
0
 10
-49.907
 11
-49.786
 20
161.027
 21
160.882
  0
LINE
  8
0
 10
-49.786
 11
-49.686
 20
160.882
 21
160.723
  0
LINE
  8
0
 10
-49.686
 11
-49.605
 20
160.723
 21
160.552
  0
LINE
  8
0
 10
-49.605
 11
-49.547
 20
160.552
 21
160.373
  0
LINE
  8
0
 10
-49.547
 11
-49.512
 20
160.373
 21
160.188
  0
LINE
  8
0
 10
-49.512
 11
-49.5
 20
160.188
 21
160
  0
LINE
  8
0
 10
-49.5
 11
-49.512
 20
160
 21
159.812
  0
LINE
  8
0
 10
-49.512
 11
-49.547
 20
159.812
 21
159.627
  0
LINE
  8
0
 10
-49.547
 11
-49.605
 20
159.627
 21
159.448
  0
LINE
  8
0
 10
-49.605
 11
-49.686
 20
159.448
 21
159.277
  0
LINE
  8
0
 10
-49.686
 11
-49.786
 20
159.277
 21
159.118
  0
LINE
  8
0
 10
-49.786
 11
-49.907
 20
159.118
 21
158.973
  0
LINE
  8
0
 10
-49.907
 11
-50.044
 20
158.973
 21
158.844
  0
LINE
  8
0
 10
-50.044
 11
-50.196
 20
158.844
 21
158.734
  0
LINE
  8
0
 10
-50.196
 11
-50.361
 20
158.734
 21
158.643
  0
LINE
  8
0
 10
-50.361
 11
-50.536
 20
158.643
 21
158.573
  0
LINE
  8
0
 10
-50.536
 11
-50.719
 20
158.573
 21
158.527
  0
LINE
  8
0
 10
-50.719
 11
-50.906
 20
158.527
 21
158.503
  0
LINE
  8
0
 10
-50.906
 11
-59.094
 20
158.503
 21
158.503
  0
LINE
  8
0
 10
-59.094
 11
-59.281
 20
158.503
 21
158.527
  0
LINE
  8
0
 10
-59.281
 11
-59.464
 20
158.527
 21
158.573
  0
LINE
  8
0
 10
-59.464
 11
-59.639
 20
158.573
 21
158.643
  0
LINE
  8
0
 10
-59.639
 11
-59.804
 20
158.643
 21
158.734
  0
LINE
  8
0
 10
-59.804
 11
-59.956
 20
158.734
 21
158.844
  0
LINE
  8
0
 10
-59.956
 11
-60.093
 20
158.844
 21
158.973
  0
LINE
  8
0
 10
-60.093
 11
-60.214
 20
158.973
 21
159.118
  0
LINE
  8
0
 10
-60.214
 11
-60.314
 20
159.118
 21
159.277
  0
LINE
  8
0
 10
-60.314
 11
-60.395
 20
159.277
 21
159.448
  0
LINE
  8
0
 10
-60.395
 11
-60.453
 20
159.448
 21
159.627
  0
LINE
  8
0
 10
-60.453
 11
-60.488
 20
159.627
 21
159.812
  0
LINE
  8
0
 10
-60.488
 11
-60.5
 20
159.812
 21
160
  0
LINE
  8
0
 10
-16
 11
-15.874
 20
0
 21
2.005
  0
LINE
  8
0
 10
-15.874
 11
-15.497
 20
2.005
 21
3.979
  0
LINE
  8
0
 10
-15.497
 11
-14.876
 20
3.979
 21
5.89
  0
LINE
  8
0
 10
-14.876
 11
-14.021
 20
5.89
 21
7.708
  0
LINE
  8
0
 10
-14.021
 11
-12.944
 20
7.708
 21
9.405
  0
LINE
  8
0
 10
-12.944
 11
-11.663
 20
9.405
 21
10.953
  0
LINE
  8
0
 10
-11.663
 11
-10.199
 20
10.953
 21
12.328
  0
LINE
  8
0
 10
-10.199
 11
-8.573
 20
12.328
 21
13.509
  0
LINE
  8
0
 10
-8.573
 11
-6.812
 20
13.509
 21
14.477
  0
LINE
  8
0
 10
-6.812
 11
-4.944
 20
14.477
 21
15.217
  0
LINE
  8
0
 10
-4.944
 11
-2.998
 20
15.217
 21
15.717
  0
LINE
  8
0
 10
-2.998
 11
-1.005
 20
15.717
 21
15.968
  0
LINE
  8
0
 10
-1.005
 11
1.005
 20
15.968
 21
15.968
  0
LINE
  8
0
 10
1.005
 11
2.998
 20
15.968
 21
15.717
  0
LINE
  8
0
 10
2.998
 11
4.944
 20
15.717
 21
15.217
  0
LINE
  8
0
 10
4.944
 11
6.812
 20
15.217
 21
14.477
  0
LINE
  8
0
 10
6.812
 11
8.573
 20
14.477
 21
13.509
  0
LINE
  8
0
 10
8.573
 11
10.199
 20
13.509
 21
12.328
  0
LINE
  8
0
 10
10.199
 11
11.663
 20
12.328
 21
10.953
  0
LINE
  8
0
 10
11.663
 11
12.944
 20
10.953
 21
9.405
  0
LINE
  8
0
 10
12.944
 11
14.021
 20
9.405
 21
7.708
  0
LINE
  8
0
 10
14.021
 11
14.876
 20
7.708
 21
5.89
  0
LINE
  8
0
 10
14.876
 11
15.497
 20
5.89
 21
3.979
  0
LINE
  8
0
 10
15.497
 11
15.874
 20
3.979
 21
2.005
  0
LINE
  8
0
 10
15.874
 11
16
 20
2.005
 21
0
  0
LINE
  8
0
 10
16
 11
15.874
 20
0
 21
-2.005
  0
LINE
  8
0
 10
15.874
 11
15.497
 20
-2.005
 21
-3.979
  0
LINE
  8
0
 10
15.497
 11
14.876
 20
-3.979
 21
-5.89
  0
LINE
  8
0
 10
14.876
 11
14.021
 20
-5.89
 21
-7.708
  0
LINE
  8
0
 10
14.021
 11
12.944
 20
-7.708
 21
-9.405
  0
LINE
  8
0
 10
12.944
 11
11.663
 20
-9.405
 21
-10.953
  0
LINE
  8
0
 10
11.663
 11
10.199
 20
-10.953
 21
-12.328
  0
LINE
  8
0
 10
10.199
 11
8.573
 20
-12.328
 21
-13.509
  0
LINE
  8
0
 10
8.573
 11
6.812
 20
-13.509
 21
-14.477
  0
LINE
  8
0
 10
6.812
 11
4.944
 20
-14.477
 21
-15.217
  0
LINE
  8
0
 10
4.944
 11
2.998
 20
-15.217
 21
-15.717
  0
LINE
  8
0
 10
2.998
 11
1.005
 20
-15.717
 21
-15.968
  0
LINE
  8
0
 10
1.005
 11
-1.005
 20
-15.968
 21
-15.968
  0
LINE
  8
0
 10
-1.005
 11
-2.998
 20
-15.968
 21
-15.717
  0
LINE
  8
0
 10
-2.998
 11
-4.944
 20
-15.717
 21
-15.217
  0
LINE
  8
0
 10
-4.944
 11
-6.812
 20
-15.217
 21
-14.477
  0
LINE
  8
0
 10
-6.812
 11
-8.573
 20
-14.477
 21
-13.509
  0
LINE
  8
0
 10
-8.573
 11
-10.199
 20
-13.509
 21
-12.328
  0
LINE
  8
0
 10
-10.199
 11
-11.663
 20
-12.328
 21
-10.953
  0
LINE
  8
0
 10
-11.663
 11
-12.944
 20
-10.953
 21
-9.405
  0
LINE
  8
0
 10
-12.944
 11
-14.021
 20
-9.405
 21
-7.708
  0
LINE
  8
0
 10
-14.021
 11
-14.876
 20
-7.708
 21
-5.89
  0
LINE
  8
0
 10
-14.876
 11
-15.497
 20
-5.89
 21
-3.979
  0
LINE
  8
0
 10
-15.497
 11
-15.874
 20
-3.979
 21
-2.005
  0
LINE
  8
0
 10
-15.874
 11
-16
 20
-2.005
 21
0
  0
LINE
  8
0
 10
-4
 11
-3.968
 20
-123
 21
-122.499
  0
LINE
  8
0
 10
-3.968
 11
-3.874
 20
-122.499
 21
-122.005
  0
LINE
  8
0
 10
-3.874
 11
-3.719
 20
-122.005
 21
-121.528
  0
LINE
  8
0
 10
-3.719
 11
-3.505
 20
-121.528
 21
-121.073
  0
LINE
  8
0
 10
-3.505
 11
-3.236
 20
-121.073
 21
-120.649
  0
LINE
  8
0
 10
-3.236
 11
-2.916
 20
-120.649
 21
-120.262
  0
LINE
  8
0
 10
-2.916
 11
-2.55
 20
-120.262
 21
-119.918
  0
LINE
  8
0
 10
-2.55
 11
-2.143
 20
-119.918
 21
-119.623
  0
LINE
  8
0
 10
-2.143
 11
-1.703
 20
-119.623
 21
-119.381
  0
LINE
  8
0
 10
-1.703
 11
-1.236
 20
-119.381
 21
-119.196
  0
LINE
  8
0
 10
-1.236
 11
-0.75
 20
-119.196
 21
-119.071
  0
LINE
  8
0
 10
-0.75
 11
-0.251
 20
-119.071
 21
-119.008
  0
LINE
  8
0
 10
-0.251
 11
0.251
 20
-119.008
 21
-119.008
  0
LINE
  8
0
 10
0.251
 11
0.75
 20
-119.008
 21
-119.071
  0
LINE
  8
0
 10
0.75
 11
1.236
 20
-119.071
 21
-119.196
  0
LINE
  8
0
 10
1.236
 11
1.703
 20
-119.196
 21
-119.381
  0
LINE
  8
0
 10
1.703
 11
2.143
 20
-119.381
 21
-119.623
  0
LINE
  8
0
 10
2.143
 11
2.55
 20
-119.623
 21
-119.918
  0
LINE
  8
0
 10
2.55
 11
2.916
 20
-119.918
 21
-120.262
  0
LINE
  8
0
 10
2.916
 11
3.236
 20
-120.262
 21
-120.649
  0
LINE
  8
0
 10
3.236
 11
3.505
 20
-120.649
 21
-121.073
  0
LINE
  8
0
 10
3.505
 11
3.719
 20
-121.073
 21
-121.528
  0
LINE
  8
0
 10
3.719
 11
3.874
 20
-121.528
 21
-122.005
  0
LINE
  8
0
 10
3.874
 11
3.968
 20
-122.005
 21
-122.499
  0
LINE
  8
0
 10
3.968
 11
4
 20
-122.499
 21
-123
  0
LINE
  8
0
 10
4
 11
3.968
 20
-123
 21
-123.501
  0
LINE
  8
0
 10
3.968
 11
3.874
 20
-123.501
 21
-123.995
  0
LINE
  8
0
 10
3.874
 11
3.719
 20
-123.995
 21
-124.472
  0
LINE
  8
0
 10
3.719
 11
3.505
 20
-124.472
 21
-124.927
  0
LINE
  8
0
 10
3.505
 11
3.236
 20
-124.927
 21
-125.351
  0
LINE
  8
0
 10
3.236
 11
2.916
 20
-125.351
 21
-125.738
  0
LINE
  8
0
 10
2.916
 11
2.55
 20
-125.738
 21
-126.082
  0
LINE
  8
0
 10
2.55
 11
2.143
 20
-126.082
 21
-126.377
  0
LINE
  8
0
 10
2.143
 11
1.703
 20
-126.377
 21
-126.619
  0
LINE
  8
0
 10
1.703
 11
1.236
 20
-126.619
 21
-126.804
  0
LINE
  8
0
 10
1.236
 11
0.75
 20
-126.804
 21
-126.929
  0
LINE
  8
0
 10
0.75
 11
0.251
 20
-126.929
 21
-126.992
  0
LINE
  8
0
 10
0.251
 11
-0.251
 20
-126.992
 21
-126.992
  0
LINE
  8
0
 10
-0.251
 11
-0.75
 20
-126.992
 21
-126.929
  0
LINE
  8
0
 10
-0.75
 11
-1.236
 20
-126.929
 21
-126.804
  0
LINE
  8
0
 10
-1.236
 11
-1.703
 20
-126.804
 21
-126.619
  0
LINE
  8
0
 10
-1.703
 11
-2.143
 20
-126.619
 21
-126.377
  0
LINE
  8
0
 10
-2.143
 11
-2.55
 20
-126.377
 21
-126.082
  0
LINE
  8
0
 10
-2.55
 11
-2.916
 20
-126.082
 21
-125.738
  0
LINE
  8
0
 10
-2.916
 11
-3.236
 20
-125.738
 21
-125.351
  0
LINE
  8
0
 10
-3.236
 11
-3.505
 20
-125.351
 21
-124.927
  0
LINE
  8
0
 10
-3.505
 11
-3.719
 20
-124.927
 21
-124.472
  0
LINE
  8
0
 10
-3.719
 11
-3.874
 20
-124.472
 21
-123.995
  0
LINE
  8
0
 10
-3.874
 11
-3.968
 20
-123.995
 21
-123.501
  0
LINE
  8
0
 10
-3.968
 11
-4
 20
-123.501
 21
-123
  0
LINE
  8
0
 10
-4
 11
-3.968
 20
123
 21
123.501
  0
LINE
  8
0
 10
-3.968
 11
-3.874
 20
123.501
 21
123.995
  0
LINE
  8
0
 10
-3.874
 11
-3.719
 20
123.995
 21
124.472
  0
LINE
  8
0
 10
-3.719
 11
-3.505
 20
124.472
 21
124.927
  0
LINE
  8
0
 10
-3.505
 11
-3.236
 20
124.927
 21
125.351
  0
LINE
  8
0
 10
-3.236
 11
-2.916
 20
125.351
 21
125.738
  0
LINE
  8
0
 10
-2.916
 11
-2.55
 20
125.738
 21
126.082
  0
LINE
  8
0
 10
-2.55
 11
-2.143
 20
126.082
 21
126.377
  0
LINE
  8
0
 10
-2.143
 11
-1.703
 20
126.377
 21
126.619
  0
LINE
  8
0
 10
-1.703
 11
-1.236
 20
126.619
 21
126.804
  0
LINE
  8
0
 10
-1.236
 11
-0.75
 20
126.804
 21
126.929
  0
LINE
  8
0
 10
-0.75
 11
-0.251
 20
126.929
 21
126.992
  0
LINE
  8
0
 10
-0.251
 11
0.251
 20
126.992
 21
126.992
  0
LINE
  8
0
 10
0.251
 11
0.75
 20
126.992
 21
126.929
  0
LINE
  8
0
 10
0.75
 11
1.236
 20
126.929
 21
126.804
  0
LINE
  8
0
 10
1.236
 11
1.703
 20
126.804
 21
126.619
  0
LINE
  8
0
 10
1.703
 11
2.143
 20
126.619
 21
126.377
  0
LINE
  8
0
 10
2.143
 11
2.55
 20
126.377
 21
126.082
  0
LINE
  8
0
 10
2.55
 11
2.916
 20
126.082
 21
125.738
  0
LINE
  8
0
 10
2.916
 11
3.236
 20
125.738
 21
125.351
  0
LINE
  8
0
 10
3.236
 11
3.505
 20
125.351
 21
124.927
  0
LINE
  8
0
 10
3.505
 11
3.719
 20
124.927
 21
124.472
  0
LINE
  8
0
 10
3.719
 11
3.874
 20
124.472
 21
123.995
  0
LINE
  8
0
 10
3.874
 11
3.968
 20
123.995
 21
123.501
  0
LINE
  8
0
 10
3.968
 11
4
 20
123.501
 21
123
  0
LINE
  8
0
 10
4
 11
3.968
 20
123
 21
122.499
  0
LINE
  8
0
 10
3.968
 11
3.874
 20
122.499
 21
122.005
  0
LINE
  8
0
 10
3.874
 11
3.719
 20
122.005
 21
121.528
  0
LINE
  8
0
 10
3.719
 11
3.505
 20
121.528
 21
121.073
  0
LINE
  8
0
 10
3.505
 11
3.236
 20
121.073
 21
120.649
  0
LINE
  8
0
 10
3.236
 11
2.916
 20
120.649
 21
120.262
  0
LINE
  8
0
 10
2.916
 11
2.55
 20
120.262
 21
119.918
  0
LINE
  8
0
 10
2.55
 11
2.143
 20
119.918
 21
119.623
  0
LINE
  8
0
 10
2.143
 11
1.703
 20
119.623
 21
119.381
  0
LINE
  8
0
 10
1.703
 11
1.236
 20
119.381
 21
119.196
  0
LINE
  8
0
 10
1.236
 11
0.75
 20
119.196
 21
119.071
  0
LINE
  8
0
 10
0.75
 11
0.251
 20
119.071
 21
119.008
  0
LINE
  8
0
 10
0.251
 11
-0.251
 20
119.008
 21
119.008
  0
LINE
  8
0
 10
-0.251
 11
-0.75
 20
119.008
 21
119.071
  0
LINE
  8
0
 10
-0.75
 11
-1.236
 20
119.071
 21
119.196
  0
LINE
  8
0
 10
-1.236
 11
-1.703
 20
119.196
 21
119.381
  0
LINE
  8
0
 10
-1.703
 11
-2.143
 20
119.381
 21
119.623
  0
LINE
  8
0
 10
-2.143
 11
-2.55
 20
119.623
 21
119.918
  0
LINE
  8
0
 10
-2.55
 11
-2.916
 20
119.918
 21
120.262
  0
LINE
  8
0
 10
-2.916
 11
-3.236
 20
120.262
 21
120.649
  0
LINE
  8
0
 10
-3.236
 11
-3.505
 20
120.649
 21
121.073
  0
LINE
  8
0
 10
-3.505
 11
-3.719
 20
121.073
 21
121.528
  0
LINE
  8
0
 10
-3.719
 11
-3.874
 20
121.528
 21
122.005
  0
LINE
  8
0
 10
-3.874
 11
-3.968
 20
122.005
 21
122.499
  0
LINE
  8
0
 10
-3.968
 11
-4
 20
122.499
 21
123
  0
LINE
  8
0
 10
-1.5
 11
-1.488
 20
-104.5
 21
-104.312
  0
LINE
  8
0
 10
-1.488
 11
-1.453
 20
-104.312
 21
-104.127
  0
LINE
  8
0
 10
-1.453
 11
-1.395
 20
-104.127
 21
-103.948
  0
LINE
  8
0
 10
-1.395
 11
-1.314
 20
-103.948
 21
-103.777
  0
LINE
  8
0
 10
-1.314
 11
-1.214
 20
-103.777
 21
-103.618
  0
LINE
  8
0
 10
-1.214
 11
-1.093
 20
-103.618
 21
-103.473
  0
LINE
  8
0
 10
-1.093
 11
-0.956
 20
-103.473
 21
-103.344
  0
LINE
  8
0
 10
-0.956
 11
-0.804
 20
-103.344
 21
-103.234
  0
LINE
  8
0
 10
-0.804
 11
-0.639
 20
-103.234
 21
-103.143
  0
LINE
  8
0
 10
-0.639
 11
-0.464
 20
-103.143
 21
-103.073
  0
LINE
  8
0
 10
-0.464
 11
-0.281
 20
-103.073
 21
-103.027
  0
LINE
  8
0
 10
-0.281
 11
-0.094
 20
-103.027
 21
-103.003
  0
LINE
  8
0
 10
-0.094
 11
0.094
 20
-103.003
 21
-103.003
  0
LINE
  8
0
 10
0.094
 11
0.281
 20
-103.003
 21
-103.027
  0
LINE
  8
0
 10
0.281
 11
0.464
 20
-103.027
 21
-103.073
  0
LINE
  8
0
 10
0.464
 11
0.639
 20
-103.073
 21
-103.143
  0
LINE
  8
0
 10
0.639
 11
0.804
 20
-103.143
 21
-103.234
  0
LINE
  8
0
 10
0.804
 11
0.956
 20
-103.234
 21
-103.344
  0
LINE
  8
0
 10
0.956
 11
1.093
 20
-103.344
 21
-103.473
  0
LINE
  8
0
 10
1.093
 11
1.214
 20
-103.473
 21
-103.618
  0
LINE
  8
0
 10
1.214
 11
1.314
 20
-103.618
 21
-103.777
  0
LINE
  8
0
 10
1.314
 11
1.395
 20
-103.777
 21
-103.948
  0
LINE
  8
0
 10
1.395
 11
1.453
 20
-103.948
 21
-104.127
  0
LINE
  8
0
 10
1.453
 11
1.488
 20
-104.127
 21
-104.312
  0
LINE
  8
0
 10
1.488
 11
1.5
 20
-104.312
 21
-104.5
  0
LINE
  8
0
 10
1.5
 11
1.488
 20
-104.5
 21
-104.688
  0
LINE
  8
0
 10
1.488
 11
1.453
 20
-104.688
 21
-104.873
  0
LINE
  8
0
 10
1.453
 11
1.395
 20
-104.873
 21
-105.052
  0
LINE
  8
0
 10
1.395
 11
1.314
 20
-105.052
 21
-105.223
  0
LINE
  8
0
 10
1.314
 11
1.214
 20
-105.223
 21
-105.382
  0
LINE
  8
0
 10
1.214
 11
1.093
 20
-105.382
 21
-105.527
  0
LINE
  8
0
 10
1.093
 11
0.956
 20
-105.527
 21
-105.656
  0
LINE
  8
0
 10
0.956
 11
0.804
 20
-105.656
 21
-105.766
  0
LINE
  8
0
 10
0.804
 11
0.639
 20
-105.766
 21
-105.857
  0
LINE
  8
0
 10
0.639
 11
0.464
 20
-105.857
 21
-105.927
  0
LINE
  8
0
 10
0.464
 11
0.281
 20
-105.927
 21
-105.973
  0
LINE
  8
0
 10
0.281
 11
0.094
 20
-105.973
 21
-105.997
  0
LINE
  8
0
 10
0.094
 11
-0.094
 20
-105.997
 21
-105.997
  0
LINE
  8
0
 10
-0.094
 11
-0.281
 20
-105.997
 21
-105.973
  0
LINE
  8
0
 10
-0.281
 11
-0.464
 20
-105.973
 21
-105.927
  0
LINE
  8
0
 10
-0.464
 11
-0.639
 20
-105.927
 21
-105.857
  0
LINE
  8
0
 10
-0.639
 11
-0.804
 20
-105.857
 21
-105.766
  0
LINE
  8
0
 10
-0.804
 11
-0.956
 20
-105.766
 21
-105.656
  0
LINE
  8
0
 10
-0.956
 11
-1.093
 20
-105.656
 21
-105.527
  0
LINE
  8
0
 10
-1.093
 11
-1.214
 20
-105.527
 21
-105.382
  0
LINE
  8
0
 10
-1.214
 11
-1.314
 20
-105.382
 21
-105.223
  0
LINE
  8
0
 10
-1.314
 11
-1.395
 20
-105.223
 21
-105.052
  0
LINE
  8
0
 10
-1.395
 11
-1.453
 20
-105.052
 21
-104.873
  0
LINE
  8
0
 10
-1.453
 11
-1.488
 20
-104.873
 21
-104.688
  0
LINE
  8
0
 10
-1.488
 11
-1.5
 20
-104.688
 21
-104.5
  0
LINE
  8
0
 10
-1.5
 11
-1.488
 20
104.5
 21
104.688
  0
LINE
  8
0
 10
-1.488
 11
-1.453
 20
104.688
 21
104.873
  0
LINE
  8
0
 10
-1.453
 11
-1.395
 20
104.873
 21
105.052
  0
LINE
  8
0
 10
-1.395
 11
-1.314
 20
105.052
 21
105.223
  0
LINE
  8
0
 10
-1.314
 11
-1.214
 20
105.223
 21
105.382
  0
LINE
  8
0
 10
-1.214
 11
-1.093
 20
105.382
 21
105.527
  0
LINE
  8
0
 10
-1.093
 11
-0.956
 20
105.527
 21
105.656
  0
LINE
  8
0
 10
-0.956
 11
-0.804
 20
105.656
 21
105.766
  0
LINE
  8
0
 10
-0.804
 11
-0.639
 20
105.766
 21
105.857
  0
LINE
  8
0
 10
-0.639
 11
-0.464
 20
105.857
 21
105.927
  0
LINE
  8
0
 10
-0.464
 11
-0.281
 20
105.927
 21
105.973
  0
LINE
  8
0
 10
-0.281
 11
-0.094
 20
105.973
 21
105.997
  0
LINE
  8
0
 10
-0.094
 11
0.094
 20
105.997
 21
105.997
  0
LINE
  8
0
 10
0.094
 11
0.281
 20
105.997
 21
105.973
  0
LINE
  8
0
 10
0.281
 11
0.464
 20
105.973
 21
105.927
  0
LINE
  8
0
 10
0.464
 11
0.639
 20
105.927
 21
105.857
  0
LINE
  8
0
 10
0.639
 11
0.804
 20
105.857
 21
105.766
  0
LINE
  8
0
 10
0.804
 11
0.956
 20
105.766
 21
105.656
  0
LINE
  8
0
 10
0.956
 11
1.093
 20
105.656
 21
105.527
  0
LINE
  8
0
 10
1.093
 11
1.214
 20
105.527
 21
105.382
  0
LINE
  8
0
 10
1.214
 11
1.314
 20
105.382
 21
105.223
  0
LINE
  8
0
 10
1.314
 11
1.395
 20
105.223
 21
105.052
  0
LINE
  8
0
 10
1.395
 11
1.453
 20
105.052
 21
104.873
  0
LINE
  8
0
 10
1.453
 11
1.488
 20
104.873
 21
104.688
  0
LINE
  8
0
 10
1.488
 11
1.5
 20
104.688
 21
104.5
  0
LINE
  8
0
 10
1.5
 11
1.488
 20
104.5
 21
104.312
  0
LINE
  8
0
 10
1.488
 11
1.453
 20
104.312
 21
104.127
  0
LINE
  8
0
 10
1.453
 11
1.395
 20
104.127
 21
103.948
  0
LINE
  8
0
 10
1.395
 11
1.314
 20
103.948
 21
103.777
  0
LINE
  8
0
 10
1.314
 11
1.214
 20
103.777
 21
103.618
  0
LINE
  8
0
 10
1.214
 11
1.093
 20
103.618
 21
103.473
  0
LINE
  8
0
 10
1.093
 11
0.956
 20
103.473
 21
103.344
  0
LINE
  8
0
 10
0.956
 11
0.804
 20
103.344
 21
103.234
  0
LINE
  8
0
 10
0.804
 11
0.639
 20
103.234
 21
103.143
  0
LINE
  8
0
 10
0.639
 11
0.464
 20
103.143
 21
103.073
  0
LINE
  8
0
 10
0.464
 11
0.281
 20
103.073
 21
103.027
  0
LINE
  8
0
 10
0.281
 11
0.094
 20
103.027
 21
103.003
  0
LINE
  8
0
 10
0.094
 11
-0.094
 20
103.003
 21
103.003
  0
LINE
  8
0
 10
-0.094
 11
-0.281
 20
103.003
 21
103.027
  0
LINE
  8
0
 10
-0.281
 11
-0.464
 20
103.027
 21
103.073
  0
LINE
  8
0
 10
-0.464
 11
-0.639
 20
103.073
 21
103.143
  0
LINE
  8
0
 10
-0.639
 11
-0.804
 20
103.143
 21
103.234
  0
LINE
  8
0
 10
-0.804
 11
-0.956
 20
103.234
 21
103.344
  0
LINE
  8
0
 10
-0.956
 11
-1.093
 20
103.344
 21
103.473
  0
LINE
  8
0
 10
-1.093
 11
-1.214
 20
103.473
 21
103.618
  0
LINE
  8
0
 10
-1.214
 11
-1.314
 20
103.618
 21
103.777
  0
LINE
  8
0
 10
-1.314
 11
-1.395
 20
103.777
 21
103.948
  0
LINE
  8
0
 10
-1.395
 11
-1.453
 20
103.948
 21
104.127
  0
LINE
  8
0
 10
-1.453
 11
-1.488
 20
104.127
 21
104.312
  0
LINE
  8
0
 10
-1.488
 11
-1.5
 20
104.312
 21
104.5
  0
LINE
  8
0
 10
8.016
 11
8.016
 20
-99.502
 21
-34.218
  0
LINE
  8
0
 10
8.016
 11
8.142
 20
-34.218
 21
-33.221
  0
LINE
  8
0
 10
8.142
 11
8.392
 20
-33.221
 21
-32.248
  0
LINE
  8
0
 10
8.392
 11
8.761
 20
-32.248
 21
-31.314
  0
LINE
  8
0
 10
8.761
 11
9.245
 20
-31.314
 21
-30.433
  0
LINE
  8
0
 10
9.245
 11
9.836
 20
-30.433
 21
-29.621
  0
LINE
  8
0
 10
9.836
 11
10.524
 20
-29.621
 21
-28.888
  0
LINE
  8
0
 10
10.524
 11
11.298
 20
-28.888
 21
-28.248
  0
LINE
  8
0
 10
11.298
 11
12.146
 20
-28.248
 21
-27.71
  0
LINE
  8
0
 10
12.146
 11
13.055
 20
-27.71
 21
-27.282
  0
LINE
  8
0
 10
13.055
 11
14.01
 20
-27.282
 21
-26.971
  0
LINE
  8
0
 10
14.01
 11
14.997
 20
-26.971
 21
-26.783
  0
LINE
  8
0
 10
14.997
 11
16
 20
-26.783
 21
-26.72
  0
LINE
  8
0
 10
16
 11
17.003
 20
-26.72
 21
-26.783
  0
LINE
  8
0
 10
17.003
 11
17.99
 20
-26.783
 21
-26.971
  0
LINE
  8
0
 10
17.99
 11
18.945
 20
-26.971
 21
-27.282
  0
LINE
  8
0
 10
18.945
 11
19.854
 20
-27.282
 21
-27.71
  0
LINE
  8
0
 10
19.854
 11
20.702
 20
-27.71
 21
-28.248
  0
LINE
  8
0
 10
20.702
 11
21.476
 20
-28.248
 21
-28.888
  0
LINE
  8
0
 10
21.476
 11
22.164
 20
-28.888
 21
-29.621
  0
LINE
  8
0
 10
22.164
 11
82.444
 20
-29.621
 21
-93.901
  0
LINE
  8
0
 10
82.444
 11
83.035
 20
-93.901
 21
-94.713
  0
LINE
  8
0
 10
83.035
 11
83.519
 20
-94.713
 21
-95.594
  0
LINE
  8
0
 10
83.519
 11
83.888
 20
-95.594
 21
-96.528
  0
LINE
  8
0
 10
83.888
 11
84.138
 20
-96.528
 21
-97.501
  0
LINE
  8
0
 10
84.138
 11
84.264
 20
-97.501
 21
-98.498
  0
LINE
  8
0
 10
84.264
 11
84.264
 20
-98.498
 21
-99.502
  0
LINE
  8
0
 10
84.264
 11
84.138
 20
-99.502
 21
-100.499
  0
LINE
  8
0
 10
84.138
 11
83.888
 20
-100.499
 21
-101.472
  0
LINE
  8
0
 10
83.888
 11
83.519
 20
-101.472
 21
-102.406
  0
LINE
  8
0
 10
83.519
 11
83.035
 20
-102.406
 21
-103.287
  0
LINE
  8
0
 10
83.035
 11
82.444
 20
-103.287
 21
-104.099
  0
LINE
  8
0
 10
82.444
 11
81.756
 20
-104.099
 21
-104.832
  0
LINE
  8
0
 10
81.756
 11
80.982
 20
-104.832
 21
-105.472
  0
LINE
  8
0
 10
80.982
 11
80.134
 20
-105.472
 21
-106.01
  0
LINE
  8
0
 10
80.134
 11
79.225
 20
-106.01
 21
-106.438
  0
LINE
  8
0
 10
79.225
 11
78.27
 20
-106.438
 21
-106.749
  0
LINE
  8
0
 10
78.27
 11
77.283
 20
-106.749
 21
-106.937
  0
LINE
  8
0
 10
77.283
 11
76.28
 20
-106.937
 21
-107
  0
LINE
  8
0
 10
76.28
 11
16
 20
-107
 21
-107
  0
LINE
  8
0
 10
16
 11
14.997
 20
-107
 21
-106.937
  0
LINE
  8
0
 10
14.997
 11
14.01
 20
-106.937
 21
-106.749
  0
LINE
  8
0
 10
14.01
 11
13.055
 20
-106.749
 21
-106.438
  0
LINE
  8
0
 10
13.055
 11
12.146
 20
-106.438
 21
-106.01
  0
LINE
  8
0
 10
12.146
 11
11.298
 20
-106.01
 21
-105.472
  0
LINE
  8
0
 10
11.298
 11
10.524
 20
-105.472
 21
-104.832
  0
LINE
  8
0
 10
10.524
 11
9.836
 20
-104.832
 21
-104.099
  0
LINE
  8
0
 10
9.836
 11
9.245
 20
-104.099
 21
-103.287
  0
LINE
  8
0
 10
9.245
 11
8.761
 20
-103.287
 21
-102.406
  0
LINE
  8
0
 10
8.761
 11
8.392
 20
-102.406
 21
-101.472
  0
LINE
  8
0
 10
8.392
 11
8.142
 20
-101.472
 21
-100.499
  0
LINE
  8
0
 10
8.142
 11
8.016
 20
-100.499
 21
-99.502
  0
LINE
  8
0
 10
8.016
 11
8.016
 20
34.218
 21
99.502
  0
LINE
  8
0
 10
8.016
 11
8.142
 20
99.502
 21
100.499
  0
LINE
  8
0
 10
8.142
 11
8.392
 20
100.499
 21
101.472
  0
LINE
  8
0
 10
8.392
 11
8.761
 20
101.472
 21
102.406
  0
LINE
  8
0
 10
8.761
 11
9.245
 20
102.406
 21
103.287
  0
LINE
  8
0
 10
9.245
 11
9.836
 20
103.287
 21
104.099
  0
LINE
  8
0
 10
9.836
 11
10.524
 20
104.099
 21
104.832
  0
LINE
  8
0
 10
10.524
 11
11.298
 20
104.832
 21
105.472
  0
LINE
  8
0
 10
11.298
 11
12.146
 20
105.472
 21
106.01
  0
LINE
  8
0
 10
12.146
 11
13.055
 20
106.01
 21
106.438
  0
LINE
  8
0
 10
13.055
 11
14.01
 20
106.438
 21
106.749
  0
LINE
  8
0
 10
14.01
 11
14.997
 20
106.749
 21
106.937
  0
LINE
  8
0
 10
14.997
 11
16
 20
106.937
 21
107
  0
LINE
  8
0
 10
16
 11
76.28
 20
107
 21
107
  0
LINE
  8
0
 10
76.28
 11
77.283
 20
107
 21
106.937
  0
LINE
  8
0
 10
77.283
 11
78.27
 20
106.937
 21
106.749
  0
LINE
  8
0
 10
78.27
 11
79.225
 20
106.749
 21
106.438
  0
LINE
  8
0
 10
79.225
 11
80.134
 20
106.438
 21
106.01
  0
LINE
  8
0
 10
80.134
 11
80.982
 20
106.01
 21
105.472
  0
LINE
  8
0
 10
80.982
 11
81.756
 20
105.472
 21
104.832
  0
LINE
  8
0
 10
81.756
 11
82.444
 20
104.832
 21
104.099
  0
LINE
  8
0
 10
82.444
 11
83.035
 20
104.099
 21
103.287
  0
LINE
  8
0
 10
83.035
 11
83.519
 20
103.287
 21
102.406
  0
LINE
  8
0
 10
83.519
 11
83.888
 20
102.406
 21
101.472
  0
LINE
  8
0
 10
83.888
 11
84.138
 20
101.472
 21
100.499
  0
LINE
  8
0
 10
84.138
 11
84.264
 20
100.499
 21
99.502
  0
LINE
  8
0
 10
84.264
 11
84.264
 20
99.502
 21
98.498
  0
LINE
  8
0
 10
84.264
 11
84.138
 20
98.498
 21
97.501
  0
LINE
  8
0
 10
84.138
 11
83.888
 20
97.501
 21
96.528
  0
LINE
  8
0
 10
83.888
 11
83.519
 20
96.528
 21
95.594
  0
LINE
  8
0
 10
83.519
 11
83.035
 20
95.594
 21
94.713
  0
LINE
  8
0
 10
83.035
 11
82.444
 20
94.713
 21
93.901
  0
LINE
  8
0
 10
82.444
 11
22.164
 20
93.901
 21
29.621
  0
LINE
  8
0
 10
22.164
 11
21.476
 20
29.621
 21
28.888
  0
LINE
  8
0
 10
21.476
 11
20.702
 20
28.888
 21
28.248
  0
LINE
  8
0
 10
20.702
 11
19.854
 20
28.248
 21
27.71
  0
LINE
  8
0
 10
19.854
 11
18.945
 20
27.71
 21
27.282
  0
LINE
  8
0
 10
18.945
 11
17.99
 20
27.282
 21
26.971
  0
LINE
  8
0
 10
17.99
 11
17.003
 20
26.971
 21
26.783
  0
LINE
  8
0
 10
17.003
 11
16
 20
26.783
 21
26.72
  0
LINE
  8
0
 10
16
 11
14.997
 20
26.72
 21
26.783
  0
LINE
  8
0
 10
14.997
 11
14.01
 20
26.783
 21
26.971
  0
LINE
  8
0
 10
14.01
 11
13.055
 20
26.971
 21
27.282
  0
LINE
  8
0
 10
13.055
 11
12.146
 20
27.282
 21
27.71
  0
LINE
  8
0
 10
12.146
 11
11.298
 20
27.71
 21
28.248
  0
LINE
  8
0
 10
11.298
 11
10.524
 20
28.248
 21
28.888
  0
LINE
  8
0
 10
10.524
 11
9.836
 20
28.888
 21
29.621
  0
LINE
  8
0
 10
9.836
 11
9.245
 20
29.621
 21
30.433
  0
LINE
  8
0
 10
9.245
 11
8.761
 20
30.433
 21
31.314
  0
LINE
  8
0
 10
8.761
 11
8.392
 20
31.314
 21
32.248
  0
LINE
  8
0
 10
8.392
 11
8.142
 20
32.248
 21
33.221
  0
LINE
  8
0
 10
8.142
 11
8.016
 20
33.221
 21
34.218
  0
LINE
  8
0
 10
24.048
 11
24.105
 20
-16
 21
-14.997
  0
LINE
  8
0
 10
24.105
 11
24.274
 20
-14.997
 21
-14.01
  0
LINE
  8
0
 10
24.274
 11
24.554
 20
-14.01
 21
-13.055
  0
LINE
  8
0
 10
24.554
 11
24.939
 20
-13.055
 21
-12.146
  0
LINE
  8
0
 10
24.939
 11
25.423
 20
-12.146
 21
-11.298
  0
LINE
  8
0
 10
25.423
 11
25.999
 20
-11.298
 21
-10.524
  0
LINE
  8
0
 10
25.999
 11
26.659
 20
-10.524
 21
-9.836
  0
LINE
  8
0
 10
26.659
 11
27.39
 20
-9.836
 21
-9.245
  0
LINE
  8
0
 10
27.39
 11
28.182
 20
-9.245
 21
-8.761
  0
LINE
  8
0
 10
28.182
 11
29.023
 20
-8.761
 21
-8.392
  0
LINE
  8
0
 10
29.023
 11
29.899
 20
-8.392
 21
-8.142
  0
LINE
  8
0
 10
29.899
 11
30.796
 20
-8.142
 21
-8.016
  0
LINE
  8
0
 10
30.796
 11
89.552
 20
-8.016
 21
-8.016
  0
LINE
  8
0
 10
89.552
 11
90.449
 20
-8.016
 21
-8.142
  0
LINE
  8
0
 10
90.449
 11
91.325
 20
-8.142
 21
-8.392
  0
LINE
  8
0
 10
91.325
 11
92.166
 20
-8.392
 21
-8.761
  0
LINE
  8
0
 10
92.166
 11
92.958
 20
-8.761
 21
-9.245
  0
LINE
  8
0
 10
92.958
 11
93.689
 20
-9.245
 21
-9.836
  0
LINE
  8
0
 10
93.689
 11
94.349
 20
-9.836
 21
-10.524
  0
LINE
  8
0
 10
94.349
 11
94.925
 20
-10.524
 21
-11.298
  0
LINE
  8
0
 10
94.925
 11
95.409
 20
-11.298
 21
-12.146
  0
LINE
  8
0
 10
95.409
 11
95.794
 20
-12.146
 21
-13.055
  0
LINE
  8
0
 10
95.794
 11
96.074
 20
-13.055
 21
-14.01
  0
LINE
  8
0
 10
96.074
 11
96.243
 20
-14.01
 21
-14.997
  0
LINE
  8
0
 10
96.243
 11
96.3
 20
-14.997
 21
-16
  0
LINE
  8
0
 10
96.3
 11
96.3
 20
-16
 21
-76.28
  0
LINE
  8
0
 10
96.3
 11
96.243
 20
-76.28
 21
-77.283
  0
LINE
  8
0
 10
96.243
 11
96.074
 20
-77.283
 21
-78.27
  0
LINE
  8
0
 10
96.074
 11
95.794
 20
-78.27
 21
-79.225
  0
LINE
  8
0
 10
95.794
 11
95.409
 20
-79.225
 21
-80.134
  0
LINE
  8
0
 10
95.409
 11
94.925
 20
-80.134
 21
-80.982
  0
LINE
  8
0
 10
94.925
 11
94.349
 20
-80.982
 21
-81.756
  0
LINE
  8
0
 10
94.349
 11
93.689
 20
-81.756
 21
-82.444
  0
LINE
  8
0
 10
93.689
 11
92.958
 20
-82.444
 21
-83.035
  0
LINE
  8
0
 10
92.958
 11
92.166
 20
-83.035
 21
-83.519
  0
LINE
  8
0
 10
92.166
 11
91.325
 20
-83.519
 21
-83.888
  0
LINE
  8
0
 10
91.325
 11
90.449
 20
-83.888
 21
-84.138
  0
LINE
  8
0
 10
90.449
 11
89.552
 20
-84.138
 21
-84.264
  0
LINE
  8
0
 10
89.552
 11
88.648
 20
-84.264
 21
-84.264
  0
LINE
  8
0
 10
88.648
 11
87.751
 20
-84.264
 21
-84.138
  0
LINE
  8
0
 10
87.751
 11
86.875
 20
-84.138
 21
-83.888
  0
LINE
  8
0
 10
86.875
 11
86.034
 20
-83.888
 21
-83.519
  0
LINE
  8
0
 10
86.034
 11
85.242
 20
-83.519
 21
-83.035
  0
LINE
  8
0
 10
85.242
 11
84.511
 20
-83.035
 21
-82.444
  0
LINE
  8
0
 10
84.511
 11
26.659
 20
-82.444
 21
-22.164
  0
LINE
  8
0
 10
26.659
 11
25.999
 20
-22.164
 21
-21.476
  0
LINE
  8
0
 10
25.999
 11
25.423
 20
-21.476
 21
-20.702
  0
LINE
  8
0
 10
25.423
 11
24.939
 20
-20.702
 21
-19.854
  0
LINE
  8
0
 10
24.939
 11
24.554
 20
-19.854
 21
-18.945
  0
LINE
  8
0
 10
24.554
 11
24.274
 20
-18.945
 21
-17.99
  0
LINE
  8
0
 10
24.274
 11
24.105
 20
-17.99
 21
-17.003
  0
LINE
  8
0
 10
24.105
 11
24.048
 20
-17.003
 21
-16
  0
LINE
  8
0
 10
24.048
 11
24.105
 20
16
 21
17.003
  0
LINE
  8
0
 10
24.105
 11
24.274
 20
17.003
 21
17.99
  0
LINE
  8
0
 10
24.274
 11
24.554
 20
17.99
 21
18.945
  0
LINE
  8
0
 10
24.554
 11
24.939
 20
18.945
 21
19.854
  0
LINE
  8
0
 10
24.939
 11
25.423
 20
19.854
 21
20.702
  0
LINE
  8
0
 10
25.423
 11
25.999
 20
20.702
 21
21.476
  0
LINE
  8
0
 10
25.999
 11
26.659
 20
21.476
 21
22.164
  0
LINE
  8
0
 10
26.659
 11
84.511
 20
22.164
 21
82.444
  0
LINE
  8
0
 10
84.511
 11
85.242
 20
82.444
 21
83.035
  0
LINE
  8
0
 10
85.242
 11
86.034
 20
83.035
 21
83.519
  0
LINE
  8
0
 10
86.034
 11
86.875
 20
83.519
 21
83.888
  0
LINE
  8
0
 10
86.875
 11
87.751
 20
83.888
 21
84.138
  0
LINE
  8
0
 10
87.751
 11
88.648
 20
84.138
 21
84.264
  0
LINE
  8
0
 10
88.648
 11
89.552
 20
84.264
 21
84.264
  0
LINE
  8
0
 10
89.552
 11
90.449
 20
84.264
 21
84.138
  0
LINE
  8
0
 10
90.449
 11
91.325
 20
84.138
 21
83.888
  0
LINE
  8
0
 10
91.325
 11
92.166
 20
83.888
 21
83.519
  0
LINE
  8
0
 10
92.166
 11
92.958
 20
83.519
 21
83.035
  0
LINE
  8
0
 10
92.958
 11
93.689
 20
83.035
 21
82.444
  0
LINE
  8
0
 10
93.689
 11
94.349
 20
82.444
 21
81.756
  0
LINE
  8
0
 10
94.349
 11
94.925
 20
81.756
 21
80.982
  0
LINE
  8
0
 10
94.925
 11
95.409
 20
80.982
 21
80.134
  0
LINE
  8
0
 10
95.409
 11
95.794
 20
80.134
 21
79.225
  0
LINE
  8
0
 10
95.794
 11
96.074
 20
79.225
 21
78.27
  0
LINE
  8
0
 10
96.074
 11
96.243
 20
78.27
 21
77.283
  0
LINE
  8
0
 10
96.243
 11
96.3
 20
77.283
 21
76.28
  0
LINE
  8
0
 10
96.3
 11
96.3
 20
76.28
 21
16
  0
LINE
  8
0
 10
96.3
 11
96.243
 20
16
 21
14.997
  0
LINE
  8
0
 10
96.243
 11
96.074
 20
14.997
 21
14.01
  0
LINE
  8
0
 10
96.074
 11
95.794
 20
14.01
 21
13.055
  0
LINE
  8
0
 10
95.794
 11
95.409
 20
13.055
 21
12.146
  0
LINE
  8
0
 10
95.409
 11
94.925
 20
12.146
 21
11.298
  0
LINE
  8
0
 10
94.925
 11
94.349
 20
11.298
 21
10.524
  0
LINE
  8
0
 10
94.349
 11
93.689
 20
10.524
 21
9.836
  0
LINE
  8
0
 10
93.689
 11
92.958
 20
9.836
 21
9.245
  0
LINE
  8
0
 10
92.958
 11
92.166
 20
9.245
 21
8.761
  0
LINE
  8
0
 10
92.166
 11
91.325
 20
8.761
 21
8.392
  0
LINE
  8
0
 10
91.325
 11
90.449
 20
8.392
 21
8.142
  0
LINE
  8
0
 10
90.449
 11
89.552
 20
8.142
 21
8.016
  0
LINE
  8
0
 10
89.552
 11
30.796
 20
8.016
 21
8.016
  0
LINE
  8
0
 10
30.796
 11
29.899
 20
8.016
 21
8.142
  0
LINE
  8
0
 10
29.899
 11
29.023
 20
8.142
 21
8.392
  0
LINE
  8
0
 10
29.023
 11
28.182
 20
8.392
 21
8.761
  0
LINE
  8
0
 10
28.182
 11
27.39
 20
8.761
 21
9.245
  0
LINE
  8
0
 10
27.39
 11
26.659
 20
9.245
 21
9.836
  0
LINE
  8
0
 10
26.659
 11
25.999
 20
9.836
 21
10.524
  0
LINE
  8
0
 10
25.999
 11
25.423
 20
10.524
 21
11.298
  0
LINE
  8
0
 10
25.423
 11
24.939
 20
11.298
 21
12.146
  0
LINE
  8
0
 10
24.939
 11
24.554
 20
12.146
 21
13.055
  0
LINE
  8
0
 10
24.554
 11
24.274
 20
13.055
 21
14.01
  0
LINE
  8
0
 10
24.274
 11
24.105
 20
14.01
 21
14.997
  0
LINE
  8
0
 10
24.105
 11
24.048
 20
14.997
 21
16
  0
LINE
  8
0
 10
49.5
 11
49.512
 20
-160
 21
-159.812
  0
LINE
  8
0
 10
49.512
 11
49.547
 20
-159.812
 21
-159.627
  0
LINE
  8
0
 10
49.547
 11
49.605
 20
-159.627
 21
-159.448
  0
LINE
  8
0
 10
49.605
 11
49.686
 20
-159.448
 21
-159.277
  0
LINE
  8
0
 10
49.686
 11
49.786
 20
-159.277
 21
-159.118
  0
LINE
  8
0
 10
49.786
 11
49.907
 20
-159.118
 21
-158.973
  0
LINE
  8
0
 10
49.907
 11
50.044
 20
-158.973
 21
-158.844
  0
LINE
  8
0
 10
50.044
 11
50.196
 20
-158.844
 21
-158.734
  0
LINE
  8
0
 10
50.196
 11
50.361
 20
-158.734
 21
-158.643
  0
LINE
  8
0
 10
50.361
 11
50.536
 20
-158.643
 21
-158.573
  0
LINE
  8
0
 10
50.536
 11
50.719
 20
-158.573
 21
-158.527
  0
LINE
  8
0
 10
50.719
 11
50.906
 20
-158.527
 21
-158.503
  0
LINE
  8
0
 10
50.906
 11
59.094
 20
-158.503
 21
-158.503
  0
LINE
  8
0
 10
59.094
 11
59.281
 20
-158.503
 21
-158.527
  0
LINE
  8
0
 10
59.281
 11
59.464
 20
-158.527
 21
-158.573
  0
LINE
  8
0
 10
59.464
 11
59.639
 20
-158.573
 21
-158.643
  0
LINE
  8
0
 10
59.639
 11
59.804
 20
-158.643
 21
-158.734
  0
LINE
  8
0
 10
59.804
 11
59.956
 20
-158.734
 21
-158.844
  0
LINE
  8
0
 10
59.956
 11
60.093
 20
-158.844
 21
-158.973
  0
LINE
  8
0
 10
60.093
 11
60.214
 20
-158.973
 21
-159.118
  0
LINE
  8
0
 10
60.214
 11
60.314
 20
-159.118
 21
-159.277
  0
LINE
  8
0
 10
60.314
 11
60.395
 20
-159.277
 21
-159.448
  0
LINE
  8
0
 10
60.395
 11
60.453
 20
-159.448
 21
-159.627
  0
LINE
  8
0
 10
60.453
 11
60.488
 20
-159.627
 21
-159.812
  0
LINE
  8
0
 10
60.488
 11
60.5
 20
-159.812
 21
-160
  0
LINE
  8
0
 10
60.5
 11
60.488
 20
-160
 21
-160.188
  0
LINE
  8
0
 10
60.488
 11
60.453
 20
-160.188
 21
-160.373
  0
LINE
  8
0
 10
60.453
 11
60.395
 20
-160.373
 21
-160.552
  0
LINE
  8
0
 10
60.395
 11
60.314
 20
-160.552
 21
-160.723
  0
LINE
  8
0
 10
60.314
 11
60.214
 20
-160.723
 21
-160.882
  0
LINE
  8
0
 10
60.214
 11
60.093
 20
-160.882
 21
-161.027
  0
LINE
  8
0
 10
60.093
 11
59.956
 20
-161.027
 21
-161.156
  0
LINE
  8
0
 10
59.956
 11
59.804
 20
-161.156
 21
-161.266
  0
LINE
  8
0
 10
59.804
 11
59.639
 20
-161.266
 21
-161.357
  0
LINE
  8
0
 10
59.639
 11
59.464
 20
-161.357
 21
-161.427
  0
LINE
  8
0
 10
59.464
 11
59.281
 20
-161.427
 21
-161.473
  0
LINE
  8
0
 10
59.281
 11
59.094
 20
-161.473
 21
-161.497
  0
LINE
  8
0
 10
59.094
 11
50.906
 20
-161.497
 21
-161.497
  0
LINE
  8
0
 10
50.906
 11
50.719
 20
-161.497
 21
-161.473
  0
LINE
  8
0
 10
50.719
 11
50.536
 20
-161.473
 21
-161.427
  0
LINE
  8
0
 10
50.536
 11
50.361
 20
-161.427
 21
-161.357
  0
LINE
  8
0
 10
50.361
 11
50.196
 20
-161.357
 21
-161.266
  0
LINE
  8
0
 10
50.196
 11
50.044
 20
-161.266
 21
-161.156
  0
LINE
  8
0
 10
50.044
 11
49.907
 20
-161.156
 21
-161.027
  0
LINE
  8
0
 10
49.907
 11
49.786
 20
-161.027
 21
-160.882
  0
LINE
  8
0
 10
49.786
 11
49.686
 20
-160.882
 21
-160.723
  0
LINE
  8
0
 10
49.686
 11
49.605
 20
-160.723
 21
-160.552
  0
LINE
  8
0
 10
49.605
 11
49.547
 20
-160.552
 21
-160.373
  0
LINE
  8
0
 10
49.547
 11
49.512
 20
-160.373
 21
-160.188
  0
LINE
  8
0
 10
49.512
 11
49.5
 20
-160.188
 21
-160
  0
LINE
  8
0
 10
49.5
 11
49.512
 20
160
 21
160.188
  0
LINE
  8
0
 10
49.512
 11
49.547
 20
160.188
 21
160.373
  0
LINE
  8
0
 10
49.547
 11
49.605
 20
160.373
 21
160.552
  0
LINE
  8
0
 10
49.605
 11
49.686
 20
160.552
 21
160.723
  0
LINE
  8
0
 10
49.686
 11
49.786
 20
160.723
 21
160.882
  0
LINE
  8
0
 10
49.786
 11
49.907
 20
160.882
 21
161.027
  0
LINE
  8
0
 10
49.907
 11
50.044
 20
161.027
 21
161.156
  0
LINE
  8
0
 10
50.044
 11
50.196
 20
161.156
 21
161.266
  0
LINE
  8
0
 10
50.196
 11
50.361
 20
161.266
 21
161.357
  0
LINE
  8
0
 10
50.361
 11
50.536
 20
161.357
 21
161.427
  0
LINE
  8
0
 10
50.536
 11
50.719
 20
161.427
 21
161.473
  0
LINE
  8
0
 10
50.719
 11
50.906
 20
161.473
 21
161.497
  0
LINE
  8
0
 10
50.906
 11
59.094
 20
161.497
 21
161.497
  0
LINE
  8
0
 10
59.094
 11
59.281
 20
161.497
 21
161.473
  0
LINE
  8
0
 10
59.281
 11
59.464
 20
161.473
 21
161.427
  0
LINE
  8
0
 10
59.464
 11
59.639
 20
161.427
 21
161.357
  0
LINE
  8
0
 10
59.639
 11
59.804
 20
161.357
 21
161.266
  0
LINE
  8
0
 10
59.804
 11
59.956
 20
161.266
 21
161.156
  0
LINE
  8
0
 10
59.956
 11
60.093
 20
161.156
 21
161.027
  0
LINE
  8
0
 10
60.093
 11
60.214
 20
161.027
 21
160.882
  0
LINE
  8
0
 10
60.214
 11
60.314
 20
160.882
 21
160.723
  0
LINE
  8
0
 10
60.314
 11
60.395
 20
160.723
 21
160.552
  0
LINE
  8
0
 10
60.395
 11
60.453
 20
160.552
 21
160.373
  0
LINE
  8
0
 10
60.453
 11
60.488
 20
160.373
 21
160.188
  0
LINE
  8
0
 10
60.488
 11
60.5
 20
160.188
 21
160
  0
LINE
  8
0
 10
60.5
 11
60.488
 20
160
 21
159.812
  0
LINE
  8
0
 10
60.488
 11
60.453
 20
159.812
 21
159.627
  0
LINE
  8
0
 10
60.453
 11
60.395
 20
159.627
 21
159.448
  0
LINE
  8
0
 10
60.395
 11
60.314
 20
159.448
 21
159.277
  0
LINE
  8
0
 10
60.314
 11
60.214
 20
159.277
 21
159.118
  0
LINE
  8
0
 10
60.214
 11
60.093
 20
159.118
 21
158.973
  0
LINE
  8
0
 10
60.093
 11
59.956
 20
158.973
 21
158.844
  0
LINE
  8
0
 10
59.956
 11
59.804
 20
158.844
 21
158.734
  0
LINE
  8
0
 10
59.804
 11
59.639
 20
158.734
 21
158.643
  0
LINE
  8
0
 10
59.639
 11
59.464
 20
158.643
 21
158.573
  0
LINE
  8
0
 10
59.464
 11
59.281
 20
158.573
 21
158.527
  0
LINE
  8
0
 10
59.281
 11
59.094
 20
158.527
 21
158.503
  0
LINE
  8
0
 10
59.094
 11
50.906
 20
158.503
 21
158.503
  0
LINE
  8
0
 10
50.906
 11
50.719
 20
158.503
 21
158.527
  0
LINE
  8
0
 10
50.719
 11
50.536
 20
158.527
 21
158.573
  0
LINE
  8
0
 10
50.536
 11
50.361
 20
158.573
 21
158.643
  0
LINE
  8
0
 10
50.361
 11
50.196
 20
158.643
 21
158.734
  0
LINE
  8
0
 10
50.196
 11
50.044
 20
158.734
 21
158.844
  0
LINE
  8
0
 10
50.044
 11
49.907
 20
158.844
 21
158.973
  0
LINE
  8
0
 10
49.907
 11
49.786
 20
158.973
 21
159.118
  0
LINE
  8
0
 10
49.786
 11
49.686
 20
159.118
 21
159.277
  0
LINE
  8
0
 10
49.686
 11
49.605
 20
159.277
 21
159.448
  0
LINE
  8
0
 10
49.605
 11
49.547
 20
159.448
 21
159.627
  0
LINE
  8
0
 10
49.547
 11
49.512
 20
159.627
 21
159.812
  0
LINE
  8
0
 10
49.512
 11
49.5
 20
159.812
 21
160
  0
LINE
  8
0
 10
68.5
 11
68.512
 20
-160
 21
-159.812
  0
LINE
  8
0
 10
68.512
 11
68.547
 20
-159.812
 21
-159.627
  0
LINE
  8
0
 10
68.547
 11
68.605
 20
-159.627
 21
-159.448
  0
LINE
  8
0
 10
68.605
 11
68.686
 20
-159.448
 21
-159.277
  0
LINE
  8
0
 10
68.686
 11
68.786
 20
-159.277
 21
-159.118
  0
LINE
  8
0
 10
68.786
 11
68.907
 20
-159.118
 21
-158.973
  0
LINE
  8
0
 10
68.907
 11
69.044
 20
-158.973
 21
-158.844
  0
LINE
  8
0
 10
69.044
 11
69.196
 20
-158.844
 21
-158.734
  0
LINE
  8
0
 10
69.196
 11
69.361
 20
-158.734
 21
-158.643
  0
LINE
  8
0
 10
69.361
 11
69.536
 20
-158.643
 21
-158.573
  0
LINE
  8
0
 10
69.536
 11
69.719
 20
-158.573
 21
-158.527
  0
LINE
  8
0
 10
69.719
 11
69.906
 20
-158.527
 21
-158.503
  0
LINE
  8
0
 10
69.906
 11
78.094
 20
-158.503
 21
-158.503
  0
LINE
  8
0
 10
78.094
 11
78.281
 20
-158.503
 21
-158.527
  0
LINE
  8
0
 10
78.281
 11
78.464
 20
-158.527
 21
-158.573
  0
LINE
  8
0
 10
78.464
 11
78.639
 20
-158.573
 21
-158.643
  0
LINE
  8
0
 10
78.639
 11
78.804
 20
-158.643
 21
-158.734
  0
LINE
  8
0
 10
78.804
 11
78.956
 20
-158.734
 21
-158.844
  0
LINE
  8
0
 10
78.956
 11
79.093
 20
-158.844
 21
-158.973
  0
LINE
  8
0
 10
79.093
 11
79.214
 20
-158.973
 21
-159.118
  0
LINE
  8
0
 10
79.214
 11
79.314
 20
-159.118
 21
-159.277
  0
LINE
  8
0
 10
79.314
 11
79.395
 20
-159.277
 21
-159.448
  0
LINE
  8
0
 10
79.395
 11
79.453
 20
-159.448
 21
-159.627
  0
LINE
  8
0
 10
79.453
 11
79.488
 20
-159.627
 21
-159.812
  0
LINE
  8
0
 10
79.488
 11
79.5
 20
-159.812
 21
-160
  0
LINE
  8
0
 10
79.5
 11
79.488
 20
-160
 21
-160.188
  0
LINE
  8
0
 10
79.488
 11
79.453
 20
-160.188
 21
-160.373
  0
LINE
  8
0
 10
79.453
 11
79.395
 20
-160.373
 21
-160.552
  0
LINE
  8
0
 10
79.395
 11
79.314
 20
-160.552
 21
-160.723
  0
LINE
  8
0
 10
79.314
 11
79.214
 20
-160.723
 21
-160.882
  0
LINE
  8
0
 10
79.214
 11
79.093
 20
-160.882
 21
-161.027
  0
LINE
  8
0
 10
79.093
 11
78.956
 20
-161.027
 21
-161.156
  0
LINE
  8
0
 10
78.956
 11
78.804
 20
-161.156
 21
-161.266
  0
LINE
  8
0
 10
78.804
 11
78.639
 20
-161.266
 21
-161.357
  0
LINE
  8
0
 10
78.639
 11
78.464
 20
-161.357
 21
-161.427
  0
LINE
  8
0
 10
78.464
 11
78.281
 20
-161.427
 21
-161.473
  0
LINE
  8
0
 10
78.281
 11
78.094
 20
-161.473
 21
-161.497
  0
LINE
  8
0
 10
78.094
 11
69.906
 20
-161.497
 21
-161.497
  0
LINE
  8
0
 10
69.906
 11
69.719
 20
-161.497
 21
-161.473
  0
LINE
  8
0
 10
69.719
 11
69.536
 20
-161.473
 21
-161.427
  0
LINE
  8
0
 10
69.536
 11
69.361
 20
-161.427
 21
-161.357
  0
LINE
  8
0
 10
69.361
 11
69.196
 20
-161.357
 21
-161.266
  0
LINE
  8
0
 10
69.196
 11
69.044
 20
-161.266
 21
-161.156
  0
LINE
  8
0
 10
69.044
 11
68.907
 20
-161.156
 21
-161.027
  0
LINE
  8
0
 10
68.907
 11
68.786
 20
-161.027
 21
-160.882
  0
LINE
  8
0
 10
68.786
 11
68.686
 20
-160.882
 21
-160.723
  0
LINE
  8
0
 10
68.686
 11
68.605
 20
-160.723
 21
-160.552
  0
LINE
  8
0
 10
68.605
 11
68.547
 20
-160.552
 21
-160.373
  0
LINE
  8
0
 10
68.547
 11
68.512
 20
-160.373
 21
-160.188
  0
LINE
  8
0
 10
68.512
 11
68.5
 20
-160.188
 21
-160
  0
LINE
  8
0
 10
68.5
 11
68.512
 20
160
 21
160.188
  0
LINE
  8
0
 10
68.512
 11
68.547
 20
160.188
 21
160.373
  0
LINE
  8
0
 10
68.547
 11
68.605
 20
160.373
 21
160.552
  0
LINE
  8
0
 10
68.605
 11
68.686
 20
160.552
 21
160.723
  0
LINE
  8
0
 10
68.686
 11
68.786
 20
160.723
 21
160.882
  0
LINE
  8
0
 10
68.786
 11
68.907
 20
160.882
 21
161.027
  0
LINE
  8
0
 10
68.907
 11
69.044
 20
161.027
 21
161.156
  0
LINE
  8
0
 10
69.044
 11
69.196
 20
161.156
 21
161.266
  0
LINE
  8
0
 10
69.196
 11
69.361
 20
161.266
 21
161.357
  0
LINE
  8
0
 10
69.361
 11
69.536
 20
161.357
 21
161.427
  0
LINE
  8
0
 10
69.536
 11
69.719
 20
161.427
 21
161.473
  0
LINE
  8
0
 10
69.719
 11
69.906
 20
161.473
 21
161.497
  0
LINE
  8
0
 10
69.906
 11
78.094
 20
161.497
 21
161.497
  0
LINE
  8
0
 10
78.094
 11
78.281
 20
161.497
 21
161.473
  0
LINE
  8
0
 10
78.281
 11
78.464
 20
161.473
 21
161.427
  0
LINE
  8
0
 10
78.464
 11
78.639
 20
161.427
 21
161.357
  0
LINE
  8
0
 10
78.639
 11
78.804
 20
161.357
 21
161.266
  0
LINE
  8
0
 10
78.804
 11
78.956
 20
161.266
 21
161.156
  0
LINE
  8
0
 10
78.956
 11
79.093
 20
161.156
 21
161.027
  0
LINE
  8
0
 10
79.093
 11
79.214
 20
161.027
 21
160.882
  0
LINE
  8
0
 10
79.214
 11
79.314
 20
160.882
 21
160.723
  0
LINE
  8
0
 10
79.314
 11
79.395
 20
160.723
 21
160.552
  0
LINE
  8
0
 10
79.395
 11
79.453
 20
160.552
 21
160.373
  0
LINE
  8
0
 10
79.453
 11
79.488
 20
160.373
 21
160.188
  0
LINE
  8
0
 10
79.488
 11
79.5
 20
160.188
 21
160
  0
LINE
  8
0
 10
79.5
 11
79.488
 20
160
 21
159.812
  0
LINE
  8
0
 10
79.488
 11
79.453
 20
159.812
 21
159.627
  0
LINE
  8
0
 10
79.453
 11
79.395
 20
159.627
 21
159.448
  0
LINE
  8
0
 10
79.395
 11
79.314
 20
159.448
 21
159.277
  0
LINE
  8
0
 10
79.314
 11
79.214
 20
159.277
 21
159.118
  0
LINE
  8
0
 10
79.214
 11
79.093
 20
159.118
 21
158.973
  0
LINE
  8
0
 10
79.093
 11
78.956
 20
158.973
 21
158.844
  0
LINE
  8
0
 10
78.956
 11
78.804
 20
158.844
 21
158.734
  0
LINE
  8
0
 10
78.804
 11
78.639
 20
158.734
 21
158.643
  0
LINE
  8
0
 10
78.639
 11
78.464
 20
158.643
 21
158.573
  0
LINE
  8
0
 10
78.464
 11
78.281
 20
158.573
 21
158.527
  0
LINE
  8
0
 10
78.281
 11
78.094
 20
158.527
 21
158.503
  0
LINE
  8
0
 10
78.094
 11
69.906
 20
158.503
 21
158.503
  0
LINE
  8
0
 10
69.906
 11
69.719
 20
158.503
 21
158.527
  0
LINE
  8
0
 10
69.719
 11
69.536
 20
158.527
 21
158.573
  0
LINE
  8
0
 10
69.536
 11
69.361
 20
158.573
 21
158.643
  0
LINE
  8
0
 10
69.361
 11
69.196
 20
158.643
 21
158.734
  0
LINE
  8
0
 10
69.196
 11
69.044
 20
158.734
 21
158.844
  0
LINE
  8
0
 10
69.044
 11
68.907
 20
158.844
 21
158.973
  0
LINE
  8
0
 10
68.907
 11
68.786
 20
158.973
 21
159.118
  0
LINE
  8
0
 10
68.786
 11
68.686
 20
159.118
 21
159.277
  0
LINE
  8
0
 10
68.686
 11
68.605
 20
159.277
 21
159.448
  0
LINE
  8
0
 10
68.605
 11
68.547
 20
159.448
 21
159.627
  0
LINE
  8
0
 10
68.547
 11
68.512
 20
159.627
 21
159.812
  0
LINE
  8
0
 10
68.512
 11
68.5
 20
159.812
 21
160
  0
LINE
  8
0
 10
103
 11
103.012
 20
-104.5
 21
-104.312
  0
LINE
  8
0
 10
103.012
 11
103.047
 20
-104.312
 21
-104.127
  0
LINE
  8
0
 10
103.047
 11
103.105
 20
-104.127
 21
-103.948
  0
LINE
  8
0
 10
103.105
 11
103.186
 20
-103.948
 21
-103.777
  0
LINE
  8
0
 10
103.186
 11
103.286
 20
-103.777
 21
-103.618
  0
LINE
  8
0
 10
103.286
 11
103.407
 20
-103.618
 21
-103.473
  0
LINE
  8
0
 10
103.407
 11
103.544
 20
-103.473
 21
-103.344
  0
LINE
  8
0
 10
103.544
 11
103.696
 20
-103.344
 21
-103.234
  0
LINE
  8
0
 10
103.696
 11
103.861
 20
-103.234
 21
-103.143
  0
LINE
  8
0
 10
103.861
 11
104.036
 20
-103.143
 21
-103.073
  0
LINE
  8
0
 10
104.036
 11
104.219
 20
-103.073
 21
-103.027
  0
LINE
  8
0
 10
104.219
 11
104.406
 20
-103.027
 21
-103.003
  0
LINE
  8
0
 10
104.406
 11
104.594
 20
-103.003
 21
-103.003
  0
LINE
  8
0
 10
104.594
 11
104.781
 20
-103.003
 21
-103.027
  0
LINE
  8
0
 10
104.781
 11
104.964
 20
-103.027
 21
-103.073
  0
LINE
  8
0
 10
104.964
 11
105.139
 20
-103.073
 21
-103.143
  0
LINE
  8
0
 10
105.139
 11
105.304
 20
-103.143
 21
-103.234
  0
LINE
  8
0
 10
105.304
 11
105.456
 20
-103.234
 21
-103.344
  0
LINE
  8
0
 10
105.456
 11
105.593
 20
-103.344
 21
-103.473
  0
LINE
  8
0
 10
105.593
 11
105.714
 20
-103.473
 21
-103.618
  0
LINE
  8
0
 10
105.714
 11
105.814
 20
-103.618
 21
-103.777
  0
LINE
  8
0
 10
105.814
 11
105.895
 20
-103.777
 21
-103.948
  0
LINE
  8
0
 10
105.895
 11
105.953
 20
-103.948
 21
-104.127
  0
LINE
  8
0
 10
105.953
 11
105.988
 20
-104.127
 21
-104.312
  0
LINE
  8
0
 10
105.988
 11
106
 20
-104.312
 21
-104.5
  0
LINE
  8
0
 10
106
 11
105.988
 20
-104.5
 21
-104.688
  0
LINE
  8
0
 10
105.988
 11
105.953
 20
-104.688
 21
-104.873
  0
LINE
  8
0
 10
105.953
 11
105.895
 20
-104.873
 21
-105.052
  0
LINE
  8
0
 10
105.895
 11
105.814
 20
-105.052
 21
-105.223
  0
LINE
  8
0
 10
105.814
 11
105.714
 20
-105.223
 21
-105.382
  0
LINE
  8
0
 10
105.714
 11
105.593
 20
-105.382
 21
-105.527
  0
LINE
  8
0
 10
105.593
 11
105.456
 20
-105.527
 21
-105.656
  0
LINE
  8
0
 10
105.456
 11
105.304
 20
-105.656
 21
-105.766
  0
LINE
  8
0
 10
105.304
 11
105.139
 20
-105.766
 21
-105.857
  0
LINE
  8
0
 10
105.139
 11
104.964
 20
-105.857
 21
-105.927
  0
LINE
  8
0
 10
104.964
 11
104.781
 20
-105.927
 21
-105.973
  0
LINE
  8
0
 10
104.781
 11
104.594
 20
-105.973
 21
-105.997
  0
LINE
  8
0
 10
104.594
 11
104.406
 20
-105.997
 21
-105.997
  0
LINE
  8
0
 10
104.406
 11
104.219
 20
-105.997
 21
-105.973
  0
LINE
  8
0
 10
104.219
 11
104.036
 20
-105.973
 21
-105.927
  0
LINE
  8
0
 10
104.036
 11
103.861
 20
-105.927
 21
-105.857
  0
LINE
  8
0
 10
103.861
 11
103.696
 20
-105.857
 21
-105.766
  0
LINE
  8
0
 10
103.696
 11
103.544
 20
-105.766
 21
-105.656
  0
LINE
  8
0
 10
103.544
 11
103.407
 20
-105.656
 21
-105.527
  0
LINE
  8
0
 10
103.407
 11
103.286
 20
-105.527
 21
-105.382
  0
LINE
  8
0
 10
103.286
 11
103.186
 20
-105.382
 21
-105.223
  0
LINE
  8
0
 10
103.186
 11
103.105
 20
-105.223
 21
-105.052
  0
LINE
  8
0
 10
103.105
 11
103.047
 20
-105.052
 21
-104.873
  0
LINE
  8
0
 10
103.047
 11
103.012
 20
-104.873
 21
-104.688
  0
LINE
  8
0
 10
103.012
 11
103
 20
-104.688
 21
-104.5
  0
LINE
  8
0
 10
103
 11
103.012
 20
104.5
 21
104.688
  0
LINE
  8
0
 10
103.012
 11
103.047
 20
104.688
 21
104.873
  0
LINE
  8
0
 10
103.047
 11
103.105
 20
104.873
 21
105.052
  0
LINE
  8
0
 10
103.105
 11
103.186
 20
105.052
 21
105.223
  0
LINE
  8
0
 10
103.186
 11
103.286
 20
105.223
 21
105.382
  0
LINE
  8
0
 10
103.286
 11
103.407
 20
105.382
 21
105.527
  0
LINE
  8
0
 10
103.407
 11
103.544
 20
105.527
 21
105.656
  0
LINE
  8
0
 10
103.544
 11
103.696
 20
105.656
 21
105.766
  0
LINE
  8
0
 10
103.696
 11
103.861
 20
105.766
 21
105.857
  0
LINE
  8
0
 10
103.861
 11
104.036
 20
105.857
 21
105.927
  0
LINE
  8
0
 10
104.036
 11
104.219
 20
105.927
 21
105.973
  0
LINE
  8
0
 10
104.219
 11
104.406
 20
105.973
 21
105.997
  0
LINE
  8
0
 10
104.406
 11
104.594
 20
105.997
 21
105.997
  0
LINE
  8
0
 10
104.594
 11
104.781
 20
105.997
 21
105.973
  0
LINE
  8
0
 10
104.781
 11
104.964
 20
105.973
 21
105.927
  0
LINE
  8
0
 10
104.964
 11
105.139
 20
105.927
 21
105.857
  0
LINE
  8
0
 10
105.139
 11
105.304
 20
105.857
 21
105.766
  0
LINE
  8
0
 10
105.304
 11
105.456
 20
105.766
 21
105.656
  0
LINE
  8
0
 10
105.456
 11
105.593
 20
105.656
 21
105.527
  0
LINE
  8
0
 10
105.593
 11
105.714
 20
105.527
 21
105.382
  0
LINE
  8
0
 10
105.714
 11
105.814
 20
105.382
 21
105.223
  0
LINE
  8
0
 10
105.814
 11
105.895
 20
105.223
 21
105.052
  0
LINE
  8
0
 10
105.895
 11
105.953
 20
105.052
 21
104.873
  0
LINE
  8
0
 10
105.953
 11
105.988
 20
104.873
 21
104.688
  0
LINE
  8
0
 10
105.988
 11
106
 20
104.688
 21
104.5
  0
LINE
  8
0
 10
106
 11
105.988
 20
104.5
 21
104.312
  0
LINE
  8
0
 10
105.988
 11
105.953
 20
104.312
 21
104.127
  0
LINE
  8
0
 10
105.953
 11
105.895
 20
104.127
 21
103.948
  0
LINE
  8
0
 10
105.895
 11
105.814
 20
103.948
 21
103.777
  0
LINE
  8
0
 10
105.814
 11
105.714
 20
103.777
 21
103.618
  0
LINE
  8
0
 10
105.714
 11
105.593
 20
103.618
 21
103.473
  0
LINE
  8
0
 10
105.593
 11
105.456
 20
103.473
 21
103.344
  0
LINE
  8
0
 10
105.456
 11
105.304
 20
103.344
 21
103.234
  0
LINE
  8
0
 10
105.304
 11
105.139
 20
103.234
 21
103.143
  0
LINE
  8
0
 10
105.139
 11
104.964
 20
103.143
 21
103.073
  0
LINE
  8
0
 10
104.964
 11
104.781
 20
103.073
 21
103.027
  0
LINE
  8
0
 10
104.781
 11
104.594
 20
103.027
 21
103.003
  0
LINE
  8
0
 10
104.594
 11
104.406
 20
103.003
 21
103.003
  0
LINE
  8
0
 10
104.406
 11
104.219
 20
103.003
 21
103.027
  0
LINE
  8
0
 10
104.219
 11
104.036
 20
103.027
 21
103.073
  0
LINE
  8
0
 10
104.036
 11
103.861
 20
103.073
 21
103.143
  0
LINE
  8
0
 10
103.861
 11
103.696
 20
103.143
 21
103.234
  0
LINE
  8
0
 10
103.696
 11
103.544
 20
103.234
 21
103.344
  0
LINE
  8
0
 10
103.544
 11
103.407
 20
103.344
 21
103.473
  0
LINE
  8
0
 10
103.407
 11
103.286
 20
103.473
 21
103.618
  0
LINE
  8
0
 10
103.286
 11
103.186
 20
103.618
 21
103.777
  0
LINE
  8
0
 10
103.186
 11
103.105
 20
103.777
 21
103.948
  0
LINE
  8
0
 10
103.105
 11
103.047
 20
103.948
 21
104.127
  0
LINE
  8
0
 10
103.047
 11
103.012
 20
104.127
 21
104.312
  0
LINE
  8
0
 10
103.012
 11
103
 20
104.312
 21
104.5
  0
LINE
  8
0
 10
114.5
 11
114.512
 20
-160
 21
-159.812
  0
LINE
  8
0
 10
114.512
 11
114.547
 20
-159.812
 21
-159.627
  0
LINE
  8
0
 10
114.547
 11
114.605
 20
-159.627
 21
-159.448
  0
LINE
  8
0
 10
114.605
 11
114.686
 20
-159.448
 21
-159.277
  0
LINE
  8
0
 10
114.686
 11
114.786
 20
-159.277
 21
-159.118
  0
LINE
  8
0
 10
114.786
 11
114.907
 20
-159.118
 21
-158.973
  0
LINE
  8
0
 10
114.907
 11
115.044
 20
-158.973
 21
-158.844
  0
LINE
  8
0
 10
115.044
 11
115.196
 20
-158.844
 21
-158.734
  0
LINE
  8
0
 10
115.196
 11
115.361
 20
-158.734
 21
-158.643
  0
LINE
  8
0
 10
115.361
 11
115.536
 20
-158.643
 21
-158.573
  0
LINE
  8
0
 10
115.536
 11
115.719
 20
-158.573
 21
-158.527
  0
LINE
  8
0
 10
115.719
 11
115.906
 20
-158.527
 21
-158.503
  0
LINE
  8
0
 10
115.906
 11
124.094
 20
-158.503
 21
-158.503
  0
LINE
  8
0
 10
124.094
 11
124.281
 20
-158.503
 21
-158.527
  0
LINE
  8
0
 10
124.281
 11
124.464
 20
-158.527
 21
-158.573
  0
LINE
  8
0
 10
124.464
 11
124.639
 20
-158.573
 21
-158.643
  0
LINE
  8
0
 10
124.639
 11
124.804
 20
-158.643
 21
-158.734
  0
LINE
  8
0
 10
124.804
 11
124.956
 20
-158.734
 21
-158.844
  0
LINE
  8
0
 10
124.956
 11
125.093
 20
-158.844
 21
-158.973
  0
LINE
  8
0
 10
125.093
 11
125.214
 20
-158.973
 21
-159.118
  0
LINE
  8
0
 10
125.214
 11
125.314
 20
-159.118
 21
-159.277
  0
LINE
  8
0
 10
125.314
 11
125.395
 20
-159.277
 21
-159.448
  0
LINE
  8
0
 10
125.395
 11
125.453
 20
-159.448
 21
-159.627
  0
LINE
  8
0
 10
125.453
 11
125.488
 20
-159.627
 21
-159.812
  0
LINE
  8
0
 10
125.488
 11
125.5
 20
-159.812
 21
-160
  0
LINE
  8
0
 10
125.5
 11
125.488
 20
-160
 21
-160.188
  0
LINE
  8
0
 10
125.488
 11
125.453
 20
-160.188
 21
-160.373
  0
LINE
  8
0
 10
125.453
 11
125.395
 20
-160.373
 21
-160.552
  0
LINE
  8
0
 10
125.395
 11
125.314
 20
-160.552
 21
-160.723
  0
LINE
  8
0
 10
125.314
 11
125.214
 20
-160.723
 21
-160.882
  0
LINE
  8
0
 10
125.214
 11
125.093
 20
-160.882
 21
-161.027
  0
LINE
  8
0
 10
125.093
 11
124.956
 20
-161.027
 21
-161.156
  0
LINE
  8
0
 10
124.956
 11
124.804
 20
-161.156
 21
-161.266
  0
LINE
  8
0
 10
124.804
 11
124.639
 20
-161.266
 21
-161.357
  0
LINE
  8
0
 10
124.639
 11
124.464
 20
-161.357
 21
-161.427
  0
LINE
  8
0
 10
124.464
 11
124.281
 20
-161.427
 21
-161.473
  0
LINE
  8
0
 10
124.281
 11
124.094
 20
-161.473
 21
-161.497
  0
LINE
  8
0
 10
124.094
 11
115.906
 20
-161.497
 21
-161.497
  0
LINE
  8
0
 10
115.906
 11
115.719
 20
-161.497
 21
-161.473
  0
LINE
  8
0
 10
115.719
 11
115.536
 20
-161.473
 21
-161.427
  0
LINE
  8
0
 10
115.536
 11
115.361
 20
-161.427
 21
-161.357
  0
LINE
  8
0
 10
115.361
 11
115.196
 20
-161.357
 21
-161.266
  0
LINE
  8
0
 10
115.196
 11
115.044
 20
-161.266
 21
-161.156
  0
LINE
  8
0
 10
115.044
 11
114.907
 20
-161.156
 21
-161.027
  0
LINE
  8
0
 10
114.907
 11
114.786
 20
-161.027
 21
-160.882
  0
LINE
  8
0
 10
114.786
 11
114.686
 20
-160.882
 21
-160.723
  0
LINE
  8
0
 10
114.686
 11
114.605
 20
-160.723
 21
-160.552
  0
LINE
  8
0
 10
114.605
 11
114.547
 20
-160.552
 21
-160.373
  0
LINE
  8
0
 10
114.547
 11
114.512
 20
-160.373
 21
-160.188
  0
LINE
  8
0
 10
114.512
 11
114.5
 20
-160.188
 21
-160
  0
LINE
  8
0
 10
114.5
 11
114.512
 20
160
 21
160.188
  0
LINE
  8
0
 10
114.512
 11
114.547
 20
160.188
 21
160.373
  0
LINE
  8
0
 10
114.547
 11
114.605
 20
160.373
 21
160.552
  0
LINE
  8
0
 10
114.605
 11
114.686
 20
160.552
 21
160.723
  0
LINE
  8
0
 10
114.686
 11
114.786
 20
160.723
 21
160.882
  0
LINE
  8
0
 10
114.786
 11
114.907
 20
160.882
 21
161.027
  0
LINE
  8
0
 10
114.907
 11
115.044
 20
161.027
 21
161.156
  0
LINE
  8
0
 10
115.044
 11
115.196
 20
161.156
 21
161.266
  0
LINE
  8
0
 10
115.196
 11
115.361
 20
161.266
 21
161.357
  0
LINE
  8
0
 10
115.361
 11
115.536
 20
161.357
 21
161.427
  0
LINE
  8
0
 10
115.536
 11
115.719
 20
161.427
 21
161.473
  0
LINE
  8
0
 10
115.719
 11
115.906
 20
161.473
 21
161.497
  0
LINE
  8
0
 10
115.906
 11
124.094
 20
161.497
 21
161.497
  0
LINE
  8
0
 10
124.094
 11
124.281
 20
161.497
 21
161.473
  0
LINE
  8
0
 10
124.281
 11
124.464
 20
161.473
 21
161.427
  0
LINE
  8
0
 10
124.464
 11
124.639
 20
161.427
 21
161.357
  0
LINE
  8
0
 10
124.639
 11
124.804
 20
161.357
 21
161.266
  0
LINE
  8
0
 10
124.804
 11
124.956
 20
161.266
 21
161.156
  0
LINE
  8
0
 10
124.956
 11
125.093
 20
161.156
 21
161.027
  0
LINE
  8
0
 10
125.093
 11
125.214
 20
161.027
 21
160.882
  0
LINE
  8
0
 10
125.214
 11
125.314
 20
160.882
 21
160.723
  0
LINE
  8
0
 10
125.314
 11
125.395
 20
160.723
 21
160.552
  0
LINE
  8
0
 10
125.395
 11
125.453
 20
160.552
 21
160.373
  0
LINE
  8
0
 10
125.453
 11
125.488
 20
160.373
 21
160.188
  0
LINE
  8
0
 10
125.488
 11
125.5
 20
160.188
 21
160
  0
LINE
  8
0
 10
125.5
 11
125.488
 20
160
 21
159.812
  0
LINE
  8
0
 10
125.488
 11
125.453
 20
159.812
 21
159.627
  0
LINE
  8
0
 10
125.453
 11
125.395
 20
159.627
 21
159.448
  0
LINE
  8
0
 10
125.395
 11
125.314
 20
159.448
 21
159.277
  0
LINE
  8
0
 10
125.314
 11
125.214
 20
159.277
 21
159.118
  0
LINE
  8
0
 10
125.214
 11
125.093
 20
159.118
 21
158.973
  0
LINE
  8
0
 10
125.093
 11
124.956
 20
158.973
 21
158.844
  0
LINE
  8
0
 10
124.956
 11
124.804
 20
158.844
 21
158.734
  0
LINE
  8
0
 10
124.804
 11
124.639
 20
158.734
 21
158.643
  0
LINE
  8
0
 10
124.639
 11
124.464
 20
158.643
 21
158.573
  0
LINE
  8
0
 10
124.464
 11
124.281
 20
158.573
 21
158.527
  0
LINE
  8
0
 10
124.281
 11
124.094
 20
158.527
 21
158.503
  0
LINE
  8
0
 10
124.094
 11
115.906
 20
158.503
 21
158.503
  0
LINE
  8
0
 10
115.906
 11
115.719
 20
158.503
 21
158.527
  0
LINE
  8
0
 10
115.719
 11
115.536
 20
158.527
 21
158.573
  0
LINE
  8
0
 10
115.536
 11
115.361
 20
158.573
 21
158.643
  0
LINE
  8
0
 10
115.361
 11
115.196
 20
158.643
 21
158.734
  0
LINE
  8
0
 10
115.196
 11
115.044
 20
158.734
 21
158.844
  0
LINE
  8
0
 10
115.044
 11
114.907
 20
158.844
 21
158.973
  0
LINE
  8
0
 10
114.907
 11
114.786
 20
158.973
 21
159.118
  0
LINE
  8
0
 10
114.786
 11
114.686
 20
159.118
 21
159.277
  0
LINE
  8
0
 10
114.686
 11
114.605
 20
159.277
 21
159.448
  0
LINE
  8
0
 10
114.605
 11
114.547
 20
159.448
 21
159.627
  0
LINE
  8
0
 10
114.547
 11
114.512
 20
159.627
 21
159.812
  0
LINE
  8
0
 10
114.512
 11
114.5
 20
159.812
 21
160
  0
ENDSEC
  0
SECTION
  2
OBJECTS
  0
DICTIONARY
  0
ENDSEC
  0
EOF
