  0
SECTION
  2
BLOCKS
  0
ENDSEC
  0
SECTION
  2
ENTITIES
  0
LINE
  8
0
 10
122.811
 20
-174.734
 11
124.635
 21
-174.266
  0
LINE
  8
0
 10
124.635
 20
-174.266
 11
126.387
 21
-173.572
  0
LINE
  8
0
 10
126.387
 20
-173.572
 11
128.037
 21
-172.665
  0
LINE
  8
0
 10
128.037
 20
-172.665
 11
129.561
 21
-171.558
  0
LINE
  8
0
 10
129.561
 20
-171.558
 11
130.935
 21
-170.268
  0
LINE
  8
0
 10
130.935
 20
-170.268
 11
132.135
 21
-168.817
  0
LINE
  8
0
 10
132.135
 20
-168.817
 11
133.145
 21
-167.226
  0
LINE
  8
0
 10
133.145
 20
-167.226
 11
133.947
 21
-165.522
  0
LINE
  8
0
 10
133.947
 20
-165.522
 11
134.529
 21
-163.73
  0
LINE
  8
0
 10
134.529
 20
-163.73
 11
134.882
 21
-161.88
  0
LINE
  8
0
 10
134.882
 20
-161.88
 11
135
 21
-160
  0
LINE
  8
0
 10
135
 20
-160
 11
134.882
 21
-158.12
  0
LINE
  8
0
 10
134.882
 20
-158.12
 11
134.529
 21
-156.27
  0
LINE
  8
0
 10
134.529
 20
-156.27
 11
133.947
 21
-154.478
  0
LINE
  8
0
 10
133.947
 20
-154.478
 11
133.145
 21
-152.774
  0
LINE
  8
0
 10
133.145
 20
-152.774
 11
132.135
 21
-151.183
  0
LINE
  8
0
 10
132.135
 20
-151.183
 11
130.935
 21
-149.732
  0
LINE
  8
0
 10
130.935
 20
-149.732
 11
129.561
 21
-148.442
  0
LINE
  8
0
 10
129.561
 20
-148.442
 11
128.037
 21
-147.335
  0
LINE
  8
0
 10
128.037
 20
-147.335
 11
127.5
 21
-147.04
  0
LINE
  8
0
 10
127.5
 20
-147.04
 11
127.5
 21
-147.01
  0
LINE
  8
0
 10
127.5
 20
-147.01
 11
126.963
 21
-146.715
  0
LINE
  8
0
 10
126.963
 20
-146.715
 11
125.439
 21
-145.608
  0
LINE
  8
0
 10
125.439
 20
-145.608
 11
124.065
 21
-144.318
  0
LINE
  8
0
 10
124.065
 20
-144.318
 11
122.865
 21
-142.867
  0
LINE
  8
0
 10
122.865
 20
-142.867
 11
121.855
 21
-141.276
  0
LINE
  8
0
 10
121.855
 20
-141.276
 11
121.053
 21
-139.572
  0
LINE
  8
0
 10
121.053
 20
-139.572
 11
120.471
 21
-137.78
  0
LINE
  8
0
 10
120.471
 20
-137.78
 11
120.118
 21
-135.93
  0
LINE
  8
0
 10
120.118
 20
-135.93
 11
120
 21
-134.05
  0
LINE
  8
0
 10
120
 20
-134.05
 11
120
 21
134.05
  0
LINE
  8
0
 10
120
 20
134.05
 11
120.118
 21
135.93
  0
LINE
  8
0
 10
120.118
 20
135.93
 11
120.471
 21
137.78
  0
LINE
  8
0
 10
120.471
 20
137.78
 11
121.053
 21
139.572
  0
LINE
  8
0
 10
121.053
 20
139.572
 11
121.855
 21
141.276
  0
LINE
  8
0
 10
121.855
 20
141.276
 11
122.865
 21
142.867
  0
LINE
  8
0
 10
122.865
 20
142.867
 11
124.065
 21
144.318
  0
LINE
  8
0
 10
124.065
 20
144.318
 11
125.439
 21
145.608
  0
LINE
  8
0
 10
125.439
 20
145.608
 11
126.963
 21
146.715
  0
LINE
  8
0
 10
126.963
 20
146.715
 11
127.5
 21
147.01
  0
LINE
  8
0
 10
127.5
 20
147.01
 11
127.5
 21
147.04
  0
LINE
  8
0
 10
127.5
 20
147.04
 11
128.037
 21
147.335
  0
LINE
  8
0
 10
128.037
 20
147.335
 11
129.561
 21
148.442
  0
LINE
  8
0
 10
129.561
 20
148.442
 11
130.935
 21
149.732
  0
LINE
  8
0
 10
130.935
 20
149.732
 11
132.135
 21
151.183
  0
LINE
  8
0
 10
132.135
 20
151.183
 11
133.145
 21
152.774
  0
LINE
  8
0
 10
133.145
 20
152.774
 11
133.947
 21
154.478
  0
LINE
  8
0
 10
133.947
 20
154.478
 11
134.529
 21
156.27
  0
LINE
  8
0
 10
134.529
 20
156.27
 11
134.882
 21
158.12
  0
LINE
  8
0
 10
134.882
 20
158.12
 11
135
 21
160
  0
LINE
  8
0
 10
135
 20
160
 11
134.882
 21
161.88
  0
LINE
  8
0
 10
134.882
 20
161.88
 11
134.529
 21
163.73
  0
LINE
  8
0
 10
134.529
 20
163.73
 11
133.947
 21
165.522
  0
LINE
  8
0
 10
133.947
 20
165.522
 11
133.145
 21
167.226
  0
LINE
  8
0
 10
133.145
 20
167.226
 11
132.135
 21
168.817
  0
LINE
  8
0
 10
132.135
 20
168.817
 11
130.935
 21
170.268
  0
LINE
  8
0
 10
130.935
 20
170.268
 11
129.561
 21
171.558
  0
LINE
  8
0
 10
129.561
 20
171.558
 11
128.037
 21
172.665
  0
LINE
  8
0
 10
128.037
 20
172.665
 11
126.387
 21
173.572
  0
LINE
  8
0
 10
126.387
 20
173.572
 11
124.635
 21
174.266
  0
LINE
  8
0
 10
124.635
 20
174.266
 11
122.811
 21
174.734
  0
LINE
  8
0
 10
122.811
 20
174.734
 11
120.942
 21
174.97
  0
LINE
  8
0
 10
120.942
 20
174.97
 11
-120.942
 21
174.97
  0
LINE
  8
0
 10
-120.942
 20
174.97
 11
-122.811
 21
174.734
  0
LINE
  8
0
 10
-122.811
 20
174.734
 11
-124.635
 21
174.266
  0
LINE
  8
0
 10
-124.635
 20
174.266
 11
-126.387
 21
173.572
  0
LINE
  8
0
 10
-126.387
 20
173.572
 11
-128.037
 21
172.665
  0
LINE
  8
0
 10
-128.037
 20
172.665
 11
-129.561
 21
171.558
  0
LINE
  8
0
 10
-129.561
 20
171.558
 11
-130.935
 21
170.268
  0
LINE
  8
0
 10
-130.935
 20
170.268
 11
-132.135
 21
168.817
  0
LINE
  8
0
 10
-132.135
 20
168.817
 11
-133.145
 21
167.226
  0
LINE
  8
0
 10
-133.145
 20
167.226
 11
-133.947
 21
165.522
  0
LINE
  8
0
 10
-133.947
 20
165.522
 11
-134.529
 21
163.73
  0
LINE
  8
0
 10
-134.529
 20
163.73
 11
-134.882
 21
161.88
  0
LINE
  8
0
 10
-134.882
 20
161.88
 11
-135
 21
160
  0
LINE
  8
0
 10
-135
 20
160
 11
-134.882
 21
158.12
  0
LINE
  8
0
 10
-134.882
 20
158.12
 11
-134.529
 21
156.27
  0
LINE
  8
0
 10
-134.529
 20
156.27
 11
-133.947
 21
154.478
  0
LINE
  8
0
 10
-133.947
 20
154.478
 11
-133.145
 21
152.774
  0
LINE
  8
0
 10
-133.145
 20
152.774
 11
-132.135
 21
151.183
  0
LINE
  8
0
 10
-132.135
 20
151.183
 11
-130.935
 21
149.732
  0
LINE
  8
0
 10
-130.935
 20
149.732
 11
-129.561
 21
148.442
  0
LINE
  8
0
 10
-129.561
 20
148.442
 11
-128.037
 21
147.335
  0
LINE
  8
0
 10
-128.037
 20
147.335
 11
-127.5
 21
147.04
  0
LINE
  8
0
 10
-127.5
 20
147.04
 11
-127.5
 21
147.01
  0
LINE
  8
0
 10
-127.5
 20
147.01
 11
-126.963
 21
146.715
  0
LINE
  8
0
 10
-126.963
 20
146.715
 11
-125.439
 21
145.608
  0
LINE
  8
0
 10
-125.439
 20
145.608
 11
-124.065
 21
144.318
  0
LINE
  8
0
 10
-124.065
 20
144.318
 11
-122.865
 21
142.867
  0
LINE
  8
0
 10
-122.865
 20
142.867
 11
-121.855
 21
141.276
  0
LINE
  8
0
 10
-121.855
 20
141.276
 11
-121.053
 21
139.572
  0
LINE
  8
0
 10
-121.053
 20
139.572
 11
-120.471
 21
137.78
  0
LINE
  8
0
 10
-120.471
 20
137.78
 11
-120.118
 21
135.93
  0
LINE
  8
0
 10
-120.118
 20
135.93
 11
-120
 21
134.05
  0
LINE
  8
0
 10
-120
 20
134.05
 11
-120
 21
-134.05
  0
LINE
  8
0
 10
-120
 20
-134.05
 11
-120.118
 21
-135.93
  0
LINE
  8
0
 10
-120.118
 20
-135.93
 11
-120.471
 21
-137.78
  0
LINE
  8
0
 10
-120.471
 20
-137.78
 11
-121.053
 21
-139.572
  0
LINE
  8
0
 10
-121.053
 20
-139.572
 11
-121.855
 21
-141.276
  0
LINE
  8
0
 10
-121.855
 20
-141.276
 11
-122.865
 21
-142.867
  0
LINE
  8
0
 10
-122.865
 20
-142.867
 11
-124.065
 21
-144.318
  0
LINE
  8
0
 10
-124.065
 20
-144.318
 11
-125.439
 21
-145.608
  0
LINE
  8
0
 10
-125.439
 20
-145.608
 11
-126.963
 21
-146.715
  0
LINE
  8
0
 10
-126.963
 20
-146.715
 11
-127.5
 21
-147.01
  0
LINE
  8
0
 10
-127.5
 20
-147.01
 11
-127.5
 21
-147.04
  0
LINE
  8
0
 10
-127.5
 20
-147.04
 11
-128.037
 21
-147.335
  0
LINE
  8
0
 10
-128.037
 20
-147.335
 11
-129.561
 21
-148.442
  0
LINE
  8
0
 10
-129.561
 20
-148.442
 11
-130.935
 21
-149.732
  0
LINE
  8
0
 10
-130.935
 20
-149.732
 11
-132.135
 21
-151.183
  0
LINE
  8
0
 10
-132.135
 20
-151.183
 11
-133.145
 21
-152.774
  0
LINE
  8
0
 10
-133.145
 20
-152.774
 11
-133.947
 21
-154.478
  0
LINE
  8
0
 10
-133.947
 20
-154.478
 11
-134.529
 21
-156.27
  0
LINE
  8
0
 10
-134.529
 20
-156.27
 11
-134.882
 21
-158.12
  0
LINE
  8
0
 10
-134.882
 20
-158.12
 11
-135
 21
-160
  0
LINE
  8
0
 10
-135
 20
-160
 11
-134.882
 21
-161.88
  0
LINE
  8
0
 10
-134.882
 20
-161.88
 11
-134.529
 21
-163.73
  0
LINE
  8
0
 10
-134.529
 20
-163.73
 11
-133.947
 21
-165.522
  0
LINE
  8
0
 10
-133.947
 20
-165.522
 11
-133.145
 21
-167.226
  0
LINE
  8
0
 10
-133.145
 20
-167.226
 11
-132.135
 21
-168.817
  0
LINE
  8
0
 10
-132.135
 20
-168.817
 11
-130.935
 21
-170.268
  0
LINE
  8
0
 10
-130.935
 20
-170.268
 11
-129.561
 21
-171.558
  0
LINE
  8
0
 10
-129.561
 20
-171.558
 11
-128.037
 21
-172.665
  0
LINE
  8
0
 10
-128.037
 20
-172.665
 11
-126.387
 21
-173.572
  0
LINE
  8
0
 10
-126.387
 20
-173.572
 11
-124.635
 21
-174.266
  0
LINE
  8
0
 10
-124.635
 20
-174.266
 11
-122.811
 21
-174.734
  0
LINE
  8
0
 10
-122.811
 20
-174.734
 11
-120.942
 21
-174.97
  0
LINE
  8
0
 10
-120.942
 20
-174.97
 11
120.942
 21
-174.97
  0
LINE
  8
0
 10
120.942
 20
-174.97
 11
122.811
 21
-174.734
  0
LINE
  8
0
 10
50.9058
 20
158.503
 11
50.7189
 21
158.527
  0
LINE
  8
0
 10
50.7189
 20
158.527
 11
50.5365
 21
158.573
  0
LINE
  8
0
 10
50.5365
 20
158.573
 11
50.3613
 21
158.643
  0
LINE
  8
0
 10
50.3613
 20
158.643
 11
50.1963
 21
158.734
  0
LINE
  8
0
 10
50.1963
 20
158.734
 11
50.0439
 21
158.844
  0
LINE
  8
0
 10
50.0439
 20
158.844
 11
49.9066
 21
158.973
  0
LINE
  8
0
 10
49.9066
 20
158.973
 11
49.7865
 21
159.118
  0
LINE
  8
0
 10
49.7865
 20
159.118
 11
49.6855
 21
159.277
  0
LINE
  8
0
 10
49.6855
 20
159.277
 11
49.6053
 21
159.448
  0
LINE
  8
0
 10
49.6053
 20
159.448
 11
49.5471
 21
159.627
  0
LINE
  8
0
 10
49.5471
 20
159.627
 11
49.5118
 21
159.812
  0
LINE
  8
0
 10
49.5118
 20
159.812
 11
49.5
 21
160
  0
LINE
  8
0
 10
49.5
 20
160
 11
49.5118
 21
160.188
  0
LINE
  8
0
 10
49.5118
 20
160.188
 11
49.5471
 21
160.373
  0
LINE
  8
0
 10
49.5471
 20
160.373
 11
49.6053
 21
160.552
  0
LINE
  8
0
 10
49.6053
 20
160.552
 11
49.6855
 21
160.723
  0
LINE
  8
0
 10
49.6855
 20
160.723
 11
49.7865
 21
160.882
  0
LINE
  8
0
 10
49.7865
 20
160.882
 11
49.9066
 21
161.027
  0
LINE
  8
0
 10
49.9066
 20
161.027
 11
50.0439
 21
161.156
  0
LINE
  8
0
 10
50.0439
 20
161.156
 11
50.1963
 21
161.266
  0
LINE
  8
0
 10
50.1963
 20
161.266
 11
50.3613
 21
161.357
  0
LINE
  8
0
 10
50.3613
 20
161.357
 11
50.5365
 21
161.427
  0
LINE
  8
0
 10
50.5365
 20
161.427
 11
50.7189
 21
161.473
  0
LINE
  8
0
 10
50.7189
 20
161.473
 11
50.9058
 21
161.497
  0
LINE
  8
0
 10
50.9058
 20
161.497
 11
59.0942
 21
161.497
  0
LINE
  8
0
 10
59.0942
 20
161.497
 11
59.2811
 21
161.473
  0
LINE
  8
0
 10
59.2811
 20
161.473
 11
59.4635
 21
161.427
  0
LINE
  8
0
 10
59.4635
 20
161.427
 11
59.6387
 21
161.357
  0
LINE
  8
0
 10
59.6387
 20
161.357
 11
59.8037
 21
161.266
  0
LINE
  8
0
 10
59.8037
 20
161.266
 11
59.9561
 21
161.156
  0
LINE
  8
0
 10
59.9561
 20
161.156
 11
60.0935
 21
161.027
  0
LINE
  8
0
 10
60.0935
 20
161.027
 11
60.2135
 21
160.882
  0
LINE
  8
0
 10
60.2135
 20
160.882
 11
60.3145
 21
160.723
  0
LINE
  8
0
 10
60.3145
 20
160.723
 11
60.3947
 21
160.552
  0
LINE
  8
0
 10
60.3947
 20
160.552
 11
60.4529
 21
160.373
  0
LINE
  8
0
 10
60.4529
 20
160.373
 11
60.4882
 21
160.188
  0
LINE
  8
0
 10
60.4882
 20
160.188
 11
60.5
 21
160
  0
LINE
  8
0
 10
60.5
 20
160
 11
60.4882
 21
159.812
  0
LINE
  8
0
 10
60.4882
 20
159.812
 11
60.4529
 21
159.627
  0
LINE
  8
0
 10
60.4529
 20
159.627
 11
60.3947
 21
159.448
  0
LINE
  8
0
 10
60.3947
 20
159.448
 11
60.3145
 21
159.277
  0
LINE
  8
0
 10
60.3145
 20
159.277
 11
60.2135
 21
159.118
  0
LINE
  8
0
 10
60.2135
 20
159.118
 11
60.0935
 21
158.973
  0
LINE
  8
0
 10
60.0935
 20
158.973
 11
59.9561
 21
158.844
  0
LINE
  8
0
 10
59.9561
 20
158.844
 11
59.8037
 21
158.734
  0
LINE
  8
0
 10
59.8037
 20
158.734
 11
59.6387
 21
158.643
  0
LINE
  8
0
 10
59.6387
 20
158.643
 11
59.4635
 21
158.573
  0
LINE
  8
0
 10
59.4635
 20
158.573
 11
59.2811
 21
158.527
  0
LINE
  8
0
 10
59.2811
 20
158.527
 11
59.0942
 21
158.503
  0
LINE
  8
0
 10
59.0942
 20
158.503
 11
50.9058
 21
158.503
  0
LINE
  8
0
 10
69.9058
 20
158.503
 11
69.7189
 21
158.527
  0
LINE
  8
0
 10
69.7189
 20
158.527
 11
69.5365
 21
158.573
  0
LINE
  8
0
 10
69.5365
 20
158.573
 11
69.3613
 21
158.643
  0
LINE
  8
0
 10
69.3613
 20
158.643
 11
69.1963
 21
158.734
  0
LINE
  8
0
 10
69.1963
 20
158.734
 11
69.0439
 21
158.844
  0
LINE
  8
0
 10
69.0439
 20
158.844
 11
68.9066
 21
158.973
  0
LINE
  8
0
 10
68.9066
 20
158.973
 11
68.7865
 21
159.118
  0
LINE
  8
0
 10
68.7865
 20
159.118
 11
68.6855
 21
159.277
  0
LINE
  8
0
 10
68.6855
 20
159.277
 11
68.6053
 21
159.448
  0
LINE
  8
0
 10
68.6053
 20
159.448
 11
68.5471
 21
159.627
  0
LINE
  8
0
 10
68.5471
 20
159.627
 11
68.5118
 21
159.812
  0
LINE
  8
0
 10
68.5118
 20
159.812
 11
68.5
 21
160
  0
LINE
  8
0
 10
68.5
 20
160
 11
68.5118
 21
160.188
  0
LINE
  8
0
 10
68.5118
 20
160.188
 11
68.5471
 21
160.373
  0
LINE
  8
0
 10
68.5471
 20
160.373
 11
68.6053
 21
160.552
  0
LINE
  8
0
 10
68.6053
 20
160.552
 11
68.6855
 21
160.723
  0
LINE
  8
0
 10
68.6855
 20
160.723
 11
68.7865
 21
160.882
  0
LINE
  8
0
 10
68.7865
 20
160.882
 11
68.9066
 21
161.027
  0
LINE
  8
0
 10
68.9066
 20
161.027
 11
69.0439
 21
161.156
  0
LINE
  8
0
 10
69.0439
 20
161.156
 11
69.1963
 21
161.266
  0
LINE
  8
0
 10
69.1963
 20
161.266
 11
69.3613
 21
161.357
  0
LINE
  8
0
 10
69.3613
 20
161.357
 11
69.5365
 21
161.427
  0
LINE
  8
0
 10
69.5365
 20
161.427
 11
69.7189
 21
161.473
  0
LINE
  8
0
 10
69.7189
 20
161.473
 11
69.9058
 21
161.497
  0
LINE
  8
0
 10
69.9058
 20
161.497
 11
78.0942
 21
161.497
  0
LINE
  8
0
 10
78.0942
 20
161.497
 11
78.2811
 21
161.473
  0
LINE
  8
0
 10
78.2811
 20
161.473
 11
78.4635
 21
161.427
  0
LINE
  8
0
 10
78.4635
 20
161.427
 11
78.6387
 21
161.357
  0
LINE
  8
0
 10
78.6387
 20
161.357
 11
78.8037
 21
161.266
  0
LINE
  8
0
 10
78.8037
 20
161.266
 11
78.9561
 21
161.156
  0
LINE
  8
0
 10
78.9561
 20
161.156
 11
79.0934
 21
161.027
  0
LINE
  8
0
 10
79.0934
 20
161.027
 11
79.2135
 21
160.882
  0
LINE
  8
0
 10
79.2135
 20
160.882
 11
79.3145
 21
160.723
  0
LINE
  8
0
 10
79.3145
 20
160.723
 11
79.3947
 21
160.552
  0
LINE
  8
0
 10
79.3947
 20
160.552
 11
79.4529
 21
160.373
  0
LINE
  8
0
 10
79.4529
 20
160.373
 11
79.4882
 21
160.188
  0
LINE
  8
0
 10
79.4882
 20
160.188
 11
79.5
 21
160
  0
LINE
  8
0
 10
79.5
 20
160
 11
79.4882
 21
159.812
  0
LINE
  8
0
 10
79.4882
 20
159.812
 11
79.4529
 21
159.627
  0
LINE
  8
0
 10
79.4529
 20
159.627
 11
79.3947
 21
159.448
  0
LINE
  8
0
 10
79.3947
 20
159.448
 11
79.3145
 21
159.277
  0
LINE
  8
0
 10
79.3145
 20
159.277
 11
79.2135
 21
159.118
  0
LINE
  8
0
 10
79.2135
 20
159.118
 11
79.0934
 21
158.973
  0
LINE
  8
0
 10
79.0934
 20
158.973
 11
78.9561
 21
158.844
  0
LINE
  8
0
 10
78.9561
 20
158.844
 11
78.8037
 21
158.734
  0
LINE
  8
0
 10
78.8037
 20
158.734
 11
78.6387
 21
158.643
  0
LINE
  8
0
 10
78.6387
 20
158.643
 11
78.4635
 21
158.573
  0
LINE
  8
0
 10
78.4635
 20
158.573
 11
78.2811
 21
158.527
  0
LINE
  8
0
 10
78.2811
 20
158.527
 11
78.0942
 21
158.503
  0
LINE
  8
0
 10
78.0942
 20
158.503
 11
69.9058
 21
158.503
  0
LINE
  8
0
 10
115.906
 20
158.503
 11
115.719
 21
158.527
  0
LINE
  8
0
 10
115.719
 20
158.527
 11
115.536
 21
158.573
  0
LINE
  8
0
 10
115.536
 20
158.573
 11
115.361
 21
158.643
  0
LINE
  8
0
 10
115.361
 20
158.643
 11
115.196
 21
158.734
  0
LINE
  8
0
 10
115.196
 20
158.734
 11
115.044
 21
158.844
  0
LINE
  8
0
 10
115.044
 20
158.844
 11
114.907
 21
158.973
  0
LINE
  8
0
 10
114.907
 20
158.973
 11
114.786
 21
159.118
  0
LINE
  8
0
 10
114.786
 20
159.118
 11
114.686
 21
159.277
  0
LINE
  8
0
 10
114.686
 20
159.277
 11
114.605
 21
159.448
  0
LINE
  8
0
 10
114.605
 20
159.448
 11
114.547
 21
159.627
  0
LINE
  8
0
 10
114.547
 20
159.627
 11
114.512
 21
159.812
  0
LINE
  8
0
 10
114.512
 20
159.812
 11
114.5
 21
160
  0
LINE
  8
0
 10
114.5
 20
160
 11
114.512
 21
160.188
  0
LINE
  8
0
 10
114.512
 20
160.188
 11
114.547
 21
160.373
  0
LINE
  8
0
 10
114.547
 20
160.373
 11
114.605
 21
160.552
  0
LINE
  8
0
 10
114.605
 20
160.552
 11
114.686
 21
160.723
  0
LINE
  8
0
 10
114.686
 20
160.723
 11
114.786
 21
160.882
  0
LINE
  8
0
 10
114.786
 20
160.882
 11
114.907
 21
161.027
  0
LINE
  8
0
 10
114.907
 20
161.027
 11
115.044
 21
161.156
  0
LINE
  8
0
 10
115.044
 20
161.156
 11
115.196
 21
161.266
  0
LINE
  8
0
 10
115.196
 20
161.266
 11
115.361
 21
161.357
  0
LINE
  8
0
 10
115.361
 20
161.357
 11
115.536
 21
161.427
  0
LINE
  8
0
 10
115.536
 20
161.427
 11
115.719
 21
161.473
  0
LINE
  8
0
 10
115.719
 20
161.473
 11
115.906
 21
161.497
  0
LINE
  8
0
 10
115.906
 20
161.497
 11
124.094
 21
161.497
  0
LINE
  8
0
 10
124.094
 20
161.497
 11
124.281
 21
161.473
  0
LINE
  8
0
 10
124.281
 20
161.473
 11
124.464
 21
161.427
  0
LINE
  8
0
 10
124.464
 20
161.427
 11
124.639
 21
161.357
  0
LINE
  8
0
 10
124.639
 20
161.357
 11
124.804
 21
161.266
  0
LINE
  8
0
 10
124.804
 20
161.266
 11
124.956
 21
161.156
  0
LINE
  8
0
 10
124.956
 20
161.156
 11
125.093
 21
161.027
  0
LINE
  8
0
 10
125.093
 20
161.027
 11
125.214
 21
160.882
  0
LINE
  8
0
 10
125.214
 20
160.882
 11
125.314
 21
160.723
  0
LINE
  8
0
 10
125.314
 20
160.723
 11
125.395
 21
160.552
  0
LINE
  8
0
 10
125.395
 20
160.552
 11
125.453
 21
160.373
  0
LINE
  8
0
 10
125.453
 20
160.373
 11
125.488
 21
160.188
  0
LINE
  8
0
 10
125.488
 20
160.188
 11
125.5
 21
160
  0
LINE
  8
0
 10
125.5
 20
160
 11
125.488
 21
159.812
  0
LINE
  8
0
 10
125.488
 20
159.812
 11
125.453
 21
159.627
  0
LINE
  8
0
 10
125.453
 20
159.627
 11
125.395
 21
159.448
  0
LINE
  8
0
 10
125.395
 20
159.448
 11
125.314
 21
159.277
  0
LINE
  8
0
 10
125.314
 20
159.277
 11
125.214
 21
159.118
  0
LINE
  8
0
 10
125.214
 20
159.118
 11
125.093
 21
158.973
  0
LINE
  8
0
 10
125.093
 20
158.973
 11
124.956
 21
158.844
  0
LINE
  8
0
 10
124.956
 20
158.844
 11
124.804
 21
158.734
  0
LINE
  8
0
 10
124.804
 20
158.734
 11
124.639
 21
158.643
  0
LINE
  8
0
 10
124.639
 20
158.643
 11
124.464
 21
158.573
  0
LINE
  8
0
 10
124.464
 20
158.573
 11
124.281
 21
158.527
  0
LINE
  8
0
 10
124.281
 20
158.527
 11
124.094
 21
158.503
  0
LINE
  8
0
 10
124.094
 20
158.503
 11
115.906
 21
158.503
  0
LINE
  8
0
 10
-59.0942
 20
158.503
 11
-59.2811
 21
158.527
  0
LINE
  8
0
 10
-59.2811
 20
158.527
 11
-59.4635
 21
158.573
  0
LINE
  8
0
 10
-59.4635
 20
158.573
 11
-59.6387
 21
158.643
  0
LINE
  8
0
 10
-59.6387
 20
158.643
 11
-59.8037
 21
158.734
  0
LINE
  8
0
 10
-59.8037
 20
158.734
 11
-59.9561
 21
158.844
  0
LINE
  8
0
 10
-59.9561
 20
158.844
 11
-60.0935
 21
158.973
  0
LINE
  8
0
 10
-60.0935
 20
158.973
 11
-60.2135
 21
159.118
  0
LINE
  8
0
 10
-60.2135
 20
159.118
 11
-60.3145
 21
159.277
  0
LINE
  8
0
 10
-60.3145
 20
159.277
 11
-60.3947
 21
159.448
  0
LINE
  8
0
 10
-60.3947
 20
159.448
 11
-60.4529
 21
159.627
  0
LINE
  8
0
 10
-60.4529
 20
159.627
 11
-60.4882
 21
159.812
  0
LINE
  8
0
 10
-60.4882
 20
159.812
 11
-60.5
 21
160
  0
LINE
  8
0
 10
-60.5
 20
160
 11
-60.4882
 21
160.188
  0
LINE
  8
0
 10
-60.4882
 20
160.188
 11
-60.4529
 21
160.373
  0
LINE
  8
0
 10
-60.4529
 20
160.373
 11
-60.3947
 21
160.552
  0
LINE
  8
0
 10
-60.3947
 20
160.552
 11
-60.3145
 21
160.723
  0
LINE
  8
0
 10
-60.3145
 20
160.723
 11
-60.2135
 21
160.882
  0
LINE
  8
0
 10
-60.2135
 20
160.882
 11
-60.0935
 21
161.027
  0
LINE
  8
0
 10
-60.0935
 20
161.027
 11
-59.9561
 21
161.156
  0
LINE
  8
0
 10
-59.9561
 20
161.156
 11
-59.8037
 21
161.266
  0
LINE
  8
0
 10
-59.8037
 20
161.266
 11
-59.6387
 21
161.357
  0
LINE
  8
0
 10
-59.6387
 20
161.357
 11
-59.4635
 21
161.427
  0
LINE
  8
0
 10
-59.4635
 20
161.427
 11
-59.2811
 21
161.473
  0
LINE
  8
0
 10
-59.2811
 20
161.473
 11
-59.0942
 21
161.497
  0
LINE
  8
0
 10
-59.0942
 20
161.497
 11
-50.9058
 21
161.497
  0
LINE
  8
0
 10
-50.9058
 20
161.497
 11
-50.7189
 21
161.473
  0
LINE
  8
0
 10
-50.7189
 20
161.473
 11
-50.5365
 21
161.427
  0
LINE
  8
0
 10
-50.5365
 20
161.427
 11
-50.3613
 21
161.357
  0
LINE
  8
0
 10
-50.3613
 20
161.357
 11
-50.1963
 21
161.266
  0
LINE
  8
0
 10
-50.1963
 20
161.266
 11
-50.0439
 21
161.156
  0
LINE
  8
0
 10
-50.0439
 20
161.156
 11
-49.9066
 21
161.027
  0
LINE
  8
0
 10
-49.9066
 20
161.027
 11
-49.7865
 21
160.882
  0
LINE
  8
0
 10
-49.7865
 20
160.882
 11
-49.6855
 21
160.723
  0
LINE
  8
0
 10
-49.6855
 20
160.723
 11
-49.6053
 21
160.552
  0
LINE
  8
0
 10
-49.6053
 20
160.552
 11
-49.5471
 21
160.373
  0
LINE
  8
0
 10
-49.5471
 20
160.373
 11
-49.5118
 21
160.188
  0
LINE
  8
0
 10
-49.5118
 20
160.188
 11
-49.5
 21
160
  0
LINE
  8
0
 10
-49.5
 20
160
 11
-49.5118
 21
159.812
  0
LINE
  8
0
 10
-49.5118
 20
159.812
 11
-49.5471
 21
159.627
  0
LINE
  8
0
 10
-49.5471
 20
159.627
 11
-49.6053
 21
159.448
  0
LINE
  8
0
 10
-49.6053
 20
159.448
 11
-49.6855
 21
159.277
  0
LINE
  8
0
 10
-49.6855
 20
159.277
 11
-49.7865
 21
159.118
  0
LINE
  8
0
 10
-49.7865
 20
159.118
 11
-49.9066
 21
158.973
  0
LINE
  8
0
 10
-49.9066
 20
158.973
 11
-50.0439
 21
158.844
  0
LINE
  8
0
 10
-50.0439
 20
158.844
 11
-50.1963
 21
158.734
  0
LINE
  8
0
 10
-50.1963
 20
158.734
 11
-50.3613
 21
158.643
  0
LINE
  8
0
 10
-50.3613
 20
158.643
 11
-50.5365
 21
158.573
  0
LINE
  8
0
 10
-50.5365
 20
158.573
 11
-50.7189
 21
158.527
  0
LINE
  8
0
 10
-50.7189
 20
158.527
 11
-50.9058
 21
158.503
  0
LINE
  8
0
 10
-50.9058
 20
158.503
 11
-59.0942
 21
158.503
  0
LINE
  8
0
 10
-78.0942
 20
158.503
 11
-78.2811
 21
158.527
  0
LINE
  8
0
 10
-78.2811
 20
158.527
 11
-78.4635
 21
158.573
  0
LINE
  8
0
 10
-78.4635
 20
158.573
 11
-78.6387
 21
158.643
  0
LINE
  8
0
 10
-78.6387
 20
158.643
 11
-78.8037
 21
158.734
  0
LINE
  8
0
 10
-78.8037
 20
158.734
 11
-78.9561
 21
158.844
  0
LINE
  8
0
 10
-78.9561
 20
158.844
 11
-79.0934
 21
158.973
  0
LINE
  8
0
 10
-79.0934
 20
158.973
 11
-79.2135
 21
159.118
  0
LINE
  8
0
 10
-79.2135
 20
159.118
 11
-79.3145
 21
159.277
  0
LINE
  8
0
 10
-79.3145
 20
159.277
 11
-79.3947
 21
159.448
  0
LINE
  8
0
 10
-79.3947
 20
159.448
 11
-79.4529
 21
159.627
  0
LINE
  8
0
 10
-79.4529
 20
159.627
 11
-79.4882
 21
159.812
  0
LINE
  8
0
 10
-79.4882
 20
159.812
 11
-79.5
 21
160
  0
LINE
  8
0
 10
-79.5
 20
160
 11
-79.4882
 21
160.188
  0
LINE
  8
0
 10
-79.4882
 20
160.188
 11
-79.4529
 21
160.373
  0
LINE
  8
0
 10
-79.4529
 20
160.373
 11
-79.3947
 21
160.552
  0
LINE
  8
0
 10
-79.3947
 20
160.552
 11
-79.3145
 21
160.723
  0
LINE
  8
0
 10
-79.3145
 20
160.723
 11
-79.2135
 21
160.882
  0
LINE
  8
0
 10
-79.2135
 20
160.882
 11
-79.0934
 21
161.027
  0
LINE
  8
0
 10
-79.0934
 20
161.027
 11
-78.9561
 21
161.156
  0
LINE
  8
0
 10
-78.9561
 20
161.156
 11
-78.8037
 21
161.266
  0
LINE
  8
0
 10
-78.8037
 20
161.266
 11
-78.6387
 21
161.357
  0
LINE
  8
0
 10
-78.6387
 20
161.357
 11
-78.4635
 21
161.427
  0
LINE
  8
0
 10
-78.4635
 20
161.427
 11
-78.2811
 21
161.473
  0
LINE
  8
0
 10
-78.2811
 20
161.473
 11
-78.0942
 21
161.497
  0
LINE
  8
0
 10
-78.0942
 20
161.497
 11
-69.9058
 21
161.497
  0
LINE
  8
0
 10
-69.9058
 20
161.497
 11
-69.7189
 21
161.473
  0
LINE
  8
0
 10
-69.7189
 20
161.473
 11
-69.5365
 21
161.427
  0
LINE
  8
0
 10
-69.5365
 20
161.427
 11
-69.3613
 21
161.357
  0
LINE
  8
0
 10
-69.3613
 20
161.357
 11
-69.1963
 21
161.266
  0
LINE
  8
0
 10
-69.1963
 20
161.266
 11
-69.0439
 21
161.156
  0
LINE
  8
0
 10
-69.0439
 20
161.156
 11
-68.9066
 21
161.027
  0
LINE
  8
0
 10
-68.9066
 20
161.027
 11
-68.7865
 21
160.882
  0
LINE
  8
0
 10
-68.7865
 20
160.882
 11
-68.6855
 21
160.723
  0
LINE
  8
0
 10
-68.6855
 20
160.723
 11
-68.6053
 21
160.552
  0
LINE
  8
0
 10
-68.6053
 20
160.552
 11
-68.5471
 21
160.373
  0
LINE
  8
0
 10
-68.5471
 20
160.373
 11
-68.5118
 21
160.188
  0
LINE
  8
0
 10
-68.5118
 20
160.188
 11
-68.5
 21
160
  0
LINE
  8
0
 10
-68.5
 20
160
 11
-68.5118
 21
159.812
  0
LINE
  8
0
 10
-68.5118
 20
159.812
 11
-68.5471
 21
159.627
  0
LINE
  8
0
 10
-68.5471
 20
159.627
 11
-68.6053
 21
159.448
  0
LINE
  8
0
 10
-68.6053
 20
159.448
 11
-68.6855
 21
159.277
  0
LINE
  8
0
 10
-68.6855
 20
159.277
 11
-68.7865
 21
159.118
  0
LINE
  8
0
 10
-68.7865
 20
159.118
 11
-68.9066
 21
158.973
  0
LINE
  8
0
 10
-68.9066
 20
158.973
 11
-69.0439
 21
158.844
  0
LINE
  8
0
 10
-69.0439
 20
158.844
 11
-69.1963
 21
158.734
  0
LINE
  8
0
 10
-69.1963
 20
158.734
 11
-69.3613
 21
158.643
  0
LINE
  8
0
 10
-69.3613
 20
158.643
 11
-69.5365
 21
158.573
  0
LINE
  8
0
 10
-69.5365
 20
158.573
 11
-69.7189
 21
158.527
  0
LINE
  8
0
 10
-69.7189
 20
158.527
 11
-69.9058
 21
158.503
  0
LINE
  8
0
 10
-69.9058
 20
158.503
 11
-78.0942
 21
158.503
  0
LINE
  8
0
 10
-124.094
 20
158.503
 11
-124.281
 21
158.527
  0
LINE
  8
0
 10
-124.281
 20
158.527
 11
-124.464
 21
158.573
  0
LINE
  8
0
 10
-124.464
 20
158.573
 11
-124.639
 21
158.643
  0
LINE
  8
0
 10
-124.639
 20
158.643
 11
-124.804
 21
158.734
  0
LINE
  8
0
 10
-124.804
 20
158.734
 11
-124.956
 21
158.844
  0
LINE
  8
0
 10
-124.956
 20
158.844
 11
-125.093
 21
158.973
  0
LINE
  8
0
 10
-125.093
 20
158.973
 11
-125.214
 21
159.118
  0
LINE
  8
0
 10
-125.214
 20
159.118
 11
-125.314
 21
159.277
  0
LINE
  8
0
 10
-125.314
 20
159.277
 11
-125.395
 21
159.448
  0
LINE
  8
0
 10
-125.395
 20
159.448
 11
-125.453
 21
159.627
  0
LINE
  8
0
 10
-125.453
 20
159.627
 11
-125.488
 21
159.812
  0
LINE
  8
0
 10
-125.488
 20
159.812
 11
-125.5
 21
160
  0
LINE
  8
0
 10
-125.5
 20
160
 11
-125.488
 21
160.188
  0
LINE
  8
0
 10
-125.488
 20
160.188
 11
-125.453
 21
160.373
  0
LINE
  8
0
 10
-125.453
 20
160.373
 11
-125.395
 21
160.552
  0
LINE
  8
0
 10
-125.395
 20
160.552
 11
-125.314
 21
160.723
  0
LINE
  8
0
 10
-125.314
 20
160.723
 11
-125.214
 21
160.882
  0
LINE
  8
0
 10
-125.214
 20
160.882
 11
-125.093
 21
161.027
  0
LINE
  8
0
 10
-125.093
 20
161.027
 11
-124.956
 21
161.156
  0
LINE
  8
0
 10
-124.956
 20
161.156
 11
-124.804
 21
161.266
  0
LINE
  8
0
 10
-124.804
 20
161.266
 11
-124.639
 21
161.357
  0
LINE
  8
0
 10
-124.639
 20
161.357
 11
-124.464
 21
161.427
  0
LINE
  8
0
 10
-124.464
 20
161.427
 11
-124.281
 21
161.473
  0
LINE
  8
0
 10
-124.281
 20
161.473
 11
-124.094
 21
161.497
  0
LINE
  8
0
 10
-124.094
 20
161.497
 11
-115.906
 21
161.497
  0
LINE
  8
0
 10
-115.906
 20
161.497
 11
-115.719
 21
161.473
  0
LINE
  8
0
 10
-115.719
 20
161.473
 11
-115.536
 21
161.427
  0
LINE
  8
0
 10
-115.536
 20
161.427
 11
-115.361
 21
161.357
  0
LINE
  8
0
 10
-115.361
 20
161.357
 11
-115.196
 21
161.266
  0
LINE
  8
0
 10
-115.196
 20
161.266
 11
-115.044
 21
161.156
  0
LINE
  8
0
 10
-115.044
 20
161.156
 11
-114.907
 21
161.027
  0
LINE
  8
0
 10
-114.907
 20
161.027
 11
-114.786
 21
160.882
  0
LINE
  8
0
 10
-114.786
 20
160.882
 11
-114.686
 21
160.723
  0
LINE
  8
0
 10
-114.686
 20
160.723
 11
-114.605
 21
160.552
  0
LINE
  8
0
 10
-114.605
 20
160.552
 11
-114.547
 21
160.373
  0
LINE
  8
0
 10
-114.547
 20
160.373
 11
-114.512
 21
160.188
  0
LINE
  8
0
 10
-114.512
 20
160.188
 11
-114.5
 21
160
  0
LINE
  8
0
 10
-114.5
 20
160
 11
-114.512
 21
159.812
  0
LINE
  8
0
 10
-114.512
 20
159.812
 11
-114.547
 21
159.627
  0
LINE
  8
0
 10
-114.547
 20
159.627
 11
-114.605
 21
159.448
  0
LINE
  8
0
 10
-114.605
 20
159.448
 11
-114.686
 21
159.277
  0
LINE
  8
0
 10
-114.686
 20
159.277
 11
-114.786
 21
159.118
  0
LINE
  8
0
 10
-114.786
 20
159.118
 11
-114.907
 21
158.973
  0
LINE
  8
0
 10
-114.907
 20
158.973
 11
-115.044
 21
158.844
  0
LINE
  8
0
 10
-115.044
 20
158.844
 11
-115.196
 21
158.734
  0
LINE
  8
0
 10
-115.196
 20
158.734
 11
-115.361
 21
158.643
  0
LINE
  8
0
 10
-115.361
 20
158.643
 11
-115.536
 21
158.573
  0
LINE
  8
0
 10
-115.536
 20
158.573
 11
-115.719
 21
158.527
  0
LINE
  8
0
 10
-115.719
 20
158.527
 11
-115.906
 21
158.503
  0
LINE
  8
0
 10
-115.906
 20
158.503
 11
-124.094
 21
158.503
  0
LINE
  8
0
 10
-0.25116
 20
119.008
 11
-0.749512
 21
119.071
  0
LINE
  8
0
 10
-0.749512
 20
119.071
 11
-1.23605
 21
119.196
  0
LINE
  8
0
 10
-1.23605
 20
119.196
 11
-1.70311
 21
119.381
  0
LINE
  8
0
 10
-1.70311
 20
119.381
 11
-2.1433
 21
119.623
  0
LINE
  8
0
 10
-2.1433
 20
119.623
 11
-2.54968
 21
119.918
  0
LINE
  8
0
 10
-2.54968
 20
119.918
 11
-2.91586
 21
120.262
  0
LINE
  8
0
 10
-2.91586
 20
120.262
 11
-3.23605
 21
120.649
  0
LINE
  8
0
 10
-3.23605
 20
120.649
 11
-3.50522
 21
121.073
  0
LINE
  8
0
 10
-3.50522
 20
121.073
 11
-3.7191
 21
121.527
  0
LINE
  8
0
 10
-3.7191
 20
121.527
 11
-3.87433
 21
122.005
  0
LINE
  8
0
 10
-3.87433
 20
122.005
 11
-3.96844
 21
122.499
  0
LINE
  8
0
 10
-3.96844
 20
122.499
 11
-4
 21
123
  0
LINE
  8
0
 10
-4
 20
123
 11
-3.96844
 21
123.501
  0
LINE
  8
0
 10
-3.96844
 20
123.501
 11
-3.87433
 21
123.995
  0
LINE
  8
0
 10
-3.87433
 20
123.995
 11
-3.7191
 21
124.472
  0
LINE
  8
0
 10
-3.7191
 20
124.472
 11
-3.50522
 21
124.927
  0
LINE
  8
0
 10
-3.50522
 20
124.927
 11
-3.23605
 21
125.351
  0
LINE
  8
0
 10
-3.23605
 20
125.351
 11
-2.91586
 21
125.738
  0
LINE
  8
0
 10
-2.91586
 20
125.738
 11
-2.54968
 21
126.082
  0
LINE
  8
0
 10
-2.54968
 20
126.082
 11
-2.1433
 21
126.377
  0
LINE
  8
0
 10
-2.1433
 20
126.377
 11
-1.70311
 21
126.619
  0
LINE
  8
0
 10
-1.70311
 20
126.619
 11
-1.23605
 21
126.804
  0
LINE
  8
0
 10
-1.23605
 20
126.804
 11
-0.749512
 21
126.929
  0
LINE
  8
0
 10
-0.749512
 20
126.929
 11
-0.25116
 21
126.992
  0
LINE
  8
0
 10
-0.25116
 20
126.992
 11
0.25116
 21
126.992
  0
LINE
  8
0
 10
0.25116
 20
126.992
 11
0.749512
 21
126.929
  0
LINE
  8
0
 10
0.749512
 20
126.929
 11
1.23605
 21
126.804
  0
LINE
  8
0
 10
1.23605
 20
126.804
 11
1.70311
 21
126.619
  0
LINE
  8
0
 10
1.70311
 20
126.619
 11
2.1433
 21
126.377
  0
LINE
  8
0
 10
2.1433
 20
126.377
 11
2.54968
 21
126.082
  0
LINE
  8
0
 10
2.54968
 20
126.082
 11
2.91586
 21
125.738
  0
LINE
  8
0
 10
2.91586
 20
125.738
 11
3.23605
 21
125.351
  0
LINE
  8
0
 10
3.23605
 20
125.351
 11
3.50522
 21
124.927
  0
LINE
  8
0
 10
3.50522
 20
124.927
 11
3.7191
 21
124.472
  0
LINE
  8
0
 10
3.7191
 20
124.472
 11
3.87433
 21
123.995
  0
LINE
  8
0
 10
3.87433
 20
123.995
 11
3.96844
 21
123.501
  0
LINE
  8
0
 10
3.96844
 20
123.501
 11
4
 21
123
  0
LINE
  8
0
 10
4
 20
123
 11
3.96844
 21
122.499
  0
LINE
  8
0
 10
3.96844
 20
122.499
 11
3.87433
 21
122.005
  0
LINE
  8
0
 10
3.87433
 20
122.005
 11
3.7191
 21
121.527
  0
LINE
  8
0
 10
3.7191
 20
121.527
 11
3.50522
 21
121.073
  0
LINE
  8
0
 10
3.50522
 20
121.073
 11
3.23605
 21
120.649
  0
LINE
  8
0
 10
3.23605
 20
120.649
 11
2.91586
 21
120.262
  0
LINE
  8
0
 10
2.91586
 20
120.262
 11
2.54968
 21
119.918
  0
LINE
  8
0
 10
2.54968
 20
119.918
 11
2.1433
 21
119.623
  0
LINE
  8
0
 10
2.1433
 20
119.623
 11
1.70311
 21
119.381
  0
LINE
  8
0
 10
1.70311
 20
119.381
 11
1.23605
 21
119.196
  0
LINE
  8
0
 10
1.23605
 20
119.196
 11
0.749512
 21
119.071
  0
LINE
  8
0
 10
0.749512
 20
119.071
 11
0.25116
 21
119.008
  0
LINE
  8
0
 10
0.25116
 20
119.008
 11
-0.25116
 21
119.008
  0
LINE
  8
0
 10
-17.0027
 20
26.7831
 11
-17.9895
 21
26.9713
  0
LINE
  8
0
 10
-17.9895
 20
26.9713
 11
-18.945
 21
27.2818
  0
LINE
  8
0
 10
-18.945
 20
27.2818
 11
-19.854
 21
27.7095
  0
LINE
  8
0
 10
-19.854
 20
27.7095
 11
-20.7023
 21
28.2479
  0
LINE
  8
0
 10
-20.7023
 20
28.2479
 11
-21.4764
 21
28.8882
  0
LINE
  8
0
 10
-21.4764
 20
28.8882
 11
-82.4441
 21
93.9006
  0
LINE
  8
0
 10
-82.4441
 20
93.9006
 11
-83.0346
 21
94.7134
  0
LINE
  8
0
 10
-83.0346
 20
94.7134
 11
-83.5186
 21
95.5938
  0
LINE
  8
0
 10
-83.5186
 20
95.5938
 11
-83.8884
 21
96.5279
  0
LINE
  8
0
 10
-83.8884
 20
96.5279
 11
-84.1383
 21
97.5009
  0
LINE
  8
0
 10
-84.1383
 20
97.5009
 11
-84.2642
 21
98.4977
  0
LINE
  8
0
 10
-84.2642
 20
98.4977
 11
-84.2642
 21
99.5023
  0
LINE
  8
0
 10
-84.2642
 20
99.5023
 11
-84.1383
 21
100.499
  0
LINE
  8
0
 10
-84.1383
 20
100.499
 11
-83.8884
 21
101.472
  0
LINE
  8
0
 10
-83.8884
 20
101.472
 11
-83.5186
 21
102.406
  0
LINE
  8
0
 10
-83.5186
 20
102.406
 11
-83.0346
 21
103.287
  0
LINE
  8
0
 10
-83.0346
 20
103.287
 11
-82.4441
 21
104.099
  0
LINE
  8
0
 10
-82.4441
 20
104.099
 11
-81.7564
 21
104.832
  0
LINE
  8
0
 10
-81.7564
 20
104.832
 11
-80.9823
 21
105.472
  0
LINE
  8
0
 10
-80.9823
 20
105.472
 11
-80.134
 21
106.01
  0
LINE
  8
0
 10
-80.134
 20
106.01
 11
-79.225
 21
106.438
  0
LINE
  8
0
 10
-79.225
 20
106.438
 11
-78.2695
 21
106.749
  0
LINE
  8
0
 10
-78.2695
 20
106.749
 11
-77.2827
 21
106.937
  0
LINE
  8
0
 10
-77.2827
 20
106.937
 11
-76.28
 21
107
  0
LINE
  8
0
 10
-76.28
 20
107
 11
-16
 21
107
  0
LINE
  8
0
 10
-16
 20
107
 11
-14.9973
 21
106.937
  0
LINE
  8
0
 10
-14.9973
 20
106.937
 11
-14.0105
 21
106.749
  0
LINE
  8
0
 10
-14.0105
 20
106.749
 11
-13.055
 21
106.438
  0
LINE
  8
0
 10
-13.055
 20
106.438
 11
-12.146
 21
106.01
  0
LINE
  8
0
 10
-12.146
 20
106.01
 11
-11.2977
 21
105.472
  0
LINE
  8
0
 10
-11.2977
 20
105.472
 11
-10.5236
 21
104.832
  0
LINE
  8
0
 10
-10.5236
 20
104.832
 11
-9.83589
 21
104.099
  0
LINE
  8
0
 10
-9.83589
 20
104.099
 11
-9.24538
 21
103.287
  0
LINE
  8
0
 10
-9.24538
 20
103.287
 11
-8.76138
 21
102.406
  0
LINE
  8
0
 10
-8.76138
 20
102.406
 11
-8.39154
 21
101.472
  0
LINE
  8
0
 10
-8.39154
 20
101.472
 11
-8.14169
 21
100.499
  0
LINE
  8
0
 10
-8.14169
 20
100.499
 11
-8.01578
 21
99.5023
  0
LINE
  8
0
 10
-8.01578
 20
99.5023
 11
-8.01578
 21
34.2177
  0
LINE
  8
0
 10
-8.01578
 20
34.2177
 11
-8.14169
 21
33.2209
  0
LINE
  8
0
 10
-8.14169
 20
33.2209
 11
-8.39154
 21
32.2479
  0
LINE
  8
0
 10
-8.39154
 20
32.2479
 11
-8.76138
 21
31.3138
  0
LINE
  8
0
 10
-8.76138
 20
31.3138
 11
-9.24538
 21
30.4334
  0
LINE
  8
0
 10
-9.24538
 20
30.4334
 11
-9.83589
 21
29.6206
  0
LINE
  8
0
 10
-9.83589
 20
29.6206
 11
-10.5236
 21
28.8882
  0
LINE
  8
0
 10
-10.5236
 20
28.8882
 11
-11.2977
 21
28.2479
  0
LINE
  8
0
 10
-11.2977
 20
28.2479
 11
-12.146
 21
27.7095
  0
LINE
  8
0
 10
-12.146
 20
27.7095
 11
-13.055
 21
27.2818
  0
LINE
  8
0
 10
-13.055
 20
27.2818
 11
-14.0105
 21
26.9713
  0
LINE
  8
0
 10
-14.0105
 20
26.9713
 11
-14.9973
 21
26.7831
  0
LINE
  8
0
 10
-14.9973
 20
26.7831
 11
-16
 21
26.72
  0
LINE
  8
0
 10
-16
 20
26.72
 11
-17.0027
 21
26.7831
  0
LINE
  8
0
 10
14.9973
 20
26.7831
 11
14.0105
 21
26.9713
  0
LINE
  8
0
 10
14.0105
 20
26.9713
 11
13.055
 21
27.2818
  0
LINE
  8
0
 10
13.055
 20
27.2818
 11
12.146
 21
27.7095
  0
LINE
  8
0
 10
12.146
 20
27.7095
 11
11.2977
 21
28.2479
  0
LINE
  8
0
 10
11.2977
 20
28.2479
 11
10.5236
 21
28.8882
  0
LINE
  8
0
 10
10.5236
 20
28.8882
 11
9.83589
 21
29.6206
  0
LINE
  8
0
 10
9.83589
 20
29.6206
 11
9.24538
 21
30.4334
  0
LINE
  8
0
 10
9.24538
 20
30.4334
 11
8.76138
 21
31.3138
  0
LINE
  8
0
 10
8.76138
 20
31.3138
 11
8.39154
 21
32.2479
  0
LINE
  8
0
 10
8.39154
 20
32.2479
 11
8.14169
 21
33.2209
  0
LINE
  8
0
 10
8.14169
 20
33.2209
 11
8.01578
 21
34.2177
  0
LINE
  8
0
 10
8.01578
 20
34.2177
 11
8.01578
 21
99.5023
  0
LINE
  8
0
 10
8.01578
 20
99.5023
 11
8.14169
 21
100.499
  0
LINE
  8
0
 10
8.14169
 20
100.499
 11
8.39154
 21
101.472
  0
LINE
  8
0
 10
8.39154
 20
101.472
 11
8.76138
 21
102.406
  0
LINE
  8
0
 10
8.76138
 20
102.406
 11
9.24538
 21
103.287
  0
LINE
  8
0
 10
9.24538
 20
103.287
 11
9.83589
 21
104.099
  0
LINE
  8
0
 10
9.83589
 20
104.099
 11
10.5236
 21
104.832
  0
LINE
  8
0
 10
10.5236
 20
104.832
 11
11.2977
 21
105.472
  0
LINE
  8
0
 10
11.2977
 20
105.472
 11
12.146
 21
106.01
  0
LINE
  8
0
 10
12.146
 20
106.01
 11
13.055
 21
106.438
  0
LINE
  8
0
 10
13.055
 20
106.438
 11
14.0105
 21
106.749
  0
LINE
  8
0
 10
14.0105
 20
106.749
 11
14.9973
 21
106.937
  0
LINE
  8
0
 10
14.9973
 20
106.937
 11
16
 21
107
  0
LINE
  8
0
 10
16
 20
107
 11
76.28
 21
107
  0
LINE
  8
0
 10
76.28
 20
107
 11
77.2827
 21
106.937
  0
LINE
  8
0
 10
77.2827
 20
106.937
 11
78.2695
 21
106.749
  0
LINE
  8
0
 10
78.2695
 20
106.749
 11
79.225
 21
106.438
  0
LINE
  8
0
 10
79.225
 20
106.438
 11
80.134
 21
106.01
  0
LINE
  8
0
 10
80.134
 20
106.01
 11
80.9823
 21
105.472
  0
LINE
  8
0
 10
80.9823
 20
105.472
 11
81.7564
 21
104.832
  0
LINE
  8
0
 10
81.7564
 20
104.832
 11
82.4441
 21
104.099
  0
LINE
  8
0
 10
82.4441
 20
104.099
 11
83.0346
 21
103.287
  0
LINE
  8
0
 10
83.0346
 20
103.287
 11
83.5186
 21
102.406
  0
LINE
  8
0
 10
83.5186
 20
102.406
 11
83.8884
 21
101.472
  0
LINE
  8
0
 10
83.8884
 20
101.472
 11
84.1383
 21
100.499
  0
LINE
  8
0
 10
84.1383
 20
100.499
 11
84.2642
 21
99.5023
  0
LINE
  8
0
 10
84.2642
 20
99.5023
 11
84.2642
 21
98.4977
  0
LINE
  8
0
 10
84.2642
 20
98.4977
 11
84.1383
 21
97.5009
  0
LINE
  8
0
 10
84.1383
 20
97.5009
 11
83.8884
 21
96.5279
  0
LINE
  8
0
 10
83.8884
 20
96.5279
 11
83.5186
 21
95.5938
  0
LINE
  8
0
 10
83.5186
 20
95.5938
 11
83.0346
 21
94.7134
  0
LINE
  8
0
 10
83.0346
 20
94.7134
 11
82.4441
 21
93.9006
  0
LINE
  8
0
 10
82.4441
 20
93.9006
 11
21.4764
 21
28.8882
  0
LINE
  8
0
 10
21.4764
 20
28.8882
 11
20.7023
 21
28.2479
  0
LINE
  8
0
 10
20.7023
 20
28.2479
 11
19.854
 21
27.7095
  0
LINE
  8
0
 10
19.854
 20
27.7095
 11
18.945
 21
27.2818
  0
LINE
  8
0
 10
18.945
 20
27.2818
 11
17.9895
 21
26.9713
  0
LINE
  8
0
 10
17.9895
 20
26.9713
 11
17.0027
 21
26.7831
  0
LINE
  8
0
 10
17.0027
 20
26.7831
 11
16
 21
26.72
  0
LINE
  8
0
 10
16
 20
26.72
 11
14.9973
 21
26.7831
  0
LINE
  8
0
 10
-0.0941772
 20
103.003
 11
-0.281067
 21
103.027
  0
LINE
  8
0
 10
-0.281067
 20
103.027
 11
-0.463516
 21
103.073
  0
LINE
  8
0
 10
-0.463516
 20
103.073
 11
-0.638657
 21
103.143
  0
LINE
  8
0
 10
-0.638657
 20
103.143
 11
-0.803726
 21
103.234
  0
LINE
  8
0
 10
-0.803726
 20
103.234
 11
-0.956131
 21
103.344
  0
LINE
  8
0
 10
-0.956131
 20
103.344
 11
-1.09344
 21
103.473
  0
LINE
  8
0
 10
-1.09344
 20
103.473
 11
-1.21352
 21
103.618
  0
LINE
  8
0
 10
-1.21352
 20
103.618
 11
-1.31445
 21
103.777
  0
LINE
  8
0
 10
-1.31445
 20
103.777
 11
-1.39465
 21
103.948
  0
LINE
  8
0
 10
-1.39465
 20
103.948
 11
-1.45287
 21
104.127
  0
LINE
  8
0
 10
-1.45287
 20
104.127
 11
-1.48816
 21
104.312
  0
LINE
  8
0
 10
-1.48816
 20
104.312
 11
-1.5
 21
104.5
  0
LINE
  8
0
 10
-1.5
 20
104.5
 11
-1.48816
 21
104.688
  0
LINE
  8
0
 10
-1.48816
 20
104.688
 11
-1.45287
 21
104.873
  0
LINE
  8
0
 10
-1.45287
 20
104.873
 11
-1.39465
 21
105.052
  0
LINE
  8
0
 10
-1.39465
 20
105.052
 11
-1.31445
 21
105.223
  0
LINE
  8
0
 10
-1.31445
 20
105.223
 11
-1.21352
 21
105.382
  0
LINE
  8
0
 10
-1.21352
 20
105.382
 11
-1.09344
 21
105.527
  0
LINE
  8
0
 10
-1.09344
 20
105.527
 11
-0.956131
 21
105.656
  0
LINE
  8
0
 10
-0.956131
 20
105.656
 11
-0.803726
 21
105.766
  0
LINE
  8
0
 10
-0.803726
 20
105.766
 11
-0.638657
 21
105.857
  0
LINE
  8
0
 10
-0.638657
 20
105.857
 11
-0.463516
 21
105.927
  0
LINE
  8
0
 10
-0.463516
 20
105.927
 11
-0.281067
 21
105.973
  0
LINE
  8
0
 10
-0.281067
 20
105.973
 11
-0.0941772
 21
105.997
  0
LINE
  8
0
 10
-0.0941772
 20
105.997
 11
0.0941772
 21
105.997
  0
LINE
  8
0
 10
0.0941772
 20
105.997
 11
0.281067
 21
105.973
  0
LINE
  8
0
 10
0.281067
 20
105.973
 11
0.463516
 21
105.927
  0
LINE
  8
0
 10
0.463516
 20
105.927
 11
0.638657
 21
105.857
  0
LINE
  8
0
 10
0.638657
 20
105.857
 11
0.803726
 21
105.766
  0
LINE
  8
0
 10
0.803726
 20
105.766
 11
0.956131
 21
105.656
  0
LINE
  8
0
 10
0.956131
 20
105.656
 11
1.09344
 21
105.527
  0
LINE
  8
0
 10
1.09344
 20
105.527
 11
1.21352
 21
105.382
  0
LINE
  8
0
 10
1.21352
 20
105.382
 11
1.31445
 21
105.223
  0
LINE
  8
0
 10
1.31445
 20
105.223
 11
1.39465
 21
105.052
  0
LINE
  8
0
 10
1.39465
 20
105.052
 11
1.45287
 21
104.873
  0
LINE
  8
0
 10
1.45287
 20
104.873
 11
1.48816
 21
104.688
  0
LINE
  8
0
 10
1.48816
 20
104.688
 11
1.5
 21
104.5
  0
LINE
  8
0
 10
1.5
 20
104.5
 11
1.48816
 21
104.312
  0
LINE
  8
0
 10
1.48816
 20
104.312
 11
1.45287
 21
104.127
  0
LINE
  8
0
 10
1.45287
 20
104.127
 11
1.39465
 21
103.948
  0
LINE
  8
0
 10
1.39465
 20
103.948
 11
1.31445
 21
103.777
  0
LINE
  8
0
 10
1.31445
 20
103.777
 11
1.21352
 21
103.618
  0
LINE
  8
0
 10
1.21352
 20
103.618
 11
1.09344
 21
103.473
  0
LINE
  8
0
 10
1.09344
 20
103.473
 11
0.956131
 21
103.344
  0
LINE
  8
0
 10
0.956131
 20
103.344
 11
0.803726
 21
103.234
  0
LINE
  8
0
 10
0.803726
 20
103.234
 11
0.638657
 21
103.143
  0
LINE
  8
0
 10
0.638657
 20
103.143
 11
0.463516
 21
103.073
  0
LINE
  8
0
 10
0.463516
 20
103.073
 11
0.281067
 21
103.027
  0
LINE
  8
0
 10
0.281067
 20
103.027
 11
0.0941772
 21
103.003
  0
LINE
  8
0
 10
0.0941772
 20
103.003
 11
-0.0941772
 21
103.003
  0
LINE
  8
0
 10
-104.594
 20
103.003
 11
-104.781
 21
103.027
  0
LINE
  8
0
 10
-104.781
 20
103.027
 11
-104.964
 21
103.073
  0
LINE
  8
0
 10
-104.964
 20
103.073
 11
-105.139
 21
103.143
  0
LINE
  8
0
 10
-105.139
 20
103.143
 11
-105.304
 21
103.234
  0
LINE
  8
0
 10
-105.304
 20
103.234
 11
-105.456
 21
103.344
  0
LINE
  8
0
 10
-105.456
 20
103.344
 11
-105.593
 21
103.473
  0
LINE
  8
0
 10
-105.593
 20
103.473
 11
-105.714
 21
103.618
  0
LINE
  8
0
 10
-105.714
 20
103.618
 11
-105.814
 21
103.777
  0
LINE
  8
0
 10
-105.814
 20
103.777
 11
-105.895
 21
103.948
  0
LINE
  8
0
 10
-105.895
 20
103.948
 11
-105.953
 21
104.127
  0
LINE
  8
0
 10
-105.953
 20
104.127
 11
-105.988
 21
104.312
  0
LINE
  8
0
 10
-105.988
 20
104.312
 11
-106
 21
104.5
  0
LINE
  8
0
 10
-106
 20
104.5
 11
-105.988
 21
104.688
  0
LINE
  8
0
 10
-105.988
 20
104.688
 11
-105.953
 21
104.873
  0
LINE
  8
0
 10
-105.953
 20
104.873
 11
-105.895
 21
105.052
  0
LINE
  8
0
 10
-105.895
 20
105.052
 11
-105.814
 21
105.223
  0
LINE
  8
0
 10
-105.814
 20
105.223
 11
-105.714
 21
105.382
  0
LINE
  8
0
 10
-105.714
 20
105.382
 11
-105.593
 21
105.527
  0
LINE
  8
0
 10
-105.593
 20
105.527
 11
-105.456
 21
105.656
  0
LINE
  8
0
 10
-105.456
 20
105.656
 11
-105.304
 21
105.766
  0
LINE
  8
0
 10
-105.304
 20
105.766
 11
-105.139
 21
105.857
  0
LINE
  8
0
 10
-105.139
 20
105.857
 11
-104.964
 21
105.927
  0
LINE
  8
0
 10
-104.964
 20
105.927
 11
-104.781
 21
105.973
  0
LINE
  8
0
 10
-104.781
 20
105.973
 11
-104.594
 21
105.997
  0
LINE
  8
0
 10
-104.594
 20
105.997
 11
-104.406
 21
105.997
  0
LINE
  8
0
 10
-104.406
 20
105.997
 11
-104.219
 21
105.973
  0
LINE
  8
0
 10
-104.219
 20
105.973
 11
-104.036
 21
105.927
  0
LINE
  8
0
 10
-104.036
 20
105.927
 11
-103.861
 21
105.857
  0
LINE
  8
0
 10
-103.861
 20
105.857
 11
-103.696
 21
105.766
  0
LINE
  8
0
 10
-103.696
 20
105.766
 11
-103.544
 21
105.656
  0
LINE
  8
0
 10
-103.544
 20
105.656
 11
-103.407
 21
105.527
  0
LINE
  8
0
 10
-103.407
 20
105.527
 11
-103.286
 21
105.382
  0
LINE
  8
0
 10
-103.286
 20
105.382
 11
-103.186
 21
105.223
  0
LINE
  8
0
 10
-103.186
 20
105.223
 11
-103.105
 21
105.052
  0
LINE
  8
0
 10
-103.105
 20
105.052
 11
-103.047
 21
104.873
  0
LINE
  8
0
 10
-103.047
 20
104.873
 11
-103.012
 21
104.688
  0
LINE
  8
0
 10
-103.012
 20
104.688
 11
-103
 21
104.5
  0
LINE
  8
0
 10
-103
 20
104.5
 11
-103.012
 21
104.312
  0
LINE
  8
0
 10
-103.012
 20
104.312
 11
-103.047
 21
104.127
  0
LINE
  8
0
 10
-103.047
 20
104.127
 11
-103.105
 21
103.948
  0
LINE
  8
0
 10
-103.105
 20
103.948
 11
-103.186
 21
103.777
  0
LINE
  8
0
 10
-103.186
 20
103.777
 11
-103.286
 21
103.618
  0
LINE
  8
0
 10
-103.286
 20
103.618
 11
-103.407
 21
103.473
  0
LINE
  8
0
 10
-103.407
 20
103.473
 11
-103.544
 21
103.344
  0
LINE
  8
0
 10
-103.544
 20
103.344
 11
-103.696
 21
103.234
  0
LINE
  8
0
 10
-103.696
 20
103.234
 11
-103.861
 21
103.143
  0
LINE
  8
0
 10
-103.861
 20
103.143
 11
-104.036
 21
103.073
  0
LINE
  8
0
 10
-104.036
 20
103.073
 11
-104.219
 21
103.027
  0
LINE
  8
0
 10
-104.219
 20
103.027
 11
-104.406
 21
103.003
  0
LINE
  8
0
 10
-104.406
 20
103.003
 11
-104.594
 21
103.003
  0
LINE
  8
0
 10
104.406
 20
103.003
 11
104.219
 21
103.027
  0
LINE
  8
0
 10
104.219
 20
103.027
 11
104.036
 21
103.073
  0
LINE
  8
0
 10
104.036
 20
103.073
 11
103.861
 21
103.143
  0
LINE
  8
0
 10
103.861
 20
103.143
 11
103.696
 21
103.234
  0
LINE
  8
0
 10
103.696
 20
103.234
 11
103.544
 21
103.344
  0
LINE
  8
0
 10
103.544
 20
103.344
 11
103.407
 21
103.473
  0
LINE
  8
0
 10
103.407
 20
103.473
 11
103.286
 21
103.618
  0
LINE
  8
0
 10
103.286
 20
103.618
 11
103.186
 21
103.777
  0
LINE
  8
0
 10
103.186
 20
103.777
 11
103.105
 21
103.948
  0
LINE
  8
0
 10
103.105
 20
103.948
 11
103.047
 21
104.127
  0
LINE
  8
0
 10
103.047
 20
104.127
 11
103.012
 21
104.312
  0
LINE
  8
0
 10
103.012
 20
104.312
 11
103
 21
104.5
  0
LINE
  8
0
 10
103
 20
104.5
 11
103.012
 21
104.688
  0
LINE
  8
0
 10
103.012
 20
104.688
 11
103.047
 21
104.873
  0
LINE
  8
0
 10
103.047
 20
104.873
 11
103.105
 21
105.052
  0
LINE
  8
0
 10
103.105
 20
105.052
 11
103.186
 21
105.223
  0
LINE
  8
0
 10
103.186
 20
105.223
 11
103.286
 21
105.382
  0
LINE
  8
0
 10
103.286
 20
105.382
 11
103.407
 21
105.527
  0
LINE
  8
0
 10
103.407
 20
105.527
 11
103.544
 21
105.656
  0
LINE
  8
0
 10
103.544
 20
105.656
 11
103.696
 21
105.766
  0
LINE
  8
0
 10
103.696
 20
105.766
 11
103.861
 21
105.857
  0
LINE
  8
0
 10
103.861
 20
105.857
 11
104.036
 21
105.927
  0
LINE
  8
0
 10
104.036
 20
105.927
 11
104.219
 21
105.973
  0
LINE
  8
0
 10
104.219
 20
105.973
 11
104.406
 21
105.997
  0
LINE
  8
0
 10
104.406
 20
105.997
 11
104.594
 21
105.997
  0
LINE
  8
0
 10
104.594
 20
105.997
 11
104.781
 21
105.973
  0
LINE
  8
0
 10
104.781
 20
105.973
 11
104.964
 21
105.927
  0
LINE
  8
0
 10
104.964
 20
105.927
 11
105.139
 21
105.857
  0
LINE
  8
0
 10
105.139
 20
105.857
 11
105.304
 21
105.766
  0
LINE
  8
0
 10
105.304
 20
105.766
 11
105.456
 21
105.656
  0
LINE
  8
0
 10
105.456
 20
105.656
 11
105.593
 21
105.527
  0
LINE
  8
0
 10
105.593
 20
105.527
 11
105.714
 21
105.382
  0
LINE
  8
0
 10
105.714
 20
105.382
 11
105.814
 21
105.223
  0
LINE
  8
0
 10
105.814
 20
105.223
 11
105.895
 21
105.052
  0
LINE
  8
0
 10
105.895
 20
105.052
 11
105.953
 21
104.873
  0
LINE
  8
0
 10
105.953
 20
104.873
 11
105.988
 21
104.688
  0
LINE
  8
0
 10
105.988
 20
104.688
 11
106
 21
104.5
  0
LINE
  8
0
 10
106
 20
104.5
 11
105.988
 21
104.312
  0
LINE
  8
0
 10
105.988
 20
104.312
 11
105.953
 21
104.127
  0
LINE
  8
0
 10
105.953
 20
104.127
 11
105.895
 21
103.948
  0
LINE
  8
0
 10
105.895
 20
103.948
 11
105.814
 21
103.777
  0
LINE
  8
0
 10
105.814
 20
103.777
 11
105.714
 21
103.618
  0
LINE
  8
0
 10
105.714
 20
103.618
 11
105.593
 21
103.473
  0
LINE
  8
0
 10
105.593
 20
103.473
 11
105.456
 21
103.344
  0
LINE
  8
0
 10
105.456
 20
103.344
 11
105.304
 21
103.234
  0
LINE
  8
0
 10
105.304
 20
103.234
 11
105.139
 21
103.143
  0
LINE
  8
0
 10
105.139
 20
103.143
 11
104.964
 21
103.073
  0
LINE
  8
0
 10
104.964
 20
103.073
 11
104.781
 21
103.027
  0
LINE
  8
0
 10
104.781
 20
103.027
 11
104.594
 21
103.003
  0
LINE
  8
0
 10
104.594
 20
103.003
 11
104.406
 21
103.003
  0
LINE
  8
0
 10
30.7959
 20
8.01578
 11
29.8988
 21
8.14169
  0
LINE
  8
0
 10
29.8988
 20
8.14169
 11
29.0231
 21
8.39154
  0
LINE
  8
0
 10
29.0231
 20
8.39154
 11
28.1824
 21
8.76138
  0
LINE
  8
0
 10
28.1824
 20
8.76138
 11
27.39
 21
9.24538
  0
LINE
  8
0
 10
27.39
 20
9.24538
 11
26.6585
 21
9.83589
  0
LINE
  8
0
 10
26.6585
 20
9.83589
 11
25.9994
 21
10.5236
  0
LINE
  8
0
 10
25.9994
 20
10.5236
 11
25.4231
 21
11.2977
  0
LINE
  8
0
 10
25.4231
 20
11.2977
 11
24.9386
 21
12.146
  0
LINE
  8
0
 10
24.9386
 20
12.146
 11
24.5536
 21
13.055
  0
LINE
  8
0
 10
24.5536
 20
13.055
 11
24.2742
 21
14.0105
  0
LINE
  8
0
 10
24.2742
 20
14.0105
 11
24.1048
 21
14.9973
  0
LINE
  8
0
 10
24.1048
 20
14.9973
 11
24.048
 21
16
  0
LINE
  8
0
 10
24.048
 20
16
 11
24.1048
 21
17.0027
  0
LINE
  8
0
 10
24.1048
 20
17.0027
 11
24.2742
 21
17.9895
  0
LINE
  8
0
 10
24.2742
 20
17.9895
 11
24.5536
 21
18.945
  0
LINE
  8
0
 10
24.5536
 20
18.945
 11
24.9386
 21
19.854
  0
LINE
  8
0
 10
24.9386
 20
19.854
 11
25.4231
 21
20.7023
  0
LINE
  8
0
 10
25.4231
 20
20.7023
 11
25.9994
 21
21.4764
  0
LINE
  8
0
 10
25.9994
 20
21.4764
 11
84.5105
 21
82.4441
  0
LINE
  8
0
 10
84.5105
 20
82.4441
 11
85.242
 21
83.0346
  0
LINE
  8
0
 10
85.242
 20
83.0346
 11
86.0344
 21
83.5186
  0
LINE
  8
0
 10
86.0344
 20
83.5186
 11
86.8751
 21
83.8884
  0
LINE
  8
0
 10
86.8751
 20
83.8884
 11
87.7509
 21
84.1383
  0
LINE
  8
0
 10
87.7509
 20
84.1383
 11
88.6479
 21
84.2642
  0
LINE
  8
0
 10
88.6479
 20
84.2642
 11
89.5521
 21
84.2642
  0
LINE
  8
0
 10
89.5521
 20
84.2642
 11
90.4491
 21
84.1383
  0
LINE
  8
0
 10
90.4491
 20
84.1383
 11
91.3249
 21
83.8884
  0
LINE
  8
0
 10
91.3249
 20
83.8884
 11
92.1656
 21
83.5186
  0
LINE
  8
0
 10
92.1656
 20
83.5186
 11
92.9579
 21
83.0346
  0
LINE
  8
0
 10
92.9579
 20
83.0346
 11
93.6894
 21
82.4441
  0
LINE
  8
0
 10
93.6894
 20
82.4441
 11
94.3486
 21
81.7564
  0
LINE
  8
0
 10
94.3486
 20
81.7564
 11
94.9249
 21
80.9823
  0
LINE
  8
0
 10
94.9249
 20
80.9823
 11
95.4094
 21
80.134
  0
LINE
  8
0
 10
95.4094
 20
80.134
 11
95.7944
 21
79.225
  0
LINE
  8
0
 10
95.7944
 20
79.225
 11
96.0738
 21
78.2695
  0
LINE
  8
0
 10
96.0738
 20
78.2695
 11
96.2432
 21
77.2827
  0
LINE
  8
0
 10
96.2432
 20
77.2827
 11
96.3
 21
76.28
  0
LINE
  8
0
 10
96.3
 20
76.28
 11
96.3
 21
16
  0
LINE
  8
0
 10
96.3
 20
16
 11
96.2432
 21
14.9973
  0
LINE
  8
0
 10
96.2432
 20
14.9973
 11
96.0738
 21
14.0105
  0
LINE
  8
0
 10
96.0738
 20
14.0105
 11
95.7944
 21
13.055
  0
LINE
  8
0
 10
95.7944
 20
13.055
 11
95.4094
 21
12.146
  0
LINE
  8
0
 10
95.4094
 20
12.146
 11
94.9249
 21
11.2977
  0
LINE
  8
0
 10
94.9249
 20
11.2977
 11
94.3486
 21
10.5236
  0
LINE
  8
0
 10
94.3486
 20
10.5236
 11
93.6894
 21
9.83589
  0
LINE
  8
0
 10
93.6894
 20
9.83589
 11
92.9579
 21
9.24538
  0
LINE
  8
0
 10
92.9579
 20
9.24538
 11
92.1656
 21
8.76138
  0
LINE
  8
0
 10
92.1656
 20
8.76138
 11
91.3249
 21
8.39154
  0
LINE
  8
0
 10
91.3249
 20
8.39154
 11
90.4491
 21
8.14169
  0
LINE
  8
0
 10
90.4491
 20
8.14169
 11
89.5521
 21
8.01578
  0
LINE
  8
0
 10
89.5521
 20
8.01578
 11
30.7959
 21
8.01578
  0
LINE
  8
0
 10
-89.5521
 20
8.01578
 11
-90.4491
 21
8.14169
  0
LINE
  8
0
 10
-90.4491
 20
8.14169
 11
-91.3249
 21
8.39154
  0
LINE
  8
0
 10
-91.3249
 20
8.39154
 11
-92.1656
 21
8.76138
  0
LINE
  8
0
 10
-92.1656
 20
8.76138
 11
-92.9579
 21
9.24538
  0
LINE
  8
0
 10
-92.9579
 20
9.24538
 11
-93.6894
 21
9.83589
  0
LINE
  8
0
 10
-93.6894
 20
9.83589
 11
-94.3486
 21
10.5236
  0
LINE
  8
0
 10
-94.3486
 20
10.5236
 11
-94.9249
 21
11.2977
  0
LINE
  8
0
 10
-94.9249
 20
11.2977
 11
-95.4094
 21
12.146
  0
LINE
  8
0
 10
-95.4094
 20
12.146
 11
-95.7944
 21
13.055
  0
LINE
  8
0
 10
-95.7944
 20
13.055
 11
-96.0738
 21
14.0105
  0
LINE
  8
0
 10
-96.0738
 20
14.0105
 11
-96.2432
 21
14.9973
  0
LINE
  8
0
 10
-96.2432
 20
14.9973
 11
-96.3
 21
16
  0
LINE
  8
0
 10
-96.3
 20
16
 11
-96.3
 21
76.28
  0
LINE
  8
0
 10
-96.3
 20
76.28
 11
-96.2432
 21
77.2827
  0
LINE
  8
0
 10
-96.2432
 20
77.2827
 11
-96.0738
 21
78.2695
  0
LINE
  8
0
 10
-96.0738
 20
78.2695
 11
-95.7944
 21
79.225
  0
LINE
  8
0
 10
-95.7944
 20
79.225
 11
-95.4094
 21
80.134
  0
LINE
  8
0
 10
-95.4094
 20
80.134
 11
-94.9249
 21
80.9823
  0
LINE
  8
0
 10
-94.9249
 20
80.9823
 11
-94.3486
 21
81.7564
  0
LINE
  8
0
 10
-94.3486
 20
81.7564
 11
-93.6894
 21
82.4441
  0
LINE
  8
0
 10
-93.6894
 20
82.4441
 11
-92.9579
 21
83.0346
  0
LINE
  8
0
 10
-92.9579
 20
83.0346
 11
-92.1656
 21
83.5186
  0
LINE
  8
0
 10
-92.1656
 20
83.5186
 11
-91.3249
 21
83.8884
  0
LINE
  8
0
 10
-91.3249
 20
83.8884
 11
-90.4491
 21
84.1383
  0
LINE
  8
0
 10
-90.4491
 20
84.1383
 11
-89.5521
 21
84.2642
  0
LINE
  8
0
 10
-89.5521
 20
84.2642
 11
-88.6479
 21
84.2642
  0
LINE
  8
0
 10
-88.6479
 20
84.2642
 11
-87.7509
 21
84.1383
  0
LINE
  8
0
 10
-87.7509
 20
84.1383
 11
-86.8751
 21
83.8884
  0
LINE
  8
0
 10
-86.8751
 20
83.8884
 11
-86.0344
 21
83.5186
  0
LINE
  8
0
 10
-86.0344
 20
83.5186
 11
-85.242
 21
83.0346
  0
LINE
  8
0
 10
-85.242
 20
83.0346
 11
-84.5105
 21
82.4441
  0
LINE
  8
0
 10
-84.5105
 20
82.4441
 11
-25.9994
 21
21.4764
  0
LINE
  8
0
 10
-25.9994
 20
21.4764
 11
-25.4231
 21
20.7023
  0
LINE
  8
0
 10
-25.4231
 20
20.7023
 11
-24.9386
 21
19.854
  0
LINE
  8
0
 10
-24.9386
 20
19.854
 11
-24.5536
 21
18.945
  0
LINE
  8
0
 10
-24.5536
 20
18.945
 11
-24.2742
 21
17.9895
  0
LINE
  8
0
 10
-24.2742
 20
17.9895
 11
-24.1048
 21
17.0027
  0
LINE
  8
0
 10
-24.1048
 20
17.0027
 11
-24.048
 21
16
  0
LINE
  8
0
 10
-24.048
 20
16
 11
-24.1048
 21
14.9973
  0
LINE
  8
0
 10
-24.1048
 20
14.9973
 11
-24.2742
 21
14.0105
  0
LINE
  8
0
 10
-24.2742
 20
14.0105
 11
-24.5536
 21
13.055
  0
LINE
  8
0
 10
-24.5536
 20
13.055
 11
-24.9386
 21
12.146
  0
LINE
  8
0
 10
-24.9386
 20
12.146
 11
-25.4231
 21
11.2977
  0
LINE
  8
0
 10
-25.4231
 20
11.2977
 11
-25.9994
 21
10.5236
  0
LINE
  8
0
 10
-25.9994
 20
10.5236
 11
-26.6585
 21
9.83589
  0
LINE
  8
0
 10
-26.6585
 20
9.83589
 11
-27.39
 21
9.24538
  0
LINE
  8
0
 10
-27.39
 20
9.24538
 11
-28.1824
 21
8.76138
  0
LINE
  8
0
 10
-28.1824
 20
8.76138
 11
-29.0231
 21
8.39154
  0
LINE
  8
0
 10
-29.0231
 20
8.39154
 11
-29.8988
 21
8.14169
  0
LINE
  8
0
 10
-29.8988
 20
8.14169
 11
-30.7959
 21
8.01578
  0
LINE
  8
0
 10
-30.7959
 20
8.01578
 11
-89.5521
 21
8.01578
  0
LINE
  8
0
 10
-1.00464
 20
-15.9684
 11
-2.99809
 21
-15.7166
  0
LINE
  8
0
 10
-2.99809
 20
-15.7166
 11
-4.94426
 21
-15.2169
  0
LINE
  8
0
 10
-4.94426
 20
-15.2169
 11
-6.81245
 21
-14.4772
  0
LINE
  8
0
 10
-6.81245
 20
-14.4772
 11
-8.57323
 21
-13.5092
  0
LINE
  8
0
 10
-8.57323
 20
-13.5092
 11
-10.1988
 21
-12.3282
  0
LINE
  8
0
 10
-10.1988
 20
-12.3282
 11
-11.6635
 21
-10.9527
  0
LINE
  8
0
 10
-11.6635
 20
-10.9527
 11
-12.9443
 21
-9.40456
  0
LINE
  8
0
 10
-12.9443
 20
-9.40456
 11
-14.0209
 21
-7.70805
  0
LINE
  8
0
 10
-14.0209
 20
-7.70805
 11
-14.8764
 21
-5.88998
  0
LINE
  8
0
 10
-14.8764
 20
-5.88998
 11
-15.4973
 21
-3.97903
  0
LINE
  8
0
 10
-15.4973
 20
-3.97903
 11
-15.8738
 21
-2.00533
  0
LINE
  8
0
 10
-15.8738
 20
-2.00533
 11
-16
 21
0
  0
LINE
  8
0
 10
-16
 20
0
 11
-15.8738
 21
2.00533
  0
LINE
  8
0
 10
-15.8738
 20
2.00533
 11
-15.4973
 21
3.97903
  0
LINE
  8
0
 10
-15.4973
 20
3.97903
 11
-14.8764
 21
5.88998
  0
LINE
  8
0
 10
-14.8764
 20
5.88998
 11
-14.0209
 21
7.70805
  0
LINE
  8
0
 10
-14.0209
 20
7.70805
 11
-12.9443
 21
9.40456
  0
LINE
  8
0
 10
-12.9443
 20
9.40456
 11
-11.6635
 21
10.9527
  0
LINE
  8
0
 10
-11.6635
 20
10.9527
 11
-10.1988
 21
12.3282
  0
LINE
  8
0
 10
-10.1988
 20
12.3282
 11
-8.57323
 21
13.5092
  0
LINE
  8
0
 10
-8.57323
 20
13.5092
 11
-6.81245
 21
14.4772
  0
LINE
  8
0
 10
-6.81245
 20
14.4772
 11
-4.94426
 21
15.2169
  0
LINE
  8
0
 10
-4.94426
 20
15.2169
 11
-2.99809
 21
15.7166
  0
LINE
  8
0
 10
-2.99809
 20
15.7166
 11
-1.00464
 21
15.9684
  0
LINE
  8
0
 10
-1.00464
 20
15.9684
 11
1.00464
 21
15.9684
  0
LINE
  8
0
 10
1.00464
 20
15.9684
 11
2.99809
 21
15.7166
  0
LINE
  8
0
 10
2.99809
 20
15.7166
 11
4.94426
 21
15.2169
  0
LINE
  8
0
 10
4.94426
 20
15.2169
 11
6.81245
 21
14.4772
  0
LINE
  8
0
 10
6.81245
 20
14.4772
 11
8.57323
 21
13.5092
  0
LINE
  8
0
 10
8.57323
 20
13.5092
 11
10.1988
 21
12.3282
  0
LINE
  8
0
 10
10.1988
 20
12.3282
 11
11.6635
 21
10.9527
  0
LINE
  8
0
 10
11.6635
 20
10.9527
 11
12.9443
 21
9.40456
  0
LINE
  8
0
 10
12.9443
 20
9.40456
 11
14.0209
 21
7.70805
  0
LINE
  8
0
 10
14.0209
 20
7.70805
 11
14.8764
 21
5.88998
  0
LINE
  8
0
 10
14.8764
 20
5.88998
 11
15.4973
 21
3.97903
  0
LINE
  8
0
 10
15.4973
 20
3.97903
 11
15.8738
 21
2.00533
  0
LINE
  8
0
 10
15.8738
 20
2.00533
 11
16
 21
0
  0
LINE
  8
0
 10
16
 20
0
 11
15.8738
 21
-2.00533
  0
LINE
  8
0
 10
15.8738
 20
-2.00533
 11
15.4973
 21
-3.97903
  0
LINE
  8
0
 10
15.4973
 20
-3.97903
 11
14.8764
 21
-5.88998
  0
LINE
  8
0
 10
14.8764
 20
-5.88998
 11
14.0209
 21
-7.70805
  0
LINE
  8
0
 10
14.0209
 20
-7.70805
 11
12.9443
 21
-9.40456
  0
LINE
  8
0
 10
12.9443
 20
-9.40456
 11
11.6635
 21
-10.9527
  0
LINE
  8
0
 10
11.6635
 20
-10.9527
 11
10.1988
 21
-12.3282
  0
LINE
  8
0
 10
10.1988
 20
-12.3282
 11
8.57323
 21
-13.5092
  0
LINE
  8
0
 10
8.57323
 20
-13.5092
 11
6.81245
 21
-14.4772
  0
LINE
  8
0
 10
6.81245
 20
-14.4772
 11
4.94426
 21
-15.2169
  0
LINE
  8
0
 10
4.94426
 20
-15.2169
 11
2.99809
 21
-15.7166
  0
LINE
  8
0
 10
2.99809
 20
-15.7166
 11
1.00464
 21
-15.9684
  0
LINE
  8
0
 10
1.00464
 20
-15.9684
 11
-1.00464
 21
-15.9684
  0
LINE
  8
0
 10
-89.5521
 20
-84.2642
 11
-90.4491
 21
-84.1383
  0
LINE
  8
0
 10
-90.4491
 20
-84.1383
 11
-91.3249
 21
-83.8884
  0
LINE
  8
0
 10
-91.3249
 20
-83.8884
 11
-92.1656
 21
-83.5186
  0
LINE
  8
0
 10
-92.1656
 20
-83.5186
 11
-92.9579
 21
-83.0346
  0
LINE
  8
0
 10
-92.9579
 20
-83.0346
 11
-93.6894
 21
-82.4441
  0
LINE
  8
0
 10
-93.6894
 20
-82.4441
 11
-94.3486
 21
-81.7564
  0
LINE
  8
0
 10
-94.3486
 20
-81.7564
 11
-94.9249
 21
-80.9823
  0
LINE
  8
0
 10
-94.9249
 20
-80.9823
 11
-95.4094
 21
-80.134
  0
LINE
  8
0
 10
-95.4094
 20
-80.134
 11
-95.7944
 21
-79.225
  0
LINE
  8
0
 10
-95.7944
 20
-79.225
 11
-96.0738
 21
-78.2695
  0
LINE
  8
0
 10
-96.0738
 20
-78.2695
 11
-96.2432
 21
-77.2827
  0
LINE
  8
0
 10
-96.2432
 20
-77.2827
 11
-96.3
 21
-76.28
  0
LINE
  8
0
 10
-96.3
 20
-76.28
 11
-96.3
 21
-16
  0
LINE
  8
0
 10
-96.3
 20
-16
 11
-96.2432
 21
-14.9973
  0
LINE
  8
0
 10
-96.2432
 20
-14.9973
 11
-96.0738
 21
-14.0105
  0
LINE
  8
0
 10
-96.0738
 20
-14.0105
 11
-95.7944
 21
-13.055
  0
LINE
  8
0
 10
-95.7944
 20
-13.055
 11
-95.4094
 21
-12.146
  0
LINE
  8
0
 10
-95.4094
 20
-12.146
 11
-94.9249
 21
-11.2977
  0
LINE
  8
0
 10
-94.9249
 20
-11.2977
 11
-94.3486
 21
-10.5236
  0
LINE
  8
0
 10
-94.3486
 20
-10.5236
 11
-93.6894
 21
-9.83589
  0
LINE
  8
0
 10
-93.6894
 20
-9.83589
 11
-92.9579
 21
-9.24538
  0
LINE
  8
0
 10
-92.9579
 20
-9.24538
 11
-92.1656
 21
-8.76138
  0
LINE
  8
0
 10
-92.1656
 20
-8.76138
 11
-91.3249
 21
-8.39154
  0
LINE
  8
0
 10
-91.3249
 20
-8.39154
 11
-90.4491
 21
-8.14169
  0
LINE
  8
0
 10
-90.4491
 20
-8.14169
 11
-89.5521
 21
-8.01578
  0
LINE
  8
0
 10
-89.5521
 20
-8.01578
 11
-30.7959
 21
-8.01578
  0
LINE
  8
0
 10
-30.7959
 20
-8.01578
 11
-29.8988
 21
-8.14169
  0
LINE
  8
0
 10
-29.8988
 20
-8.14169
 11
-29.0231
 21
-8.39154
  0
LINE
  8
0
 10
-29.0231
 20
-8.39154
 11
-28.1824
 21
-8.76138
  0
LINE
  8
0
 10
-28.1824
 20
-8.76138
 11
-27.39
 21
-9.24538
  0
LINE
  8
0
 10
-27.39
 20
-9.24538
 11
-26.6585
 21
-9.83589
  0
LINE
  8
0
 10
-26.6585
 20
-9.83589
 11
-25.9994
 21
-10.5236
  0
LINE
  8
0
 10
-25.9994
 20
-10.5236
 11
-25.4231
 21
-11.2977
  0
LINE
  8
0
 10
-25.4231
 20
-11.2977
 11
-24.9386
 21
-12.146
  0
LINE
  8
0
 10
-24.9386
 20
-12.146
 11
-24.5536
 21
-13.055
  0
LINE
  8
0
 10
-24.5536
 20
-13.055
 11
-24.2742
 21
-14.0105
  0
LINE
  8
0
 10
-24.2742
 20
-14.0105
 11
-24.1048
 21
-14.9973
  0
LINE
  8
0
 10
-24.1048
 20
-14.9973
 11
-24.048
 21
-16
  0
LINE
  8
0
 10
-24.048
 20
-16
 11
-24.1048
 21
-17.0027
  0
LINE
  8
0
 10
-24.1048
 20
-17.0027
 11
-24.2742
 21
-17.9895
  0
LINE
  8
0
 10
-24.2742
 20
-17.9895
 11
-24.5536
 21
-18.945
  0
LINE
  8
0
 10
-24.5536
 20
-18.945
 11
-24.9386
 21
-19.854
  0
LINE
  8
0
 10
-24.9386
 20
-19.854
 11
-25.4231
 21
-20.7023
  0
LINE
  8
0
 10
-25.4231
 20
-20.7023
 11
-25.9994
 21
-21.4764
  0
LINE
  8
0
 10
-25.9994
 20
-21.4764
 11
-84.5105
 21
-82.4441
  0
LINE
  8
0
 10
-84.5105
 20
-82.4441
 11
-85.242
 21
-83.0346
  0
LINE
  8
0
 10
-85.242
 20
-83.0346
 11
-86.0344
 21
-83.5186
  0
LINE
  8
0
 10
-86.0344
 20
-83.5186
 11
-86.8751
 21
-83.8884
  0
LINE
  8
0
 10
-86.8751
 20
-83.8884
 11
-87.7509
 21
-84.1383
  0
LINE
  8
0
 10
-87.7509
 20
-84.1383
 11
-88.6479
 21
-84.2642
  0
LINE
  8
0
 10
-88.6479
 20
-84.2642
 11
-89.5521
 21
-84.2642
  0
LINE
  8
0
 10
88.6479
 20
-84.2642
 11
87.7509
 21
-84.1383
  0
LINE
  8
0
 10
87.7509
 20
-84.1383
 11
86.8751
 21
-83.8884
  0
LINE
  8
0
 10
86.8751
 20
-83.8884
 11
86.0344
 21
-83.5186
  0
LINE
  8
0
 10
86.0344
 20
-83.5186
 11
85.242
 21
-83.0346
  0
LINE
  8
0
 10
85.242
 20
-83.0346
 11
84.5105
 21
-82.4441
  0
LINE
  8
0
 10
84.5105
 20
-82.4441
 11
25.9994
 21
-21.4764
  0
LINE
  8
0
 10
25.9994
 20
-21.4764
 11
25.4231
 21
-20.7023
  0
LINE
  8
0
 10
25.4231
 20
-20.7023
 11
24.9386
 21
-19.854
  0
LINE
  8
0
 10
24.9386
 20
-19.854
 11
24.5536
 21
-18.945
  0
LINE
  8
0
 10
24.5536
 20
-18.945
 11
24.2742
 21
-17.9895
  0
LINE
  8
0
 10
24.2742
 20
-17.9895
 11
24.1048
 21
-17.0027
  0
LINE
  8
0
 10
24.1048
 20
-17.0027
 11
24.048
 21
-16
  0
LINE
  8
0
 10
24.048
 20
-16
 11
24.1048
 21
-14.9973
  0
LINE
  8
0
 10
24.1048
 20
-14.9973
 11
24.2742
 21
-14.0105
  0
LINE
  8
0
 10
24.2742
 20
-14.0105
 11
24.5536
 21
-13.055
  0
LINE
  8
0
 10
24.5536
 20
-13.055
 11
24.9386
 21
-12.146
  0
LINE
  8
0
 10
24.9386
 20
-12.146
 11
25.4231
 21
-11.2977
  0
LINE
  8
0
 10
25.4231
 20
-11.2977
 11
25.9994
 21
-10.5236
  0
LINE
  8
0
 10
25.9994
 20
-10.5236
 11
26.6585
 21
-9.83589
  0
LINE
  8
0
 10
26.6585
 20
-9.83589
 11
27.39
 21
-9.24538
  0
LINE
  8
0
 10
27.39
 20
-9.24538
 11
28.1824
 21
-8.76138
  0
LINE
  8
0
 10
28.1824
 20
-8.76138
 11
29.0231
 21
-8.39154
  0
LINE
  8
0
 10
29.0231
 20
-8.39154
 11
29.8988
 21
-8.14169
  0
LINE
  8
0
 10
29.8988
 20
-8.14169
 11
30.7959
 21
-8.01578
  0
LINE
  8
0
 10
30.7959
 20
-8.01578
 11
89.5521
 21
-8.01578
  0
LINE
  8
0
 10
89.5521
 20
-8.01578
 11
90.4491
 21
-8.14169
  0
LINE
  8
0
 10
90.4491
 20
-8.14169
 11
91.3249
 21
-8.39154
  0
LINE
  8
0
 10
91.3249
 20
-8.39154
 11
92.1656
 21
-8.76138
  0
LINE
  8
0
 10
92.1656
 20
-8.76138
 11
92.9579
 21
-9.24538
  0
LINE
  8
0
 10
92.9579
 20
-9.24538
 11
93.6894
 21
-9.83589
  0
LINE
  8
0
 10
93.6894
 20
-9.83589
 11
94.3486
 21
-10.5236
  0
LINE
  8
0
 10
94.3486
 20
-10.5236
 11
94.9249
 21
-11.2977
  0
LINE
  8
0
 10
94.9249
 20
-11.2977
 11
95.4094
 21
-12.146
  0
LINE
  8
0
 10
95.4094
 20
-12.146
 11
95.7944
 21
-13.055
  0
LINE
  8
0
 10
95.7944
 20
-13.055
 11
96.0738
 21
-14.0105
  0
LINE
  8
0
 10
96.0738
 20
-14.0105
 11
96.2432
 21
-14.9973
  0
LINE
  8
0
 10
96.2432
 20
-14.9973
 11
96.3
 21
-16
  0
LINE
  8
0
 10
96.3
 20
-16
 11
96.3
 21
-76.28
  0
LINE
  8
0
 10
96.3
 20
-76.28
 11
96.2432
 21
-77.2827
  0
LINE
  8
0
 10
96.2432
 20
-77.2827
 11
96.0738
 21
-78.2695
  0
LINE
  8
0
 10
96.0738
 20
-78.2695
 11
95.7944
 21
-79.225
  0
LINE
  8
0
 10
95.7944
 20
-79.225
 11
95.4094
 21
-80.134
  0
LINE
  8
0
 10
95.4094
 20
-80.134
 11
94.9249
 21
-80.9823
  0
LINE
  8
0
 10
94.9249
 20
-80.9823
 11
94.3486
 21
-81.7564
  0
LINE
  8
0
 10
94.3486
 20
-81.7564
 11
93.6894
 21
-82.4441
  0
LINE
  8
0
 10
93.6894
 20
-82.4441
 11
92.9579
 21
-83.0346
  0
LINE
  8
0
 10
92.9579
 20
-83.0346
 11
92.1656
 21
-83.5186
  0
LINE
  8
0
 10
92.1656
 20
-83.5186
 11
91.3249
 21
-83.8884
  0
LINE
  8
0
 10
91.3249
 20
-83.8884
 11
90.4491
 21
-84.1383
  0
LINE
  8
0
 10
90.4491
 20
-84.1383
 11
89.5521
 21
-84.2642
  0
LINE
  8
0
 10
89.5521
 20
-84.2642
 11
88.6479
 21
-84.2642
  0
LINE
  8
0
 10
-76.28
 20
-107
 11
-77.2827
 21
-106.937
  0
LINE
  8
0
 10
-77.2827
 20
-106.937
 11
-78.2695
 21
-106.749
  0
LINE
  8
0
 10
-78.2695
 20
-106.749
 11
-79.225
 21
-106.438
  0
LINE
  8
0
 10
-79.225
 20
-106.438
 11
-80.134
 21
-106.01
  0
LINE
  8
0
 10
-80.134
 20
-106.01
 11
-80.9823
 21
-105.472
  0
LINE
  8
0
 10
-80.9823
 20
-105.472
 11
-81.7564
 21
-104.832
  0
LINE
  8
0
 10
-81.7564
 20
-104.832
 11
-82.4441
 21
-104.099
  0
LINE
  8
0
 10
-82.4441
 20
-104.099
 11
-83.0346
 21
-103.287
  0
LINE
  8
0
 10
-83.0346
 20
-103.287
 11
-83.5186
 21
-102.406
  0
LINE
  8
0
 10
-83.5186
 20
-102.406
 11
-83.8884
 21
-101.472
  0
LINE
  8
0
 10
-83.8884
 20
-101.472
 11
-84.1383
 21
-100.499
  0
LINE
  8
0
 10
-84.1383
 20
-100.499
 11
-84.2642
 21
-99.5023
  0
LINE
  8
0
 10
-84.2642
 20
-99.5023
 11
-84.2642
 21
-98.4977
  0
LINE
  8
0
 10
-84.2642
 20
-98.4977
 11
-84.1383
 21
-97.5009
  0
LINE
  8
0
 10
-84.1383
 20
-97.5009
 11
-83.8884
 21
-96.5279
  0
LINE
  8
0
 10
-83.8884
 20
-96.5279
 11
-83.5186
 21
-95.5938
  0
LINE
  8
0
 10
-83.5186
 20
-95.5938
 11
-83.0346
 21
-94.7134
  0
LINE
  8
0
 10
-83.0346
 20
-94.7134
 11
-82.4441
 21
-93.9006
  0
LINE
  8
0
 10
-82.4441
 20
-93.9006
 11
-21.4764
 21
-28.8882
  0
LINE
  8
0
 10
-21.4764
 20
-28.8882
 11
-20.7023
 21
-28.2479
  0
LINE
  8
0
 10
-20.7023
 20
-28.2479
 11
-19.854
 21
-27.7095
  0
LINE
  8
0
 10
-19.854
 20
-27.7095
 11
-18.945
 21
-27.2818
  0
LINE
  8
0
 10
-18.945
 20
-27.2818
 11
-17.9895
 21
-26.9713
  0
LINE
  8
0
 10
-17.9895
 20
-26.9713
 11
-17.0027
 21
-26.7831
  0
LINE
  8
0
 10
-17.0027
 20
-26.7831
 11
-16
 21
-26.72
  0
LINE
  8
0
 10
-16
 20
-26.72
 11
-14.9973
 21
-26.7831
  0
LINE
  8
0
 10
-14.9973
 20
-26.7831
 11
-14.0105
 21
-26.9713
  0
LINE
  8
0
 10
-14.0105
 20
-26.9713
 11
-13.055
 21
-27.2818
  0
LINE
  8
0
 10
-13.055
 20
-27.2818
 11
-12.146
 21
-27.7095
  0
LINE
  8
0
 10
-12.146
 20
-27.7095
 11
-11.2977
 21
-28.2479
  0
LINE
  8
0
 10
-11.2977
 20
-28.2479
 11
-10.5236
 21
-28.8882
  0
LINE
  8
0
 10
-10.5236
 20
-28.8882
 11
-9.83589
 21
-29.6206
  0
LINE
  8
0
 10
-9.83589
 20
-29.6206
 11
-9.24538
 21
-30.4334
  0
LINE
  8
0
 10
-9.24538
 20
-30.4334
 11
-8.76138
 21
-31.3138
  0
LINE
  8
0
 10
-8.76138
 20
-31.3138
 11
-8.39154
 21
-32.2479
  0
LINE
  8
0
 10
-8.39154
 20
-32.2479
 11
-8.14169
 21
-33.2209
  0
LINE
  8
0
 10
-8.14169
 20
-33.2209
 11
-8.01578
 21
-34.2177
  0
LINE
  8
0
 10
-8.01578
 20
-34.2177
 11
-8.01578
 21
-99.5023
  0
LINE
  8
0
 10
-8.01578
 20
-99.5023
 11
-8.14169
 21
-100.499
  0
LINE
  8
0
 10
-8.14169
 20
-100.499
 11
-8.39154
 21
-101.472
  0
LINE
  8
0
 10
-8.39154
 20
-101.472
 11
-8.76138
 21
-102.406
  0
LINE
  8
0
 10
-8.76138
 20
-102.406
 11
-9.24538
 21
-103.287
  0
LINE
  8
0
 10
-9.24538
 20
-103.287
 11
-9.83589
 21
-104.099
  0
LINE
  8
0
 10
-9.83589
 20
-104.099
 11
-10.5236
 21
-104.832
  0
LINE
  8
0
 10
-10.5236
 20
-104.832
 11
-11.2977
 21
-105.472
  0
LINE
  8
0
 10
-11.2977
 20
-105.472
 11
-12.146
 21
-106.01
  0
LINE
  8
0
 10
-12.146
 20
-106.01
 11
-13.055
 21
-106.438
  0
LINE
  8
0
 10
-13.055
 20
-106.438
 11
-14.0105
 21
-106.749
  0
LINE
  8
0
 10
-14.0105
 20
-106.749
 11
-14.9973
 21
-106.937
  0
LINE
  8
0
 10
-14.9973
 20
-106.937
 11
-16
 21
-107
  0
LINE
  8
0
 10
-16
 20
-107
 11
-76.28
 21
-107
  0
LINE
  8
0
 10
16
 20
-107
 11
14.9973
 21
-106.937
  0
LINE
  8
0
 10
14.9973
 20
-106.937
 11
14.0105
 21
-106.749
  0
LINE
  8
0
 10
14.0105
 20
-106.749
 11
13.055
 21
-106.438
  0
LINE
  8
0
 10
13.055
 20
-106.438
 11
12.146
 21
-106.01
  0
LINE
  8
0
 10
12.146
 20
-106.01
 11
11.2977
 21
-105.472
  0
LINE
  8
0
 10
11.2977
 20
-105.472
 11
10.5236
 21
-104.832
  0
LINE
  8
0
 10
10.5236
 20
-104.832
 11
9.83589
 21
-104.099
  0
LINE
  8
0
 10
9.83589
 20
-104.099
 11
9.24538
 21
-103.287
  0
LINE
  8
0
 10
9.24538
 20
-103.287
 11
8.76138
 21
-102.406
  0
LINE
  8
0
 10
8.76138
 20
-102.406
 11
8.39154
 21
-101.472
  0
LINE
  8
0
 10
8.39154
 20
-101.472
 11
8.14169
 21
-100.499
  0
LINE
  8
0
 10
8.14169
 20
-100.499
 11
8.01578
 21
-99.5023
  0
LINE
  8
0
 10
8.01578
 20
-99.5023
 11
8.01578
 21
-34.2177
  0
LINE
  8
0
 10
8.01578
 20
-34.2177
 11
8.14169
 21
-33.2209
  0
LINE
  8
0
 10
8.14169
 20
-33.2209
 11
8.39154
 21
-32.2479
  0
LINE
  8
0
 10
8.39154
 20
-32.2479
 11
8.76138
 21
-31.3138
  0
LINE
  8
0
 10
8.76138
 20
-31.3138
 11
9.24538
 21
-30.4334
  0
LINE
  8
0
 10
9.24538
 20
-30.4334
 11
9.83589
 21
-29.6206
  0
LINE
  8
0
 10
9.83589
 20
-29.6206
 11
10.5236
 21
-28.8882
  0
LINE
  8
0
 10
10.5236
 20
-28.8882
 11
11.2977
 21
-28.2479
  0
LINE
  8
0
 10
11.2977
 20
-28.2479
 11
12.146
 21
-27.7095
  0
LINE
  8
0
 10
12.146
 20
-27.7095
 11
13.055
 21
-27.2818
  0
LINE
  8
0
 10
13.055
 20
-27.2818
 11
14.0105
 21
-26.9713
  0
LINE
  8
0
 10
14.0105
 20
-26.9713
 11
14.9973
 21
-26.7831
  0
LINE
  8
0
 10
14.9973
 20
-26.7831
 11
16
 21
-26.72
  0
LINE
  8
0
 10
16
 20
-26.72
 11
17.0027
 21
-26.7831
  0
LINE
  8
0
 10
17.0027
 20
-26.7831
 11
17.9895
 21
-26.9713
  0
LINE
  8
0
 10
17.9895
 20
-26.9713
 11
18.945
 21
-27.2818
  0
LINE
  8
0
 10
18.945
 20
-27.2818
 11
19.854
 21
-27.7095
  0
LINE
  8
0
 10
19.854
 20
-27.7095
 11
20.7023
 21
-28.2479
  0
LINE
  8
0
 10
20.7023
 20
-28.2479
 11
21.4764
 21
-28.8882
  0
LINE
  8
0
 10
21.4764
 20
-28.8882
 11
82.4441
 21
-93.9006
  0
LINE
  8
0
 10
82.4441
 20
-93.9006
 11
83.0346
 21
-94.7134
  0
LINE
  8
0
 10
83.0346
 20
-94.7134
 11
83.5186
 21
-95.5938
  0
LINE
  8
0
 10
83.5186
 20
-95.5938
 11
83.8884
 21
-96.5279
  0
LINE
  8
0
 10
83.8884
 20
-96.5279
 11
84.1383
 21
-97.5009
  0
LINE
  8
0
 10
84.1383
 20
-97.5009
 11
84.2642
 21
-98.4977
  0
LINE
  8
0
 10
84.2642
 20
-98.4977
 11
84.2642
 21
-99.5023
  0
LINE
  8
0
 10
84.2642
 20
-99.5023
 11
84.1383
 21
-100.499
  0
LINE
  8
0
 10
84.1383
 20
-100.499
 11
83.8884
 21
-101.472
  0
LINE
  8
0
 10
83.8884
 20
-101.472
 11
83.5186
 21
-102.406
  0
LINE
  8
0
 10
83.5186
 20
-102.406
 11
83.0346
 21
-103.287
  0
LINE
  8
0
 10
83.0346
 20
-103.287
 11
82.4441
 21
-104.099
  0
LINE
  8
0
 10
82.4441
 20
-104.099
 11
81.7564
 21
-104.832
  0
LINE
  8
0
 10
81.7564
 20
-104.832
 11
80.9823
 21
-105.472
  0
LINE
  8
0
 10
80.9823
 20
-105.472
 11
80.134
 21
-106.01
  0
LINE
  8
0
 10
80.134
 20
-106.01
 11
79.225
 21
-106.438
  0
LINE
  8
0
 10
79.225
 20
-106.438
 11
78.2695
 21
-106.749
  0
LINE
  8
0
 10
78.2695
 20
-106.749
 11
77.2827
 21
-106.937
  0
LINE
  8
0
 10
77.2827
 20
-106.937
 11
76.28
 21
-107
  0
LINE
  8
0
 10
76.28
 20
-107
 11
16
 21
-107
  0
LINE
  8
0
 10
-104.594
 20
-105.997
 11
-104.781
 21
-105.973
  0
LINE
  8
0
 10
-104.781
 20
-105.973
 11
-104.964
 21
-105.927
  0
LINE
  8
0
 10
-104.964
 20
-105.927
 11
-105.139
 21
-105.857
  0
LINE
  8
0
 10
-105.139
 20
-105.857
 11
-105.304
 21
-105.766
  0
LINE
  8
0
 10
-105.304
 20
-105.766
 11
-105.456
 21
-105.656
  0
LINE
  8
0
 10
-105.456
 20
-105.656
 11
-105.593
 21
-105.527
  0
LINE
  8
0
 10
-105.593
 20
-105.527
 11
-105.714
 21
-105.382
  0
LINE
  8
0
 10
-105.714
 20
-105.382
 11
-105.814
 21
-105.223
  0
LINE
  8
0
 10
-105.814
 20
-105.223
 11
-105.895
 21
-105.052
  0
LINE
  8
0
 10
-105.895
 20
-105.052
 11
-105.953
 21
-104.873
  0
LINE
  8
0
 10
-105.953
 20
-104.873
 11
-105.988
 21
-104.688
  0
LINE
  8
0
 10
-105.988
 20
-104.688
 11
-106
 21
-104.5
  0
LINE
  8
0
 10
-106
 20
-104.5
 11
-105.988
 21
-104.312
  0
LINE
  8
0
 10
-105.988
 20
-104.312
 11
-105.953
 21
-104.127
  0
LINE
  8
0
 10
-105.953
 20
-104.127
 11
-105.895
 21
-103.948
  0
LINE
  8
0
 10
-105.895
 20
-103.948
 11
-105.814
 21
-103.777
  0
LINE
  8
0
 10
-105.814
 20
-103.777
 11
-105.714
 21
-103.618
  0
LINE
  8
0
 10
-105.714
 20
-103.618
 11
-105.593
 21
-103.473
  0
LINE
  8
0
 10
-105.593
 20
-103.473
 11
-105.456
 21
-103.344
  0
LINE
  8
0
 10
-105.456
 20
-103.344
 11
-105.304
 21
-103.233
  0
LINE
  8
0
 10
-105.304
 20
-103.233
 11
-105.139
 21
-103.143
  0
LINE
  8
0
 10
-105.139
 20
-103.143
 11
-104.964
 21
-103.073
  0
LINE
  8
0
 10
-104.964
 20
-103.073
 11
-104.781
 21
-103.027
  0
LINE
  8
0
 10
-104.781
 20
-103.027
 11
-104.594
 21
-103.003
  0
LINE
  8
0
 10
-104.594
 20
-103.003
 11
-104.406
 21
-103.003
  0
LINE
  8
0
 10
-104.406
 20
-103.003
 11
-104.219
 21
-103.027
  0
LINE
  8
0
 10
-104.219
 20
-103.027
 11
-104.036
 21
-103.073
  0
LINE
  8
0
 10
-104.036
 20
-103.073
 11
-103.861
 21
-103.143
  0
LINE
  8
0
 10
-103.861
 20
-103.143
 11
-103.696
 21
-103.233
  0
LINE
  8
0
 10
-103.696
 20
-103.233
 11
-103.544
 21
-103.344
  0
LINE
  8
0
 10
-103.544
 20
-103.344
 11
-103.407
 21
-103.473
  0
LINE
  8
0
 10
-103.407
 20
-103.473
 11
-103.286
 21
-103.618
  0
LINE
  8
0
 10
-103.286
 20
-103.618
 11
-103.186
 21
-103.777
  0
LINE
  8
0
 10
-103.186
 20
-103.777
 11
-103.105
 21
-103.948
  0
LINE
  8
0
 10
-103.105
 20
-103.948
 11
-103.047
 21
-104.127
  0
LINE
  8
0
 10
-103.047
 20
-104.127
 11
-103.012
 21
-104.312
  0
LINE
  8
0
 10
-103.012
 20
-104.312
 11
-103
 21
-104.5
  0
LINE
  8
0
 10
-103
 20
-104.5
 11
-103.012
 21
-104.688
  0
LINE
  8
0
 10
-103.012
 20
-104.688
 11
-103.047
 21
-104.873
  0
LINE
  8
0
 10
-103.047
 20
-104.873
 11
-103.105
 21
-105.052
  0
LINE
  8
0
 10
-103.105
 20
-105.052
 11
-103.186
 21
-105.223
  0
LINE
  8
0
 10
-103.186
 20
-105.223
 11
-103.286
 21
-105.382
  0
LINE
  8
0
 10
-103.286
 20
-105.382
 11
-103.407
 21
-105.527
  0
LINE
  8
0
 10
-103.407
 20
-105.527
 11
-103.544
 21
-105.656
  0
LINE
  8
0
 10
-103.544
 20
-105.656
 11
-103.696
 21
-105.766
  0
LINE
  8
0
 10
-103.696
 20
-105.766
 11
-103.861
 21
-105.857
  0
LINE
  8
0
 10
-103.861
 20
-105.857
 11
-104.036
 21
-105.927
  0
LINE
  8
0
 10
-104.036
 20
-105.927
 11
-104.219
 21
-105.973
  0
LINE
  8
0
 10
-104.219
 20
-105.973
 11
-104.406
 21
-105.997
  0
LINE
  8
0
 10
-104.406
 20
-105.997
 11
-104.594
 21
-105.997
  0
LINE
  8
0
 10
-0.0941772
 20
-105.997
 11
-0.281067
 21
-105.973
  0
LINE
  8
0
 10
-0.281067
 20
-105.973
 11
-0.463516
 21
-105.927
  0
LINE
  8
0
 10
-0.463516
 20
-105.927
 11
-0.638657
 21
-105.857
  0
LINE
  8
0
 10
-0.638657
 20
-105.857
 11
-0.803726
 21
-105.766
  0
LINE
  8
0
 10
-0.803726
 20
-105.766
 11
-0.956131
 21
-105.656
  0
LINE
  8
0
 10
-0.956131
 20
-105.656
 11
-1.09344
 21
-105.527
  0
LINE
  8
0
 10
-1.09344
 20
-105.527
 11
-1.21352
 21
-105.382
  0
LINE
  8
0
 10
-1.21352
 20
-105.382
 11
-1.31445
 21
-105.223
  0
LINE
  8
0
 10
-1.31445
 20
-105.223
 11
-1.39465
 21
-105.052
  0
LINE
  8
0
 10
-1.39465
 20
-105.052
 11
-1.45287
 21
-104.873
  0
LINE
  8
0
 10
-1.45287
 20
-104.873
 11
-1.48816
 21
-104.688
  0
LINE
  8
0
 10
-1.48816
 20
-104.688
 11
-1.5
 21
-104.5
  0
LINE
  8
0
 10
-1.5
 20
-104.5
 11
-1.48816
 21
-104.312
  0
LINE
  8
0
 10
-1.48816
 20
-104.312
 11
-1.45287
 21
-104.127
  0
LINE
  8
0
 10
-1.45287
 20
-104.127
 11
-1.39465
 21
-103.948
  0
LINE
  8
0
 10
-1.39465
 20
-103.948
 11
-1.31445
 21
-103.777
  0
LINE
  8
0
 10
-1.31445
 20
-103.777
 11
-1.21352
 21
-103.618
  0
LINE
  8
0
 10
-1.21352
 20
-103.618
 11
-1.09344
 21
-103.473
  0
LINE
  8
0
 10
-1.09344
 20
-103.473
 11
-0.956131
 21
-103.344
  0
LINE
  8
0
 10
-0.956131
 20
-103.344
 11
-0.803726
 21
-103.234
  0
LINE
  8
0
 10
-0.803726
 20
-103.234
 11
-0.638657
 21
-103.143
  0
LINE
  8
0
 10
-0.638657
 20
-103.143
 11
-0.463516
 21
-103.073
  0
LINE
  8
0
 10
-0.463516
 20
-103.073
 11
-0.281067
 21
-103.027
  0
LINE
  8
0
 10
-0.281067
 20
-103.027
 11
-0.0941772
 21
-103.003
  0
LINE
  8
0
 10
-0.0941772
 20
-103.003
 11
0.094162
 21
-103.003
  0
LINE
  8
0
 10
0.094162
 20
-103.003
 11
0.281052
 21
-103.027
  0
LINE
  8
0
 10
0.281052
 20
-103.027
 11
0.463501
 21
-103.073
  0
LINE
  8
0
 10
0.463501
 20
-103.073
 11
0.638641
 21
-103.143
  0
LINE
  8
0
 10
0.638641
 20
-103.143
 11
0.803711
 21
-103.234
  0
LINE
  8
0
 10
0.803711
 20
-103.234
 11
0.956116
 21
-103.344
  0
LINE
  8
0
 10
0.956116
 20
-103.344
 11
1.09343
 21
-103.473
  0
LINE
  8
0
 10
1.09343
 20
-103.473
 11
1.2135
 21
-103.618
  0
LINE
  8
0
 10
1.2135
 20
-103.618
 11
1.31444
 21
-103.777
  0
LINE
  8
0
 10
1.31444
 20
-103.777
 11
1.39464
 21
-103.948
  0
LINE
  8
0
 10
1.39464
 20
-103.948
 11
1.45285
 21
-104.127
  0
LINE
  8
0
 10
1.45285
 20
-104.127
 11
1.48814
 21
-104.312
  0
LINE
  8
0
 10
1.48814
 20
-104.312
 11
1.49998
 21
-104.5
  0
LINE
  8
0
 10
1.49998
 20
-104.5
 11
1.48814
 21
-104.688
  0
LINE
  8
0
 10
1.48814
 20
-104.688
 11
1.45285
 21
-104.873
  0
LINE
  8
0
 10
1.45285
 20
-104.873
 11
1.39464
 21
-105.052
  0
LINE
  8
0
 10
1.39464
 20
-105.052
 11
1.31444
 21
-105.223
  0
LINE
  8
0
 10
1.31444
 20
-105.223
 11
1.2135
 21
-105.382
  0
LINE
  8
0
 10
1.2135
 20
-105.382
 11
1.09343
 21
-105.527
  0
LINE
  8
0
 10
1.09343
 20
-105.527
 11
0.956116
 21
-105.656
  0
LINE
  8
0
 10
0.956116
 20
-105.656
 11
0.803711
 21
-105.766
  0
LINE
  8
0
 10
0.803711
 20
-105.766
 11
0.638641
 21
-105.857
  0
LINE
  8
0
 10
0.638641
 20
-105.857
 11
0.463501
 21
-105.927
  0
LINE
  8
0
 10
0.463501
 20
-105.927
 11
0.281052
 21
-105.973
  0
LINE
  8
0
 10
0.281052
 20
-105.973
 11
0.094162
 21
-105.997
  0
LINE
  8
0
 10
0.094162
 20
-105.997
 11
-0.0941772
 21
-105.997
  0
LINE
  8
0
 10
104.406
 20
-105.997
 11
104.219
 21
-105.973
  0
LINE
  8
0
 10
104.219
 20
-105.973
 11
104.036
 21
-105.927
  0
LINE
  8
0
 10
104.036
 20
-105.927
 11
103.861
 21
-105.857
  0
LINE
  8
0
 10
103.861
 20
-105.857
 11
103.696
 21
-105.766
  0
LINE
  8
0
 10
103.696
 20
-105.766
 11
103.544
 21
-105.656
  0
LINE
  8
0
 10
103.544
 20
-105.656
 11
103.407
 21
-105.527
  0
LINE
  8
0
 10
103.407
 20
-105.527
 11
103.286
 21
-105.382
  0
LINE
  8
0
 10
103.286
 20
-105.382
 11
103.186
 21
-105.223
  0
LINE
  8
0
 10
103.186
 20
-105.223
 11
103.105
 21
-105.052
  0
LINE
  8
0
 10
103.105
 20
-105.052
 11
103.047
 21
-104.873
  0
LINE
  8
0
 10
103.047
 20
-104.873
 11
103.012
 21
-104.688
  0
LINE
  8
0
 10
103.012
 20
-104.688
 11
103
 21
-104.5
  0
LINE
  8
0
 10
103
 20
-104.5
 11
103.012
 21
-104.312
  0
LINE
  8
0
 10
103.012
 20
-104.312
 11
103.047
 21
-104.127
  0
LINE
  8
0
 10
103.047
 20
-104.127
 11
103.105
 21
-103.948
  0
LINE
  8
0
 10
103.105
 20
-103.948
 11
103.186
 21
-103.777
  0
LINE
  8
0
 10
103.186
 20
-103.777
 11
103.286
 21
-103.618
  0
LINE
  8
0
 10
103.286
 20
-103.618
 11
103.407
 21
-103.473
  0
LINE
  8
0
 10
103.407
 20
-103.473
 11
103.544
 21
-103.344
  0
LINE
  8
0
 10
103.544
 20
-103.344
 11
103.696
 21
-103.234
  0
LINE
  8
0
 10
103.696
 20
-103.234
 11
103.861
 21
-103.143
  0
LINE
  8
0
 10
103.861
 20
-103.143
 11
104.036
 21
-103.073
  0
LINE
  8
0
 10
104.036
 20
-103.073
 11
104.219
 21
-103.027
  0
LINE
  8
0
 10
104.219
 20
-103.027
 11
104.406
 21
-103.003
  0
LINE
  8
0
 10
104.406
 20
-103.003
 11
104.594
 21
-103.003
  0
LINE
  8
0
 10
104.594
 20
-103.003
 11
104.781
 21
-103.027
  0
LINE
  8
0
 10
104.781
 20
-103.027
 11
104.964
 21
-103.073
  0
LINE
  8
0
 10
104.964
 20
-103.073
 11
105.139
 21
-103.143
  0
LINE
  8
0
 10
105.139
 20
-103.143
 11
105.304
 21
-103.234
  0
LINE
  8
0
 10
105.304
 20
-103.234
 11
105.456
 21
-103.344
  0
LINE
  8
0
 10
105.456
 20
-103.344
 11
105.593
 21
-103.473
  0
LINE
  8
0
 10
105.593
 20
-103.473
 11
105.714
 21
-103.618
  0
LINE
  8
0
 10
105.714
 20
-103.618
 11
105.814
 21
-103.777
  0
LINE
  8
0
 10
105.814
 20
-103.777
 11
105.895
 21
-103.948
  0
LINE
  8
0
 10
105.895
 20
-103.948
 11
105.953
 21
-104.127
  0
LINE
  8
0
 10
105.953
 20
-104.127
 11
105.988
 21
-104.312
  0
LINE
  8
0
 10
105.988
 20
-104.312
 11
106
 21
-104.5
  0
LINE
  8
0
 10
106
 20
-104.5
 11
105.988
 21
-104.688
  0
LINE
  8
0
 10
105.988
 20
-104.688
 11
105.953
 21
-104.873
  0
LINE
  8
0
 10
105.953
 20
-104.873
 11
105.895
 21
-105.052
  0
LINE
  8
0
 10
105.895
 20
-105.052
 11
105.814
 21
-105.223
  0
LINE
  8
0
 10
105.814
 20
-105.223
 11
105.714
 21
-105.382
  0
LINE
  8
0
 10
105.714
 20
-105.382
 11
105.593
 21
-105.527
  0
LINE
  8
0
 10
105.593
 20
-105.527
 11
105.456
 21
-105.656
  0
LINE
  8
0
 10
105.456
 20
-105.656
 11
105.304
 21
-105.766
  0
LINE
  8
0
 10
105.304
 20
-105.766
 11
105.139
 21
-105.857
  0
LINE
  8
0
 10
105.139
 20
-105.857
 11
104.964
 21
-105.927
  0
LINE
  8
0
 10
104.964
 20
-105.927
 11
104.781
 21
-105.973
  0
LINE
  8
0
 10
104.781
 20
-105.973
 11
104.594
 21
-105.997
  0
LINE
  8
0
 10
104.594
 20
-105.997
 11
104.406
 21
-105.997
  0
LINE
  8
0
 10
-0.25116
 20
-126.992
 11
-0.749512
 21
-126.929
  0
LINE
  8
0
 10
-0.749512
 20
-126.929
 11
-1.23605
 21
-126.804
  0
LINE
  8
0
 10
-1.23605
 20
-126.804
 11
-1.70311
 21
-126.619
  0
LINE
  8
0
 10
-1.70311
 20
-126.619
 11
-2.1433
 21
-126.377
  0
LINE
  8
0
 10
-2.1433
 20
-126.377
 11
-2.54968
 21
-126.082
  0
LINE
  8
0
 10
-2.54968
 20
-126.082
 11
-2.91586
 21
-125.738
  0
LINE
  8
0
 10
-2.91586
 20
-125.738
 11
-3.23605
 21
-125.351
  0
LINE
  8
0
 10
-3.23605
 20
-125.351
 11
-3.50522
 21
-124.927
  0
LINE
  8
0
 10
-3.50522
 20
-124.927
 11
-3.7191
 21
-124.472
  0
LINE
  8
0
 10
-3.7191
 20
-124.472
 11
-3.87433
 21
-123.995
  0
LINE
  8
0
 10
-3.87433
 20
-123.995
 11
-3.96844
 21
-123.501
  0
LINE
  8
0
 10
-3.96844
 20
-123.501
 11
-4
 21
-123
  0
LINE
  8
0
 10
-4
 20
-123
 11
-3.96844
 21
-122.499
  0
LINE
  8
0
 10
-3.96844
 20
-122.499
 11
-3.87433
 21
-122.005
  0
LINE
  8
0
 10
-3.87433
 20
-122.005
 11
-3.7191
 21
-121.527
  0
LINE
  8
0
 10
-3.7191
 20
-121.527
 11
-3.50522
 21
-121.073
  0
LINE
  8
0
 10
-3.50522
 20
-121.073
 11
-3.23605
 21
-120.649
  0
LINE
  8
0
 10
-3.23605
 20
-120.649
 11
-2.91586
 21
-120.262
  0
LINE
  8
0
 10
-2.91586
 20
-120.262
 11
-2.54968
 21
-119.918
  0
LINE
  8
0
 10
-2.54968
 20
-119.918
 11
-2.1433
 21
-119.623
  0
LINE
  8
0
 10
-2.1433
 20
-119.623
 11
-1.70311
 21
-119.381
  0
LINE
  8
0
 10
-1.70311
 20
-119.381
 11
-1.23605
 21
-119.196
  0
LINE
  8
0
 10
-1.23605
 20
-119.196
 11
-0.749512
 21
-119.071
  0
LINE
  8
0
 10
-0.749512
 20
-119.071
 11
-0.25116
 21
-119.008
  0
LINE
  8
0
 10
-0.25116
 20
-119.008
 11
0.251144
 21
-119.008
  0
LINE
  8
0
 10
0.251144
 20
-119.008
 11
0.749496
 21
-119.071
  0
LINE
  8
0
 10
0.749496
 20
-119.071
 11
1.23604
 21
-119.196
  0
LINE
  8
0
 10
1.23604
 20
-119.196
 11
1.70309
 21
-119.381
  0
LINE
  8
0
 10
1.70309
 20
-119.381
 11
2.14328
 21
-119.623
  0
LINE
  8
0
 10
2.14328
 20
-119.623
 11
2.54967
 21
-119.918
  0
LINE
  8
0
 10
2.54967
 20
-119.918
 11
2.91585
 21
-120.262
  0
LINE
  8
0
 10
2.91585
 20
-120.262
 11
3.23604
 21
-120.649
  0
LINE
  8
0
 10
3.23604
 20
-120.649
 11
3.5052
 21
-121.073
  0
LINE
  8
0
 10
3.5052
 20
-121.073
 11
3.71909
 21
-121.527
  0
LINE
  8
0
 10
3.71909
 20
-121.527
 11
3.87431
 21
-122.005
  0
LINE
  8
0
 10
3.87431
 20
-122.005
 11
3.96843
 21
-122.499
  0
LINE
  8
0
 10
3.96843
 20
-122.499
 11
3.99998
 21
-123
  0
LINE
  8
0
 10
3.99998
 20
-123
 11
3.96843
 21
-123.501
  0
LINE
  8
0
 10
3.96843
 20
-123.501
 11
3.87431
 21
-123.995
  0
LINE
  8
0
 10
3.87431
 20
-123.995
 11
3.71909
 21
-124.472
  0
LINE
  8
0
 10
3.71909
 20
-124.472
 11
3.5052
 21
-124.927
  0
LINE
  8
0
 10
3.5052
 20
-124.927
 11
3.23604
 21
-125.351
  0
LINE
  8
0
 10
3.23604
 20
-125.351
 11
2.91585
 21
-125.738
  0
LINE
  8
0
 10
2.91585
 20
-125.738
 11
2.54967
 21
-126.082
  0
LINE
  8
0
 10
2.54967
 20
-126.082
 11
2.14328
 21
-126.377
  0
LINE
  8
0
 10
2.14328
 20
-126.377
 11
1.70309
 21
-126.619
  0
LINE
  8
0
 10
1.70309
 20
-126.619
 11
1.23604
 21
-126.804
  0
LINE
  8
0
 10
1.23604
 20
-126.804
 11
0.749496
 21
-126.929
  0
LINE
  8
0
 10
0.749496
 20
-126.929
 11
0.251144
 21
-126.992
  0
LINE
  8
0
 10
0.251144
 20
-126.992
 11
-0.25116
 21
-126.992
  0
LINE
  8
0
 10
50.9058
 20
-161.497
 11
50.7189
 21
-161.473
  0
LINE
  8
0
 10
50.7189
 20
-161.473
 11
50.5365
 21
-161.427
  0
LINE
  8
0
 10
50.5365
 20
-161.427
 11
50.3613
 21
-161.357
  0
LINE
  8
0
 10
50.3613
 20
-161.357
 11
50.1963
 21
-161.266
  0
LINE
  8
0
 10
50.1963
 20
-161.266
 11
50.0439
 21
-161.156
  0
LINE
  8
0
 10
50.0439
 20
-161.156
 11
49.9066
 21
-161.027
  0
LINE
  8
0
 10
49.9066
 20
-161.027
 11
49.7865
 21
-160.882
  0
LINE
  8
0
 10
49.7865
 20
-160.882
 11
49.6855
 21
-160.723
  0
LINE
  8
0
 10
49.6855
 20
-160.723
 11
49.6053
 21
-160.552
  0
LINE
  8
0
 10
49.6053
 20
-160.552
 11
49.5471
 21
-160.373
  0
LINE
  8
0
 10
49.5471
 20
-160.373
 11
49.5118
 21
-160.188
  0
LINE
  8
0
 10
49.5118
 20
-160.188
 11
49.5
 21
-160
  0
LINE
  8
0
 10
49.5
 20
-160
 11
49.5118
 21
-159.812
  0
LINE
  8
0
 10
49.5118
 20
-159.812
 11
49.5471
 21
-159.627
  0
LINE
  8
0
 10
49.5471
 20
-159.627
 11
49.6053
 21
-159.448
  0
LINE
  8
0
 10
49.6053
 20
-159.448
 11
49.6855
 21
-159.277
  0
LINE
  8
0
 10
49.6855
 20
-159.277
 11
49.7865
 21
-159.118
  0
LINE
  8
0
 10
49.7865
 20
-159.118
 11
49.9066
 21
-158.973
  0
LINE
  8
0
 10
49.9066
 20
-158.973
 11
50.0439
 21
-158.844
  0
LINE
  8
0
 10
50.0439
 20
-158.844
 11
50.1963
 21
-158.734
  0
LINE
  8
0
 10
50.1963
 20
-158.734
 11
50.3613
 21
-158.643
  0
LINE
  8
0
 10
50.3613
 20
-158.643
 11
50.5365
 21
-158.573
  0
LINE
  8
0
 10
50.5365
 20
-158.573
 11
50.7189
 21
-158.527
  0
LINE
  8
0
 10
50.7189
 20
-158.527
 11
50.9058
 21
-158.503
  0
LINE
  8
0
 10
50.9058
 20
-158.503
 11
59.0942
 21
-158.503
  0
LINE
  8
0
 10
59.0942
 20
-158.503
 11
59.2811
 21
-158.527
  0
LINE
  8
0
 10
59.2811
 20
-158.527
 11
59.4635
 21
-158.573
  0
LINE
  8
0
 10
59.4635
 20
-158.573
 11
59.6387
 21
-158.643
  0
LINE
  8
0
 10
59.6387
 20
-158.643
 11
59.8037
 21
-158.734
  0
LINE
  8
0
 10
59.8037
 20
-158.734
 11
59.9561
 21
-158.844
  0
LINE
  8
0
 10
59.9561
 20
-158.844
 11
60.0935
 21
-158.973
  0
LINE
  8
0
 10
60.0935
 20
-158.973
 11
60.2135
 21
-159.118
  0
LINE
  8
0
 10
60.2135
 20
-159.118
 11
60.3145
 21
-159.277
  0
LINE
  8
0
 10
60.3145
 20
-159.277
 11
60.3947
 21
-159.448
  0
LINE
  8
0
 10
60.3947
 20
-159.448
 11
60.4529
 21
-159.627
  0
LINE
  8
0
 10
60.4529
 20
-159.627
 11
60.4882
 21
-159.812
  0
LINE
  8
0
 10
60.4882
 20
-159.812
 11
60.5
 21
-160
  0
LINE
  8
0
 10
60.5
 20
-160
 11
60.4882
 21
-160.188
  0
LINE
  8
0
 10
60.4882
 20
-160.188
 11
60.4529
 21
-160.373
  0
LINE
  8
0
 10
60.4529
 20
-160.373
 11
60.3947
 21
-160.552
  0
LINE
  8
0
 10
60.3947
 20
-160.552
 11
60.3145
 21
-160.723
  0
LINE
  8
0
 10
60.3145
 20
-160.723
 11
60.2135
 21
-160.882
  0
LINE
  8
0
 10
60.2135
 20
-160.882
 11
60.0935
 21
-161.027
  0
LINE
  8
0
 10
60.0935
 20
-161.027
 11
59.9561
 21
-161.156
  0
LINE
  8
0
 10
59.9561
 20
-161.156
 11
59.8037
 21
-161.266
  0
LINE
  8
0
 10
59.8037
 20
-161.266
 11
59.6387
 21
-161.357
  0
LINE
  8
0
 10
59.6387
 20
-161.357
 11
59.4635
 21
-161.427
  0
LINE
  8
0
 10
59.4635
 20
-161.427
 11
59.2811
 21
-161.473
  0
LINE
  8
0
 10
59.2811
 20
-161.473
 11
59.0942
 21
-161.497
  0
LINE
  8
0
 10
59.0942
 20
-161.497
 11
50.9058
 21
-161.497
  0
LINE
  8
0
 10
69.9058
 20
-161.497
 11
69.7189
 21
-161.473
  0
LINE
  8
0
 10
69.7189
 20
-161.473
 11
69.5365
 21
-161.427
  0
LINE
  8
0
 10
69.5365
 20
-161.427
 11
69.3613
 21
-161.357
  0
LINE
  8
0
 10
69.3613
 20
-161.357
 11
69.1963
 21
-161.266
  0
LINE
  8
0
 10
69.1963
 20
-161.266
 11
69.0439
 21
-161.156
  0
LINE
  8
0
 10
69.0439
 20
-161.156
 11
68.9066
 21
-161.027
  0
LINE
  8
0
 10
68.9066
 20
-161.027
 11
68.7865
 21
-160.882
  0
LINE
  8
0
 10
68.7865
 20
-160.882
 11
68.6855
 21
-160.723
  0
LINE
  8
0
 10
68.6855
 20
-160.723
 11
68.6053
 21
-160.552
  0
LINE
  8
0
 10
68.6053
 20
-160.552
 11
68.5471
 21
-160.373
  0
LINE
  8
0
 10
68.5471
 20
-160.373
 11
68.5118
 21
-160.188
  0
LINE
  8
0
 10
68.5118
 20
-160.188
 11
68.5
 21
-160
  0
LINE
  8
0
 10
68.5
 20
-160
 11
68.5118
 21
-159.812
  0
LINE
  8
0
 10
68.5118
 20
-159.812
 11
68.5471
 21
-159.627
  0
LINE
  8
0
 10
68.5471
 20
-159.627
 11
68.6053
 21
-159.448
  0
LINE
  8
0
 10
68.6053
 20
-159.448
 11
68.6855
 21
-159.277
  0
LINE
  8
0
 10
68.6855
 20
-159.277
 11
68.7865
 21
-159.118
  0
LINE
  8
0
 10
68.7865
 20
-159.118
 11
68.9066
 21
-158.973
  0
LINE
  8
0
 10
68.9066
 20
-158.973
 11
69.0439
 21
-158.844
  0
LINE
  8
0
 10
69.0439
 20
-158.844
 11
69.1963
 21
-158.734
  0
LINE
  8
0
 10
69.1963
 20
-158.734
 11
69.3613
 21
-158.643
  0
LINE
  8
0
 10
69.3613
 20
-158.643
 11
69.5365
 21
-158.573
  0
LINE
  8
0
 10
69.5365
 20
-158.573
 11
69.7189
 21
-158.527
  0
LINE
  8
0
 10
69.7189
 20
-158.527
 11
69.9058
 21
-158.503
  0
LINE
  8
0
 10
69.9058
 20
-158.503
 11
78.0942
 21
-158.503
  0
LINE
  8
0
 10
78.0942
 20
-158.503
 11
78.2811
 21
-158.527
  0
LINE
  8
0
 10
78.2811
 20
-158.527
 11
78.4635
 21
-158.573
  0
LINE
  8
0
 10
78.4635
 20
-158.573
 11
78.6387
 21
-158.643
  0
LINE
  8
0
 10
78.6387
 20
-158.643
 11
78.8037
 21
-158.734
  0
LINE
  8
0
 10
78.8037
 20
-158.734
 11
78.9561
 21
-158.844
  0
LINE
  8
0
 10
78.9561
 20
-158.844
 11
79.0934
 21
-158.973
  0
LINE
  8
0
 10
79.0934
 20
-158.973
 11
79.2135
 21
-159.118
  0
LINE
  8
0
 10
79.2135
 20
-159.118
 11
79.3145
 21
-159.277
  0
LINE
  8
0
 10
79.3145
 20
-159.277
 11
79.3947
 21
-159.448
  0
LINE
  8
0
 10
79.3947
 20
-159.448
 11
79.4529
 21
-159.627
  0
LINE
  8
0
 10
79.4529
 20
-159.627
 11
79.4882
 21
-159.812
  0
LINE
  8
0
 10
79.4882
 20
-159.812
 11
79.5
 21
-160
  0
LINE
  8
0
 10
79.5
 20
-160
 11
79.4882
 21
-160.188
  0
LINE
  8
0
 10
79.4882
 20
-160.188
 11
79.4529
 21
-160.373
  0
LINE
  8
0
 10
79.4529
 20
-160.373
 11
79.3947
 21
-160.552
  0
LINE
  8
0
 10
79.3947
 20
-160.552
 11
79.3145
 21
-160.723
  0
LINE
  8
0
 10
79.3145
 20
-160.723
 11
79.2135
 21
-160.882
  0
LINE
  8
0
 10
79.2135
 20
-160.882
 11
79.0934
 21
-161.027
  0
LINE
  8
0
 10
79.0934
 20
-161.027
 11
78.9561
 21
-161.156
  0
LINE
  8
0
 10
78.9561
 20
-161.156
 11
78.8037
 21
-161.266
  0
LINE
  8
0
 10
78.8037
 20
-161.266
 11
78.6387
 21
-161.357
  0
LINE
  8
0
 10
78.6387
 20
-161.357
 11
78.4635
 21
-161.427
  0
LINE
  8
0
 10
78.4635
 20
-161.427
 11
78.2811
 21
-161.473
  0
LINE
  8
0
 10
78.2811
 20
-161.473
 11
78.0942
 21
-161.497
  0
LINE
  8
0
 10
78.0942
 20
-161.497
 11
69.9058
 21
-161.497
  0
LINE
  8
0
 10
115.906
 20
-161.497
 11
115.719
 21
-161.473
  0
LINE
  8
0
 10
115.719
 20
-161.473
 11
115.536
 21
-161.427
  0
LINE
  8
0
 10
115.536
 20
-161.427
 11
115.361
 21
-161.357
  0
LINE
  8
0
 10
115.361
 20
-161.357
 11
115.196
 21
-161.266
  0
LINE
  8
0
 10
115.196
 20
-161.266
 11
115.044
 21
-161.156
  0
LINE
  8
0
 10
115.044
 20
-161.156
 11
114.907
 21
-161.027
  0
LINE
  8
0
 10
114.907
 20
-161.027
 11
114.786
 21
-160.882
  0
LINE
  8
0
 10
114.786
 20
-160.882
 11
114.686
 21
-160.723
  0
LINE
  8
0
 10
114.686
 20
-160.723
 11
114.605
 21
-160.552
  0
LINE
  8
0
 10
114.605
 20
-160.552
 11
114.547
 21
-160.373
  0
LINE
  8
0
 10
114.547
 20
-160.373
 11
114.512
 21
-160.188
  0
LINE
  8
0
 10
114.512
 20
-160.188
 11
114.5
 21
-160
  0
LINE
  8
0
 10
114.5
 20
-160
 11
114.512
 21
-159.812
  0
LINE
  8
0
 10
114.512
 20
-159.812
 11
114.547
 21
-159.627
  0
LINE
  8
0
 10
114.547
 20
-159.627
 11
114.605
 21
-159.448
  0
LINE
  8
0
 10
114.605
 20
-159.448
 11
114.686
 21
-159.277
  0
LINE
  8
0
 10
114.686
 20
-159.277
 11
114.786
 21
-159.118
  0
LINE
  8
0
 10
114.786
 20
-159.118
 11
114.907
 21
-158.973
  0
LINE
  8
0
 10
114.907
 20
-158.973
 11
115.044
 21
-158.844
  0
LINE
  8
0
 10
115.044
 20
-158.844
 11
115.196
 21
-158.734
  0
LINE
  8
0
 10
115.196
 20
-158.734
 11
115.361
 21
-158.643
  0
LINE
  8
0
 10
115.361
 20
-158.643
 11
115.536
 21
-158.573
  0
LINE
  8
0
 10
115.536
 20
-158.573
 11
115.719
 21
-158.527
  0
LINE
  8
0
 10
115.719
 20
-158.527
 11
115.906
 21
-158.503
  0
LINE
  8
0
 10
115.906
 20
-158.503
 11
124.094
 21
-158.503
  0
LINE
  8
0
 10
124.094
 20
-158.503
 11
124.281
 21
-158.527
  0
LINE
  8
0
 10
124.281
 20
-158.527
 11
124.464
 21
-158.573
  0
LINE
  8
0
 10
124.464
 20
-158.573
 11
124.639
 21
-158.643
  0
LINE
  8
0
 10
124.639
 20
-158.643
 11
124.804
 21
-158.734
  0
LINE
  8
0
 10
124.804
 20
-158.734
 11
124.956
 21
-158.844
  0
LINE
  8
0
 10
124.956
 20
-158.844
 11
125.093
 21
-158.973
  0
LINE
  8
0
 10
125.093
 20
-158.973
 11
125.214
 21
-159.118
  0
LINE
  8
0
 10
125.214
 20
-159.118
 11
125.314
 21
-159.277
  0
LINE
  8
0
 10
125.314
 20
-159.277
 11
125.395
 21
-159.448
  0
LINE
  8
0
 10
125.395
 20
-159.448
 11
125.453
 21
-159.627
  0
LINE
  8
0
 10
125.453
 20
-159.627
 11
125.488
 21
-159.812
  0
LINE
  8
0
 10
125.488
 20
-159.812
 11
125.5
 21
-160
  0
LINE
  8
0
 10
125.5
 20
-160
 11
125.488
 21
-160.188
  0
LINE
  8
0
 10
125.488
 20
-160.188
 11
125.453
 21
-160.373
  0
LINE
  8
0
 10
125.453
 20
-160.373
 11
125.395
 21
-160.552
  0
LINE
  8
0
 10
125.395
 20
-160.552
 11
125.314
 21
-160.723
  0
LINE
  8
0
 10
125.314
 20
-160.723
 11
125.214
 21
-160.882
  0
LINE
  8
0
 10
125.214
 20
-160.882
 11
125.093
 21
-161.027
  0
LINE
  8
0
 10
125.093
 20
-161.027
 11
124.956
 21
-161.156
  0
LINE
  8
0
 10
124.956
 20
-161.156
 11
124.804
 21
-161.266
  0
LINE
  8
0
 10
124.804
 20
-161.266
 11
124.639
 21
-161.357
  0
LINE
  8
0
 10
124.639
 20
-161.357
 11
124.464
 21
-161.427
  0
LINE
  8
0
 10
124.464
 20
-161.427
 11
124.281
 21
-161.473
  0
LINE
  8
0
 10
124.281
 20
-161.473
 11
124.094
 21
-161.497
  0
LINE
  8
0
 10
124.094
 20
-161.497
 11
115.906
 21
-161.497
  0
LINE
  8
0
 10
-59.0942
 20
-161.497
 11
-59.2811
 21
-161.473
  0
LINE
  8
0
 10
-59.2811
 20
-161.473
 11
-59.4635
 21
-161.427
  0
LINE
  8
0
 10
-59.4635
 20
-161.427
 11
-59.6387
 21
-161.357
  0
LINE
  8
0
 10
-59.6387
 20
-161.357
 11
-59.8037
 21
-161.266
  0
LINE
  8
0
 10
-59.8037
 20
-161.266
 11
-59.9561
 21
-161.156
  0
LINE
  8
0
 10
-59.9561
 20
-161.156
 11
-60.0935
 21
-161.027
  0
LINE
  8
0
 10
-60.0935
 20
-161.027
 11
-60.2135
 21
-160.882
  0
LINE
  8
0
 10
-60.2135
 20
-160.882
 11
-60.3145
 21
-160.723
  0
LINE
  8
0
 10
-60.3145
 20
-160.723
 11
-60.3947
 21
-160.552
  0
LINE
  8
0
 10
-60.3947
 20
-160.552
 11
-60.4529
 21
-160.373
  0
LINE
  8
0
 10
-60.4529
 20
-160.373
 11
-60.4882
 21
-160.188
  0
LINE
  8
0
 10
-60.4882
 20
-160.188
 11
-60.5
 21
-160
  0
LINE
  8
0
 10
-60.5
 20
-160
 11
-60.4882
 21
-159.812
  0
LINE
  8
0
 10
-60.4882
 20
-159.812
 11
-60.4529
 21
-159.627
  0
LINE
  8
0
 10
-60.4529
 20
-159.627
 11
-60.3947
 21
-159.448
  0
LINE
  8
0
 10
-60.3947
 20
-159.448
 11
-60.3145
 21
-159.277
  0
LINE
  8
0
 10
-60.3145
 20
-159.277
 11
-60.2135
 21
-159.118
  0
LINE
  8
0
 10
-60.2135
 20
-159.118
 11
-60.0935
 21
-158.973
  0
LINE
  8
0
 10
-60.0935
 20
-158.973
 11
-59.9561
 21
-158.844
  0
LINE
  8
0
 10
-59.9561
 20
-158.844
 11
-59.8037
 21
-158.734
  0
LINE
  8
0
 10
-59.8037
 20
-158.734
 11
-59.6387
 21
-158.643
  0
LINE
  8
0
 10
-59.6387
 20
-158.643
 11
-59.4635
 21
-158.573
  0
LINE
  8
0
 10
-59.4635
 20
-158.573
 11
-59.2811
 21
-158.527
  0
LINE
  8
0
 10
-59.2811
 20
-158.527
 11
-59.0942
 21
-158.503
  0
LINE
  8
0
 10
-59.0942
 20
-158.503
 11
-50.9058
 21
-158.503
  0
LINE
  8
0
 10
-50.9058
 20
-158.503
 11
-50.7189
 21
-158.527
  0
LINE
  8
0
 10
-50.7189
 20
-158.527
 11
-50.5365
 21
-158.573
  0
LINE
  8
0
 10
-50.5365
 20
-158.573
 11
-50.3613
 21
-158.643
  0
LINE
  8
0
 10
-50.3613
 20
-158.643
 11
-50.1963
 21
-158.734
  0
LINE
  8
0
 10
-50.1963
 20
-158.734
 11
-50.0439
 21
-158.844
  0
LINE
  8
0
 10
-50.0439
 20
-158.844
 11
-49.9066
 21
-158.973
  0
LINE
  8
0
 10
-49.9066
 20
-158.973
 11
-49.7865
 21
-159.118
  0
LINE
  8
0
 10
-49.7865
 20
-159.118
 11
-49.6855
 21
-159.277
  0
LINE
  8
0
 10
-49.6855
 20
-159.277
 11
-49.6053
 21
-159.448
  0
LINE
  8
0
 10
-49.6053
 20
-159.448
 11
-49.5471
 21
-159.627
  0
LINE
  8
0
 10
-49.5471
 20
-159.627
 11
-49.5118
 21
-159.812
  0
LINE
  8
0
 10
-49.5118
 20
-159.812
 11
-49.5
 21
-160
  0
LINE
  8
0
 10
-49.5
 20
-160
 11
-49.5118
 21
-160.188
  0
LINE
  8
0
 10
-49.5118
 20
-160.188
 11
-49.5471
 21
-160.373
  0
LINE
  8
0
 10
-49.5471
 20
-160.373
 11
-49.6053
 21
-160.552
  0
LINE
  8
0
 10
-49.6053
 20
-160.552
 11
-49.6855
 21
-160.723
  0
LINE
  8
0
 10
-49.6855
 20
-160.723
 11
-49.7865
 21
-160.882
  0
LINE
  8
0
 10
-49.7865
 20
-160.882
 11
-49.9066
 21
-161.027
  0
LINE
  8
0
 10
-49.9066
 20
-161.027
 11
-50.0439
 21
-161.156
  0
LINE
  8
0
 10
-50.0439
 20
-161.156
 11
-50.1963
 21
-161.266
  0
LINE
  8
0
 10
-50.1963
 20
-161.266
 11
-50.3613
 21
-161.357
  0
LINE
  8
0
 10
-50.3613
 20
-161.357
 11
-50.5365
 21
-161.427
  0
LINE
  8
0
 10
-50.5365
 20
-161.427
 11
-50.7189
 21
-161.473
  0
LINE
  8
0
 10
-50.7189
 20
-161.473
 11
-50.9058
 21
-161.497
  0
LINE
  8
0
 10
-50.9058
 20
-161.497
 11
-59.0942
 21
-161.497
  0
LINE
  8
0
 10
-78.0942
 20
-161.497
 11
-78.2811
 21
-161.473
  0
LINE
  8
0
 10
-78.2811
 20
-161.473
 11
-78.4635
 21
-161.427
  0
LINE
  8
0
 10
-78.4635
 20
-161.427
 11
-78.6387
 21
-161.357
  0
LINE
  8
0
 10
-78.6387
 20
-161.357
 11
-78.8037
 21
-161.266
  0
LINE
  8
0
 10
-78.8037
 20
-161.266
 11
-78.9561
 21
-161.156
  0
LINE
  8
0
 10
-78.9561
 20
-161.156
 11
-79.0934
 21
-161.027
  0
LINE
  8
0
 10
-79.0934
 20
-161.027
 11
-79.2135
 21
-160.882
  0
LINE
  8
0
 10
-79.2135
 20
-160.882
 11
-79.3145
 21
-160.723
  0
LINE
  8
0
 10
-79.3145
 20
-160.723
 11
-79.3947
 21
-160.552
  0
LINE
  8
0
 10
-79.3947
 20
-160.552
 11
-79.4529
 21
-160.373
  0
LINE
  8
0
 10
-79.4529
 20
-160.373
 11
-79.4882
 21
-160.188
  0
LINE
  8
0
 10
-79.4882
 20
-160.188
 11
-79.5
 21
-160
  0
LINE
  8
0
 10
-79.5
 20
-160
 11
-79.4882
 21
-159.812
  0
LINE
  8
0
 10
-79.4882
 20
-159.812
 11
-79.4529
 21
-159.627
  0
LINE
  8
0
 10
-79.4529
 20
-159.627
 11
-79.3947
 21
-159.448
  0
LINE
  8
0
 10
-79.3947
 20
-159.448
 11
-79.3145
 21
-159.277
  0
LINE
  8
0
 10
-79.3145
 20
-159.277
 11
-79.2135
 21
-159.118
  0
LINE
  8
0
 10
-79.2135
 20
-159.118
 11
-79.0934
 21
-158.973
  0
LINE
  8
0
 10
-79.0934
 20
-158.973
 11
-78.9561
 21
-158.844
  0
LINE
  8
0
 10
-78.9561
 20
-158.844
 11
-78.8037
 21
-158.734
  0
LINE
  8
0
 10
-78.8037
 20
-158.734
 11
-78.6387
 21
-158.643
  0
LINE
  8
0
 10
-78.6387
 20
-158.643
 11
-78.4635
 21
-158.573
  0
LINE
  8
0
 10
-78.4635
 20
-158.573
 11
-78.2811
 21
-158.527
  0
LINE
  8
0
 10
-78.2811
 20
-158.527
 11
-78.0942
 21
-158.503
  0
LINE
  8
0
 10
-78.0942
 20
-158.503
 11
-69.9058
 21
-158.503
  0
LINE
  8
0
 10
-69.9058
 20
-158.503
 11
-69.7189
 21
-158.527
  0
LINE
  8
0
 10
-69.7189
 20
-158.527
 11
-69.5365
 21
-158.573
  0
LINE
  8
0
 10
-69.5365
 20
-158.573
 11
-69.3613
 21
-158.643
  0
LINE
  8
0
 10
-69.3613
 20
-158.643
 11
-69.1963
 21
-158.734
  0
LINE
  8
0
 10
-69.1963
 20
-158.734
 11
-69.0439
 21
-158.844
  0
LINE
  8
0
 10
-69.0439
 20
-158.844
 11
-68.9066
 21
-158.973
  0
LINE
  8
0
 10
-68.9066
 20
-158.973
 11
-68.7865
 21
-159.118
  0
LINE
  8
0
 10
-68.7865
 20
-159.118
 11
-68.6855
 21
-159.277
  0
LINE
  8
0
 10
-68.6855
 20
-159.277
 11
-68.6053
 21
-159.448
  0
LINE
  8
0
 10
-68.6053
 20
-159.448
 11
-68.5471
 21
-159.627
  0
LINE
  8
0
 10
-68.5471
 20
-159.627
 11
-68.5118
 21
-159.812
  0
LINE
  8
0
 10
-68.5118
 20
-159.812
 11
-68.5
 21
-160
  0
LINE
  8
0
 10
-68.5
 20
-160
 11
-68.5118
 21
-160.188
  0
LINE
  8
0
 10
-68.5118
 20
-160.188
 11
-68.5471
 21
-160.373
  0
LINE
  8
0
 10
-68.5471
 20
-160.373
 11
-68.6053
 21
-160.552
  0
LINE
  8
0
 10
-68.6053
 20
-160.552
 11
-68.6855
 21
-160.723
  0
LINE
  8
0
 10
-68.6855
 20
-160.723
 11
-68.7865
 21
-160.882
  0
LINE
  8
0
 10
-68.7865
 20
-160.882
 11
-68.9066
 21
-161.027
  0
LINE
  8
0
 10
-68.9066
 20
-161.027
 11
-69.0439
 21
-161.156
  0
LINE
  8
0
 10
-69.0439
 20
-161.156
 11
-69.1963
 21
-161.266
  0
LINE
  8
0
 10
-69.1963
 20
-161.266
 11
-69.3613
 21
-161.357
  0
LINE
  8
0
 10
-69.3613
 20
-161.357
 11
-69.5365
 21
-161.427
  0
LINE
  8
0
 10
-69.5365
 20
-161.427
 11
-69.7189
 21
-161.473
  0
LINE
  8
0
 10
-69.7189
 20
-161.473
 11
-69.9058
 21
-161.497
  0
LINE
  8
0
 10
-69.9058
 20
-161.497
 11
-78.0942
 21
-161.497
  0
LINE
  8
0
 10
-124.094
 20
-161.497
 11
-124.281
 21
-161.473
  0
LINE
  8
0
 10
-124.281
 20
-161.473
 11
-124.464
 21
-161.427
  0
LINE
  8
0
 10
-124.464
 20
-161.427
 11
-124.639
 21
-161.357
  0
LINE
  8
0
 10
-124.639
 20
-161.357
 11
-124.804
 21
-161.266
  0
LINE
  8
0
 10
-124.804
 20
-161.266
 11
-124.956
 21
-161.156
  0
LINE
  8
0
 10
-124.956
 20
-161.156
 11
-125.093
 21
-161.027
  0
LINE
  8
0
 10
-125.093
 20
-161.027
 11
-125.214
 21
-160.882
  0
LINE
  8
0
 10
-125.214
 20
-160.882
 11
-125.314
 21
-160.723
  0
LINE
  8
0
 10
-125.314
 20
-160.723
 11
-125.395
 21
-160.552
  0
LINE
  8
0
 10
-125.395
 20
-160.552
 11
-125.453
 21
-160.373
  0
LINE
  8
0
 10
-125.453
 20
-160.373
 11
-125.488
 21
-160.188
  0
LINE
  8
0
 10
-125.488
 20
-160.188
 11
-125.5
 21
-160
  0
LINE
  8
0
 10
-125.5
 20
-160
 11
-125.488
 21
-159.812
  0
LINE
  8
0
 10
-125.488
 20
-159.812
 11
-125.453
 21
-159.627
  0
LINE
  8
0
 10
-125.453
 20
-159.627
 11
-125.395
 21
-159.448
  0
LINE
  8
0
 10
-125.395
 20
-159.448
 11
-125.314
 21
-159.277
  0
LINE
  8
0
 10
-125.314
 20
-159.277
 11
-125.214
 21
-159.118
  0
LINE
  8
0
 10
-125.214
 20
-159.118
 11
-125.093
 21
-158.973
  0
LINE
  8
0
 10
-125.093
 20
-158.973
 11
-124.956
 21
-158.844
  0
LINE
  8
0
 10
-124.956
 20
-158.844
 11
-124.804
 21
-158.734
  0
LINE
  8
0
 10
-124.804
 20
-158.734
 11
-124.639
 21
-158.643
  0
LINE
  8
0
 10
-124.639
 20
-158.643
 11
-124.464
 21
-158.573
  0
LINE
  8
0
 10
-124.464
 20
-158.573
 11
-124.281
 21
-158.527
  0
LINE
  8
0
 10
-124.281
 20
-158.527
 11
-124.094
 21
-158.503
  0
LINE
  8
0
 10
-124.094
 20
-158.503
 11
-115.906
 21
-158.503
  0
LINE
  8
0
 10
-115.906
 20
-158.503
 11
-115.719
 21
-158.527
  0
LINE
  8
0
 10
-115.719
 20
-158.527
 11
-115.536
 21
-158.573
  0
LINE
  8
0
 10
-115.536
 20
-158.573
 11
-115.361
 21
-158.643
  0
LINE
  8
0
 10
-115.361
 20
-158.643
 11
-115.196
 21
-158.734
  0
LINE
  8
0
 10
-115.196
 20
-158.734
 11
-115.044
 21
-158.844
  0
LINE
  8
0
 10
-115.044
 20
-158.844
 11
-114.907
 21
-158.973
  0
LINE
  8
0
 10
-114.907
 20
-158.973
 11
-114.786
 21
-159.118
  0
LINE
  8
0
 10
-114.786
 20
-159.118
 11
-114.686
 21
-159.277
  0
LINE
  8
0
 10
-114.686
 20
-159.277
 11
-114.605
 21
-159.448
  0
LINE
  8
0
 10
-114.605
 20
-159.448
 11
-114.547
 21
-159.627
  0
LINE
  8
0
 10
-114.547
 20
-159.627
 11
-114.512
 21
-159.812
  0
LINE
  8
0
 10
-114.512
 20
-159.812
 11
-114.5
 21
-160
  0
LINE
  8
0
 10
-114.5
 20
-160
 11
-114.512
 21
-160.188
  0
LINE
  8
0
 10
-114.512
 20
-160.188
 11
-114.547
 21
-160.373
  0
LINE
  8
0
 10
-114.547
 20
-160.373
 11
-114.605
 21
-160.552
  0
LINE
  8
0
 10
-114.605
 20
-160.552
 11
-114.686
 21
-160.723
  0
LINE
  8
0
 10
-114.686
 20
-160.723
 11
-114.786
 21
-160.882
  0
LINE
  8
0
 10
-114.786
 20
-160.882
 11
-114.907
 21
-161.027
  0
LINE
  8
0
 10
-114.907
 20
-161.027
 11
-115.044
 21
-161.156
  0
LINE
  8
0
 10
-115.044
 20
-161.156
 11
-115.196
 21
-161.266
  0
LINE
  8
0
 10
-115.196
 20
-161.266
 11
-115.361
 21
-161.357
  0
LINE
  8
0
 10
-115.361
 20
-161.357
 11
-115.536
 21
-161.427
  0
LINE
  8
0
 10
-115.536
 20
-161.427
 11
-115.719
 21
-161.473
  0
LINE
  8
0
 10
-115.719
 20
-161.473
 11
-115.906
 21
-161.497
  0
LINE
  8
0
 10
-115.906
 20
-161.497
 11
-124.094
 21
-161.497
  0
ENDSEC
  0
SECTION
  2
OBJECTS
  0
DICTIONARY
  0
ENDSEC
  0
EOF
